<svg width="240" height="257" viewBox="0 0 240 257" fill="none" xmlns="http://www.w3.org/2000/svg">
<path d="M13.6769 228.836H25.8686V237.385H19.3893V235.353H13.6769V239.417H25.8686V249.193C25.8686 252.797 22.9548 255.673 19.3893 255.673H7.19763V247.545H13.6769V249.193H19.3893V245.935H13.6769C10.073 245.935 7.19763 243.021 7.19763 239.417V235.353C7.19763 231.749 10.073 228.836 13.6769 228.836ZM40.5885 228.836C44.154 228.836 47.0677 231.749 47.0677 235.353V255.673H40.5885V245.935H34.876V255.673H28.3968V228.836H40.5885ZM34.876 239.417H40.5885V235.353H34.876V239.417ZM61.817 228.836H68.2963V255.673H61.817L56.1046 243.174V255.673H49.6253V228.836C53.5742 228.836 57.1781 231.174 58.7883 234.778L61.817 241.372V228.836ZM85.7257 235.353H77.4829V239.417H84.0004V245.935H77.4829V249.193H89.6746V255.673H71.0036V228.836H89.6746V231.404C89.6746 233.59 87.911 235.353 85.7257 235.353ZM103.675 228.836C107.241 228.836 110.154 231.749 110.154 235.353V255.673H103.675V245.935H97.9626V255.673H91.4834V228.836H103.675ZM97.9626 239.417H103.675V235.353H97.9626V239.417ZM141.292 241.142C142.596 242.331 143.401 244.018 143.401 245.935V249.193C143.401 252.797 140.487 255.673 136.922 255.673H124.73V228.836H135.273C138.877 228.836 141.791 231.749 141.791 235.353V238.612C141.791 239.494 141.599 240.337 141.292 241.142ZM131.209 235.353V239.417H135.273V235.353H131.209ZM131.209 249.193H136.922V245.935H131.209V249.193ZM158.663 255.673L154.561 245.935H151.839V255.673H145.36V228.836H155.903C159.507 228.836 162.42 231.749 162.42 235.353V239.417C162.42 241.296 161.615 242.983 160.388 244.133L165.334 255.673H158.663ZM151.839 235.353V239.417H155.903V235.353H151.839ZM178.78 228.836C182.345 228.836 185.259 231.749 185.259 235.353V255.673H178.78V245.935H173.067V255.673H166.588V228.836H178.78ZM173.067 239.417H178.78V235.353H173.067V239.417ZM193.951 228.836H206.143V237.385H199.663V235.353H193.951V239.417H206.143V249.193C206.143 252.797 203.229 255.673 199.663 255.673H187.472V247.545H193.951V249.193H199.663V245.935H193.951C190.347 245.935 187.472 243.021 187.472 239.417V235.353C187.472 231.749 190.347 228.836 193.951 228.836ZM212.85 228.836H215.073V255.673H208.594V233.129C208.594 230.752 210.473 228.836 212.85 228.836ZM224.132 249.193H233.87V255.673H217.653V235.353C217.653 231.749 220.528 228.836 224.132 228.836V249.193Z" fill="white"/>
<g filter="url(#filter0_d_788_3)">
<path d="M24.3508 92.296C45.5073 113.267 79.8111 113.267 100.968 92.296C101.002 92.2615 101.037 92.2235 101.072 92.1855L24.4588 16.2443C24.424 16.2788 24.3856 16.3133 24.3473 16.3479C3.19087 37.3187 3.19087 71.3217 24.3473 92.2926L24.3508 92.296Z" fill="#EF802E"/>
<path d="M100.772 15.7281C79.8016 -5.24272 45.7986 -5.24272 24.8277 15.7281C24.7932 15.7627 24.7587 15.8007 24.7241 15.8387L100.665 91.7799C100.7 91.7454 100.738 91.7108 100.776 91.6763C121.747 70.7054 121.747 36.7025 100.776 15.7316L100.772 15.7281Z" fill="#30B5AB"/>
<path d="M100.772 15.7281C79.8016 -5.24272 45.7986 -5.24272 24.8277 15.7281C24.7932 15.7627 24.7587 15.8007 24.7241 15.8387L100.665 91.7799C100.7 91.7454 100.738 91.7108 100.776 91.6763C121.747 70.7054 121.747 36.7025 100.776 15.7316L100.772 15.7281Z" fill="url(#paint0_linear_788_3)"/>
<path d="M117.316 108.836L226.965 216.86V108.836H117.316ZM224.209 167.784C223.806 168.381 223.414 168.961 223.109 169.41C219.975 174.031 216.848 178.652 213.717 183.277C212.396 185.232 209.479 185.228 208.154 183.277C204.645 178.093 201.146 172.926 197.626 167.725C196.729 166.399 197.69 164.62 199.309 164.62H203.218C203.235 164.62 203.249 164.606 203.249 164.589C203.029 155.34 199.649 147.5 192.449 141.646C182.209 133.323 171.103 132.173 159.426 137.201C158.279 137.695 157 136.842 157.01 135.613C157.038 132.373 156.691 126.947 156.691 123.863C156.691 122.116 158.525 121.228 159.033 121.08C161.641 120.316 164.288 119.746 167.001 119.425C169.985 119.073 172.971 119 175.965 119.225C180.708 119.581 185.297 120.613 189.7 122.392C199.221 126.239 206.674 132.508 212.024 141.152C215.319 146.478 217.409 152.256 218.194 158.462C218.429 160.331 218.502 162.22 218.653 164.099C218.664 164.251 218.681 164.406 218.699 164.613C219.543 164.613 220.353 164.617 221.163 164.613C221.528 164.613 221.99 164.613 222.488 164.613C224.139 164.613 225.128 166.43 224.209 167.784Z" fill="#EF802E"/>
<path d="M121.837 165.56C120.177 165.56 119.183 163.739 120.106 162.382C120.512 161.783 120.906 161.202 121.213 160.752C124.363 156.12 127.507 151.489 130.654 146.854C131.982 144.895 134.914 144.898 136.246 146.854C139.774 152.05 143.291 157.228 146.829 162.441C147.731 163.77 146.765 165.553 145.137 165.553H141.208C141.19 165.553 141.176 165.567 141.176 165.584C141.398 174.854 144.796 182.711 152.034 188.578C162.327 196.92 173.491 198.073 185.23 193.033C186.382 192.538 187.669 193.393 187.658 194.625C187.63 197.872 187.979 203.31 187.979 206.401C187.979 208.153 186.136 209.042 185.625 209.191C183.003 209.956 180.342 210.527 177.615 210.846C174.616 211.199 171.613 211.272 168.604 211.047C163.836 210.69 159.223 209.655 154.797 207.872C145.225 204.016 137.733 197.734 132.356 189.07C129.043 183.732 126.943 177.941 126.154 171.721C125.917 169.848 125.843 167.955 125.692 166.072C125.681 165.92 125.664 165.764 125.646 165.556C124.797 165.556 123.983 165.553 123.169 165.556C122.802 165.556 122.337 165.556 121.837 165.556V165.56Z" fill="#EF802E"/>
<path d="M215.796 90.0658L135.064 10.8972C133.022 8.89414 129.727 8.89414 127.685 10.8972L127.545 11.0353C125.486 13.0522 125.486 16.3365 127.545 18.3533L208.287 97.5323C210.431 99.6355 213.933 99.5146 215.922 97.2664L216.055 97.1179C217.869 95.07 217.757 91.9825 215.803 90.0658H215.796Z" fill="#3A50BF"/>
<path d="M217.728 62.2753L163.178 8.78024C162.197 7.82016 160.87 7.27795 159.487 7.27795H159.203C154.535 7.27795 152.202 12.8519 155.512 16.0983L210.346 69.8731C213.649 73.1091 219.269 70.8056 219.269 66.2124V65.9361C219.269 64.5616 218.712 63.2458 217.725 62.2753H217.728Z" fill="#3A50BF"/>
<path d="M217.728 32.8824L193.148 8.77682C192.167 7.81674 190.84 7.27454 189.457 7.27454H189.173C184.505 7.27454 182.172 12.8485 185.482 16.0948L210.346 40.4767C213.648 43.7127 219.269 41.4092 219.269 36.816V36.5397C219.269 35.1652 218.712 33.8494 217.725 32.879L217.728 32.8824Z" fill="#3A50BF"/>
<path d="M125.353 76.2035L149.534 99.9188C150.515 100.879 151.842 101.421 153.225 101.421H153.509C158.177 101.421 160.509 95.8471 157.2 92.6008L132.735 68.6092C129.432 65.3732 123.812 67.6767 123.812 72.2699V72.5462C123.812 73.9207 124.369 75.2365 125.356 76.2069L125.353 76.2035Z" fill="#3A50BF"/>
<path d="M125.353 46.8105L179.504 99.9154C180.485 100.875 181.812 101.418 183.195 101.418H183.479C188.147 101.418 190.479 95.8437 187.17 92.5974L132.735 39.2162C129.432 35.9803 123.812 38.2838 123.812 42.8769V43.1532C123.812 44.5277 124.369 45.8435 125.356 46.814L125.353 46.8105Z" fill="#3A50BF"/>
<path d="M215.796 90.0658L135.064 10.8972C133.022 8.89414 129.727 8.89414 127.685 10.8972L127.545 11.0353C125.486 13.0522 125.486 16.3365 127.545 18.3533L208.287 97.5323C210.431 99.6355 213.933 99.5146 215.922 97.2664L216.055 97.1179C217.869 95.07 217.757 91.9825 215.803 90.0658H215.796Z" fill="url(#paint1_linear_788_3)"/>
<path d="M217.728 62.2753L163.178 8.78024C162.197 7.82016 160.87 7.27795 159.487 7.27795H159.203C154.535 7.27795 152.202 12.8519 155.512 16.0983L210.346 69.8731C213.649 73.1091 219.269 70.8056 219.269 66.2124V65.9361C219.269 64.5616 218.712 63.2458 217.725 62.2753H217.728Z" fill="url(#paint2_linear_788_3)"/>
<path d="M217.728 32.8824L193.148 8.77682C192.167 7.81674 190.84 7.27454 189.457 7.27454H189.173C184.505 7.27454 182.172 12.8485 185.482 16.0948L210.346 40.4767C213.648 43.7127 219.269 41.4092 219.269 36.816V36.5397C219.269 35.1652 218.712 33.8494 217.725 32.879L217.728 32.8824Z" fill="url(#paint3_linear_788_3)"/>
<path d="M125.353 76.2035L149.534 99.9188C150.515 100.879 151.842 101.421 153.225 101.421H153.509C158.177 101.421 160.509 95.8471 157.2 92.6008L132.735 68.6092C129.432 65.3732 123.812 67.6767 123.812 72.2699V72.5462C123.812 73.9207 124.369 75.2365 125.356 76.2069L125.353 76.2035Z" fill="url(#paint4_linear_788_3)"/>
<path d="M125.353 46.8105L179.504 99.9154C180.485 100.875 181.812 101.418 183.195 101.418H183.479C188.147 101.418 190.479 95.8437 187.17 92.5974L132.735 39.2162C129.432 35.9803 123.812 38.2838 123.812 42.8769V43.1532C123.812 44.5277 124.369 45.8435 125.356 46.814L125.353 46.8105Z" fill="url(#paint5_linear_788_3)"/>
<path d="M215.796 90.0658L135.064 10.8972C133.022 8.89414 129.727 8.89414 127.685 10.8972L127.545 11.0353C125.486 13.0522 125.486 16.3365 127.545 18.3533L208.287 97.5323C210.431 99.6355 213.933 99.5146 215.922 97.2664L216.055 97.1179C217.869 95.07 217.757 91.9825 215.803 90.0658H215.796Z" fill="url(#paint6_linear_788_3)"/>
<path d="M217.728 62.2753L163.178 8.78024C162.197 7.82016 160.87 7.27795 159.487 7.27795H159.203C154.535 7.27795 152.202 12.8519 155.512 16.0983L210.346 69.8731C213.649 73.1091 219.269 70.8056 219.269 66.2124V65.9361C219.269 64.5616 218.712 63.2458 217.725 62.2753H217.728Z" fill="url(#paint7_linear_788_3)"/>
<path d="M217.728 32.8824L193.148 8.77682C192.167 7.81674 190.84 7.27454 189.457 7.27454H189.173C184.505 7.27454 182.172 12.8485 185.482 16.0948L210.346 40.4767C213.648 43.7127 219.269 41.4092 219.269 36.816V36.5397C219.269 35.1652 218.712 33.8494 217.725 32.879L217.728 32.8824Z" fill="url(#paint8_linear_788_3)"/>
<path d="M125.353 76.2035L149.534 99.9188C150.515 100.879 151.842 101.421 153.225 101.421H153.509C158.177 101.421 160.509 95.8471 157.2 92.6008L132.735 68.6092C129.432 65.3732 123.812 67.6767 123.812 72.2699V72.5462C123.812 73.9207 124.369 75.2365 125.356 76.2069L125.353 76.2035Z" fill="url(#paint9_linear_788_3)"/>
<path d="M125.353 46.8105L179.504 99.9154C180.485 100.875 181.812 101.418 183.195 101.418H183.479C188.147 101.418 190.479 95.8437 187.17 92.5974L132.735 39.2162C129.432 35.9803 123.812 38.2838 123.812 42.8769V43.1532C123.812 44.5277 124.369 45.8435 125.356 46.814L125.353 46.8105Z" fill="url(#paint10_linear_788_3)"/>
<path d="M102.152 109.653V157.384C102.152 179.017 84.3687 196.551 62.4356 196.551C40.499 196.551 22.7193 179.014 22.7193 157.384V109.653H7.66772V217.673H117.203V109.653H102.152Z" fill="#30B5AB"/>
<path d="M102.152 157.385C102.152 179.017 84.3689 196.551 62.4359 196.551C40.4993 196.551 22.7196 179.014 22.7196 157.385H102.152Z" fill="#3A50BF"/>
<path d="M102.152 109.653V157.384C102.152 179.017 84.3687 196.551 62.4356 196.551C40.499 196.551 22.7193 179.014 22.7193 157.384V109.653H7.66772V217.673H117.203V109.653H102.152Z" fill="url(#paint11_linear_788_3)"/>
<path d="M102.152 157.385C102.152 179.017 84.3689 196.551 62.4359 196.551C40.4993 196.551 22.7196 179.014 22.7196 157.385H102.152Z" fill="url(#paint12_linear_788_3)"/>
<path d="M102.152 157.385C102.152 179.017 84.3689 196.551 62.4359 196.551C40.4993 196.551 22.7196 179.014 22.7196 157.385H102.152Z" fill="url(#paint13_linear_788_3)"/>
<path d="M24.3508 92.296C45.5073 113.267 79.8111 113.267 100.968 92.296C101.002 92.2615 101.037 92.2235 101.072 92.1855L24.4588 16.2443C24.424 16.2788 24.3856 16.3133 24.3473 16.3479C3.19087 37.3187 3.19087 71.3217 24.3473 92.2926L24.3508 92.296Z" fill="url(#paint14_linear_788_3)"/>
<path d="M88.8889 65.0404C88.8889 79.8099 76.7052 91.7799 61.6798 91.7799C46.6544 91.7799 34.4707 79.8065 34.4707 65.0404C34.4707 50.2743 61.6798 16.2443 61.6798 16.2443C61.6798 16.2443 88.8889 50.2708 88.8889 65.0404Z" fill="white"/>
<path d="M117.316 108.836L226.965 216.86V108.836H117.316ZM224.209 167.784C223.806 168.381 223.414 168.961 223.109 169.41C219.975 174.031 216.848 178.652 213.717 183.277C212.396 185.232 209.479 185.228 208.154 183.277C204.645 178.093 201.146 172.926 197.626 167.725C196.729 166.399 197.69 164.62 199.309 164.62H203.218C203.235 164.62 203.249 164.606 203.249 164.589C203.029 155.34 199.649 147.5 192.449 141.646C182.209 133.323 171.103 132.173 159.426 137.201C158.279 137.695 157 136.842 157.01 135.613C157.038 132.373 156.691 126.947 156.691 123.863C156.691 122.116 158.525 121.228 159.033 121.08C161.641 120.316 164.288 119.746 167.001 119.425C169.985 119.073 172.971 119 175.965 119.225C180.708 119.581 185.297 120.613 189.7 122.392C199.221 126.239 206.674 132.508 212.024 141.152C215.319 146.478 217.409 152.256 218.194 158.462C218.429 160.331 218.502 162.22 218.653 164.099C218.664 164.251 218.681 164.406 218.699 164.613C219.543 164.613 220.353 164.617 221.163 164.613C221.528 164.613 221.99 164.613 222.488 164.613C224.139 164.613 225.128 166.43 224.209 167.784Z" fill="url(#paint15_linear_788_3)"/>
<path d="M121.837 165.311C120.177 165.311 119.183 163.512 120.106 162.172C120.512 161.581 120.906 161.006 121.213 160.562C124.363 155.988 127.507 151.413 130.654 146.836C131.982 144.901 134.914 144.904 136.246 146.836C139.774 151.967 143.291 157.082 146.829 162.23C147.731 163.543 146.765 165.304 145.137 165.304H141.208C141.19 165.304 141.176 165.317 141.176 165.334C141.398 174.49 144.796 182.25 152.034 188.045C162.327 196.284 173.491 197.423 185.23 192.445C186.382 191.956 187.669 192.8 187.658 194.018C187.63 197.224 187.979 202.595 187.979 205.648C187.979 207.378 186.136 208.256 185.625 208.403C183.003 209.159 180.342 209.723 177.615 210.038C174.616 210.386 171.613 210.458 168.604 210.236C163.836 209.884 159.223 208.862 154.797 207.101C145.225 203.292 137.733 197.088 132.356 188.53C129.043 183.259 126.943 177.539 126.154 171.396C125.917 169.546 125.843 167.676 125.692 165.817C125.681 165.666 125.664 165.512 125.646 165.307C124.797 165.307 123.983 165.304 123.169 165.307C122.802 165.307 122.337 165.307 121.837 165.307V165.311Z" fill="url(#paint16_linear_788_3)"/>
</g>
<defs>
<filter id="filter0_d_788_3" x="4.60063" y="0" width="225.431" height="223.807" filterUnits="userSpaceOnUse" color-interpolation-filters="sRGB">
<feFlood flood-opacity="0" result="BackgroundImageFix"/>
<feColorMatrix in="SourceAlpha" type="matrix" values="0 0 0 0 0 0 0 0 0 0 0 0 0 0 0 0 0 0 127 0" result="hardAlpha"/>
<feOffset dy="3.06709"/>
<feGaussianBlur stdDeviation="1.53355"/>
<feComposite in2="hardAlpha" operator="out"/>
<feColorMatrix type="matrix" values="0 0 0 0 0 0 0 0 0 0 0 0 0 0 0 0 0 0 0.25 0"/>
<feBlend mode="normal" in2="BackgroundImageFix" result="effect1_dropShadow_788_3"/>
<feBlend mode="normal" in="SourceGraphic" in2="effect1_dropShadow_788_3" result="shape"/>
</filter>
<linearGradient id="paint0_linear_788_3" x1="62.6906" y1="53.812" x2="100.772" y2="15.7307" gradientUnits="userSpaceOnUse">
<stop stop-color="white" stop-opacity="0.45"/>
<stop offset="0.38" stop-color="white" stop-opacity="0"/>
</linearGradient>
<linearGradient id="paint1_linear_788_3" x1="125.997" y1="54.2147" x2="217.337" y2="54.2147" gradientUnits="userSpaceOnUse">
<stop offset="0.59" stop-opacity="0"/>
<stop offset="1" stop-opacity="0.35"/>
</linearGradient>
<linearGradient id="paint2_linear_788_3" x1="153.96" y1="39.3301" x2="219.269" y2="39.3301" gradientUnits="userSpaceOnUse">
<stop offset="0.59" stop-opacity="0"/>
<stop offset="1" stop-opacity="0.35"/>
</linearGradient>
<linearGradient id="paint3_linear_788_3" x1="183.93" y1="24.6354" x2="219.269" y2="24.6354" gradientUnits="userSpaceOnUse">
<stop offset="0.59" stop-opacity="0"/>
<stop offset="1" stop-opacity="0.35"/>
</linearGradient>
<linearGradient id="paint4_linear_788_3" x1="123.808" y1="84.2536" x2="158.751" y2="84.2536" gradientUnits="userSpaceOnUse">
<stop offset="0.59" stop-opacity="0"/>
<stop offset="1" stop-opacity="0.35"/>
</linearGradient>
<linearGradient id="paint5_linear_788_3" x1="123.808" y1="69.5589" x2="188.721" y2="69.5589" gradientUnits="userSpaceOnUse">
<stop offset="0.59" stop-opacity="0"/>
<stop offset="1" stop-opacity="0.35"/>
</linearGradient>
<linearGradient id="paint6_linear_788_3" x1="125.997" y1="54.2147" x2="217.337" y2="54.2147" gradientUnits="userSpaceOnUse">
<stop stop-color="#30B5AB" stop-opacity="0.6"/>
<stop offset="0.64" stop-color="#30B5AB" stop-opacity="0"/>
</linearGradient>
<linearGradient id="paint7_linear_788_3" x1="153.96" y1="39.3301" x2="219.269" y2="39.3301" gradientUnits="userSpaceOnUse">
<stop stop-color="#30B5AB" stop-opacity="0.6"/>
<stop offset="0.64" stop-color="#30B5AB" stop-opacity="0"/>
</linearGradient>
<linearGradient id="paint8_linear_788_3" x1="183.93" y1="24.6354" x2="219.269" y2="24.6354" gradientUnits="userSpaceOnUse">
<stop stop-color="#30B5AB" stop-opacity="0.6"/>
<stop offset="0.64" stop-color="#30B5AB" stop-opacity="0"/>
</linearGradient>
<linearGradient id="paint9_linear_788_3" x1="123.808" y1="84.2536" x2="158.751" y2="84.2536" gradientUnits="userSpaceOnUse">
<stop stop-color="#30B5AB" stop-opacity="0.6"/>
<stop offset="0.64" stop-color="#30B5AB" stop-opacity="0"/>
</linearGradient>
<linearGradient id="paint10_linear_788_3" x1="123.808" y1="69.5589" x2="188.721" y2="69.5589" gradientUnits="userSpaceOnUse">
<stop stop-color="#30B5AB" stop-opacity="0.6"/>
<stop offset="0.64" stop-color="#30B5AB" stop-opacity="0"/>
</linearGradient>
<linearGradient id="paint11_linear_788_3" x1="7.66422" y1="163.663" x2="117.203" y2="163.663" gradientUnits="userSpaceOnUse">
<stop offset="0.5" stop-color="white" stop-opacity="0.45"/>
<stop offset="1" stop-color="white" stop-opacity="0"/>
</linearGradient>
<linearGradient id="paint12_linear_788_3" x1="22.7161" y1="176.966" x2="102.152" y2="176.966" gradientUnits="userSpaceOnUse">
<stop stop-color="white" stop-opacity="0.35"/>
<stop offset="0.38" stop-color="white" stop-opacity="0"/>
</linearGradient>
<linearGradient id="paint13_linear_788_3" x1="22.7161" y1="176.966" x2="102.152" y2="176.966" gradientUnits="userSpaceOnUse">
<stop offset="0.59" stop-opacity="0"/>
<stop offset="1" stop-opacity="0.35"/>
</linearGradient>
<linearGradient id="paint14_linear_788_3" x1="8.48259" y1="62.1329" x2="101.076" y2="62.1329" gradientUnits="userSpaceOnUse">
<stop offset="0.59" stop-opacity="0"/>
<stop offset="1" stop-opacity="0.25"/>
</linearGradient>
<linearGradient id="paint15_linear_788_3" x1="117.316" y1="162.848" x2="226.965" y2="162.848" gradientUnits="userSpaceOnUse">
<stop offset="0.7" stop-color="white" stop-opacity="0"/>
<stop offset="1" stop-color="white" stop-opacity="0.25"/>
</linearGradient>
<linearGradient id="paint16_linear_788_3" x1="119.754" y1="177.878" x2="187.979" y2="177.878" gradientUnits="userSpaceOnUse">
<stop offset="0.59" stop-opacity="0"/>
<stop offset="1" stop-opacity="0.25"/>
</linearGradient>
</defs>
</svg>
