<svg width="36" height="36" viewBox="0 0 36 36" fill="none" xmlns="http://www.w3.org/2000/svg">
<mask id="mask0_1469_6976" style="mask-type:luminance" maskUnits="userSpaceOnUse" x="0" y="0" width="36" height="36">
<path d="M0 0H36V36H0V0Z" fill="white"/>
</mask>
<g mask="url(#mask0_1469_6976)">
<path d="M36 18.0003C36 27.9414 27.9414 36 18.0003 36C8.05861 36 0 27.9414 0 18.0003C0 8.0592 8.05861 0 18.0003 0C27.9414 0 36 8.0592 36 18.0003Z" fill="#009846"/>
</g>
<path d="M1.63867 17.725L17.9418 7.19019L34.3218 17.6996L17.9761 28.3226L1.63867 17.725Z" fill="#FFDF00"/>
<path d="M24.9001 17.6945C24.9001 21.5554 21.8076 24.6852 17.9935 24.6852C14.1794 24.6852 11.0869 21.5554 11.0869 17.6945C11.0869 13.833 14.1794 10.7026 17.9935 10.7026C21.8076 10.7026 24.9001 13.833 24.9001 17.6945Z" fill="#002279"/>
<path d="M17.3539 14.9433C22.0773 15.9497 24.8217 18.7462 24.8217 18.7462C24.7489 19.2908 24.5665 19.8538 24.5665 19.8538C21.5303 16.946 17.7369 16.1616 17.7369 16.1616C14.3585 15.3381 11.3086 15.9313 11.3086 15.9313C11.4045 15.5365 11.678 14.858 11.678 14.858C11.678 14.858 13.9802 14.4265 17.3539 14.9433Z" fill="white"/>
<path d="M12.3492 16.1499L12.4155 16.3571H12.6309L12.4563 16.4856L12.5232 16.6922L12.3492 16.5643L12.1745 16.6922L12.2414 16.4856L12.0674 16.3571H12.2823L12.3492 16.1499Z" fill="white"/>
<path d="M15.3486 17.7358L15.4066 17.9164H15.5937L15.4421 18.0277L15.5001 18.2082L15.3486 18.0964L15.197 18.2082L15.2551 18.0277L15.1035 17.9164H15.2906L15.3486 17.7358Z" fill="white"/>
<path d="M13.6433 18.7878L13.6782 18.8979H13.7925L13.7001 18.966L13.7357 19.0755L13.6433 19.0075L13.551 19.0755L13.5865 18.966L13.4941 18.8979H13.6078L13.6433 18.7878Z" fill="white"/>
<path d="M12.9602 19.073L13.0336 19.3033H13.2734L13.0798 19.4459L13.1538 19.6762L12.9602 19.5341L12.7667 19.6762L12.8401 19.4459L12.6465 19.3033H12.8862L12.9602 19.073Z" fill="white"/>
<path d="M12.1021 19.7798L12.1565 19.9497H12.3335L12.1903 20.0551L12.2447 20.225L12.1021 20.1202L11.9588 20.225L12.0133 20.0551L11.8706 19.9497H12.0476L12.1021 19.7798Z" fill="white"/>
<path d="M14.3975 19.8459L14.4519 20.0164H14.6284L14.4857 20.1212L14.5407 20.2911L14.3975 20.1863L14.2542 20.2911L14.3087 20.1212L14.166 20.0164H14.3424L14.3975 19.8459Z" fill="white"/>
<path d="M14.1874 20.5474L14.2425 20.7173H14.4195L14.2762 20.8232L14.3307 20.9931L14.1874 20.8878L14.0447 20.9931L14.0992 20.8232L13.9565 20.7173H14.133L14.1874 20.5474Z" fill="white"/>
<path d="M15.2089 21.1492L15.2699 21.3392H15.4676L15.3078 21.457L15.3687 21.6476L15.2089 21.5298L15.0491 21.6476L15.11 21.457L14.9502 21.3392H15.1479L15.2089 21.1492Z" fill="white"/>
<path d="M17.9721 20.5862L18.033 20.7762H18.2308L18.0709 20.894L18.1319 21.084L17.9721 20.9668L17.8122 21.084L17.8732 20.894L17.7134 20.7762H17.9105L17.9721 20.5862Z" fill="white"/>
<path d="M18.7837 19.2109L18.8399 19.3868H19.0229L18.8755 19.4957L18.9317 19.6721L18.7837 19.5632L18.6357 19.6721L18.6919 19.4957L18.5439 19.3868H18.7269L18.7837 19.2109Z" fill="white"/>
<path d="M17.9717 18.5735L18.0279 18.7499H18.2114L18.0634 18.8588L18.1197 19.0352L17.9717 18.9263L17.8237 19.0352L17.8799 18.8588L17.7319 18.7499H17.9149L17.9717 18.5735Z" fill="white"/>
<path d="M17.2745 19.2146L17.3243 19.3709H17.4865L17.355 19.4674L17.406 19.6237L17.2745 19.5272L17.1431 19.6237L17.1934 19.4674L17.062 19.3709H17.2242L17.2745 19.2146Z" fill="white"/>
<path d="M17.6208 19.7751L17.6581 19.8912H17.7783L17.6812 19.9628L17.7179 20.0782L17.6208 20.0072L17.5232 20.0782L17.5611 19.9628L17.4634 19.8912H17.5836L17.6208 19.7751Z" fill="white"/>
<path d="M19.8567 17.2019L19.894 17.3179H20.0142L19.9165 17.3896L19.9538 17.5056L19.8567 17.434L19.759 17.5056L19.7963 17.3896L19.6992 17.3179H19.8194L19.8567 17.2019Z" fill="white"/>
<path d="M20.1208 15.2175L20.1901 15.4318H20.4127L20.2327 15.565L20.3014 15.7793L20.1208 15.6467L19.9409 15.7793L20.0096 15.565L19.8296 15.4318H20.0522L20.1208 15.2175Z" fill="white"/>
<path d="M22.8114 19.8606L22.88 20.0749H23.1026L22.9227 20.2075L22.9913 20.4224L22.8114 20.2898L22.6308 20.4224L22.6995 20.2075L22.5195 20.0749H22.7421L22.8114 19.8606Z" fill="white"/>
<path d="M22.6653 21.0691L22.7227 21.2485H22.9092L22.7582 21.3598L22.8156 21.5391L22.6653 21.4278L22.5143 21.5391L22.5717 21.3598L22.4214 21.2485H22.6073L22.6653 21.0691Z" fill="white"/>
<path d="M23.094 20.5339L23.1514 20.7133H23.3373L23.1869 20.824L23.2444 21.0034L23.094 20.8927L22.943 21.0034L23.0011 20.824L22.8501 20.7133H23.0366L23.094 20.5339Z" fill="white"/>
<path d="M23.7685 20.0076L23.8123 20.1443H23.955L23.8395 20.2296L23.8833 20.3663L23.7685 20.2822L23.6531 20.3663L23.6969 20.2296L23.582 20.1443H23.7241L23.7685 20.0076Z" fill="white"/>
<path d="M22.1181 21.4937L22.1619 21.631H22.3046L22.1892 21.7156L22.233 21.8524L22.1181 21.7683L22.0027 21.8524L22.0465 21.7156L21.9316 21.631H22.0737L22.1181 21.4937Z" fill="white"/>
<path d="M21.4344 22.0122L21.4847 22.1691H21.6475L21.5155 22.2668L21.5658 22.4236L21.4344 22.3265L21.3024 22.4236L21.3527 22.2668L21.2207 22.1691H21.3835L21.4344 22.0122Z" fill="white"/>
<path d="M21.3884 21.3645L21.4305 21.4941H21.566L21.4565 21.5752L21.4979 21.7055L21.3884 21.625L21.2795 21.7055L21.3209 21.5752L21.2114 21.4941H21.347L21.3884 21.3645Z" fill="white"/>
<path d="M20.6409 21.613L20.6829 21.7439H20.8185L20.7089 21.8244L20.7504 21.9546L20.6409 21.8741L20.5314 21.9546L20.5734 21.8244L20.4639 21.7439H20.5994L20.6409 21.613Z" fill="white"/>
<path d="M19.5007 21.4292L19.5428 21.5594H19.6777L19.5682 21.6399L19.6102 21.7702L19.5007 21.6897L19.3912 21.7702L19.4327 21.6399L19.3237 21.5594H19.4587L19.5007 21.4292Z" fill="white"/>
<path d="M21.4299 22.7776L21.472 22.9078H21.6075L21.4974 22.9883L21.5394 23.1192L21.4299 23.0387L21.3204 23.1192L21.3624 22.9883L21.2529 22.9078H21.3879L21.4299 22.7776Z" fill="white"/>
<path d="M20.054 22.1963L20.1043 22.3549H20.2689L20.1362 22.4526L20.1866 22.6113L20.054 22.5136L19.9202 22.6113L19.9717 22.4526L19.8379 22.3549H20.0031L20.054 22.1963Z" fill="white"/>
<path d="M17.9931 23.0732L18.0168 23.1472H18.0937L18.0316 23.1928L18.0553 23.2668L17.9931 23.2212L17.9315 23.2668L17.9546 23.1928L17.8931 23.1472H17.97L17.9931 23.0732Z" fill="white"/>
<path d="M11.7793 15.3487C11.8089 15.4719 11.9096 15.5695 12.0416 15.5494C12.1742 15.5305 12.2275 15.4115 12.2014 15.2801C12.1783 15.1652 12.0842 15.0533 11.9386 15.0746C11.7941 15.0966 11.7491 15.2221 11.7793 15.3487ZM12.2914 15.2653C12.3293 15.4648 12.2144 15.5873 12.0499 15.6116C11.88 15.6364 11.7314 15.5394 11.6882 15.3653C11.6432 15.183 11.7474 15.0403 11.9291 15.0131C12.1144 14.9864 12.2582 15.0936 12.2914 15.2653Z" fill="#009B2D"/>
<path d="M12.7819 15.199C12.8115 15.1967 12.8405 15.1937 12.8695 15.1919C12.9618 15.1837 13.0139 15.1351 13.0045 15.0682C12.9944 14.9936 12.9263 14.9652 12.834 14.9723C12.7914 14.9759 12.7618 14.9824 12.7487 14.9871C12.7594 15.0576 12.7706 15.1286 12.7819 15.199ZM12.6528 14.9427C12.6955 14.9303 12.7582 14.9202 12.8192 14.9149C12.9127 14.9066 12.9755 14.9167 13.0222 14.9469C13.0601 14.97 13.0844 15.0084 13.0903 15.0534C13.1004 15.1304 13.0518 15.1854 12.9843 15.2115C12.9843 15.2127 12.9849 15.2133 12.9849 15.2144C13.0388 15.2257 13.0743 15.2653 13.0986 15.3245C13.1306 15.4045 13.1536 15.4595 13.1702 15.4814C13.1412 15.4832 13.1122 15.485 13.0832 15.4873C13.0702 15.4714 13.0489 15.4228 13.0199 15.3518C12.9897 15.2725 12.9494 15.2452 12.8713 15.2488C12.8446 15.2517 12.818 15.2535 12.7908 15.2565C12.8038 15.3405 12.8174 15.4246 12.8304 15.5087C12.8026 15.511 12.7748 15.5134 12.7464 15.5163C12.715 15.3251 12.6836 15.1339 12.6528 14.9427Z" fill="#009B2D"/>
<path d="M13.6342 15.3968C13.6561 15.3997 13.6869 15.3992 13.7194 15.3986C13.9 15.3932 13.9918 15.3027 13.9817 15.1446C13.974 15.0067 13.8775 14.9197 13.6922 14.9244C13.6472 14.9256 13.6135 14.9303 13.5904 14.9356C13.6052 15.0896 13.6194 15.2435 13.6342 15.3968ZM13.498 14.8835C13.5501 14.8747 13.6135 14.867 13.6833 14.8646C13.8094 14.861 13.9012 14.8853 13.9633 14.9321C14.0273 14.9789 14.0658 15.0463 14.0717 15.1411C14.077 15.2364 14.0486 15.3145 13.9906 15.3696C13.9332 15.4246 13.8349 15.4554 13.7088 15.4595C13.649 15.4613 13.5981 15.4607 13.5555 15.4584C13.5365 15.2666 13.517 15.0753 13.498 14.8835Z" fill="#009B2D"/>
<path d="M14.8234 15.1881C14.7376 15.1846 14.6517 15.1816 14.5659 15.1793C14.5671 15.2491 14.5689 15.3196 14.5701 15.3894C14.6648 15.3924 14.7589 15.3959 14.853 15.4007C14.853 15.4214 14.853 15.4427 14.853 15.4634C14.7317 15.4575 14.6097 15.4539 14.4878 15.451C14.4824 15.2562 14.4765 15.0615 14.4712 14.8667C14.5937 14.8691 14.7157 14.8732 14.8382 14.8791C14.8382 14.8998 14.8382 14.9212 14.8382 14.9419C14.7459 14.9377 14.6529 14.9342 14.5606 14.9318C14.5618 14.9934 14.5629 15.0549 14.5647 15.1165C14.6506 15.1189 14.737 15.1218 14.8234 15.126C14.8234 15.1467 14.8234 15.168 14.8234 15.1881Z" fill="#009B2D"/>
<path d="M15.8132 15.2819C15.8143 15.2008 15.8155 15.1025 15.822 15.0303C15.8208 15.0303 15.8197 15.0303 15.8185 15.0303C15.7912 15.0954 15.7581 15.1647 15.7196 15.2417C15.674 15.3316 15.6302 15.4216 15.587 15.5122C15.5657 15.5098 15.5444 15.508 15.5237 15.5063C15.4935 15.4104 15.4627 15.3151 15.4313 15.2198C15.4029 15.1345 15.3798 15.0576 15.3632 14.9871C15.3627 14.9871 15.3621 14.9871 15.3609 14.9865C15.3561 15.0587 15.3479 15.1564 15.3384 15.2434C15.3295 15.3263 15.3206 15.4086 15.3123 15.4921C15.2857 15.4897 15.2591 15.4879 15.2324 15.4856C15.2531 15.2926 15.2745 15.099 15.2964 14.906C15.3342 14.909 15.3715 14.9119 15.4082 14.9149C15.4426 15.0126 15.4769 15.1096 15.5095 15.2067C15.5331 15.2807 15.5527 15.347 15.5657 15.4086C15.5669 15.4086 15.5675 15.4086 15.5687 15.4086C15.5882 15.3518 15.6148 15.2896 15.6492 15.2198C15.6936 15.1298 15.7397 15.0404 15.7865 14.951C15.8232 14.9551 15.8605 14.9593 15.8972 14.9634C15.896 15.1582 15.8943 15.3535 15.8919 15.5483C15.8647 15.5453 15.838 15.5424 15.8108 15.5388C15.8114 15.4536 15.8126 15.3677 15.8132 15.2819Z" fill="#009B2D"/>
<path d="M17.1707 15.4767C17.0866 15.4601 17.0025 15.4436 16.9185 15.4282C16.9072 15.4968 16.896 15.5655 16.8853 15.6348C16.9777 15.6519 17.07 15.6697 17.1624 15.6886C17.1588 15.7094 17.1547 15.7301 17.1511 15.7508C17.0321 15.7265 16.9125 15.7028 16.793 15.6815C16.822 15.4903 16.851 15.2991 16.8806 15.1079C17.0008 15.1292 17.1203 15.1523 17.2399 15.1766C17.2364 15.1973 17.2328 15.218 17.2293 15.2387C17.1387 15.2198 17.0475 15.202 16.9569 15.1855C16.9475 15.2458 16.9374 15.3062 16.9279 15.3666C17.0126 15.3826 17.0972 15.3986 17.1819 15.4163C17.1783 15.4365 17.1748 15.4566 17.1707 15.4767Z" fill="#009B2D"/>
<path d="M18.1732 15.6928C18.1897 15.7017 18.2122 15.7094 18.2395 15.7171C18.3389 15.7449 18.4111 15.7206 18.433 15.6437C18.4544 15.5703 18.4034 15.5164 18.3105 15.4909C18.2738 15.4809 18.2454 15.4755 18.23 15.4749C18.2111 15.5472 18.1915 15.62 18.1732 15.6928ZM18.159 15.3992C18.2016 15.4045 18.256 15.414 18.3241 15.4329C18.4076 15.456 18.4638 15.4903 18.4934 15.5312C18.5224 15.5685 18.5313 15.6152 18.5171 15.6644C18.5029 15.7147 18.4739 15.7496 18.4336 15.7692C18.3786 15.7964 18.3028 15.7976 18.2223 15.7751C18.198 15.768 18.1749 15.7609 18.1572 15.7514C18.1376 15.8266 18.1181 15.9012 18.0986 15.9763C18.0719 15.9692 18.0447 15.9621 18.0181 15.9544C18.0648 15.7692 18.1122 15.5845 18.159 15.3992Z" fill="#009B2D"/>
<path d="M18.962 15.9153C18.9898 15.9248 19.0176 15.9337 19.0454 15.9432C19.1324 15.9722 19.2017 15.9503 19.2236 15.8875C19.2485 15.8171 19.1993 15.7656 19.1123 15.7348C19.0727 15.7218 19.0425 15.7152 19.0283 15.7141C19.0063 15.7815 18.9844 15.8484 18.962 15.9153ZM18.9614 15.6377C19.0063 15.6436 19.0679 15.659 19.1247 15.6785C19.2135 15.7087 19.2662 15.7425 19.2952 15.7869C19.3183 15.8224 19.3231 15.8662 19.3083 15.9082C19.2816 15.9805 19.2129 16.0095 19.1401 16.0065C19.1395 16.0071 19.1395 16.0077 19.1395 16.0089C19.1828 16.0402 19.1976 16.0888 19.1922 16.1509C19.1857 16.2344 19.181 16.2918 19.1863 16.3173C19.1591 16.3078 19.1318 16.2983 19.1046 16.2889C19.0999 16.2699 19.1028 16.2178 19.1088 16.1438C19.117 16.0621 19.0934 16.0219 19.0206 15.9947C18.9951 15.9864 18.9696 15.9775 18.9442 15.9692C18.9181 16.0485 18.8921 16.1279 18.866 16.2078C18.8388 16.1989 18.8128 16.19 18.7861 16.1817C18.8447 16 18.9033 15.8188 18.9614 15.6377Z" fill="#009B2D"/>
<path d="M19.7029 16.2042C19.6573 16.3196 19.6869 16.4498 19.8095 16.499C19.9326 16.5487 20.0463 16.4789 20.0989 16.3581C20.1451 16.2527 20.1291 16.1148 19.9936 16.0597C19.8592 16.0059 19.7497 16.0864 19.7029 16.2042ZM20.1836 16.3901C20.1019 16.5724 19.9344 16.6156 19.7816 16.5534C19.623 16.4895 19.5537 16.3368 19.6171 16.1734C19.6828 16.0011 19.8521 15.9366 20.0208 16.0047C20.1937 16.0751 20.254 16.2338 20.1836 16.3901Z" fill="#009B2D"/>
<path d="M20.8865 17.0134C20.8469 17.0069 20.7711 16.9915 20.6923 16.9536C20.6035 16.9104 20.5408 16.8565 20.5065 16.7808C20.4763 16.7133 20.4775 16.6292 20.5165 16.5475C20.5917 16.3918 20.7729 16.3344 20.9789 16.4339C21.0493 16.4688 21.0979 16.5085 21.1186 16.5327C21.1026 16.5475 21.0866 16.5623 21.0712 16.5771C21.0452 16.5487 21.0102 16.5191 20.9487 16.4889C20.8001 16.4173 20.6633 16.4516 20.6006 16.5825C20.5361 16.7151 20.5887 16.8346 20.7255 16.9003C20.7752 16.9246 20.8125 16.9353 20.8338 16.9359C20.8605 16.885 20.8871 16.834 20.9137 16.7825C20.8735 16.763 20.8332 16.7435 20.793 16.7239C20.8019 16.7062 20.8113 16.6878 20.8202 16.6701C20.8859 16.702 20.9516 16.734 21.0173 16.7666C20.9735 16.8488 20.9297 16.9311 20.8865 17.0134Z" fill="#009B2D"/>
<path d="M21.4752 17.001C21.5006 17.0152 21.5261 17.0294 21.5521 17.0436C21.6327 17.0874 21.7067 17.0786 21.741 17.0217C21.7801 16.9578 21.7416 16.8986 21.6611 16.853C21.6238 16.8329 21.596 16.8216 21.5817 16.8181C21.5462 16.8791 21.5107 16.94 21.4752 17.001ZM21.5308 16.7305C21.5741 16.7447 21.6321 16.7713 21.6853 16.8003C21.7676 16.8459 21.8126 16.8879 21.8327 16.9371C21.8487 16.9761 21.8446 17.0194 21.8209 17.0572C21.7807 17.123 21.7061 17.1389 21.6338 17.1218C21.6338 17.123 21.6327 17.1235 21.6327 17.1247C21.6694 17.1626 21.6747 17.2135 21.6563 17.2721C21.6327 17.352 21.6173 17.4077 21.6173 17.4331C21.5918 17.4189 21.5664 17.4047 21.5415 17.3905C21.5403 17.3716 21.5539 17.3213 21.5752 17.2502C21.5995 17.1721 21.5841 17.1283 21.5172 17.0892C21.4935 17.0762 21.4705 17.0632 21.4462 17.0501C21.4042 17.123 21.3621 17.1952 21.3201 17.268C21.2952 17.2544 21.2704 17.2413 21.2461 17.2283C21.3408 17.062 21.4355 16.8968 21.5308 16.7305Z" fill="#009B2D"/>
<path d="M22.3916 17.5834C22.3188 17.5372 22.2454 17.491 22.172 17.4461C22.1329 17.5041 22.0939 17.5627 22.0554 17.6207C22.1359 17.6704 22.2158 17.7207 22.2957 17.7716C22.2833 17.7894 22.2715 17.806 22.259 17.8237C22.1566 17.7574 22.0524 17.6929 21.9482 17.6296C22.0554 17.4674 22.1619 17.3052 22.2691 17.1436C22.3739 17.2069 22.4781 17.272 22.5817 17.3377C22.5692 17.3555 22.5574 17.3721 22.545 17.3898C22.4668 17.3395 22.3881 17.2898 22.3088 17.2412C22.275 17.2927 22.2407 17.3431 22.2069 17.3946C22.2803 17.4395 22.3537 17.4857 22.4272 17.5325C22.4153 17.5497 22.4035 17.5668 22.3916 17.5834Z" fill="#009B2D"/>
<path d="M22.6391 17.9645C22.6581 18.0024 22.6936 18.0473 22.7421 18.0805C22.8132 18.1302 22.8795 18.1273 22.9156 18.0811C22.9493 18.0385 22.9393 17.9929 22.8842 17.9171C22.8156 17.8283 22.7889 17.7514 22.838 17.6851C22.8925 17.6122 23.0056 17.6075 23.1151 17.6833C23.1719 17.7235 23.2051 17.7638 23.2205 17.7934C23.2015 17.8046 23.182 17.8159 23.1625 17.8271C23.1512 17.8064 23.1246 17.7662 23.0742 17.7306C22.9979 17.6779 22.9399 17.6963 22.9156 17.7277C22.883 17.7715 22.9008 17.8159 22.9576 17.8934C23.0269 17.9887 23.0441 18.0598 22.9908 18.1273C22.9345 18.1971 22.825 18.2149 22.6989 18.1273C22.6474 18.0911 22.6001 18.0391 22.5835 18.0029C22.6024 17.9899 22.6208 17.9769 22.6391 17.9645Z" fill="#009B2D"/>
<path d="M23.269 18.4153C23.2861 18.455 23.3187 18.5017 23.3654 18.5373C23.4335 18.5905 23.5004 18.5917 23.5401 18.5473C23.5762 18.5065 23.5691 18.4609 23.5176 18.3822C23.4536 18.2898 23.4312 18.2111 23.4844 18.1483C23.543 18.0779 23.6573 18.0797 23.7627 18.1614C23.8177 18.2046 23.8485 18.2472 23.8627 18.2768C23.8426 18.2874 23.8225 18.2975 23.8029 18.3082C23.7923 18.2863 23.768 18.2448 23.7194 18.2069C23.646 18.1495 23.5863 18.1649 23.5608 18.1951C23.5247 18.2365 23.5401 18.2821 23.5928 18.3626C23.6573 18.4615 23.6703 18.5331 23.6123 18.5976C23.5519 18.6645 23.4412 18.6758 23.3193 18.5811C23.2701 18.5426 23.2251 18.4887 23.2109 18.4508C23.2299 18.4396 23.2494 18.4277 23.269 18.4153Z" fill="#009B2D"/>
<path d="M24.0621 18.7997C23.9751 18.8909 23.9556 19.0211 24.0568 19.1093C24.1574 19.1981 24.2942 19.1726 24.3895 19.0791C24.4736 18.998 24.5091 18.8642 24.3978 18.7671C24.2877 18.6701 24.1509 18.7068 24.0621 18.7997ZM24.4605 19.1389C24.3137 19.2786 24.1349 19.2603 24.0089 19.1501C23.8792 19.0359 23.868 18.8707 23.9905 18.7411C24.1178 18.6055 24.306 18.6037 24.4446 18.7257C24.586 18.85 24.5866 19.0181 24.4605 19.1389Z" fill="#009B2D"/>
</svg>
