<svg width="36" height="36" viewBox="0 0 36 36" fill="none" xmlns="http://www.w3.org/2000/svg">
<mask id="mask0_1469_7040" style="mask-type:luminance" maskUnits="userSpaceOnUse" x="0" y="0" width="36" height="36">
<path d="M0 0H36V36H0V0Z" fill="white"/>
</mask>
<g mask="url(#mask0_1469_7040)">
<path fill-rule="evenodd" clip-rule="evenodd" d="M17.9997 0C8.05861 0 0 8.05861 0 17.9997C0 27.9408 8.05861 36 17.9997 36C27.9408 36 36 27.9408 36 17.9997C36 8.05861 27.9408 0 17.9997 0Z" fill="#E92B2B"/>
</g>
<path fill-rule="evenodd" clip-rule="evenodd" d="M33.5919 26.9995H2.4082C3.38793 28.6938 4.63582 30.2128 6.09386 31.4997H29.9062C31.3643 30.2128 32.6121 28.6938 33.5919 26.9995Z" fill="#FBFBFB"/>
<mask id="mask1_1469_7040" style="mask-type:luminance" maskUnits="userSpaceOnUse" x="0" y="17" width="36" height="6">
<path d="M0 17.8923H36V22.5903H0V17.8923Z" fill="white"/>
</mask>
<g mask="url(#mask1_1469_7040)">
<path fill-rule="evenodd" clip-rule="evenodd" d="M36 17.9993H0C0 19.5532 0.196537 21.061 0.567116 22.4995H35.4329C35.8029 21.061 36 19.5532 36 17.9993Z" fill="#FBFBFB"/>
</g>
<path fill-rule="evenodd" clip-rule="evenodd" d="M33.5921 9H2.40844C1.60275 10.3929 0.978216 11.9037 0.567383 13.5002H35.4332C35.0223 11.9037 34.3984 10.3929 33.5921 9Z" fill="#FBFBFB"/>
<mask id="mask2_1469_7040" style="mask-type:luminance" maskUnits="userSpaceOnUse" x="6" y="0" width="25" height="5">
<path d="M6.07617 0H30.0205V4.55646H6.07617V0Z" fill="white"/>
</mask>
<g mask="url(#mask2_1469_7040)">
<path fill-rule="evenodd" clip-rule="evenodd" d="M29.9046 4.49963H6.09229C9.26529 1.69898 13.4334 0 17.9982 0C22.5635 0 26.7316 1.69898 29.9046 4.49963Z" fill="#FBFBFB"/>
</g>
<mask id="mask3_1469_7040" style="mask-type:luminance" maskUnits="userSpaceOnUse" x="0" y="0" width="17" height="19">
<path d="M0 0.0100098H16.2297V18.0441H0V0.0100098Z" fill="white"/>
</mask>
<g mask="url(#mask3_1469_7040)">
<path fill-rule="evenodd" clip-rule="evenodd" d="M16.2001 0.0891113V18H0C0 8.66629 7.10434 0.991879 16.2001 0.0891113Z" fill="#2A2FAF"/>
</g>
<path fill-rule="evenodd" clip-rule="evenodd" d="M2.74483 8.44336H3.51322L2.45536 9.21234L2.85968 10.4561L1.96875 9.80905C2.20791 9.34139 2.4672 8.88616 2.74483 8.44336Z" fill="#FBFBFB"/>
<path fill-rule="evenodd" clip-rule="evenodd" d="M0.42627 14.089C0.444621 14.0067 0.462972 13.925 0.482508 13.8434H1.39593L1.79966 12.5996L2.20398 13.8434H3.51166L2.4538 14.6117L2.85812 15.8555L1.79966 15.0871L0.741794 15.8555L1.14612 14.6117L0.42627 14.089Z" fill="#FBFBFB"/>
<path fill-rule="evenodd" clip-rule="evenodd" d="M6.41144 4.22564C6.91225 3.80415 7.43616 3.4093 7.98078 3.04346H8.91196L7.8535 3.81244L8.25782 5.05618L7.19996 4.2872L6.14209 5.05618L6.41144 4.22564Z" fill="#FBFBFB"/>
<path d="M7.20067 7.2002L7.60499 8.44394H8.91267L7.8548 9.21233L8.25913 10.4561L7.20067 9.68769L6.1428 10.4561L6.54712 9.21233L5.48926 8.44394H6.79694L7.20067 7.2002Z" fill="#FBFBFB"/>
<path d="M7.20067 12.5996L7.60499 13.8434H8.91267L7.8548 14.6117L8.25913 15.8555L7.20067 15.0871L6.1428 15.8555L6.54712 14.6117L5.48926 13.8434H6.79694L7.20067 12.5996Z" fill="#FBFBFB"/>
<path d="M12.6002 1.7998L13.0039 3.04355H14.3116L13.2537 3.81253L13.6581 5.05628L12.6002 4.2873L11.5417 5.05628L11.946 3.81253L10.8882 3.04355H12.1959L12.6002 1.7998Z" fill="#FBFBFB"/>
<path d="M12.6002 7.2002L13.0039 8.44394H14.3116L13.2537 9.21233L13.6581 10.4561L12.6002 9.68769L11.5417 10.4561L11.946 9.21233L10.8882 8.44394H12.1959L12.6002 7.2002Z" fill="#FBFBFB"/>
<path d="M12.6002 12.5996L13.0039 13.8434H14.3116L13.2537 14.6117L13.6581 15.8555L12.6002 15.0871L11.5417 15.8555L11.946 14.6117L10.8882 13.8434H12.1959L12.6002 12.5996Z" fill="#FBFBFB"/>
</svg>
