<svg width="1589" height="765" viewBox="0 0 1589 765" fill="none" xmlns="http://www.w3.org/2000/svg">
<rect width="1589" height="764.486" rx="44.1389" fill="#235D89"/>
<path fill-rule="evenodd" clip-rule="evenodd" d="M298.655 557.739C350.664 557.739 392.873 598.618 392.873 648.989C392.873 699.36 350.664 740.239 298.655 740.239C246.646 740.239 204.436 699.36 204.436 648.989C204.436 598.618 246.646 557.739 298.655 557.739ZM204.436 10.2373L392.873 192.738H204.436V10.2373ZM204.436 283.988H392.873V375.238H204.436V283.988ZM16 466.489L110.218 375.238V466.489H16ZM581.309 740.239H504.728V631.908C504.728 591.028 538.947 557.739 581.309 557.739V740.239Z" fill="#30B5AB"/>
<path fill-rule="evenodd" clip-rule="evenodd" d="M581.309 283.988C581.309 334.359 539.1 375.238 487.091 375.238C435.082 375.238 392.873 334.359 392.873 283.988V101.488C392.873 51.1168 435.082 10.2373 487.091 10.2373C539.1 10.2373 581.309 51.1168 581.309 101.488V283.988ZM16 192.738H204.436V283.988H16V192.738ZM722.713 375.238C748.79 375.238 769.746 395.678 769.746 420.789C769.746 445.901 748.641 466.344 722.713 466.344C696.785 466.344 675.677 445.901 675.677 420.789C675.527 395.678 696.632 375.238 722.713 375.238ZM392.873 557.739V375.238L487.091 557.739H392.873ZM110.218 466.488H204.436V557.739H110.218V466.488ZM675.527 557.739H722.56V603.29H675.527V557.739Z" fill="url(#paint0_linear_2109_7453)"/>
<path fill-rule="evenodd" clip-rule="evenodd" d="M176.851 166.021C159.21 183.102 135.241 192.738 110.218 192.738C58.2092 192.738 16 151.858 16 101.488V10.2373H110.218C162.227 10.2373 204.436 51.1169 204.436 101.488C204.436 125.722 194.488 148.936 176.851 166.021ZM581.309 375.238V192.738H769.746L581.309 375.238ZM392.873 557.739C288.855 557.739 204.436 475.98 204.436 375.238H392.873V557.739ZM204.436 740.239H16C16 639.498 100.418 557.739 204.436 557.739V740.239ZM581.309 466.489H675.527V557.739H581.309V466.489ZM769.746 603.29V740.239H581.309L769.746 603.29Z" fill="#3A50BF"/>
<path d="M155.121 140.572L59.9639 50.1969C57.5574 47.9103 53.6732 47.9103 51.2667 50.1969L51.1016 50.3546C48.6745 52.6569 48.6745 56.4061 51.1016 58.7084L146.271 149.095C148.797 151.496 152.925 151.358 155.269 148.792L155.426 148.622C157.564 146.284 157.432 142.76 155.129 140.572H155.121Z" fill="white"/>
<path d="M157.402 108.848L93.1038 47.7804C91.948 46.6844 90.3836 46.0654 88.7531 46.0654H88.4187C82.9164 46.0654 80.1674 52.4284 84.0681 56.1342L148.7 117.521C152.593 121.215 159.218 118.585 159.218 113.342V113.027C159.218 111.458 158.561 109.956 157.397 108.848H157.402Z" fill="white"/>
<path d="M157.397 75.294L128.424 47.7762C127.268 46.6802 125.704 46.0613 124.073 46.0613H123.739C118.237 46.0613 115.488 52.4243 119.388 56.1301L148.695 83.9632C152.588 87.6572 159.213 85.0277 159.213 79.7843V79.4689C159.213 77.8999 158.557 76.3978 157.393 75.29L157.397 75.294Z" fill="white"/>
<path d="M48.5193 124.747L77.0214 151.819C78.1771 152.915 79.7416 153.534 81.372 153.534H81.7064C87.2086 153.534 89.9577 147.171 86.057 143.465L57.2206 116.078C53.3281 112.384 46.7031 115.013 46.7031 120.257V120.572C46.7031 122.141 47.3594 123.643 48.5234 124.751L48.5193 124.747Z" fill="white"/>
<path d="M48.5193 91.1937L112.347 151.815C113.502 152.911 115.067 153.53 116.697 153.53H117.032C122.534 153.53 125.283 147.167 121.382 143.462L57.2206 82.5244C53.3281 78.8304 46.7031 81.4599 46.7031 86.7033V87.0187C46.7031 88.5878 47.3594 90.0898 48.5234 91.1976L48.5193 91.1937Z" fill="white"/>
<path d="M667.751 454.322V500.371C667.751 521.241 650.037 538.157 628.189 538.157C606.337 538.157 588.626 521.238 588.626 500.371V454.322H573.633V558.534H682.745V454.322H667.751Z" fill="#30B5AB"/>
<path d="M667.746 500.37C667.746 521.241 650.032 538.156 628.184 538.156C606.332 538.156 588.621 521.237 588.621 500.37H667.746Z" fill="#3A50BF"/>
<path d="M667.751 454.322V500.371C667.751 521.241 650.037 538.157 628.189 538.157C606.337 538.157 588.626 521.238 588.626 500.371V454.322H573.633V558.534H682.745V454.322H667.751Z" fill="url(#paint1_linear_2109_7453)"/>
<path d="M667.746 500.37C667.746 521.241 650.032 538.156 628.184 538.156C606.332 538.156 588.621 521.237 588.621 500.37H667.746Z" fill="url(#paint2_linear_2109_7453)"/>
<path d="M667.746 500.37C667.746 521.241 650.032 538.156 628.184 538.156C606.332 538.156 588.621 521.237 588.621 500.37H667.746Z" fill="url(#paint3_linear_2109_7453)"/>
<path d="M231.955 719.246C270.5 756.25 333 756.25 371.545 719.246C371.609 719.185 371.672 719.118 371.736 719.051L232.151 585.05C232.088 585.111 232.018 585.172 231.948 585.233C193.403 622.237 193.403 682.236 231.948 719.24L231.955 719.246Z" fill="url(#paint4_linear_2109_7453)"/>
<path d="M371.184 584.14C332.976 547.136 271.025 547.136 232.818 584.14C232.755 584.201 232.692 584.268 232.629 584.335L370.989 718.336C371.052 718.275 371.121 718.214 371.19 718.153C409.398 681.149 409.398 621.15 371.19 584.146L371.184 584.14Z" fill="#30B5AB"/>
<path d="M371.184 584.14C332.976 547.136 271.025 547.136 232.818 584.14C232.755 584.201 232.692 584.268 232.629 584.335L370.989 718.336C371.052 718.275 371.121 718.214 371.19 718.153C409.398 681.149 409.398 621.15 371.19 584.146L371.184 584.14Z" fill="url(#paint5_linear_2109_7453)"/>
<path d="M231.955 719.246C270.5 756.25 333 756.25 371.545 719.246C371.609 719.185 371.672 719.118 371.736 719.051L232.151 585.05C232.088 585.111 232.018 585.172 231.948 585.233C193.403 622.237 193.403 682.236 231.948 719.24L231.955 719.246Z" fill="url(#paint6_linear_2109_7453)"/>
<path d="M349.533 671.153C349.533 697.214 327.335 718.336 299.96 718.336C272.585 718.336 250.387 697.208 250.387 671.153C250.387 645.097 299.96 585.05 299.96 585.05C299.96 585.05 349.533 645.091 349.533 671.153Z" fill="white"/>
<path d="M622.383 51.7036L769.486 192.062V51.7036H622.383ZM765.789 128.295C765.248 129.072 764.722 129.826 764.313 130.409C760.108 136.413 755.913 142.417 751.713 148.426C749.94 150.966 746.027 150.962 744.249 148.426C739.541 141.69 734.848 134.977 730.126 128.219C728.922 126.496 730.211 124.185 732.383 124.185H737.627C737.651 124.185 737.67 124.167 737.67 124.145C737.373 112.127 732.839 101.941 723.179 94.3344C709.442 83.5197 694.542 82.0253 678.876 88.5591C677.338 89.2008 675.622 88.0924 675.636 86.4948C675.674 82.2856 675.208 75.2358 675.208 71.2285C675.208 68.9579 677.668 67.8046 678.35 67.6116C681.849 66.6199 685.399 65.8795 689.04 65.4621C693.042 65.0044 697.049 64.9102 701.065 65.2019C707.429 65.6641 713.585 67.0058 719.492 69.3169C732.266 74.3159 742.264 82.4606 749.441 93.6927C753.862 100.612 756.665 108.12 757.719 116.184C758.034 118.612 758.133 121.066 758.335 123.507C758.349 123.705 758.373 123.907 758.396 124.176C759.53 124.176 760.616 124.18 761.702 124.176C762.191 124.176 762.812 124.176 763.48 124.176C765.695 124.176 767.022 126.536 765.789 128.295Z" fill="#30B5AB"/>
<path d="M628.94 125.253C626.713 125.253 625.38 122.887 626.619 121.124C627.162 120.346 627.692 119.591 628.103 119.006C632.33 112.988 636.547 106.971 640.769 100.948C642.551 98.4027 646.485 98.4072 648.272 100.948C653.004 107.699 657.723 114.427 662.469 121.201C663.68 122.928 662.384 125.244 660.2 125.244H654.929C654.905 125.244 654.886 125.262 654.886 125.285C655.184 137.329 659.741 147.538 669.452 155.162C683.262 166.001 698.24 167.499 713.988 160.95C715.534 160.307 717.259 161.418 717.245 163.019C717.207 167.238 717.675 174.303 717.675 178.32C717.675 180.595 715.203 181.751 714.517 181.945C711 182.939 707.43 183.681 703.771 184.094C699.748 184.553 695.72 184.648 691.682 184.355C685.285 183.892 679.097 182.547 673.159 180.231C660.318 175.221 650.267 167.058 643.052 155.8C638.608 148.865 635.791 141.341 634.732 133.259C634.415 130.826 634.315 128.365 634.112 125.919C634.098 125.721 634.074 125.518 634.051 125.249C632.911 125.249 631.819 125.244 630.727 125.249C630.235 125.249 629.611 125.249 628.94 125.249V125.253Z" fill="#30B5AB"/>
<path d="M622.383 50.7927L769.486 191.151V50.7927H622.383ZM765.789 127.385C765.248 128.161 764.722 128.915 764.313 129.498C760.108 135.502 755.913 141.507 751.713 147.515C749.94 150.055 746.027 150.051 744.249 147.515C739.541 140.78 734.848 134.066 730.126 127.308C728.922 125.585 730.211 123.274 732.383 123.274H737.627C737.651 123.274 737.67 123.256 737.67 123.234C737.373 111.216 732.839 101.03 723.179 93.4235C709.442 82.6088 694.542 81.1144 678.876 87.6482C677.338 88.2899 675.622 87.1815 675.636 85.5839C675.674 81.3747 675.208 74.3249 675.208 70.3176C675.208 68.047 677.668 66.8937 678.35 66.7008C681.849 65.709 685.399 64.9686 689.04 64.5512C693.042 64.0935 697.049 63.9993 701.065 64.291C707.429 64.7532 713.585 66.0949 719.492 68.406C732.266 73.405 742.264 81.5497 749.441 92.7818C753.862 99.7015 756.665 107.209 757.719 115.273C758.034 117.701 758.133 120.155 758.335 122.596C758.349 122.794 758.373 122.996 758.396 123.265C759.53 123.265 760.616 123.27 761.702 123.265C762.191 123.265 762.812 123.265 763.48 123.265C765.695 123.265 767.022 125.625 765.789 127.385Z" fill="url(#paint7_linear_2109_7453)"/>
<path d="M628.44 125.082C626.213 125.082 624.88 122.746 626.119 121.004C626.662 120.236 627.192 119.49 627.603 118.912C631.83 112.969 636.047 107.025 640.269 101.078C642.051 98.5634 645.985 98.5678 647.772 101.078C652.504 107.745 657.223 114.39 661.969 121.08C663.18 122.786 661.884 125.073 659.7 125.073H654.429C654.405 125.073 654.386 125.091 654.386 125.113C654.684 137.009 659.241 147.092 668.952 154.622C682.762 165.327 697.74 166.806 713.488 160.339C715.034 159.703 716.759 160.801 716.745 162.382C716.707 166.549 717.175 173.527 717.175 177.494C717.175 179.741 714.703 180.883 714.017 181.074C710.5 182.056 706.93 182.789 703.271 183.197C699.248 183.65 695.22 183.744 691.182 183.455C684.785 182.997 678.597 181.669 672.659 179.382C659.818 174.433 649.767 166.371 642.552 155.252C638.108 148.403 635.291 140.971 634.232 132.989C633.915 130.586 633.815 128.156 633.612 125.74C633.598 125.544 633.574 125.344 633.551 125.078C632.411 125.078 631.319 125.073 630.227 125.078C629.735 125.078 629.111 125.078 628.44 125.078V125.082Z" fill="url(#paint8_linear_2109_7453)"/>
<path fill-rule="evenodd" clip-rule="evenodd" d="M1102.91 557.739C1154.92 557.739 1197.13 598.618 1197.13 648.989C1197.13 699.36 1154.92 740.239 1102.91 740.239C1050.9 740.239 1008.69 699.36 1008.69 648.989C1008.69 598.618 1050.9 557.739 1102.91 557.739ZM1008.69 10.2373L1197.13 192.738H1008.69V10.2373ZM1008.69 283.988H1197.13V375.238H1008.69V283.988ZM820.254 466.489L914.472 375.238V466.489H820.254ZM1385.56 740.239H1308.98V631.908C1308.98 591.028 1343.2 557.739 1385.56 557.739V740.239Z" fill="#30B5AB"/>
<path fill-rule="evenodd" clip-rule="evenodd" d="M1385.56 283.988C1385.56 334.359 1343.35 375.238 1291.34 375.238C1239.34 375.238 1197.13 334.359 1197.13 283.988V101.488C1197.13 51.1168 1239.34 10.2373 1291.34 10.2373C1343.35 10.2373 1385.56 51.1168 1385.56 101.488V283.988ZM820.254 192.738H1008.69V283.988H820.254V192.738ZM1526.97 375.238C1553.04 375.238 1574 395.678 1574 420.789C1574 445.901 1552.9 466.344 1526.97 466.344C1501.04 466.344 1479.93 445.901 1479.93 420.789C1479.78 395.678 1500.89 375.238 1526.97 375.238ZM1197.13 557.739V375.238L1291.34 557.739H1197.13ZM914.472 466.488H1008.69V557.739H914.472V466.488ZM1479.78 557.739H1526.81V603.29H1479.78V557.739Z" fill="url(#paint9_linear_2109_7453)"/>
<path fill-rule="evenodd" clip-rule="evenodd" d="M981.105 166.021C963.464 183.102 939.495 192.738 914.472 192.738C862.463 192.738 820.254 151.858 820.254 101.488V10.2373H914.472C966.481 10.2373 1008.69 51.1169 1008.69 101.488C1008.69 125.722 998.741 148.936 981.105 166.021ZM1385.56 375.238V192.738H1574L1385.56 375.238ZM1197.13 557.739C1093.11 557.739 1008.69 475.98 1008.69 375.238H1197.13V557.739ZM1008.69 740.239H820.254C820.254 639.498 904.672 557.739 1008.69 557.739V740.239ZM1385.56 466.489H1479.78V557.739H1385.56V466.489ZM1574 603.29V740.239H1385.56L1574 603.29Z" fill="#3A50BF"/>
<path d="M959.386 140.572L864.229 50.1969C861.823 47.9103 857.939 47.9103 855.532 50.1969L855.367 50.3546C852.94 52.6569 852.94 56.4061 855.367 58.7084L950.536 149.095C953.063 151.496 957.19 151.358 959.535 148.792L959.692 148.622C961.83 146.284 961.698 142.76 959.395 140.572H959.386Z" fill="white"/>
<path d="M961.663 108.848L897.365 47.7804C896.21 46.6844 894.645 46.0654 893.015 46.0654H892.68C887.178 46.0654 884.429 52.4284 888.33 56.1342L952.962 117.521C956.854 121.215 963.48 118.585 963.48 113.342V113.027C963.48 111.458 962.823 109.956 961.659 108.848H961.663Z" fill="white"/>
<path d="M961.658 75.294L932.686 47.7762C931.53 46.6802 929.966 46.0613 928.335 46.0613H928.001C922.499 46.0613 919.749 52.4243 923.65 56.1301L952.957 83.9632C956.85 87.6572 963.475 85.0277 963.475 79.7843V79.4689C963.475 77.8999 962.818 76.3978 961.654 75.29L961.658 75.294Z" fill="white"/>
<path d="M852.785 124.747L881.287 151.819C882.443 152.915 884.007 153.534 885.638 153.534H885.972C891.474 153.534 894.223 147.171 890.323 143.465L861.486 116.078C857.594 112.384 850.969 115.013 850.969 120.257V120.572C850.969 122.141 851.625 123.643 852.789 124.751L852.785 124.747Z" fill="white"/>
<path d="M852.785 91.1937L916.612 151.815C917.768 152.911 919.332 153.53 920.963 153.53H921.297C926.8 153.53 929.549 147.167 925.648 143.462L861.486 82.5244C857.594 78.8304 850.969 81.4599 850.969 86.7033V87.0187C850.969 88.5878 851.625 90.0898 852.789 91.1976L852.785 91.1937Z" fill="white"/>
<path d="M1472.01 454.322V500.371C1472.01 521.241 1454.29 538.157 1432.45 538.157C1410.59 538.157 1392.88 521.238 1392.88 500.371V454.322H1377.89V558.534H1487V454.322H1472.01Z" fill="#30B5AB"/>
<path d="M1472.02 500.37C1472.02 521.241 1454.3 538.156 1432.45 538.156C1410.6 538.156 1392.89 521.237 1392.89 500.37H1472.02Z" fill="#3A50BF"/>
<path d="M1472.01 454.322V500.371C1472.01 521.241 1454.29 538.157 1432.45 538.157C1410.59 538.157 1392.88 521.238 1392.88 500.371V454.322H1377.89V558.534H1487V454.322H1472.01Z" fill="url(#paint10_linear_2109_7453)"/>
<path d="M1472.02 500.37C1472.02 521.241 1454.3 538.156 1432.45 538.156C1410.6 538.156 1392.89 521.237 1392.89 500.37H1472.02Z" fill="url(#paint11_linear_2109_7453)"/>
<path d="M1472.02 500.37C1472.02 521.241 1454.3 538.156 1432.45 538.156C1410.6 538.156 1392.89 521.237 1392.89 500.37H1472.02Z" fill="url(#paint12_linear_2109_7453)"/>
<path d="M1036.22 719.246C1074.76 756.25 1137.26 756.25 1175.81 719.246C1175.87 719.185 1175.93 719.118 1176 719.051L1036.41 585.05C1036.35 585.111 1036.28 585.172 1036.21 585.233C997.664 622.237 997.664 682.236 1036.21 719.24L1036.22 719.246Z" fill="url(#paint13_linear_2109_7453)"/>
<path d="M1175.45 584.14C1137.25 547.136 1075.29 547.136 1037.09 584.14C1037.02 584.201 1036.96 584.268 1036.9 584.335L1175.26 718.336C1175.32 718.275 1175.39 718.214 1175.46 718.153C1213.67 681.149 1213.67 621.15 1175.46 584.146L1175.45 584.14Z" fill="#30B5AB"/>
<path d="M1175.45 584.14C1137.25 547.136 1075.29 547.136 1037.09 584.14C1037.02 584.201 1036.96 584.268 1036.9 584.335L1175.26 718.336C1175.32 718.275 1175.39 718.214 1175.46 718.153C1213.67 681.149 1213.67 621.15 1175.46 584.146L1175.45 584.14Z" fill="url(#paint14_linear_2109_7453)"/>
<path d="M1036.22 719.246C1074.76 756.25 1137.26 756.25 1175.81 719.246C1175.87 719.185 1175.93 719.118 1176 719.051L1036.41 585.05C1036.35 585.111 1036.28 585.172 1036.21 585.233C997.664 622.237 997.664 682.236 1036.21 719.24L1036.22 719.246Z" fill="url(#paint15_linear_2109_7453)"/>
<path d="M1153.8 671.153C1153.8 697.214 1131.6 718.336 1104.23 718.336C1076.85 718.336 1054.66 697.208 1054.66 671.153C1054.66 645.097 1104.23 585.05 1104.23 585.05C1104.23 585.05 1153.8 645.091 1153.8 671.153Z" fill="white"/>
<path d="M1426.64 51.7036L1573.74 192.062V51.7036H1426.64ZM1570.04 128.295C1569.5 129.072 1568.98 129.826 1568.57 130.409C1564.36 136.413 1560.17 142.417 1555.97 148.426C1554.19 150.966 1550.28 150.962 1548.5 148.426C1543.8 141.69 1539.1 134.977 1534.38 128.219C1533.18 126.496 1534.46 124.185 1536.64 124.185H1541.88C1541.9 124.185 1541.92 124.167 1541.92 124.145C1541.63 112.127 1537.09 101.941 1527.43 94.3344C1513.7 83.5197 1498.8 82.0253 1483.13 88.5591C1481.59 89.2008 1479.88 88.0924 1479.89 86.4948C1479.93 82.2856 1479.46 75.2358 1479.46 71.2285C1479.46 68.9579 1481.92 67.8046 1482.6 67.6116C1486.1 66.6199 1489.65 65.8795 1493.29 65.4621C1497.3 65.0044 1501.3 64.9102 1505.32 65.2019C1511.68 65.6641 1517.84 67.0058 1523.75 69.3169C1536.52 74.3159 1546.52 82.4606 1553.7 93.6927C1558.12 100.612 1560.92 108.12 1561.97 116.184C1562.29 118.612 1562.39 121.066 1562.59 123.507C1562.6 123.705 1562.63 123.907 1562.65 124.176C1563.78 124.176 1564.87 124.18 1565.96 124.176C1566.45 124.176 1567.07 124.176 1567.73 124.176C1569.95 124.176 1571.28 126.536 1570.04 128.295Z" fill="#30B5AB"/>
<path d="M1433.2 125.253C1430.97 125.253 1429.64 122.887 1430.88 121.124C1431.42 120.346 1431.95 119.591 1432.36 119.006C1436.59 112.988 1440.8 106.971 1445.03 100.948C1446.81 98.4027 1450.74 98.4072 1452.53 100.948C1457.26 107.699 1461.98 114.427 1466.73 121.201C1467.94 122.928 1466.64 125.244 1464.46 125.244H1459.19C1459.16 125.244 1459.14 125.262 1459.14 125.285C1459.44 137.329 1464 147.538 1473.71 155.162C1487.52 166.001 1502.5 167.499 1518.25 160.95C1519.79 160.307 1521.52 161.418 1521.5 163.019C1521.47 167.238 1521.93 174.303 1521.93 178.32C1521.93 180.595 1519.46 181.751 1518.77 181.945C1515.26 182.939 1511.69 183.681 1508.03 184.094C1504.01 184.553 1499.98 184.648 1495.94 184.355C1489.54 183.892 1483.35 182.547 1477.42 180.231C1464.58 175.221 1454.52 167.058 1447.31 155.8C1442.87 148.865 1440.05 141.341 1438.99 133.259C1438.67 130.826 1438.57 128.365 1438.37 125.919C1438.36 125.721 1438.33 125.518 1438.31 125.249C1437.17 125.249 1436.08 125.244 1434.98 125.249C1434.49 125.249 1433.87 125.249 1433.2 125.249V125.253Z" fill="#30B5AB"/>
<path d="M1426.64 50.7927L1573.74 191.151V50.7927H1426.64ZM1570.04 127.385C1569.5 128.161 1568.98 128.915 1568.57 129.498C1564.36 135.502 1560.17 141.507 1555.97 147.515C1554.19 150.055 1550.28 150.051 1548.5 147.515C1543.8 140.78 1539.1 134.066 1534.38 127.308C1533.18 125.585 1534.46 123.274 1536.64 123.274H1541.88C1541.9 123.274 1541.92 123.256 1541.92 123.234C1541.63 111.216 1537.09 101.03 1527.43 93.4235C1513.7 82.6088 1498.8 81.1144 1483.13 87.6482C1481.59 88.2899 1479.88 87.1815 1479.89 85.5839C1479.93 81.3747 1479.46 74.3249 1479.46 70.3176C1479.46 68.047 1481.92 66.8937 1482.6 66.7008C1486.1 65.709 1489.65 64.9686 1493.29 64.5512C1497.3 64.0935 1501.3 63.9993 1505.32 64.291C1511.68 64.7532 1517.84 66.0949 1523.75 68.406C1536.52 73.405 1546.52 81.5497 1553.7 92.7818C1558.12 99.7015 1560.92 107.209 1561.97 115.273C1562.29 117.701 1562.39 120.155 1562.59 122.596C1562.6 122.794 1562.63 122.996 1562.65 123.265C1563.78 123.265 1564.87 123.27 1565.96 123.265C1566.45 123.265 1567.07 123.265 1567.73 123.265C1569.95 123.265 1571.28 125.625 1570.04 127.385Z" fill="url(#paint16_linear_2109_7453)"/>
<path d="M1432.71 125.082C1430.49 125.082 1429.15 122.746 1430.39 121.004C1430.94 120.236 1431.47 119.49 1431.88 118.912C1436.1 112.969 1440.32 107.025 1444.54 101.078C1446.32 98.5634 1450.26 98.5678 1452.05 101.078C1456.78 107.745 1461.5 114.39 1466.24 121.08C1467.45 122.786 1466.16 125.073 1463.97 125.073H1458.7C1458.68 125.073 1458.66 125.091 1458.66 125.113C1458.96 137.009 1463.51 147.092 1473.23 154.622C1487.04 165.327 1502.01 166.806 1517.76 160.339C1519.31 159.703 1521.03 160.801 1521.02 162.382C1520.98 166.549 1521.45 173.527 1521.45 177.494C1521.45 179.741 1518.98 180.883 1518.29 181.074C1514.77 182.056 1511.2 182.789 1507.54 183.197C1503.52 183.65 1499.49 183.744 1495.46 183.455C1489.06 182.997 1482.87 181.669 1476.93 179.382C1464.09 174.433 1454.04 166.371 1446.83 155.252C1442.38 148.403 1439.56 140.971 1438.5 132.989C1438.19 130.586 1438.09 128.156 1437.89 125.74C1437.87 125.544 1437.85 125.344 1437.82 125.078C1436.68 125.078 1435.59 125.073 1434.5 125.078C1434.01 125.078 1433.38 125.078 1432.71 125.078V125.082Z" fill="url(#paint17_linear_2109_7453)"/>
<rect x="1013" y="149" width="189.749" height="83.8005" fill="#F4F5FD"/>
<rect x="370.344" y="222.285" width="814.932" height="298.063" fill="#F4F5FD"/>
<rect x="452.602" y="73.729" width="190.845" height="217.12" fill="#F4F5FD"/>
<rect x="587.508" y="128.961" width="429.951" height="124.749" fill="#F4F5FD"/>
<rect x="1073.46" y="217.163" width="222.46" height="141.244" fill="#F4F5FD"/>
<rect x="263.949" y="358.46" width="180.974" height="161.887" fill="#F4F5FD"/>
<rect x="463.574" y="512.729" width="721.703" height="161.887" fill="#F4F5FD"/>
<rect x="1099.06" y="519.956" width="153.603" height="154.486" fill="#F4F5FD"/>
<rect x="637.961" y="669.855" width="379.497" height="62.8504" fill="#F4F5FD"/>
<rect x="841.973" y="43.2563" width="175.49" height="179.028" fill="#F4F5FD"/>
<path d="M863.859 280.917V273.5H900.119V280.917H863.859Z" fill="url(#paint18_linear_2109_7453)"/>
<path d="M891.135 248.157C891.687 246.209 893.753 245.016 895.636 245.758L902.723 248.553C904.137 249.11 904.97 250.593 904.621 252.072C903.745 255.776 902.529 258.951 900.973 261.594C899.07 264.828 896.702 267.267 893.869 268.913C891.058 270.558 887.473 271.381 883.113 271.381C877.823 271.381 873.497 270.385 870.133 268.393C866.791 266.372 863.903 262.836 861.468 257.783C859.034 252.731 857.816 246.264 857.816 238.382C857.816 227.874 859.952 219.805 864.223 214.175C868.517 208.516 874.581 205.687 882.416 205.687C888.546 205.687 893.36 207.304 896.857 210.537C899.837 213.275 902.166 217.256 903.844 222.479C904.369 224.111 903.385 225.813 901.739 226.291L894.611 228.36C892.869 228.866 891.121 227.787 890.449 226.102C890.286 225.693 890.12 225.34 889.951 225.044C889.11 223.543 888.081 222.388 886.864 221.58C885.647 220.772 884.286 220.368 882.781 220.368C879.373 220.368 876.761 222.157 874.946 225.737C873.574 228.393 872.888 232.565 872.888 238.253C872.888 245.297 873.707 250.133 875.345 252.76C876.982 255.358 879.284 256.657 882.25 256.657C885.127 256.657 887.296 255.604 888.756 253.496C889.723 252.122 890.516 250.342 891.135 248.157Z" fill="url(#paint19_linear_2109_7453)"/>
<path d="M964.85 258.665C964.651 256.966 965.936 255.483 967.64 255.324L975.771 254.566C977.523 254.402 979.05 255.7 979.36 257.433C979.711 259.397 980.206 260.989 980.847 262.209C982.402 265.153 984.623 266.626 987.511 266.626C989.666 266.626 991.321 265.881 992.476 264.392C993.654 262.871 994.242 261.117 994.242 259.132C994.242 257.247 993.687 255.559 992.576 254.071C991.465 252.582 988.889 251.176 984.846 249.853C978.226 247.636 973.505 244.692 970.684 241.019C967.84 237.347 966.419 232.666 966.419 226.976C966.419 223.237 967.141 219.714 968.585 216.406C970.051 213.064 972.239 210.451 975.149 208.565C978.081 206.646 982.091 205.687 987.178 205.687C993.42 205.687 998.174 207.424 1001.44 210.898C1004.25 213.84 1006.09 218.284 1006.95 224.228C1007.2 225.96 1005.9 227.496 1004.15 227.648L996.156 228.345C994.441 228.494 992.959 227.24 992.541 225.57C992.103 223.816 991.481 222.448 990.677 221.468C989.477 219.979 987.811 219.234 985.679 219.234C983.924 219.234 982.602 219.797 981.713 220.922C980.825 222.013 980.38 223.353 980.38 224.941C980.38 226.099 980.747 227.141 981.48 228.068C982.191 229.027 983.879 229.92 986.545 230.747C993.143 232.865 997.863 235.015 1000.71 237.198C1003.57 239.349 1005.65 242.029 1006.94 245.238C1008.25 248.447 1008.9 252.036 1008.9 256.006C1008.9 260.671 1008.04 264.971 1006.3 268.908C1004.57 272.845 1002.15 275.839 999.041 277.89C995.931 279.908 992.01 280.917 987.278 280.917C978.97 280.917 973.216 278.535 970.017 273.771C967.274 269.685 965.551 264.65 964.85 258.665Z" fill="url(#paint20_linear_2109_7453)"/>
<path d="M944.133 271.083C943.848 269.584 942.537 268.499 941.01 268.499H929.346C927.816 268.499 926.503 269.588 926.221 271.091L924.864 278.325C924.582 279.828 923.269 280.917 921.74 280.917H913.217C911.161 280.917 909.646 278.995 910.126 276.996L926.68 208.123C927.024 206.694 928.301 205.687 929.771 205.687H940.972C942.441 205.687 943.719 206.694 944.063 208.123L960.617 276.996C961.097 278.995 959.582 280.917 957.526 280.917H948.635C947.109 280.917 945.798 279.832 945.512 278.333L944.133 271.083ZM936.659 252.231C938.661 252.231 940.164 250.403 939.778 248.439L938.336 241.103C937.663 237.68 932.766 237.683 932.097 241.107L930.664 248.443C930.28 250.406 931.784 252.231 933.784 252.231H936.659Z" fill="url(#paint21_linear_2109_7453)"/>
<path d="M804.434 208.866C804.434 207.11 805.857 205.687 807.612 205.687H816.335C817.597 205.687 818.74 206.434 819.247 207.59L830.565 233.411C831.947 236.564 836.655 235.577 836.655 232.135V208.866C836.655 207.11 838.078 205.687 839.833 205.687H847.587C849.343 205.687 850.766 207.11 850.766 208.866V277.739C850.766 279.494 849.343 280.917 847.587 280.917H838.73C837.469 280.917 836.327 280.172 835.82 279.017L824.601 253.472C823.217 250.321 818.512 251.309 818.512 254.75V277.739C818.512 279.494 817.089 280.917 815.333 280.917H807.612C805.857 280.917 804.434 279.494 804.434 277.739V208.866Z" fill="url(#paint22_linear_2109_7453)"/>
<path d="M781.635 271.072C781.345 269.578 780.037 268.499 778.514 268.499H766.505C764.98 268.499 763.67 269.582 763.383 271.08L761.996 278.336C761.709 279.834 760.399 280.917 758.874 280.917H750.067C748.005 280.917 746.489 278.985 746.98 276.982L763.852 208.109C764.2 206.687 765.475 205.687 766.939 205.687H778.475C779.939 205.687 781.214 206.687 781.562 208.109L798.434 276.982C798.925 278.985 797.409 280.917 795.347 280.917H786.166C784.643 280.917 783.335 279.838 783.045 278.344L781.635 271.072ZM774.08 252.231C776.086 252.231 777.591 250.395 777.196 248.428L775.666 240.791C774.983 237.384 770.111 237.387 769.432 240.795L767.911 248.432C767.52 250.398 769.024 252.231 771.029 252.231H774.08Z" fill="url(#paint23_linear_2109_7453)"/>
<path d="M675.712 208.866C675.712 207.11 677.135 205.687 678.891 205.687H687.439C689.194 205.687 690.617 207.11 690.617 208.866V249.756C690.617 254.126 690.167 258.261 689.265 262.16C688.386 266.026 686.99 269.421 685.077 272.346C683.187 275.236 681.197 277.27 679.109 278.447C676.207 280.094 672.722 280.917 668.655 280.917C666.303 280.917 663.73 280.665 660.938 280.161C658.168 279.657 655.849 278.665 653.98 277.186C652.112 275.673 650.397 273.539 648.836 270.782C647.297 268.026 646.242 265.186 645.67 262.261C644.747 257.555 644.285 253.387 644.285 249.756V208.866C644.285 207.11 645.708 205.687 647.464 205.687H656.012C657.767 205.687 659.191 207.11 659.191 208.866V250.815C659.191 254.849 659.916 258.009 661.367 260.295C662.84 262.547 664.874 263.673 667.468 263.673C670.04 263.673 672.052 262.564 673.503 260.345C674.975 258.093 675.712 254.916 675.712 250.815V208.866Z" fill="url(#paint24_linear_2109_7453)"/>
<path d="M578.82 208.866C578.82 207.11 580.243 205.687 581.999 205.687H596.155C597.707 205.687 599.032 206.807 599.29 208.337L603.428 232.852C604.025 236.386 609.103 236.385 609.697 232.85L613.817 208.339C614.074 206.808 615.399 205.687 616.952 205.687H631.039C632.794 205.687 634.218 207.11 634.218 208.866V277.739C634.218 279.494 632.794 280.917 631.039 280.917H624.966C623.211 280.917 621.788 279.494 621.788 277.739V261.641C621.788 257.741 616.12 257.268 615.474 261.114L612.592 278.265C612.334 279.796 611.009 280.917 609.457 280.917H603.583C602.03 280.917 600.704 279.795 600.447 278.264L597.598 261.247C596.953 257.4 591.284 257.871 591.284 261.772V277.739C591.284 279.494 589.861 280.917 588.105 280.917H581.999C580.243 280.917 578.82 279.494 578.82 277.739V208.866Z" fill="url(#paint25_linear_2109_7453)"/>
<path d="M723.304 205.687C727.761 205.687 731.356 206.611 734.089 208.458C736.844 210.306 739.117 212.957 740.909 216.413C742.701 219.868 744 223.887 744.807 228.471C745.613 233.055 746.017 237.914 746.017 243.045C746.017 251.085 745.412 257.328 744.202 261.776C743.015 266.189 741.357 269.901 739.229 272.912C737.102 275.888 734.817 277.873 732.375 278.865C729.038 280.233 726.014 280.917 723.304 280.917H703.87C702.115 280.917 700.691 279.494 700.691 277.739V208.866C700.691 207.11 702.115 205.687 703.87 205.687H723.304Z" fill="url(#paint26_linear_2109_7453)"/>
<path d="M834.434 317.602C834.434 315.846 835.857 314.423 837.612 314.423H846.363C848.119 314.423 849.542 315.846 849.542 317.602V386.474C849.542 388.23 848.119 389.653 846.363 389.653H837.612C835.857 389.653 834.434 388.23 834.434 386.474V317.602Z" fill="url(#paint27_linear_2109_7453)"/>
<path d="M781.047 317.602C781.047 315.846 782.47 314.423 784.226 314.423H824.2C825.956 314.423 827.379 315.846 827.379 317.602V329.821C827.379 331.576 825.956 333 824.2 333H815.013C813.257 333 811.834 334.423 811.834 336.178V386.474C811.834 388.23 810.411 389.653 808.655 389.653H799.771C798.015 389.653 796.592 388.23 796.592 386.474V336.178C796.592 334.423 795.169 333 793.413 333H784.226C782.47 333 781.047 331.576 781.047 329.821V317.602Z" fill="url(#paint28_linear_2109_7453)"/>
<path d="M655.145 318.661C655.145 316.906 656.568 315.482 658.323 315.482H667.074C668.83 315.482 670.253 316.906 670.253 318.661V369.521C670.253 371.277 668.83 372.7 667.074 372.7H658.323C656.568 372.7 655.145 371.277 655.145 369.521V318.661Z" fill="url(#paint29_linear_2109_7453)"/>
<path d="M608.95 362.809C609.443 360.753 611.653 359.527 613.581 360.397L620.694 363.609C622.002 364.2 622.761 365.595 622.483 367.003C621.6 371.477 620.348 375.291 618.727 378.446C616.824 382.148 614.456 384.942 611.623 386.826C608.812 388.711 605.227 389.653 600.867 389.653C595.577 389.653 591.251 388.513 587.887 386.231C584.545 383.917 581.656 379.867 579.222 374.081C576.787 368.296 575.57 360.89 575.57 351.864C575.57 339.83 577.706 330.59 581.977 324.143C586.271 317.663 592.335 314.423 600.17 314.423C606.3 314.423 611.114 316.274 614.61 319.977C617.689 323.217 620.073 327.974 621.763 334.25C622.186 335.824 621.269 337.427 619.722 337.942L612.548 340.326C610.746 340.925 608.873 339.804 608.271 338.002C608.086 337.447 607.897 336.976 607.705 336.59C606.864 334.871 605.835 333.549 604.618 332.623C603.401 331.697 602.04 331.234 600.535 331.234C597.126 331.234 594.515 333.284 592.7 337.384C591.328 340.425 590.642 345.203 590.642 351.716C590.642 359.783 591.461 365.32 593.099 368.329C594.736 371.304 597.038 372.792 600.004 372.792C602.881 372.792 605.05 371.585 606.51 369.172C607.509 367.546 608.322 365.425 608.95 362.809Z" fill="url(#paint30_linear_2109_7453)"/>
<path d="M891.981 362.809C892.474 360.753 894.684 359.527 896.612 360.397L903.726 363.609C905.033 364.2 905.792 365.595 905.514 367.003C904.632 371.477 903.38 375.291 901.758 378.446C899.855 382.148 897.487 384.942 894.654 386.826C891.843 388.711 888.258 389.653 883.898 389.653C878.608 389.653 874.282 388.513 870.918 386.231C867.576 383.917 864.688 379.867 862.253 374.081C859.819 368.296 858.602 360.89 858.602 351.864C858.602 339.83 860.737 330.59 865.009 324.143C869.302 317.663 875.366 314.423 883.201 314.423C889.331 314.423 894.145 316.274 897.642 319.977C900.72 323.217 903.104 327.974 904.794 334.25C905.218 335.824 904.3 337.427 902.754 337.942L895.579 340.326C893.777 340.925 891.905 339.804 891.303 338.002C891.117 337.447 890.928 336.976 890.737 336.59C889.896 334.871 888.867 333.549 887.649 332.623C886.432 331.697 885.071 331.234 883.566 331.234C880.158 331.234 877.546 333.284 875.731 337.384C874.359 340.425 873.673 345.203 873.673 351.716C873.673 359.783 874.492 365.32 876.13 368.329C877.768 371.304 880.069 372.792 883.035 372.792C885.912 372.792 888.081 371.585 889.542 369.172C890.54 367.546 891.353 365.425 891.981 362.809Z" fill="url(#paint31_linear_2109_7453)"/>
<path d="M968.651 367.401C968.452 365.701 969.737 364.219 971.441 364.06L979.572 363.301C981.324 363.138 982.851 364.436 983.161 366.168C983.511 368.133 984.007 369.725 984.648 370.945C986.203 373.889 988.424 375.361 991.312 375.361C993.467 375.361 995.122 374.617 996.277 373.128C997.454 371.607 998.043 369.853 998.043 367.868C998.043 365.982 997.488 364.295 996.377 362.806C995.266 361.318 992.689 359.912 988.646 358.588C982.026 356.372 977.306 353.428 974.485 349.755C971.641 346.083 970.219 341.402 970.219 335.712C970.219 331.973 970.941 328.45 972.385 325.142C973.851 321.8 976.04 319.187 978.95 317.301C981.882 315.382 985.892 314.423 990.979 314.423C997.221 314.423 1001.98 316.16 1005.24 319.633C1008.05 322.576 1009.89 327.02 1010.75 332.964C1011 334.695 1009.7 336.231 1007.95 336.383L999.957 337.081C998.242 337.23 996.759 335.976 996.342 334.306C995.904 332.551 995.282 331.184 994.478 330.203C993.278 328.715 991.612 327.97 989.479 327.97C987.724 327.97 986.403 328.533 985.514 329.657C984.625 330.749 984.181 332.089 984.181 333.677C984.181 334.835 984.548 335.877 985.281 336.803C985.992 337.763 987.68 338.656 990.346 339.483C996.943 341.6 1001.66 343.751 1004.51 345.934C1007.37 348.085 1009.45 350.764 1010.74 353.973C1012.05 357.182 1012.7 360.772 1012.7 364.742C1012.7 369.407 1011.84 373.707 1010.11 377.644C1008.37 381.581 1005.95 384.575 1002.84 386.626C999.731 388.644 995.81 389.653 991.079 389.653C982.771 389.653 977.017 387.271 973.818 382.507C971.074 378.421 969.352 373.386 968.651 367.401Z" fill="url(#paint32_linear_2109_7453)"/>
<path d="M947.947 379.986C947.658 378.49 946.349 377.409 944.826 377.409H933.147C931.621 377.409 930.31 378.494 930.025 379.994L928.678 387.069C928.393 388.568 927.082 389.653 925.555 389.653H917.039C914.979 389.653 913.463 387.723 913.951 385.722L930.483 317.908C930.83 316.484 932.106 315.482 933.571 315.482H944.789C946.254 315.482 947.53 316.484 947.877 317.908L964.409 385.722C964.897 387.723 963.381 389.653 961.321 389.653H952.437C950.913 389.653 949.604 388.573 949.315 387.077L947.947 379.986ZM940.457 361.371C942.462 361.371 943.967 359.537 943.575 357.571L942.143 350.391C941.463 346.98 936.584 346.982 935.907 350.395L934.485 357.575C934.095 359.54 935.599 361.371 937.603 361.371H940.457Z" fill="url(#paint33_linear_2109_7453)"/>
<path d="M769.33 379.808C769.041 378.314 767.732 377.235 766.21 377.235H754.201C752.675 377.235 751.365 378.318 751.078 379.816L749.691 387.072C749.405 388.57 748.094 389.653 746.569 389.653H737.762C735.701 389.653 734.184 387.721 734.675 385.718L751.547 316.845C751.896 315.423 753.171 314.423 754.635 314.423H766.17C767.634 314.423 768.909 315.423 769.257 316.845L786.13 385.718C786.62 387.721 785.104 389.653 783.042 389.653H773.861C772.339 389.653 771.03 388.574 770.74 387.08L769.33 379.808ZM761.775 360.967C763.781 360.967 765.286 359.131 764.892 357.164L763.362 349.527C762.679 346.12 757.806 346.122 757.127 349.531L755.607 357.168C755.215 359.134 756.719 360.967 758.724 360.967H761.775Z" fill="url(#paint34_linear_2109_7453)"/>
<path d="M762.601 300.483C762.895 299.933 763.467 299.589 764.091 299.589H771.865C773.378 299.589 774.127 301.427 773.044 302.484L764.567 310.764C764.252 311.072 763.829 311.244 763.388 311.244H759.682C758.408 311.244 757.594 309.887 758.192 308.763L762.601 300.483Z" fill="url(#paint35_linear_2109_7453)"/>
<path d="M681.332 316.955C681.332 315.556 682.466 314.423 683.864 314.423H695.226C696.454 314.423 697.505 315.305 697.719 316.515L701.033 335.3C701.525 338.09 705.529 338.089 706.019 335.298L709.318 316.517C709.531 315.306 710.582 314.423 711.812 314.423H723.118C724.516 314.423 725.65 315.556 725.65 316.955V369.483C725.65 370.881 724.516 372.014 723.118 372.014H718.238C716.839 372.014 715.706 370.881 715.706 369.483V357.147C715.706 354.052 711.216 353.661 710.681 356.709L708.36 369.92C708.148 371.131 707.096 372.014 705.867 372.014H701.116C699.887 372.014 698.835 371.13 698.623 369.919L696.328 356.81C695.795 353.761 691.303 354.152 691.303 357.247V369.483C691.303 370.881 690.169 372.014 688.771 372.014H683.864C682.466 372.014 681.332 370.881 681.332 369.483V316.955Z" fill="url(#paint36_linear_2109_7453)"/>
<path d="M641.891 314.423C643.646 314.423 645.069 315.846 645.069 317.602V361.044C645.069 361.393 645.012 361.729 644.908 362.043V377.129H647.162C647.501 377.006 647.867 376.938 648.249 376.938H722.47C724.225 376.939 725.648 378.362 725.648 380.117V386.475C725.648 388.23 724.225 389.653 722.47 389.653H629.961V317.602C629.961 315.846 631.384 314.423 633.14 314.423H641.891Z" fill="url(#paint37_linear_2109_7453)"/>
<path d="M801.409 524.19C808.21 524.19 813.409 524.883 817.004 526.27C820.599 527.656 823.497 530.236 825.699 534.009C827.902 537.744 829.003 542.307 829.003 547.697C829.003 552.395 828.161 556.457 826.477 559.884C824.792 563.272 822.477 566.026 819.529 568.144C819.038 568.496 818.499 568.832 817.912 569.153C816.074 570.159 815.955 573.239 817.538 574.612C818.348 575.305 819.514 576.788 821.036 579.06C822.591 581.331 823.626 583.083 824.145 584.315L831.935 602.287C831.974 602.378 832.009 602.47 832.042 602.562C834.878 605.229 837.609 607.518 839.377 608.528C843.867 611.095 849.231 612.379 855.468 612.379C863.066 612.379 870.842 610.251 878.797 605.997C881.203 604.711 884.251 605.509 885.534 607.916L891.585 619.266C892.743 621.439 892.036 624.15 889.896 625.368C878.521 631.84 867.045 635.075 855.468 635.075C846.362 635.075 838.316 633.251 831.331 629.604C824.346 625.956 818.482 621.025 813.742 614.811C809.089 608.709 804.605 599.877 802.082 591.631L798.154 582.986C796.665 579.637 795.337 577.461 794.171 576.46C792.584 575.151 790.786 574.496 788.778 574.496C787.705 574.496 786.835 575.366 786.835 576.439V604.157C786.835 606.755 784.729 608.861 782.131 608.861H769.435C766.837 608.861 764.73 606.755 764.73 604.157V528.895C764.73 526.297 766.837 524.19 769.435 524.19H801.409ZM791.539 541.286C788.941 541.286 786.835 543.392 786.835 545.99V553.794C786.835 556.392 788.941 558.498 791.539 558.498H796.113C797.117 558.498 799.061 558.113 801.943 557.343C803.401 556.996 804.583 556.11 805.49 554.686C806.429 553.261 806.898 551.624 806.898 549.776C806.898 547.043 806.17 544.945 804.713 543.481C803.255 542.018 800.518 541.286 796.502 541.286H791.539Z" fill="url(#paint38_linear_2109_7453)"/>
<path d="M928.406 528.804C928.406 526.206 930.512 524.1 933.11 524.1H945.821C948.419 524.1 950.525 526.206 950.525 528.804V583.217C950.525 585.815 952.631 587.921 955.229 587.921H980.341C982.939 587.921 985.045 590.027 985.045 592.625V604.067C985.045 606.665 982.939 608.771 980.341 608.771H933.11C930.512 608.771 928.406 606.665 928.406 604.067V528.804Z" fill="url(#paint39_linear_2109_7453)"/>
<path d="M893.632 598.426C893.101 596.343 891.224 594.884 889.074 594.884H870.857C868.701 594.884 866.82 596.35 866.295 598.441L864.569 605.305C864.043 607.396 862.163 608.862 860.007 608.862H847.215C844.024 608.862 841.759 605.752 842.737 602.715L866.98 527.452C867.606 525.508 869.415 524.19 871.457 524.19H889.055C891.097 524.19 892.906 525.508 893.532 527.452L917.775 602.715C918.753 605.752 916.488 608.862 913.297 608.862H899.948C897.798 608.862 895.921 607.403 895.39 605.32L893.632 598.426ZM881.923 576.576C885.008 576.576 887.258 573.656 886.472 570.673L884.571 563.458C883.339 558.78 876.697 558.785 875.472 563.465L873.583 570.68C872.803 573.662 875.052 576.576 878.134 576.576H881.923Z" fill="url(#paint40_linear_2109_7453)"/>
<path d="M608.524 608.862C605.926 608.862 603.82 606.756 603.82 604.158V528.894C603.82 526.296 605.926 524.19 608.524 524.19H640.499C647.3 524.19 652.498 524.884 656.093 526.27C659.688 527.656 662.587 530.236 664.789 534.009C666.992 537.744 668.093 542.307 668.093 547.697C668.093 552.395 667.251 556.457 665.567 559.884C663.882 563.272 661.567 566.025 658.62 568.143C658.128 568.496 657.589 568.833 657.002 569.154C655.164 570.159 655.045 573.239 656.628 574.612C657.437 575.305 658.603 576.787 660.126 579.059C661.68 581.331 662.716 583.083 663.235 584.315L671.024 602.287C672.371 605.393 670.094 608.862 666.708 608.862H652.03C650.185 608.862 648.511 607.783 647.747 606.103L637.244 582.987C635.754 579.637 634.426 577.461 633.26 576.46C631.673 575.151 629.876 574.496 627.868 574.496C626.795 574.496 625.925 575.366 625.925 576.44V604.158C625.925 606.756 623.819 608.862 621.221 608.862H608.524ZM625.925 553.794C625.925 556.392 628.031 558.498 630.629 558.498H635.204C636.208 558.498 638.151 558.113 641.033 557.343C642.491 556.996 643.673 556.111 644.58 554.686C645.519 553.261 645.988 551.625 645.988 549.777C645.988 547.043 645.26 544.944 643.802 543.481C642.345 542.018 639.608 541.286 635.592 541.286H630.629C628.031 541.286 625.925 543.392 625.925 545.99V553.794Z" fill="url(#paint41_linear_2109_7453)"/>
<path d="M733.877 524.19H743.641C746.238 524.191 748.345 526.296 748.345 528.894V573.789C748.345 578.707 747.678 583.361 746.344 587.75C745.042 592.101 742.977 595.922 740.146 599.214C737.349 602.467 734.404 604.756 731.313 606.08C727.019 607.934 721.862 608.861 715.844 608.861C712.363 608.861 708.556 608.577 704.425 608.01C700.326 607.442 696.893 606.326 694.128 604.661C691.363 602.959 688.825 600.556 686.516 597.454C684.238 594.352 682.677 591.155 681.831 587.863C680.465 582.567 679.781 577.875 679.781 573.789V528.894C679.781 526.296 681.888 524.19 684.485 524.19H693.152V524.1H733.877V524.19Z" fill="url(#paint42_linear_2109_7453)"/>
<path d="M986 425.576C986 423.671 987.544 422.127 989.449 422.127H1088.95C1090.85 422.127 1092.4 423.671 1092.4 425.576V431.362V436.27C1092.4 438.175 1090.85 439.719 1088.95 439.719H1024.43C1022.53 439.719 1020.98 441.263 1020.98 443.167V489.919C1020.98 491.824 1019.44 493.368 1017.53 493.368H1007.11C1005.21 493.368 1003.66 491.824 1003.66 489.919V443.167C1003.66 441.263 1002.12 439.719 1000.21 439.719H989.449C987.544 439.719 986 438.175 986 436.27V425.576Z" fill="url(#paint43_linear_2109_7453)"/>
<path d="M925.344 425.576C925.344 423.671 926.888 422.127 928.793 422.127H939.511C940.781 422.127 941.948 422.825 942.549 423.943L956.265 449.467C957.962 452.624 962.752 451.419 962.752 447.835V425.576C962.752 423.671 964.296 422.127 966.2 422.127H975.686C977.59 422.127 979.134 423.671 979.134 425.576V489.919C979.134 491.824 977.59 493.368 975.686 493.368H964.811C963.543 493.368 962.376 492.671 961.775 491.554L948.173 466.293C946.475 463.139 941.688 464.345 941.688 467.928V489.919C941.688 491.824 940.144 493.368 938.239 493.368H928.793C926.888 493.368 925.344 491.824 925.344 489.919V425.576Z" fill="url(#paint44_linear_2109_7453)"/>
<path d="M869.258 425.576C869.258 423.671 870.802 422.127 872.707 422.127H911.898C913.802 422.127 915.346 423.671 915.346 425.576V433.889C915.346 435.793 913.802 437.337 911.898 437.337H889.942C888.038 437.337 886.494 438.881 886.494 440.786V445.211C886.494 447.116 888.038 448.66 889.942 448.66H909.81C911.714 448.66 913.258 450.204 913.258 452.109V459.741C913.258 461.646 911.714 463.19 909.81 463.19H889.942C888.038 463.19 886.494 464.734 886.494 466.639V473.786C886.494 475.69 888.038 477.234 889.942 477.234H912.733C914.637 477.234 916.182 478.778 916.182 480.683V489.919C916.182 491.824 914.637 493.368 912.733 493.368H872.707C870.802 493.368 869.258 491.824 869.258 489.919V425.576Z" fill="url(#paint45_linear_2109_7453)"/>
<path d="M796.016 425.576C796.016 423.671 797.56 422.127 799.464 422.127H815.946C817.587 422.127 819.001 423.283 819.326 424.891L824.159 448.749C824.905 452.437 830.176 452.434 830.919 448.747L835.73 424.894C836.054 423.284 837.468 422.127 839.11 422.127H855.513C857.418 422.127 858.962 423.671 858.962 425.576V489.919C858.962 491.824 857.418 493.368 855.513 493.368H848.287C846.382 493.368 844.838 491.824 844.838 489.919V473.588C844.838 469.426 838.832 468.826 838.009 472.906L834.441 490.601C834.116 492.211 832.702 493.368 831.06 493.368H823.92C822.277 493.368 820.862 492.209 820.538 490.599L817.008 473.027C816.187 468.945 810.178 469.543 810.178 473.707V489.919C810.178 491.824 808.634 493.368 806.729 493.368H799.464C797.56 493.368 796.016 491.824 796.016 489.919V425.576Z" fill="url(#paint46_linear_2109_7453)"/>
<path d="M771.308 484.275C770.945 482.713 769.553 481.608 767.949 481.608H753.823C752.216 481.608 750.822 482.719 750.462 484.285L748.992 490.691C748.633 492.257 747.238 493.368 745.631 493.368H735.39C733.087 493.368 731.432 491.155 732.081 488.947L750.995 424.603C751.426 423.135 752.773 422.127 754.303 422.127H767.917C769.447 422.127 770.794 423.135 771.225 424.603L790.139 488.947C790.788 491.155 789.133 493.368 786.83 493.368H776.162C774.559 493.368 773.167 492.263 772.803 490.701L771.308 484.275ZM762.701 466.203C764.932 466.203 766.575 464.117 766.054 461.948L764.284 454.584C763.436 451.058 758.419 451.062 757.576 454.589L755.817 461.953C755.299 464.121 756.942 466.203 759.171 466.203H762.701Z" fill="url(#paint47_linear_2109_7453)"/>
<path d="M680.426 425.576C680.426 423.671 681.97 422.127 683.875 422.127H723.065C724.97 422.127 726.514 423.671 726.514 425.576V433.889C726.514 435.793 724.97 437.337 723.065 437.337H701.11C699.206 437.337 697.661 438.881 697.661 440.786V445.211C697.661 447.116 699.206 448.66 701.11 448.66H720.977C722.882 448.66 724.426 450.204 724.426 452.109V459.741C724.426 461.646 722.882 463.19 720.977 463.19H701.11C699.206 463.19 697.661 464.734 697.661 466.639V473.786C697.661 475.69 699.206 477.234 701.11 477.234H723.901C725.805 477.234 727.35 478.778 727.35 480.683V489.919C727.35 491.824 725.805 493.368 723.901 493.368H683.875C681.97 493.368 680.426 491.824 680.426 489.919V425.576Z" fill="url(#paint48_linear_2109_7453)"/>
<path d="M615.188 425.576C615.188 423.671 616.732 422.127 618.636 422.127H629.355C630.625 422.127 631.792 422.825 632.393 423.943L646.109 449.467C647.805 452.624 652.595 451.419 652.595 447.835V425.576C652.595 423.671 654.139 422.127 656.044 422.127H665.529C667.434 422.127 668.978 423.671 668.978 425.576V489.919C668.978 491.824 667.434 493.368 665.529 493.368H654.655C653.387 493.368 652.22 492.671 651.619 491.554L638.017 466.293C636.319 463.139 631.532 464.345 631.532 467.928V489.919C631.532 491.824 629.988 493.368 628.083 493.368H618.636C616.732 493.368 615.188 491.824 615.188 489.919V425.576Z" fill="url(#paint49_linear_2109_7453)"/>
<path d="M589.719 484.289C589.36 482.721 587.965 481.608 586.356 481.608H572.624C571.011 481.608 569.614 482.726 569.259 484.299L567.824 490.677C567.469 492.25 566.072 493.368 564.459 493.368H554.537C552.242 493.368 550.587 491.169 551.223 488.964L569.78 424.62C570.206 423.144 571.557 422.127 573.094 422.127H586.325C587.862 422.127 589.213 423.144 589.639 424.62L608.196 488.964C608.832 491.169 607.177 493.368 604.882 493.368H594.541C592.932 493.368 591.537 492.256 591.179 490.687L589.719 484.289ZM581.207 466.203C583.432 466.203 585.074 464.128 584.564 461.963L582.89 454.868C582.054 451.323 577.007 451.326 576.176 454.872L574.513 461.967C574.005 464.131 575.648 466.203 577.87 466.203H581.207Z" fill="url(#paint50_linear_2109_7453)"/>
<path d="M496.485 472.348C496.206 470.479 497.637 468.838 499.52 468.689L509.09 467.931C510.954 467.783 512.559 469.158 512.966 470.983C513.36 472.755 513.905 474.202 514.598 475.324C516.365 478.164 518.889 479.583 522.171 479.583C524.619 479.583 526.499 478.866 527.812 477.43C529.15 475.962 529.819 474.271 529.819 472.356C529.819 470.537 529.188 468.91 527.926 467.474C526.664 466.038 523.735 464.682 519.142 463.406C511.619 461.268 506.256 458.428 503.05 454.886C499.819 451.344 498.204 446.829 498.204 441.341C498.204 437.735 499.024 434.337 500.665 431.146C502.331 427.923 504.817 425.402 508.123 423.584C511.455 421.733 516.012 420.808 521.792 420.808C528.885 420.808 534.287 422.483 537.997 425.833C541.106 428.595 543.166 432.726 544.177 438.228C544.527 440.132 543.072 441.841 541.142 441.984L531.729 442.681C529.911 442.815 528.358 441.492 527.815 439.752C527.322 438.171 526.639 436.93 525.767 436.028C524.404 434.592 522.511 433.874 520.088 433.874C518.094 433.874 516.592 434.417 515.582 435.502C514.573 436.555 514.068 437.847 514.068 439.378C514.068 440.495 514.484 441.5 515.317 442.394C516.125 443.319 518.044 444.181 521.073 444.978C528.569 447.021 533.933 449.095 537.164 451.201C540.42 453.275 542.78 455.859 544.244 458.955C545.734 462.05 546.478 465.512 546.478 469.341C546.478 473.84 545.494 477.988 543.525 481.785C541.556 485.582 538.805 488.47 535.271 490.448C531.737 492.395 527.282 493.368 521.906 493.368C512.465 493.368 505.928 491.071 502.293 486.476C499.255 482.636 497.319 477.926 496.485 472.348Z" fill="url(#paint51_linear_2109_7453)"/>
<path d="M1060.86 444.477C1067.29 444.477 1072.25 446.595 1075.73 450.83C1079.21 455.044 1080.95 460.957 1080.95 468.568C1080.95 474.093 1080.19 478.63 1078.66 482.177C1077.15 485.703 1074.95 488.455 1072.06 490.433C1069.2 492.389 1065.62 493.368 1061.33 493.368C1056.97 493.368 1053.36 492.519 1050.49 490.821C1047.65 489.122 1045.33 486.435 1043.56 482.758C1041.78 479.082 1040.89 474.48 1040.89 468.954C1040.89 461.236 1042.65 455.227 1046.17 450.927C1049.68 446.627 1054.58 444.477 1060.86 444.477Z" fill="url(#paint52_linear_2109_7453)"/>
<defs>
<linearGradient id="paint0_linear_2109_7453" x1="392.873" y1="10.2373" x2="392.873" y2="603.29" gradientUnits="userSpaceOnUse">
<stop stop-color="#EF802E"/>
<stop offset="1" stop-color="#E0471D"/>
</linearGradient>
<linearGradient id="paint1_linear_2109_7453" x1="573.629" y1="506.428" x2="682.745" y2="506.428" gradientUnits="userSpaceOnUse">
<stop offset="0.5" stop-color="white" stop-opacity="0.45"/>
<stop offset="1" stop-color="white" stop-opacity="0"/>
</linearGradient>
<linearGradient id="paint2_linear_2109_7453" x1="588.618" y1="519.262" x2="667.746" y2="519.262" gradientUnits="userSpaceOnUse">
<stop stop-color="white" stop-opacity="0.35"/>
<stop offset="0.38" stop-color="white" stop-opacity="0"/>
</linearGradient>
<linearGradient id="paint3_linear_2109_7453" x1="588.618" y1="519.262" x2="667.746" y2="519.262" gradientUnits="userSpaceOnUse">
<stop offset="0.59" stop-opacity="0"/>
<stop offset="1" stop-opacity="0.35"/>
</linearGradient>
<linearGradient id="paint4_linear_2109_7453" x1="287.387" y1="585.05" x2="287.387" y2="746.999" gradientUnits="userSpaceOnUse">
<stop stop-color="#EF802E"/>
<stop offset="1" stop-color="#E0471D"/>
</linearGradient>
<linearGradient id="paint5_linear_2109_7453" x1="301.801" y1="651.34" x2="368.963" y2="581.994" gradientUnits="userSpaceOnUse">
<stop stop-color="white" stop-opacity="0.45"/>
<stop offset="0.38" stop-color="white" stop-opacity="0"/>
</linearGradient>
<linearGradient id="paint6_linear_2109_7453" x1="203.044" y1="666.022" x2="371.742" y2="666.022" gradientUnits="userSpaceOnUse">
<stop offset="0.59" stop-opacity="0"/>
<stop offset="1" stop-opacity="0.25"/>
</linearGradient>
<linearGradient id="paint7_linear_2109_7453" x1="622.383" y1="120.972" x2="769.486" y2="120.972" gradientUnits="userSpaceOnUse">
<stop offset="0.7" stop-color="white" stop-opacity="0"/>
<stop offset="1" stop-color="white" stop-opacity="0.25"/>
</linearGradient>
<linearGradient id="paint8_linear_2109_7453" x1="625.646" y1="141.411" x2="717.175" y2="141.411" gradientUnits="userSpaceOnUse">
<stop offset="0.59" stop-opacity="0"/>
<stop offset="1" stop-opacity="0.25"/>
</linearGradient>
<linearGradient id="paint9_linear_2109_7453" x1="1197.13" y1="10.2373" x2="1197.13" y2="603.29" gradientUnits="userSpaceOnUse">
<stop stop-color="#EF802E"/>
<stop offset="1" stop-color="#E0471D"/>
</linearGradient>
<linearGradient id="paint10_linear_2109_7453" x1="1377.89" y1="506.428" x2="1487" y2="506.428" gradientUnits="userSpaceOnUse">
<stop offset="0.5" stop-color="white" stop-opacity="0.45"/>
<stop offset="1" stop-color="white" stop-opacity="0"/>
</linearGradient>
<linearGradient id="paint11_linear_2109_7453" x1="1392.89" y1="519.262" x2="1472.02" y2="519.262" gradientUnits="userSpaceOnUse">
<stop stop-color="white" stop-opacity="0.35"/>
<stop offset="0.38" stop-color="white" stop-opacity="0"/>
</linearGradient>
<linearGradient id="paint12_linear_2109_7453" x1="1392.89" y1="519.262" x2="1472.02" y2="519.262" gradientUnits="userSpaceOnUse">
<stop offset="0.59" stop-opacity="0"/>
<stop offset="1" stop-opacity="0.35"/>
</linearGradient>
<linearGradient id="paint13_linear_2109_7453" x1="1091.65" y1="585.05" x2="1091.65" y2="746.999" gradientUnits="userSpaceOnUse">
<stop stop-color="#EF802E"/>
<stop offset="1" stop-color="#E0471D"/>
</linearGradient>
<linearGradient id="paint14_linear_2109_7453" x1="1106.07" y1="651.34" x2="1173.23" y2="581.994" gradientUnits="userSpaceOnUse">
<stop stop-color="white" stop-opacity="0.45"/>
<stop offset="0.38" stop-color="white" stop-opacity="0"/>
</linearGradient>
<linearGradient id="paint15_linear_2109_7453" x1="1007.31" y1="666.022" x2="1176" y2="666.022" gradientUnits="userSpaceOnUse">
<stop offset="0.59" stop-opacity="0"/>
<stop offset="1" stop-opacity="0.25"/>
</linearGradient>
<linearGradient id="paint16_linear_2109_7453" x1="1426.64" y1="120.972" x2="1573.74" y2="120.972" gradientUnits="userSpaceOnUse">
<stop offset="0.7" stop-color="white" stop-opacity="0"/>
<stop offset="1" stop-color="white" stop-opacity="0.25"/>
</linearGradient>
<linearGradient id="paint17_linear_2109_7453" x1="1429.92" y1="141.411" x2="1521.45" y2="141.411" gradientUnits="userSpaceOnUse">
<stop offset="0.59" stop-opacity="0"/>
<stop offset="1" stop-opacity="0.25"/>
</linearGradient>
<linearGradient id="paint18_linear_2109_7453" x1="882.051" y1="273.5" x2="882.051" y2="280.917" gradientUnits="userSpaceOnUse">
<stop stop-color="#F3781D"/>
<stop offset="1" stop-color="#DA3A1D"/>
</linearGradient>
<linearGradient id="paint19_linear_2109_7453" x1="905.156" y1="238.647" x2="857.816" y2="238.645" gradientUnits="userSpaceOnUse">
<stop stop-color="#F3781D"/>
<stop offset="1" stop-color="#DA3A1D"/>
</linearGradient>
<linearGradient id="paint20_linear_2109_7453" x1="1008.9" y1="243.431" x2="964.586" y2="243.43" gradientUnits="userSpaceOnUse">
<stop stop-color="#F3781D"/>
<stop offset="1" stop-color="#DA3A1D"/>
</linearGradient>
<linearGradient id="paint21_linear_2109_7453" x1="961.559" y1="243.431" x2="909.184" y2="243.43" gradientUnits="userSpaceOnUse">
<stop stop-color="#F3781D"/>
<stop offset="1" stop-color="#DA3A1D"/>
</linearGradient>
<linearGradient id="paint22_linear_2109_7453" x1="850.766" y1="243.431" x2="804.434" y2="243.43" gradientUnits="userSpaceOnUse">
<stop stop-color="#F3781D"/>
<stop offset="1" stop-color="#DA3A1D"/>
</linearGradient>
<linearGradient id="paint23_linear_2109_7453" x1="799.398" y1="243.431" x2="746.016" y2="243.43" gradientUnits="userSpaceOnUse">
<stop stop-color="#F3781D"/>
<stop offset="1" stop-color="#DA3A1D"/>
</linearGradient>
<linearGradient id="paint24_linear_2109_7453" x1="690.617" y1="243.431" x2="644.285" y2="243.43" gradientUnits="userSpaceOnUse">
<stop stop-color="#F3781D"/>
<stop offset="1" stop-color="#DA3A1D"/>
</linearGradient>
<linearGradient id="paint25_linear_2109_7453" x1="634.218" y1="243.431" x2="578.82" y2="243.43" gradientUnits="userSpaceOnUse">
<stop stop-color="#F3781D"/>
<stop offset="1" stop-color="#DA3A1D"/>
</linearGradient>
<linearGradient id="paint26_linear_2109_7453" x1="746.017" y1="243.431" x2="700.691" y2="243.43" gradientUnits="userSpaceOnUse">
<stop stop-color="#F3781D"/>
<stop offset="1" stop-color="#DA3A1D"/>
</linearGradient>
<linearGradient id="paint27_linear_2109_7453" x1="849.542" y1="352.167" x2="834.434" y2="352.167" gradientUnits="userSpaceOnUse">
<stop stop-color="#F3781D"/>
<stop offset="1" stop-color="#DA3A1D"/>
</linearGradient>
<linearGradient id="paint28_linear_2109_7453" x1="827.379" y1="352.167" x2="781.047" y2="352.166" gradientUnits="userSpaceOnUse">
<stop stop-color="#F3781D"/>
<stop offset="1" stop-color="#DA3A1D"/>
</linearGradient>
<linearGradient id="paint29_linear_2109_7453" x1="670.253" y1="344.189" x2="655.145" y2="344.189" gradientUnits="userSpaceOnUse">
<stop stop-color="#F3781D"/>
<stop offset="1" stop-color="#DA3A1D"/>
</linearGradient>
<linearGradient id="paint30_linear_2109_7453" x1="622.91" y1="352.167" x2="575.57" y2="352.166" gradientUnits="userSpaceOnUse">
<stop stop-color="#F3781D"/>
<stop offset="1" stop-color="#DA3A1D"/>
</linearGradient>
<linearGradient id="paint31_linear_2109_7453" x1="905.941" y1="352.167" x2="858.602" y2="352.166" gradientUnits="userSpaceOnUse">
<stop stop-color="#F3781D"/>
<stop offset="1" stop-color="#DA3A1D"/>
</linearGradient>
<linearGradient id="paint32_linear_2109_7453" x1="1012.7" y1="352.167" x2="968.387" y2="352.166" gradientUnits="userSpaceOnUse">
<stop stop-color="#F3781D"/>
<stop offset="1" stop-color="#DA3A1D"/>
</linearGradient>
<linearGradient id="paint33_linear_2109_7453" x1="965.368" y1="352.695" x2="912.992" y2="352.694" gradientUnits="userSpaceOnUse">
<stop stop-color="#F3781D"/>
<stop offset="1" stop-color="#DA3A1D"/>
</linearGradient>
<linearGradient id="paint34_linear_2109_7453" x1="787.094" y1="352.167" x2="733.711" y2="352.166" gradientUnits="userSpaceOnUse">
<stop stop-color="#F3781D"/>
<stop offset="1" stop-color="#DA3A1D"/>
</linearGradient>
<linearGradient id="paint35_linear_2109_7453" x1="776.008" y1="305.437" x2="756.871" y2="305.436" gradientUnits="userSpaceOnUse">
<stop stop-color="#F3781D"/>
<stop offset="1" stop-color="#DA3A1D"/>
</linearGradient>
<linearGradient id="paint36_linear_2109_7453" x1="725.65" y1="343.317" x2="681.332" y2="343.316" gradientUnits="userSpaceOnUse">
<stop stop-color="#F3781D"/>
<stop offset="1" stop-color="#DA3A1D"/>
</linearGradient>
<linearGradient id="paint37_linear_2109_7453" x1="725.648" y1="352.167" x2="629.961" y2="352.163" gradientUnits="userSpaceOnUse">
<stop stop-color="#F3781D"/>
<stop offset="1" stop-color="#DA3A1D"/>
</linearGradient>
<linearGradient id="paint38_linear_2109_7453" x1="846.57" y1="557.915" x2="764.913" y2="589.695" gradientUnits="userSpaceOnUse">
<stop stop-color="#EF802E"/>
<stop offset="1" stop-color="#DF451D"/>
</linearGradient>
<linearGradient id="paint39_linear_2109_7453" x1="928.406" y1="566.435" x2="985.045" y2="566.435" gradientUnits="userSpaceOnUse">
<stop stop-color="#DD401D"/>
<stop offset="1" stop-color="#EE6B1D"/>
</linearGradient>
<linearGradient id="paint40_linear_2109_7453" x1="840.758" y1="566.526" x2="919.754" y2="566.526" gradientUnits="userSpaceOnUse">
<stop stop-color="#DD401D"/>
<stop offset="1" stop-color="#EE6B1D"/>
</linearGradient>
<linearGradient id="paint41_linear_2109_7453" x1="603.82" y1="566.526" x2="673.874" y2="566.526" gradientUnits="userSpaceOnUse">
<stop stop-color="#DD401D"/>
<stop offset="1" stop-color="#EE6B1D"/>
</linearGradient>
<linearGradient id="paint42_linear_2109_7453" x1="684.024" y1="565.464" x2="725.524" y2="560.115" gradientUnits="userSpaceOnUse">
<stop stop-color="#DE411D"/>
<stop offset="1" stop-color="#EC671D"/>
</linearGradient>
<linearGradient id="paint43_linear_2109_7453" x1="986" y1="457.748" x2="1092.4" y2="457.748" gradientUnits="userSpaceOnUse">
<stop stop-color="#DD401D"/>
<stop offset="1" stop-color="#EE6B1D"/>
</linearGradient>
<linearGradient id="paint44_linear_2109_7453" x1="925.344" y1="457.748" x2="979.134" y2="457.748" gradientUnits="userSpaceOnUse">
<stop stop-color="#DD401D"/>
<stop offset="1" stop-color="#EE6B1D"/>
</linearGradient>
<linearGradient id="paint45_linear_2109_7453" x1="869.258" y1="457.748" x2="916.182" y2="457.748" gradientUnits="userSpaceOnUse">
<stop stop-color="#DD401D"/>
<stop offset="1" stop-color="#EE6B1D"/>
</linearGradient>
<linearGradient id="paint46_linear_2109_7453" x1="796.016" y1="457.748" x2="858.962" y2="457.748" gradientUnits="userSpaceOnUse">
<stop stop-color="#DD401D"/>
<stop offset="1" stop-color="#EE6B1D"/>
</linearGradient>
<linearGradient id="paint47_linear_2109_7453" x1="730.781" y1="457.748" x2="791.439" y2="457.748" gradientUnits="userSpaceOnUse">
<stop stop-color="#DD401D"/>
<stop offset="1" stop-color="#EE6B1D"/>
</linearGradient>
<linearGradient id="paint48_linear_2109_7453" x1="680.426" y1="457.748" x2="727.35" y2="457.748" gradientUnits="userSpaceOnUse">
<stop stop-color="#DD401D"/>
<stop offset="1" stop-color="#EE6B1D"/>
</linearGradient>
<linearGradient id="paint49_linear_2109_7453" x1="615.188" y1="457.748" x2="668.978" y2="457.748" gradientUnits="userSpaceOnUse">
<stop stop-color="#DD401D"/>
<stop offset="1" stop-color="#EE6B1D"/>
</linearGradient>
<linearGradient id="paint50_linear_2109_7453" x1="549.953" y1="457.748" x2="609.466" y2="457.748" gradientUnits="userSpaceOnUse">
<stop stop-color="#DD401D"/>
<stop offset="1" stop-color="#EE6B1D"/>
</linearGradient>
<linearGradient id="paint51_linear_2109_7453" x1="496.121" y1="457.088" x2="546.478" y2="457.088" gradientUnits="userSpaceOnUse">
<stop stop-color="#DD401D"/>
<stop offset="1" stop-color="#EE6B1D"/>
</linearGradient>
<linearGradient id="paint52_linear_2109_7453" x1="1040.89" y1="468.923" x2="1080.95" y2="468.923" gradientUnits="userSpaceOnUse">
<stop stop-color="#DD401D"/>
<stop offset="1" stop-color="#EE6B1D"/>
</linearGradient>
</defs>
</svg>
