<svg width="307" height="267" viewBox="0 0 307 267" fill="none" xmlns="http://www.w3.org/2000/svg">
<path d="M136.831 2.7635C137.595 2.7635 138.214 2.14465 138.214 1.38126C138.214 0.617873 137.595 -0.000976562 136.831 -0.000976562C136.068 -0.000976562 135.449 0.617873 135.449 1.38126C135.449 2.14465 136.068 2.7635 136.831 2.7635Z" fill="#83CD20"/>
<path d="M153.484 2.7635C154.247 2.7635 154.866 2.14465 154.866 1.38126C154.866 0.617873 154.247 -0.000976562 153.484 -0.000976562C152.72 -0.000976562 152.102 0.617873 152.102 1.38126C152.102 2.14465 152.72 2.7635 153.484 2.7635Z" fill="#83CD20"/>
<path d="M170.14 2.7635C170.903 2.7635 171.522 2.14465 171.522 1.38126C171.522 0.617873 170.903 -0.000976562 170.14 -0.000976562C169.377 -0.000976562 168.758 0.617873 168.758 1.38126C168.758 2.14465 169.377 2.7635 170.14 2.7635Z" fill="#83CD20"/>
<path d="M186.792 2.7635C187.556 2.7635 188.175 2.14465 188.175 1.38126C188.175 0.617873 187.556 -0.000976562 186.792 -0.000976562C186.029 -0.000976562 185.41 0.617873 185.41 1.38126C185.41 2.14465 186.029 2.7635 186.792 2.7635Z" fill="#83CD20"/>
<path d="M1.38224 2.7635C2.14563 2.7635 2.76448 2.14465 2.76448 1.38126C2.76448 0.617873 2.14563 -0.000976562 1.38224 -0.000976562C0.61885 -0.000976562 0 0.617873 0 1.38126C0 2.14465 0.61885 2.7635 1.38224 2.7635Z" fill="#83CD20"/>
<path d="M205.936 1.38126C205.936 1.65464 205.855 1.92188 205.703 2.14919C205.552 2.37649 205.336 2.55367 205.083 2.65829C204.831 2.76291 204.553 2.7903 204.284 2.73696C204.016 2.68363 203.77 2.55199 203.577 2.35868C203.383 2.16537 203.252 1.91905 203.198 1.65092C203.145 1.38279 203.172 1.10487 203.277 0.852298C203.382 0.599727 203.559 0.383876 203.786 0.231994C204.014 0.080111 204.281 -0.000976562 204.554 -0.000976562C204.921 -0.000976562 205.272 0.144655 205.532 0.403875C205.791 0.663095 205.936 1.01467 205.936 1.38126Z" fill="#83CD20"/>
<path d="M19.4168 1.38126C19.4168 1.65464 19.3358 1.92188 19.1839 2.14919C19.032 2.37649 18.8161 2.55367 18.5636 2.65829C18.311 2.76291 18.0331 2.7903 17.7649 2.73696C17.4968 2.68363 17.2505 2.55199 17.0572 2.35868C16.8639 2.16537 16.7322 1.91905 16.6789 1.65092C16.6256 1.38279 16.6529 1.10487 16.7576 0.852298C16.8622 0.599727 17.0394 0.383876 17.2667 0.231994C17.494 0.080111 17.7612 -0.000976562 18.0346 -0.000976562C18.4012 -0.000976562 18.7528 0.144655 19.012 0.403875C19.2712 0.663095 19.4168 1.01467 19.4168 1.38126Z" fill="#83CD20"/>
<path d="M221.21 2.7635C221.974 2.7635 222.593 2.14465 222.593 1.38126C222.593 0.617873 221.974 -0.000976562 221.21 -0.000976562C220.447 -0.000976562 219.828 0.617873 219.828 1.38126C219.828 2.14465 220.447 2.7635 221.21 2.7635Z" fill="#83CD20"/>
<path d="M34.6869 2.7635C35.4503 2.7635 36.0692 2.14465 36.0692 1.38126C36.0692 0.617873 35.4503 -0.000976562 34.6869 -0.000976562C33.9235 -0.000976562 33.3047 0.617873 33.3047 1.38126C33.3047 2.14465 33.9235 2.7635 34.6869 2.7635Z" fill="#83CD20"/>
<path d="M237.863 2.7635C238.626 2.7635 239.245 2.14465 239.245 1.38126C239.245 0.617873 238.626 -0.000976562 237.863 -0.000976562C237.099 -0.000976562 236.48 0.617873 236.48 1.38126C236.48 2.14465 237.099 2.7635 237.863 2.7635Z" fill="#83CD20"/>
<path d="M52.4526 2.7635C53.2159 2.7635 53.8348 2.14465 53.8348 1.38126C53.8348 0.617873 53.2159 -0.000976562 52.4526 -0.000976562C51.6892 -0.000976562 51.0703 0.617873 51.0703 1.38126C51.0703 2.14465 51.6892 2.7635 52.4526 2.7635Z" fill="#83CD20"/>
<path d="M254.515 2.7635C255.278 2.7635 255.897 2.14465 255.897 1.38126C255.897 0.617873 255.278 -0.000976562 254.515 -0.000976562C253.752 -0.000976562 253.133 0.617873 253.133 1.38126C253.133 2.14465 253.752 2.7635 254.515 2.7635Z" fill="#83CD20"/>
<path d="M69.1088 2.7635C69.8722 2.7635 70.491 2.14465 70.491 1.38126C70.491 0.617873 69.8722 -0.000976562 69.1088 -0.000976562C68.3454 -0.000976562 67.7266 0.617873 67.7266 1.38126C67.7266 2.14465 68.3454 2.7635 69.1088 2.7635Z" fill="#83CD20"/>
<path d="M272.281 2.7635C273.044 2.7635 273.663 2.14465 273.663 1.38126C273.663 0.617873 273.044 -0.000976562 272.281 -0.000976562C271.517 -0.000976562 270.898 0.617873 270.898 1.38126C270.898 2.14465 271.517 2.7635 272.281 2.7635Z" fill="#83CD20"/>
<path d="M85.7611 2.7635C86.5245 2.7635 87.1434 2.14465 87.1434 1.38126C87.1434 0.617873 86.5245 -0.000976562 85.7611 -0.000976562C84.9978 -0.000976562 84.3789 0.617873 84.3789 1.38126C84.3789 2.14465 84.9978 2.7635 85.7611 2.7635Z" fill="#83CD20"/>
<path d="M288.933 2.7635C289.696 2.7635 290.315 2.14465 290.315 1.38126C290.315 0.617873 289.696 -0.000976562 288.933 -0.000976562C288.17 -0.000976562 287.551 0.617873 287.551 1.38126C287.551 2.14465 288.17 2.7635 288.933 2.7635Z" fill="#83CD20"/>
<path d="M102.413 2.7635C103.177 2.7635 103.796 2.14465 103.796 1.38126C103.796 0.617873 103.177 -0.000976562 102.413 -0.000976562C101.65 -0.000976562 101.031 0.617873 101.031 1.38126C101.031 2.14465 101.65 2.7635 102.413 2.7635Z" fill="#83CD20"/>
<path d="M305.585 2.7635C306.349 2.7635 306.968 2.14465 306.968 1.38126C306.968 0.617873 306.349 -0.000976562 305.585 -0.000976562C304.822 -0.000976562 304.203 0.617873 304.203 1.38126C304.203 2.14465 304.822 2.7635 305.585 2.7635Z" fill="#83CD20"/>
<path d="M120.179 2.7635C120.943 2.7635 121.561 2.14465 121.561 1.38126C121.561 0.617873 120.943 -0.000976562 120.179 -0.000976562C119.416 -0.000976562 118.797 0.617873 118.797 1.38126C118.797 2.14465 119.416 2.7635 120.179 2.7635Z" fill="#83CD20"/>
<path d="M136.831 21.6385C137.595 21.6385 138.214 21.0197 138.214 20.2563C138.214 19.4929 137.595 18.874 136.831 18.874C136.068 18.874 135.449 19.4929 135.449 20.2563C135.449 21.0197 136.068 21.6385 136.831 21.6385Z" fill="#83CD20"/>
<path d="M153.484 21.6385C154.247 21.6385 154.866 21.0197 154.866 20.2563C154.866 19.4929 154.247 18.874 153.484 18.874C152.72 18.874 152.102 19.4929 152.102 20.2563C152.102 21.0197 152.72 21.6385 153.484 21.6385Z" fill="#83CD20"/>
<path d="M170.14 21.6385C170.903 21.6385 171.522 21.0197 171.522 20.2563C171.522 19.4929 170.903 18.874 170.14 18.874C169.377 18.874 168.758 19.4929 168.758 20.2563C168.758 21.0197 169.377 21.6385 170.14 21.6385Z" fill="#83CD20"/>
<path d="M186.792 21.6385C187.556 21.6385 188.175 21.0197 188.175 20.2563C188.175 19.4929 187.556 18.874 186.792 18.874C186.029 18.874 185.41 19.4929 185.41 20.2563C185.41 21.0197 186.029 21.6385 186.792 21.6385Z" fill="#83CD20"/>
<path d="M1.38224 21.6385C2.14563 21.6385 2.76448 21.0197 2.76448 20.2563C2.76448 19.4929 2.14563 18.874 1.38224 18.874C0.61885 18.874 0 19.4929 0 20.2563C0 21.0197 0.61885 21.6385 1.38224 21.6385Z" fill="#83CD20"/>
<path d="M205.936 20.2563C205.936 20.5296 205.855 20.7969 205.703 21.0242C205.552 21.2515 205.336 21.4287 205.083 21.5333C204.831 21.6379 204.553 21.6653 204.284 21.612C204.016 21.5586 203.77 21.427 203.577 21.2337C203.383 21.0404 203.252 20.7941 203.198 20.5259C203.145 20.2578 203.172 19.9799 203.277 19.7273C203.382 19.4747 203.559 19.2589 203.786 19.107C204.014 18.9551 204.281 18.874 204.554 18.874C204.921 18.874 205.272 19.0197 205.532 19.2789C205.791 19.5381 205.936 19.8897 205.936 20.2563Z" fill="#83CD20"/>
<path d="M19.4168 20.2563C19.4168 20.5296 19.3358 20.7969 19.1839 21.0242C19.032 21.2515 18.8161 21.4287 18.5636 21.5333C18.311 21.6379 18.0331 21.6653 17.7649 21.612C17.4968 21.5586 17.2505 21.427 17.0572 21.2337C16.8639 21.0404 16.7322 20.7941 16.6789 20.5259C16.6256 20.2578 16.6529 19.9799 16.7576 19.7273C16.8622 19.4747 17.0394 19.2589 17.2667 19.107C17.494 18.9551 17.7612 18.874 18.0346 18.874C18.4012 18.874 18.7528 19.0197 19.012 19.2789C19.2712 19.5381 19.4168 19.8897 19.4168 20.2563Z" fill="#83CD20"/>
<path d="M221.21 21.6385C221.974 21.6385 222.593 21.0197 222.593 20.2563C222.593 19.4929 221.974 18.874 221.21 18.874C220.447 18.874 219.828 19.4929 219.828 20.2563C219.828 21.0197 220.447 21.6385 221.21 21.6385Z" fill="#83CD20"/>
<path d="M34.6869 21.6385C35.4503 21.6385 36.0692 21.0197 36.0692 20.2563C36.0692 19.4929 35.4503 18.874 34.6869 18.874C33.9235 18.874 33.3047 19.4929 33.3047 20.2563C33.3047 21.0197 33.9235 21.6385 34.6869 21.6385Z" fill="#83CD20"/>
<path d="M237.863 21.6385C238.626 21.6385 239.245 21.0197 239.245 20.2563C239.245 19.4929 238.626 18.874 237.863 18.874C237.099 18.874 236.48 19.4929 236.48 20.2563C236.48 21.0197 237.099 21.6385 237.863 21.6385Z" fill="#83CD20"/>
<path d="M52.4526 21.6385C53.2159 21.6385 53.8348 21.0197 53.8348 20.2563C53.8348 19.4929 53.2159 18.874 52.4526 18.874C51.6892 18.874 51.0703 19.4929 51.0703 20.2563C51.0703 21.0197 51.6892 21.6385 52.4526 21.6385Z" fill="#83CD20"/>
<path d="M254.515 21.6385C255.278 21.6385 255.897 21.0197 255.897 20.2563C255.897 19.4929 255.278 18.874 254.515 18.874C253.752 18.874 253.133 19.4929 253.133 20.2563C253.133 21.0197 253.752 21.6385 254.515 21.6385Z" fill="#83CD20"/>
<path d="M69.1088 21.6385C69.8722 21.6385 70.491 21.0197 70.491 20.2563C70.491 19.4929 69.8722 18.874 69.1088 18.874C68.3454 18.874 67.7266 19.4929 67.7266 20.2563C67.7266 21.0197 68.3454 21.6385 69.1088 21.6385Z" fill="#83CD20"/>
<path d="M272.281 21.6385C273.044 21.6385 273.663 21.0197 273.663 20.2563C273.663 19.4929 273.044 18.874 272.281 18.874C271.517 18.874 270.898 19.4929 270.898 20.2563C270.898 21.0197 271.517 21.6385 272.281 21.6385Z" fill="#83CD20"/>
<path d="M85.7611 21.6385C86.5245 21.6385 87.1434 21.0197 87.1434 20.2563C87.1434 19.4929 86.5245 18.874 85.7611 18.874C84.9978 18.874 84.3789 19.4929 84.3789 20.2563C84.3789 21.0197 84.9978 21.6385 85.7611 21.6385Z" fill="#83CD20"/>
<path d="M288.933 21.6385C289.696 21.6385 290.315 21.0197 290.315 20.2563C290.315 19.4929 289.696 18.874 288.933 18.874C288.17 18.874 287.551 19.4929 287.551 20.2563C287.551 21.0197 288.17 21.6385 288.933 21.6385Z" fill="#83CD20"/>
<path d="M102.413 21.6385C103.177 21.6385 103.796 21.0197 103.796 20.2563C103.796 19.4929 103.177 18.874 102.413 18.874C101.65 18.874 101.031 19.4929 101.031 20.2563C101.031 21.0197 101.65 21.6385 102.413 21.6385Z" fill="#83CD20"/>
<path d="M305.585 21.6385C306.349 21.6385 306.968 21.0197 306.968 20.2563C306.968 19.4929 306.349 18.874 305.585 18.874C304.822 18.874 304.203 19.4929 304.203 20.2563C304.203 21.0197 304.822 21.6385 305.585 21.6385Z" fill="#83CD20"/>
<path d="M120.179 21.6385C120.943 21.6385 121.561 21.0197 121.561 20.2563C121.561 19.4929 120.943 18.874 120.179 18.874C119.416 18.874 118.797 19.4929 118.797 20.2563C118.797 21.0197 119.416 21.6385 120.179 21.6385Z" fill="#83CD20"/>
<path d="M136.831 40.5096C137.595 40.5096 138.214 39.8907 138.214 39.1274C138.214 38.364 137.595 37.7451 136.831 37.7451C136.068 37.7451 135.449 38.364 135.449 39.1274C135.449 39.8907 136.068 40.5096 136.831 40.5096Z" fill="#83CD20"/>
<path d="M153.484 40.5096C154.247 40.5096 154.866 39.8907 154.866 39.1274C154.866 38.364 154.247 37.7451 153.484 37.7451C152.72 37.7451 152.102 38.364 152.102 39.1274C152.102 39.8907 152.72 40.5096 153.484 40.5096Z" fill="#83CD20"/>
<path d="M170.14 40.5096C170.903 40.5096 171.522 39.8907 171.522 39.1274C171.522 38.364 170.903 37.7451 170.14 37.7451C169.377 37.7451 168.758 38.364 168.758 39.1274C168.758 39.8907 169.377 40.5096 170.14 40.5096Z" fill="#83CD20"/>
<path d="M186.792 40.5096C187.556 40.5096 188.175 39.8907 188.175 39.1274C188.175 38.364 187.556 37.7451 186.792 37.7451C186.029 37.7451 185.41 38.364 185.41 39.1274C185.41 39.8907 186.029 40.5096 186.792 40.5096Z" fill="#83CD20"/>
<path d="M1.38224 40.5096C2.14563 40.5096 2.76448 39.8907 2.76448 39.1274C2.76448 38.364 2.14563 37.7451 1.38224 37.7451C0.61885 37.7451 0 38.364 0 39.1274C0 39.8907 0.61885 40.5096 1.38224 40.5096Z" fill="#83CD20"/>
<path d="M205.936 39.1274C205.936 39.4007 205.855 39.668 205.703 39.8953C205.552 40.1226 205.336 40.2998 205.083 40.4044C204.831 40.509 204.553 40.5364 204.284 40.4831C204.016 40.4297 203.77 40.2981 203.577 40.1048C203.383 39.9115 203.252 39.6651 203.198 39.397C203.145 39.1289 203.172 38.851 203.277 38.5984C203.382 38.3458 203.559 38.13 203.786 37.9781C204.014 37.8262 204.281 37.7451 204.554 37.7451C204.921 37.7451 205.272 37.8907 205.532 38.15C205.791 38.4092 205.936 38.7608 205.936 39.1274Z" fill="#83CD20"/>
<path d="M19.4168 39.1274C19.4168 39.4007 19.3358 39.668 19.1839 39.8953C19.032 40.1226 18.8161 40.2998 18.5636 40.4044C18.311 40.509 18.0331 40.5364 17.7649 40.4831C17.4968 40.4297 17.2505 40.2981 17.0572 40.1048C16.8639 39.9115 16.7322 39.6651 16.6789 39.397C16.6256 39.1289 16.6529 38.851 16.7576 38.5984C16.8622 38.3458 17.0394 38.13 17.2667 37.9781C17.494 37.8262 17.7612 37.7451 18.0346 37.7451C18.4012 37.7451 18.7528 37.8907 19.012 38.15C19.2712 38.4092 19.4168 38.7608 19.4168 39.1274Z" fill="#83CD20"/>
<path d="M221.21 40.5096C221.974 40.5096 222.593 39.8907 222.593 39.1274C222.593 38.364 221.974 37.7451 221.21 37.7451C220.447 37.7451 219.828 38.364 219.828 39.1274C219.828 39.8907 220.447 40.5096 221.21 40.5096Z" fill="#83CD20"/>
<path d="M34.6869 40.5096C35.4503 40.5096 36.0692 39.8907 36.0692 39.1274C36.0692 38.364 35.4503 37.7451 34.6869 37.7451C33.9235 37.7451 33.3047 38.364 33.3047 39.1274C33.3047 39.8907 33.9235 40.5096 34.6869 40.5096Z" fill="#83CD20"/>
<path d="M237.863 40.5096C238.626 40.5096 239.245 39.8907 239.245 39.1274C239.245 38.364 238.626 37.7451 237.863 37.7451C237.099 37.7451 236.48 38.364 236.48 39.1274C236.48 39.8907 237.099 40.5096 237.863 40.5096Z" fill="#83CD20"/>
<path d="M52.4526 40.5096C53.2159 40.5096 53.8348 39.8907 53.8348 39.1274C53.8348 38.364 53.2159 37.7451 52.4526 37.7451C51.6892 37.7451 51.0703 38.364 51.0703 39.1274C51.0703 39.8907 51.6892 40.5096 52.4526 40.5096Z" fill="#83CD20"/>
<path d="M254.515 40.5096C255.278 40.5096 255.897 39.8907 255.897 39.1274C255.897 38.364 255.278 37.7451 254.515 37.7451C253.752 37.7451 253.133 38.364 253.133 39.1274C253.133 39.8907 253.752 40.5096 254.515 40.5096Z" fill="#83CD20"/>
<path d="M69.1088 40.5096C69.8722 40.5096 70.491 39.8907 70.491 39.1274C70.491 38.364 69.8722 37.7451 69.1088 37.7451C68.3454 37.7451 67.7266 38.364 67.7266 39.1274C67.7266 39.8907 68.3454 40.5096 69.1088 40.5096Z" fill="#83CD20"/>
<path d="M272.281 40.5096C273.044 40.5096 273.663 39.8907 273.663 39.1274C273.663 38.364 273.044 37.7451 272.281 37.7451C271.517 37.7451 270.898 38.364 270.898 39.1274C270.898 39.8907 271.517 40.5096 272.281 40.5096Z" fill="#83CD20"/>
<path d="M85.7611 40.5096C86.5245 40.5096 87.1434 39.8907 87.1434 39.1274C87.1434 38.364 86.5245 37.7451 85.7611 37.7451C84.9978 37.7451 84.3789 38.364 84.3789 39.1274C84.3789 39.8907 84.9978 40.5096 85.7611 40.5096Z" fill="#83CD20"/>
<path d="M288.933 40.5096C289.696 40.5096 290.315 39.8907 290.315 39.1274C290.315 38.364 289.696 37.7451 288.933 37.7451C288.17 37.7451 287.551 38.364 287.551 39.1274C287.551 39.8907 288.17 40.5096 288.933 40.5096Z" fill="#83CD20"/>
<path d="M102.413 40.5096C103.177 40.5096 103.796 39.8907 103.796 39.1274C103.796 38.364 103.177 37.7451 102.413 37.7451C101.65 37.7451 101.031 38.364 101.031 39.1274C101.031 39.8907 101.65 40.5096 102.413 40.5096Z" fill="#83CD20"/>
<path d="M305.585 40.5096C306.349 40.5096 306.968 39.8907 306.968 39.1274C306.968 38.364 306.349 37.7451 305.585 37.7451C304.822 37.7451 304.203 38.364 304.203 39.1274C304.203 39.8907 304.822 40.5096 305.585 40.5096Z" fill="#83CD20"/>
<path d="M120.179 40.5096C120.943 40.5096 121.561 39.8907 121.561 39.1274C121.561 38.364 120.943 37.7451 120.179 37.7451C119.416 37.7451 118.797 38.364 118.797 39.1274C118.797 39.8907 119.416 40.5096 120.179 40.5096Z" fill="#83CD20"/>
<path d="M136.831 59.3846C137.595 59.3846 138.214 58.7657 138.214 58.0024C138.214 57.239 137.595 56.6201 136.831 56.6201C136.068 56.6201 135.449 57.239 135.449 58.0024C135.449 58.7657 136.068 59.3846 136.831 59.3846Z" fill="#83CD20"/>
<path d="M153.484 59.3846C154.247 59.3846 154.866 58.7657 154.866 58.0024C154.866 57.239 154.247 56.6201 153.484 56.6201C152.72 56.6201 152.102 57.239 152.102 58.0024C152.102 58.7657 152.72 59.3846 153.484 59.3846Z" fill="#83CD20"/>
<path d="M170.14 59.3846C170.903 59.3846 171.522 58.7657 171.522 58.0024C171.522 57.239 170.903 56.6201 170.14 56.6201C169.377 56.6201 168.758 57.239 168.758 58.0024C168.758 58.7657 169.377 59.3846 170.14 59.3846Z" fill="#83CD20"/>
<path d="M186.792 59.3846C187.556 59.3846 188.175 58.7657 188.175 58.0024C188.175 57.239 187.556 56.6201 186.792 56.6201C186.029 56.6201 185.41 57.239 185.41 58.0024C185.41 58.7657 186.029 59.3846 186.792 59.3846Z" fill="#83CD20"/>
<path d="M1.38224 59.3846C2.14563 59.3846 2.76448 58.7657 2.76448 58.0024C2.76448 57.239 2.14563 56.6201 1.38224 56.6201C0.61885 56.6201 0 57.239 0 58.0024C0 58.7657 0.61885 59.3846 1.38224 59.3846Z" fill="#83CD20"/>
<path d="M205.936 58.0024C205.936 58.2757 205.855 58.543 205.703 58.7703C205.552 58.9976 205.336 59.1748 205.083 59.2794C204.831 59.384 204.553 59.4114 204.284 59.3581C204.016 59.3047 203.77 59.1731 203.577 58.9798C203.383 58.7865 203.252 58.5401 203.198 58.272C203.145 58.0039 203.172 57.726 203.277 57.4734C203.382 57.2208 203.559 57.005 203.786 56.8531C204.014 56.7012 204.281 56.6201 204.554 56.6201C204.921 56.6201 205.272 56.7657 205.532 57.025C205.791 57.2842 205.936 57.6358 205.936 58.0024Z" fill="#83CD20"/>
<path d="M19.4168 58.0024C19.4168 58.2757 19.3358 58.543 19.1839 58.7703C19.032 58.9976 18.8161 59.1748 18.5636 59.2794C18.311 59.384 18.0331 59.4114 17.7649 59.3581C17.4968 59.3047 17.2505 59.1731 17.0572 58.9798C16.8639 58.7865 16.7322 58.5401 16.6789 58.272C16.6256 58.0039 16.6529 57.726 16.7576 57.4734C16.8622 57.2208 17.0394 57.005 17.2667 56.8531C17.494 56.7012 17.7612 56.6201 18.0346 56.6201C18.4012 56.6201 18.7528 56.7657 19.012 57.025C19.2712 57.2842 19.4168 57.6358 19.4168 58.0024Z" fill="#83CD20"/>
<path d="M221.21 59.3846C221.974 59.3846 222.593 58.7657 222.593 58.0024C222.593 57.239 221.974 56.6201 221.21 56.6201C220.447 56.6201 219.828 57.239 219.828 58.0024C219.828 58.7657 220.447 59.3846 221.21 59.3846Z" fill="#83CD20"/>
<path d="M34.6869 59.3846C35.4503 59.3846 36.0692 58.7657 36.0692 58.0024C36.0692 57.239 35.4503 56.6201 34.6869 56.6201C33.9235 56.6201 33.3047 57.239 33.3047 58.0024C33.3047 58.7657 33.9235 59.3846 34.6869 59.3846Z" fill="#83CD20"/>
<path d="M237.863 59.3846C238.626 59.3846 239.245 58.7657 239.245 58.0024C239.245 57.239 238.626 56.6201 237.863 56.6201C237.099 56.6201 236.48 57.239 236.48 58.0024C236.48 58.7657 237.099 59.3846 237.863 59.3846Z" fill="#83CD20"/>
<path d="M52.4526 59.3846C53.2159 59.3846 53.8348 58.7657 53.8348 58.0024C53.8348 57.239 53.2159 56.6201 52.4526 56.6201C51.6892 56.6201 51.0703 57.239 51.0703 58.0024C51.0703 58.7657 51.6892 59.3846 52.4526 59.3846Z" fill="#83CD20"/>
<path d="M254.515 59.3846C255.278 59.3846 255.897 58.7657 255.897 58.0024C255.897 57.239 255.278 56.6201 254.515 56.6201C253.752 56.6201 253.133 57.239 253.133 58.0024C253.133 58.7657 253.752 59.3846 254.515 59.3846Z" fill="#83CD20"/>
<path d="M69.1088 59.3846C69.8722 59.3846 70.491 58.7657 70.491 58.0024C70.491 57.239 69.8722 56.6201 69.1088 56.6201C68.3454 56.6201 67.7266 57.239 67.7266 58.0024C67.7266 58.7657 68.3454 59.3846 69.1088 59.3846Z" fill="#83CD20"/>
<path d="M272.281 59.3846C273.044 59.3846 273.663 58.7657 273.663 58.0024C273.663 57.239 273.044 56.6201 272.281 56.6201C271.517 56.6201 270.898 57.239 270.898 58.0024C270.898 58.7657 271.517 59.3846 272.281 59.3846Z" fill="#83CD20"/>
<path d="M85.7611 59.3846C86.5245 59.3846 87.1434 58.7657 87.1434 58.0024C87.1434 57.239 86.5245 56.6201 85.7611 56.6201C84.9978 56.6201 84.3789 57.239 84.3789 58.0024C84.3789 58.7657 84.9978 59.3846 85.7611 59.3846Z" fill="#83CD20"/>
<path d="M288.933 59.3846C289.696 59.3846 290.315 58.7657 290.315 58.0024C290.315 57.239 289.696 56.6201 288.933 56.6201C288.17 56.6201 287.551 57.239 287.551 58.0024C287.551 58.7657 288.17 59.3846 288.933 59.3846Z" fill="#83CD20"/>
<path d="M102.413 59.3846C103.177 59.3846 103.796 58.7657 103.796 58.0024C103.796 57.239 103.177 56.6201 102.413 56.6201C101.65 56.6201 101.031 57.239 101.031 58.0024C101.031 58.7657 101.65 59.3846 102.413 59.3846Z" fill="#83CD20"/>
<path d="M305.585 59.3846C306.349 59.3846 306.968 58.7657 306.968 58.0024C306.968 57.239 306.349 56.6201 305.585 56.6201C304.822 56.6201 304.203 57.239 304.203 58.0024C304.203 58.7657 304.822 59.3846 305.585 59.3846Z" fill="#83CD20"/>
<path d="M120.179 59.3846C120.943 59.3846 121.561 58.7657 121.561 58.0024C121.561 57.239 120.943 56.6201 120.179 56.6201C119.416 56.6201 118.797 57.239 118.797 58.0024C118.797 58.7657 119.416 59.3846 120.179 59.3846Z" fill="#83CD20"/>
<path d="M136.831 78.2596C137.595 78.2596 138.214 77.6407 138.214 76.8774C138.214 76.114 137.595 75.4951 136.831 75.4951C136.068 75.4951 135.449 76.114 135.449 76.8774C135.449 77.6407 136.068 78.2596 136.831 78.2596Z" fill="#83CD20"/>
<path d="M153.484 78.2596C154.247 78.2596 154.866 77.6407 154.866 76.8774C154.866 76.114 154.247 75.4951 153.484 75.4951C152.72 75.4951 152.102 76.114 152.102 76.8774C152.102 77.6407 152.72 78.2596 153.484 78.2596Z" fill="#83CD20"/>
<path d="M170.14 78.2596C170.903 78.2596 171.522 77.6407 171.522 76.8774C171.522 76.114 170.903 75.4951 170.14 75.4951C169.377 75.4951 168.758 76.114 168.758 76.8774C168.758 77.6407 169.377 78.2596 170.14 78.2596Z" fill="#83CD20"/>
<path d="M186.792 78.2596C187.556 78.2596 188.175 77.6407 188.175 76.8774C188.175 76.114 187.556 75.4951 186.792 75.4951C186.029 75.4951 185.41 76.114 185.41 76.8774C185.41 77.6407 186.029 78.2596 186.792 78.2596Z" fill="#83CD20"/>
<path d="M1.38224 78.2596C2.14563 78.2596 2.76448 77.6407 2.76448 76.8774C2.76448 76.114 2.14563 75.4951 1.38224 75.4951C0.61885 75.4951 0 76.114 0 76.8774C0 77.6407 0.61885 78.2596 1.38224 78.2596Z" fill="#83CD20"/>
<path d="M205.936 76.8774C205.936 77.1507 205.855 77.418 205.703 77.6453C205.552 77.8726 205.336 78.0498 205.083 78.1544C204.831 78.259 204.553 78.2864 204.284 78.2331C204.016 78.1797 203.77 78.0481 203.577 77.8548C203.383 77.6615 203.252 77.4151 203.198 77.147C203.145 76.8789 203.172 76.601 203.277 76.3484C203.382 76.0958 203.559 75.88 203.786 75.7281C204.014 75.5762 204.281 75.4951 204.554 75.4951C204.921 75.4951 205.272 75.6407 205.532 75.9C205.791 76.1592 205.936 76.5108 205.936 76.8774Z" fill="#83CD20"/>
<path d="M19.4168 76.8774C19.4168 77.1507 19.3358 77.418 19.1839 77.6453C19.032 77.8726 18.8161 78.0498 18.5636 78.1544C18.311 78.259 18.0331 78.2864 17.7649 78.2331C17.4968 78.1797 17.2505 78.0481 17.0572 77.8548C16.8639 77.6615 16.7322 77.4151 16.6789 77.147C16.6256 76.8789 16.6529 76.601 16.7576 76.3484C16.8622 76.0958 17.0394 75.88 17.2667 75.7281C17.494 75.5762 17.7612 75.4951 18.0346 75.4951C18.4012 75.4951 18.7528 75.6407 19.012 75.9C19.2712 76.1592 19.4168 76.5108 19.4168 76.8774Z" fill="#83CD20"/>
<path d="M221.21 78.2596C221.974 78.2596 222.593 77.6407 222.593 76.8774C222.593 76.114 221.974 75.4951 221.21 75.4951C220.447 75.4951 219.828 76.114 219.828 76.8774C219.828 77.6407 220.447 78.2596 221.21 78.2596Z" fill="#83CD20"/>
<path d="M34.6869 78.2596C35.4503 78.2596 36.0692 77.6407 36.0692 76.8774C36.0692 76.114 35.4503 75.4951 34.6869 75.4951C33.9235 75.4951 33.3047 76.114 33.3047 76.8774C33.3047 77.6407 33.9235 78.2596 34.6869 78.2596Z" fill="#83CD20"/>
<path d="M237.863 78.2596C238.626 78.2596 239.245 77.6407 239.245 76.8774C239.245 76.114 238.626 75.4951 237.863 75.4951C237.099 75.4951 236.48 76.114 236.48 76.8774C236.48 77.6407 237.099 78.2596 237.863 78.2596Z" fill="#83CD20"/>
<path d="M52.4526 78.2596C53.2159 78.2596 53.8348 77.6407 53.8348 76.8774C53.8348 76.114 53.2159 75.4951 52.4526 75.4951C51.6892 75.4951 51.0703 76.114 51.0703 76.8774C51.0703 77.6407 51.6892 78.2596 52.4526 78.2596Z" fill="#83CD20"/>
<path d="M254.515 78.2596C255.278 78.2596 255.897 77.6407 255.897 76.8774C255.897 76.114 255.278 75.4951 254.515 75.4951C253.752 75.4951 253.133 76.114 253.133 76.8774C253.133 77.6407 253.752 78.2596 254.515 78.2596Z" fill="#83CD20"/>
<path d="M69.1088 78.2596C69.8722 78.2596 70.491 77.6407 70.491 76.8774C70.491 76.114 69.8722 75.4951 69.1088 75.4951C68.3454 75.4951 67.7266 76.114 67.7266 76.8774C67.7266 77.6407 68.3454 78.2596 69.1088 78.2596Z" fill="#83CD20"/>
<path d="M272.281 78.2596C273.044 78.2596 273.663 77.6407 273.663 76.8774C273.663 76.114 273.044 75.4951 272.281 75.4951C271.517 75.4951 270.898 76.114 270.898 76.8774C270.898 77.6407 271.517 78.2596 272.281 78.2596Z" fill="#83CD20"/>
<path d="M85.7611 78.2596C86.5245 78.2596 87.1434 77.6407 87.1434 76.8774C87.1434 76.114 86.5245 75.4951 85.7611 75.4951C84.9978 75.4951 84.3789 76.114 84.3789 76.8774C84.3789 77.6407 84.9978 78.2596 85.7611 78.2596Z" fill="#83CD20"/>
<path d="M288.933 78.2596C289.696 78.2596 290.315 77.6407 290.315 76.8774C290.315 76.114 289.696 75.4951 288.933 75.4951C288.17 75.4951 287.551 76.114 287.551 76.8774C287.551 77.6407 288.17 78.2596 288.933 78.2596Z" fill="#83CD20"/>
<path d="M102.413 78.2596C103.177 78.2596 103.796 77.6407 103.796 76.8774C103.796 76.114 103.177 75.4951 102.413 75.4951C101.65 75.4951 101.031 76.114 101.031 76.8774C101.031 77.6407 101.65 78.2596 102.413 78.2596Z" fill="#83CD20"/>
<path d="M305.585 78.2596C306.349 78.2596 306.968 77.6407 306.968 76.8774C306.968 76.114 306.349 75.4951 305.585 75.4951C304.822 75.4951 304.203 76.114 304.203 76.8774C304.203 77.6407 304.822 78.2596 305.585 78.2596Z" fill="#83CD20"/>
<path d="M120.179 78.2596C120.943 78.2596 121.561 77.6407 121.561 76.8774C121.561 76.114 120.943 75.4951 120.179 75.4951C119.416 75.4951 118.797 76.114 118.797 76.8774C118.797 77.6407 119.416 78.2596 120.179 78.2596Z" fill="#83CD20"/>
<path d="M136.831 97.1346C137.595 97.1346 138.214 96.5157 138.214 95.7524C138.214 94.989 137.595 94.3701 136.831 94.3701C136.068 94.3701 135.449 94.989 135.449 95.7524C135.449 96.5157 136.068 97.1346 136.831 97.1346Z" fill="#83CD20"/>
<path d="M153.484 97.1346C154.247 97.1346 154.866 96.5157 154.866 95.7524C154.866 94.989 154.247 94.3701 153.484 94.3701C152.72 94.3701 152.102 94.989 152.102 95.7524C152.102 96.5157 152.72 97.1346 153.484 97.1346Z" fill="#83CD20"/>
<path d="M170.14 97.1346C170.903 97.1346 171.522 96.5157 171.522 95.7524C171.522 94.989 170.903 94.3701 170.14 94.3701C169.377 94.3701 168.758 94.989 168.758 95.7524C168.758 96.5157 169.377 97.1346 170.14 97.1346Z" fill="#83CD20"/>
<path d="M186.792 97.1346C187.556 97.1346 188.175 96.5157 188.175 95.7524C188.175 94.989 187.556 94.3701 186.792 94.3701C186.029 94.3701 185.41 94.989 185.41 95.7524C185.41 96.5157 186.029 97.1346 186.792 97.1346Z" fill="#83CD20"/>
<path d="M1.38224 97.1346C2.14563 97.1346 2.76448 96.5157 2.76448 95.7524C2.76448 94.989 2.14563 94.3701 1.38224 94.3701C0.61885 94.3701 0 94.989 0 95.7524C0 96.5157 0.61885 97.1346 1.38224 97.1346Z" fill="#83CD20"/>
<path d="M205.936 95.7524C205.936 96.0257 205.855 96.293 205.703 96.5203C205.552 96.7476 205.336 96.9248 205.083 97.0294C204.831 97.134 204.553 97.1614 204.284 97.1081C204.016 97.0547 203.77 96.9231 203.577 96.7298C203.383 96.5365 203.252 96.2901 203.198 96.022C203.145 95.7539 203.172 95.476 203.277 95.2234C203.382 94.9708 203.559 94.755 203.786 94.6031C204.014 94.4512 204.281 94.3701 204.554 94.3701C204.921 94.3701 205.272 94.5157 205.532 94.775C205.791 95.0342 205.936 95.3858 205.936 95.7524Z" fill="#83CD20"/>
<path d="M19.4168 95.7524C19.4168 96.0257 19.3358 96.293 19.1839 96.5203C19.032 96.7476 18.8161 96.9248 18.5636 97.0294C18.311 97.134 18.0331 97.1614 17.7649 97.1081C17.4968 97.0547 17.2505 96.9231 17.0572 96.7298C16.8639 96.5365 16.7322 96.2901 16.6789 96.022C16.6256 95.7539 16.6529 95.476 16.7576 95.2234C16.8622 94.9708 17.0394 94.755 17.2667 94.6031C17.494 94.4512 17.7612 94.3701 18.0346 94.3701C18.4012 94.3701 18.7528 94.5157 19.012 94.775C19.2712 95.0342 19.4168 95.3858 19.4168 95.7524Z" fill="#83CD20"/>
<path d="M221.21 97.1346C221.974 97.1346 222.593 96.5157 222.593 95.7524C222.593 94.989 221.974 94.3701 221.21 94.3701C220.447 94.3701 219.828 94.989 219.828 95.7524C219.828 96.5157 220.447 97.1346 221.21 97.1346Z" fill="#83CD20"/>
<path d="M34.6869 97.1346C35.4503 97.1346 36.0692 96.5157 36.0692 95.7524C36.0692 94.989 35.4503 94.3701 34.6869 94.3701C33.9235 94.3701 33.3047 94.989 33.3047 95.7524C33.3047 96.5157 33.9235 97.1346 34.6869 97.1346Z" fill="#83CD20"/>
<path d="M237.863 97.1346C238.626 97.1346 239.245 96.5157 239.245 95.7524C239.245 94.989 238.626 94.3701 237.863 94.3701C237.099 94.3701 236.48 94.989 236.48 95.7524C236.48 96.5157 237.099 97.1346 237.863 97.1346Z" fill="#83CD20"/>
<path d="M52.4526 97.1346C53.2159 97.1346 53.8348 96.5157 53.8348 95.7524C53.8348 94.989 53.2159 94.3701 52.4526 94.3701C51.6892 94.3701 51.0703 94.989 51.0703 95.7524C51.0703 96.5157 51.6892 97.1346 52.4526 97.1346Z" fill="#83CD20"/>
<path d="M254.515 97.1346C255.278 97.1346 255.897 96.5157 255.897 95.7524C255.897 94.989 255.278 94.3701 254.515 94.3701C253.752 94.3701 253.133 94.989 253.133 95.7524C253.133 96.5157 253.752 97.1346 254.515 97.1346Z" fill="#83CD20"/>
<path d="M69.1088 97.1346C69.8722 97.1346 70.491 96.5157 70.491 95.7524C70.491 94.989 69.8722 94.3701 69.1088 94.3701C68.3454 94.3701 67.7266 94.989 67.7266 95.7524C67.7266 96.5157 68.3454 97.1346 69.1088 97.1346Z" fill="#83CD20"/>
<path d="M272.281 97.1346C273.044 97.1346 273.663 96.5157 273.663 95.7524C273.663 94.989 273.044 94.3701 272.281 94.3701C271.517 94.3701 270.898 94.989 270.898 95.7524C270.898 96.5157 271.517 97.1346 272.281 97.1346Z" fill="#83CD20"/>
<path d="M85.7611 97.1346C86.5245 97.1346 87.1434 96.5157 87.1434 95.7524C87.1434 94.989 86.5245 94.3701 85.7611 94.3701C84.9978 94.3701 84.3789 94.989 84.3789 95.7524C84.3789 96.5157 84.9978 97.1346 85.7611 97.1346Z" fill="#83CD20"/>
<path d="M288.933 97.1346C289.696 97.1346 290.315 96.5157 290.315 95.7524C290.315 94.989 289.696 94.3701 288.933 94.3701C288.17 94.3701 287.551 94.989 287.551 95.7524C287.551 96.5157 288.17 97.1346 288.933 97.1346Z" fill="#83CD20"/>
<path d="M102.413 97.1346C103.177 97.1346 103.796 96.5157 103.796 95.7524C103.796 94.989 103.177 94.3701 102.413 94.3701C101.65 94.3701 101.031 94.989 101.031 95.7524C101.031 96.5157 101.65 97.1346 102.413 97.1346Z" fill="#83CD20"/>
<path d="M305.585 97.1346C306.349 97.1346 306.968 96.5157 306.968 95.7524C306.968 94.989 306.349 94.3701 305.585 94.3701C304.822 94.3701 304.203 94.989 304.203 95.7524C304.203 96.5157 304.822 97.1346 305.585 97.1346Z" fill="#83CD20"/>
<path d="M120.179 97.1346C120.943 97.1346 121.561 96.5157 121.561 95.7524C121.561 94.989 120.943 94.3701 120.179 94.3701C119.416 94.3701 118.797 94.989 118.797 95.7524C118.797 96.5157 119.416 97.1346 120.179 97.1346Z" fill="#83CD20"/>
<path d="M136.831 116.006C137.595 116.006 138.214 115.387 138.214 114.623C138.214 113.86 137.595 113.241 136.831 113.241C136.068 113.241 135.449 113.86 135.449 114.623C135.449 115.387 136.068 116.006 136.831 116.006Z" fill="#83CD20"/>
<path d="M153.484 116.006C154.247 116.006 154.866 115.387 154.866 114.623C154.866 113.86 154.247 113.241 153.484 113.241C152.72 113.241 152.102 113.86 152.102 114.623C152.102 115.387 152.72 116.006 153.484 116.006Z" fill="#83CD20"/>
<path d="M170.14 116.006C170.903 116.006 171.522 115.387 171.522 114.623C171.522 113.86 170.903 113.241 170.14 113.241C169.377 113.241 168.758 113.86 168.758 114.623C168.758 115.387 169.377 116.006 170.14 116.006Z" fill="#83CD20"/>
<path d="M186.792 116.006C187.556 116.006 188.175 115.387 188.175 114.623C188.175 113.86 187.556 113.241 186.792 113.241C186.029 113.241 185.41 113.86 185.41 114.623C185.41 115.387 186.029 116.006 186.792 116.006Z" fill="#83CD20"/>
<path d="M1.38224 116.006C2.14563 116.006 2.76448 115.387 2.76448 114.623C2.76448 113.86 2.14563 113.241 1.38224 113.241C0.61885 113.241 0 113.86 0 114.623C0 115.387 0.61885 116.006 1.38224 116.006Z" fill="#83CD20"/>
<path d="M205.936 114.623C205.936 114.897 205.855 115.164 205.703 115.391C205.552 115.619 205.336 115.796 205.083 115.9C204.831 116.005 204.553 116.032 204.284 115.979C204.016 115.926 203.77 115.794 203.577 115.601C203.383 115.408 203.252 115.161 203.198 114.893C203.145 114.625 203.172 114.347 203.277 114.094C203.382 113.842 203.559 113.626 203.786 113.474C204.014 113.322 204.281 113.241 204.554 113.241C204.921 113.241 205.272 113.387 205.532 113.646C205.791 113.905 205.936 114.257 205.936 114.623Z" fill="#83CD20"/>
<path d="M19.4168 114.623C19.4168 114.897 19.3358 115.164 19.1839 115.391C19.032 115.619 18.8161 115.796 18.5636 115.9C18.311 116.005 18.0331 116.032 17.7649 115.979C17.4968 115.926 17.2505 115.794 17.0572 115.601C16.8639 115.408 16.7322 115.161 16.6789 114.893C16.6256 114.625 16.6529 114.347 16.7576 114.094C16.8622 113.842 17.0394 113.626 17.2667 113.474C17.494 113.322 17.7612 113.241 18.0346 113.241C18.4012 113.241 18.7528 113.387 19.012 113.646C19.2712 113.905 19.4168 114.257 19.4168 114.623Z" fill="#83CD20"/>
<path d="M221.21 116.006C221.974 116.006 222.593 115.387 222.593 114.623C222.593 113.86 221.974 113.241 221.21 113.241C220.447 113.241 219.828 113.86 219.828 114.623C219.828 115.387 220.447 116.006 221.21 116.006Z" fill="#83CD20"/>
<path d="M34.6869 116.006C35.4503 116.006 36.0692 115.387 36.0692 114.623C36.0692 113.86 35.4503 113.241 34.6869 113.241C33.9235 113.241 33.3047 113.86 33.3047 114.623C33.3047 115.387 33.9235 116.006 34.6869 116.006Z" fill="#83CD20"/>
<path d="M237.863 116.006C238.626 116.006 239.245 115.387 239.245 114.623C239.245 113.86 238.626 113.241 237.863 113.241C237.099 113.241 236.48 113.86 236.48 114.623C236.48 115.387 237.099 116.006 237.863 116.006Z" fill="#83CD20"/>
<path d="M52.4526 116.006C53.2159 116.006 53.8348 115.387 53.8348 114.623C53.8348 113.86 53.2159 113.241 52.4526 113.241C51.6892 113.241 51.0703 113.86 51.0703 114.623C51.0703 115.387 51.6892 116.006 52.4526 116.006Z" fill="#83CD20"/>
<path d="M254.515 116.006C255.278 116.006 255.897 115.387 255.897 114.623C255.897 113.86 255.278 113.241 254.515 113.241C253.752 113.241 253.133 113.86 253.133 114.623C253.133 115.387 253.752 116.006 254.515 116.006Z" fill="#83CD20"/>
<path d="M69.1088 116.006C69.8722 116.006 70.491 115.387 70.491 114.623C70.491 113.86 69.8722 113.241 69.1088 113.241C68.3454 113.241 67.7266 113.86 67.7266 114.623C67.7266 115.387 68.3454 116.006 69.1088 116.006Z" fill="#83CD20"/>
<path d="M272.281 116.006C273.044 116.006 273.663 115.387 273.663 114.623C273.663 113.86 273.044 113.241 272.281 113.241C271.517 113.241 270.898 113.86 270.898 114.623C270.898 115.387 271.517 116.006 272.281 116.006Z" fill="#83CD20"/>
<path d="M85.7611 116.006C86.5245 116.006 87.1434 115.387 87.1434 114.623C87.1434 113.86 86.5245 113.241 85.7611 113.241C84.9978 113.241 84.3789 113.86 84.3789 114.623C84.3789 115.387 84.9978 116.006 85.7611 116.006Z" fill="#83CD20"/>
<path d="M288.933 116.006C289.696 116.006 290.315 115.387 290.315 114.623C290.315 113.86 289.696 113.241 288.933 113.241C288.17 113.241 287.551 113.86 287.551 114.623C287.551 115.387 288.17 116.006 288.933 116.006Z" fill="#83CD20"/>
<path d="M102.413 116.006C103.177 116.006 103.796 115.387 103.796 114.623C103.796 113.86 103.177 113.241 102.413 113.241C101.65 113.241 101.031 113.86 101.031 114.623C101.031 115.387 101.65 116.006 102.413 116.006Z" fill="#83CD20"/>
<path d="M305.585 116.006C306.349 116.006 306.968 115.387 306.968 114.623C306.968 113.86 306.349 113.241 305.585 113.241C304.822 113.241 304.203 113.86 304.203 114.623C304.203 115.387 304.822 116.006 305.585 116.006Z" fill="#83CD20"/>
<path d="M120.179 116.006C120.943 116.006 121.561 115.387 121.561 114.623C121.561 113.86 120.943 113.241 120.179 113.241C119.416 113.241 118.797 113.86 118.797 114.623C118.797 115.387 119.416 116.006 120.179 116.006Z" fill="#83CD20"/>
<path d="M136.831 134.881C137.595 134.881 138.214 134.262 138.214 133.498C138.214 132.735 137.595 132.116 136.831 132.116C136.068 132.116 135.449 132.735 135.449 133.498C135.449 134.262 136.068 134.881 136.831 134.881Z" fill="#83CD20"/>
<path d="M153.484 134.881C154.247 134.881 154.866 134.262 154.866 133.498C154.866 132.735 154.247 132.116 153.484 132.116C152.72 132.116 152.102 132.735 152.102 133.498C152.102 134.262 152.72 134.881 153.484 134.881Z" fill="#83CD20"/>
<path d="M170.14 134.881C170.903 134.881 171.522 134.262 171.522 133.498C171.522 132.735 170.903 132.116 170.14 132.116C169.377 132.116 168.758 132.735 168.758 133.498C168.758 134.262 169.377 134.881 170.14 134.881Z" fill="#83CD20"/>
<path d="M186.792 134.881C187.556 134.881 188.175 134.262 188.175 133.498C188.175 132.735 187.556 132.116 186.792 132.116C186.029 132.116 185.41 132.735 185.41 133.498C185.41 134.262 186.029 134.881 186.792 134.881Z" fill="#83CD20"/>
<path d="M1.38224 134.881C2.14563 134.881 2.76448 134.262 2.76448 133.498C2.76448 132.735 2.14563 132.116 1.38224 132.116C0.61885 132.116 0 132.735 0 133.498C0 134.262 0.61885 134.881 1.38224 134.881Z" fill="#83CD20"/>
<path d="M205.936 133.498C205.936 133.772 205.855 134.039 205.703 134.266C205.552 134.494 205.336 134.671 205.083 134.775C204.831 134.88 204.553 134.907 204.284 134.854C204.016 134.801 203.77 134.669 203.577 134.476C203.383 134.283 203.252 134.036 203.198 133.768C203.145 133.5 203.172 133.222 203.277 132.969C203.382 132.717 203.559 132.501 203.786 132.349C204.014 132.197 204.281 132.116 204.554 132.116C204.921 132.116 205.272 132.262 205.532 132.521C205.791 132.78 205.936 133.132 205.936 133.498Z" fill="#83CD20"/>
<path d="M19.4168 133.498C19.4168 133.772 19.3358 134.039 19.1839 134.266C19.032 134.494 18.8161 134.671 18.5636 134.775C18.311 134.88 18.0331 134.907 17.7649 134.854C17.4968 134.801 17.2505 134.669 17.0572 134.476C16.8639 134.283 16.7322 134.036 16.6789 133.768C16.6256 133.5 16.6529 133.222 16.7576 132.969C16.8622 132.717 17.0394 132.501 17.2667 132.349C17.494 132.197 17.7612 132.116 18.0346 132.116C18.4012 132.116 18.7528 132.262 19.012 132.521C19.2712 132.78 19.4168 133.132 19.4168 133.498Z" fill="#83CD20"/>
<path d="M221.21 134.881C221.974 134.881 222.593 134.262 222.593 133.498C222.593 132.735 221.974 132.116 221.21 132.116C220.447 132.116 219.828 132.735 219.828 133.498C219.828 134.262 220.447 134.881 221.21 134.881Z" fill="#83CD20"/>
<path d="M34.6869 134.881C35.4503 134.881 36.0692 134.262 36.0692 133.498C36.0692 132.735 35.4503 132.116 34.6869 132.116C33.9235 132.116 33.3047 132.735 33.3047 133.498C33.3047 134.262 33.9235 134.881 34.6869 134.881Z" fill="#83CD20"/>
<path d="M237.863 134.881C238.626 134.881 239.245 134.262 239.245 133.498C239.245 132.735 238.626 132.116 237.863 132.116C237.099 132.116 236.48 132.735 236.48 133.498C236.48 134.262 237.099 134.881 237.863 134.881Z" fill="#83CD20"/>
<path d="M52.4526 134.881C53.2159 134.881 53.8348 134.262 53.8348 133.498C53.8348 132.735 53.2159 132.116 52.4526 132.116C51.6892 132.116 51.0703 132.735 51.0703 133.498C51.0703 134.262 51.6892 134.881 52.4526 134.881Z" fill="#83CD20"/>
<path d="M254.515 134.881C255.278 134.881 255.897 134.262 255.897 133.498C255.897 132.735 255.278 132.116 254.515 132.116C253.752 132.116 253.133 132.735 253.133 133.498C253.133 134.262 253.752 134.881 254.515 134.881Z" fill="#83CD20"/>
<path d="M69.1088 134.881C69.8722 134.881 70.491 134.262 70.491 133.498C70.491 132.735 69.8722 132.116 69.1088 132.116C68.3454 132.116 67.7266 132.735 67.7266 133.498C67.7266 134.262 68.3454 134.881 69.1088 134.881Z" fill="#83CD20"/>
<path d="M272.281 134.881C273.044 134.881 273.663 134.262 273.663 133.498C273.663 132.735 273.044 132.116 272.281 132.116C271.517 132.116 270.898 132.735 270.898 133.498C270.898 134.262 271.517 134.881 272.281 134.881Z" fill="#83CD20"/>
<path d="M85.7611 134.881C86.5245 134.881 87.1434 134.262 87.1434 133.498C87.1434 132.735 86.5245 132.116 85.7611 132.116C84.9978 132.116 84.3789 132.735 84.3789 133.498C84.3789 134.262 84.9978 134.881 85.7611 134.881Z" fill="#83CD20"/>
<path d="M288.933 134.881C289.696 134.881 290.315 134.262 290.315 133.498C290.315 132.735 289.696 132.116 288.933 132.116C288.17 132.116 287.551 132.735 287.551 133.498C287.551 134.262 288.17 134.881 288.933 134.881Z" fill="#83CD20"/>
<path d="M102.413 134.881C103.177 134.881 103.796 134.262 103.796 133.498C103.796 132.735 103.177 132.116 102.413 132.116C101.65 132.116 101.031 132.735 101.031 133.498C101.031 134.262 101.65 134.881 102.413 134.881Z" fill="#83CD20"/>
<path d="M305.585 134.881C306.349 134.881 306.968 134.262 306.968 133.498C306.968 132.735 306.349 132.116 305.585 132.116C304.822 132.116 304.203 132.735 304.203 133.498C304.203 134.262 304.822 134.881 305.585 134.881Z" fill="#83CD20"/>
<path d="M120.179 134.881C120.943 134.881 121.561 134.262 121.561 133.498C121.561 132.735 120.943 132.116 120.179 132.116C119.416 132.116 118.797 132.735 118.797 133.498C118.797 134.262 119.416 134.881 120.179 134.881Z" fill="#83CD20"/>
<path d="M136.831 153.756C137.595 153.756 138.214 153.137 138.214 152.373C138.214 151.61 137.595 150.991 136.831 150.991C136.068 150.991 135.449 151.61 135.449 152.373C135.449 153.137 136.068 153.756 136.831 153.756Z" fill="#83CD20"/>
<path d="M153.484 153.756C154.247 153.756 154.866 153.137 154.866 152.373C154.866 151.61 154.247 150.991 153.484 150.991C152.72 150.991 152.102 151.61 152.102 152.373C152.102 153.137 152.72 153.756 153.484 153.756Z" fill="#83CD20"/>
<path d="M170.14 153.756C170.903 153.756 171.522 153.137 171.522 152.373C171.522 151.61 170.903 150.991 170.14 150.991C169.377 150.991 168.758 151.61 168.758 152.373C168.758 153.137 169.377 153.756 170.14 153.756Z" fill="#83CD20"/>
<path d="M186.792 153.756C187.556 153.756 188.175 153.137 188.175 152.373C188.175 151.61 187.556 150.991 186.792 150.991C186.029 150.991 185.41 151.61 185.41 152.373C185.41 153.137 186.029 153.756 186.792 153.756Z" fill="#83CD20"/>
<path d="M1.38224 153.756C2.14563 153.756 2.76448 153.137 2.76448 152.373C2.76448 151.61 2.14563 150.991 1.38224 150.991C0.61885 150.991 0 151.61 0 152.373C0 153.137 0.61885 153.756 1.38224 153.756Z" fill="#83CD20"/>
<path d="M205.936 152.373C205.936 152.647 205.855 152.914 205.703 153.141C205.552 153.369 205.336 153.546 205.083 153.65C204.831 153.755 204.553 153.782 204.284 153.729C204.016 153.676 203.77 153.544 203.577 153.351C203.383 153.158 203.252 152.911 203.198 152.643C203.145 152.375 203.172 152.097 203.277 151.844C203.382 151.592 203.559 151.376 203.786 151.224C204.014 151.072 204.281 150.991 204.554 150.991C204.921 150.991 205.272 151.137 205.532 151.396C205.791 151.655 205.936 152.007 205.936 152.373Z" fill="#83CD20"/>
<path d="M19.4168 152.373C19.4168 152.647 19.3358 152.914 19.1839 153.141C19.032 153.369 18.8161 153.546 18.5636 153.65C18.311 153.755 18.0331 153.782 17.7649 153.729C17.4968 153.676 17.2505 153.544 17.0572 153.351C16.8639 153.158 16.7322 152.911 16.6789 152.643C16.6256 152.375 16.6529 152.097 16.7576 151.844C16.8622 151.592 17.0394 151.376 17.2667 151.224C17.494 151.072 17.7612 150.991 18.0346 150.991C18.4012 150.991 18.7528 151.137 19.012 151.396C19.2712 151.655 19.4168 152.007 19.4168 152.373Z" fill="#83CD20"/>
<path d="M221.21 153.756C221.974 153.756 222.593 153.137 222.593 152.373C222.593 151.61 221.974 150.991 221.21 150.991C220.447 150.991 219.828 151.61 219.828 152.373C219.828 153.137 220.447 153.756 221.21 153.756Z" fill="#83CD20"/>
<path d="M34.6869 153.756C35.4503 153.756 36.0692 153.137 36.0692 152.373C36.0692 151.61 35.4503 150.991 34.6869 150.991C33.9235 150.991 33.3047 151.61 33.3047 152.373C33.3047 153.137 33.9235 153.756 34.6869 153.756Z" fill="#83CD20"/>
<path d="M237.863 153.756C238.626 153.756 239.245 153.137 239.245 152.373C239.245 151.61 238.626 150.991 237.863 150.991C237.099 150.991 236.48 151.61 236.48 152.373C236.48 153.137 237.099 153.756 237.863 153.756Z" fill="#83CD20"/>
<path d="M52.4526 153.756C53.2159 153.756 53.8348 153.137 53.8348 152.373C53.8348 151.61 53.2159 150.991 52.4526 150.991C51.6892 150.991 51.0703 151.61 51.0703 152.373C51.0703 153.137 51.6892 153.756 52.4526 153.756Z" fill="#83CD20"/>
<path d="M254.515 153.756C255.278 153.756 255.897 153.137 255.897 152.373C255.897 151.61 255.278 150.991 254.515 150.991C253.752 150.991 253.133 151.61 253.133 152.373C253.133 153.137 253.752 153.756 254.515 153.756Z" fill="#83CD20"/>
<path d="M69.1088 153.756C69.8722 153.756 70.491 153.137 70.491 152.373C70.491 151.61 69.8722 150.991 69.1088 150.991C68.3454 150.991 67.7266 151.61 67.7266 152.373C67.7266 153.137 68.3454 153.756 69.1088 153.756Z" fill="#83CD20"/>
<path d="M272.281 153.756C273.044 153.756 273.663 153.137 273.663 152.373C273.663 151.61 273.044 150.991 272.281 150.991C271.517 150.991 270.898 151.61 270.898 152.373C270.898 153.137 271.517 153.756 272.281 153.756Z" fill="#83CD20"/>
<path d="M85.7611 153.756C86.5245 153.756 87.1434 153.137 87.1434 152.373C87.1434 151.61 86.5245 150.991 85.7611 150.991C84.9978 150.991 84.3789 151.61 84.3789 152.373C84.3789 153.137 84.9978 153.756 85.7611 153.756Z" fill="#83CD20"/>
<path d="M288.933 153.756C289.696 153.756 290.315 153.137 290.315 152.373C290.315 151.61 289.696 150.991 288.933 150.991C288.17 150.991 287.551 151.61 287.551 152.373C287.551 153.137 288.17 153.756 288.933 153.756Z" fill="#83CD20"/>
<path d="M102.413 153.756C103.177 153.756 103.796 153.137 103.796 152.373C103.796 151.61 103.177 150.991 102.413 150.991C101.65 150.991 101.031 151.61 101.031 152.373C101.031 153.137 101.65 153.756 102.413 153.756Z" fill="#83CD20"/>
<path d="M305.585 153.756C306.349 153.756 306.968 153.137 306.968 152.373C306.968 151.61 306.349 150.991 305.585 150.991C304.822 150.991 304.203 151.61 304.203 152.373C304.203 153.137 304.822 153.756 305.585 153.756Z" fill="#83CD20"/>
<path d="M120.179 153.756C120.943 153.756 121.561 153.137 121.561 152.373C121.561 151.61 120.943 150.991 120.179 150.991C119.416 150.991 118.797 151.61 118.797 152.373C118.797 153.137 119.416 153.756 120.179 153.756Z" fill="#83CD20"/>
<path d="M136.831 172.631C137.595 172.631 138.214 172.012 138.214 171.248C138.214 170.485 137.595 169.866 136.831 169.866C136.068 169.866 135.449 170.485 135.449 171.248C135.449 172.012 136.068 172.631 136.831 172.631Z" fill="#83CD20"/>
<path d="M153.484 172.631C154.247 172.631 154.866 172.012 154.866 171.248C154.866 170.485 154.247 169.866 153.484 169.866C152.72 169.866 152.102 170.485 152.102 171.248C152.102 172.012 152.72 172.631 153.484 172.631Z" fill="#83CD20"/>
<path d="M170.14 172.631C170.903 172.631 171.522 172.012 171.522 171.248C171.522 170.485 170.903 169.866 170.14 169.866C169.377 169.866 168.758 170.485 168.758 171.248C168.758 172.012 169.377 172.631 170.14 172.631Z" fill="#83CD20"/>
<path d="M186.792 172.631C187.556 172.631 188.175 172.012 188.175 171.248C188.175 170.485 187.556 169.866 186.792 169.866C186.029 169.866 185.41 170.485 185.41 171.248C185.41 172.012 186.029 172.631 186.792 172.631Z" fill="#83CD20"/>
<path d="M1.38224 172.631C2.14563 172.631 2.76448 172.012 2.76448 171.248C2.76448 170.485 2.14563 169.866 1.38224 169.866C0.61885 169.866 0 170.485 0 171.248C0 172.012 0.61885 172.631 1.38224 172.631Z" fill="#83CD20"/>
<path d="M205.936 171.248C205.936 171.522 205.855 171.789 205.703 172.016C205.552 172.244 205.336 172.421 205.083 172.525C204.831 172.63 204.553 172.657 204.284 172.604C204.016 172.551 203.77 172.419 203.577 172.226C203.383 172.033 203.252 171.786 203.198 171.518C203.145 171.25 203.172 170.972 203.277 170.719C203.382 170.467 203.559 170.251 203.786 170.099C204.014 169.947 204.281 169.866 204.554 169.866C204.921 169.866 205.272 170.012 205.532 170.271C205.791 170.53 205.936 170.882 205.936 171.248Z" fill="#83CD20"/>
<path d="M19.4168 171.248C19.4168 171.522 19.3358 171.789 19.1839 172.016C19.032 172.244 18.8161 172.421 18.5636 172.525C18.311 172.63 18.0331 172.657 17.7649 172.604C17.4968 172.551 17.2505 172.419 17.0572 172.226C16.8639 172.033 16.7322 171.786 16.6789 171.518C16.6256 171.25 16.6529 170.972 16.7576 170.719C16.8622 170.467 17.0394 170.251 17.2667 170.099C17.494 169.947 17.7612 169.866 18.0346 169.866C18.4012 169.866 18.7528 170.012 19.012 170.271C19.2712 170.53 19.4168 170.882 19.4168 171.248Z" fill="#83CD20"/>
<path d="M221.21 172.631C221.974 172.631 222.593 172.012 222.593 171.248C222.593 170.485 221.974 169.866 221.21 169.866C220.447 169.866 219.828 170.485 219.828 171.248C219.828 172.012 220.447 172.631 221.21 172.631Z" fill="#83CD20"/>
<path d="M34.6869 172.631C35.4503 172.631 36.0692 172.012 36.0692 171.248C36.0692 170.485 35.4503 169.866 34.6869 169.866C33.9235 169.866 33.3047 170.485 33.3047 171.248C33.3047 172.012 33.9235 172.631 34.6869 172.631Z" fill="#83CD20"/>
<path d="M237.863 172.631C238.626 172.631 239.245 172.012 239.245 171.248C239.245 170.485 238.626 169.866 237.863 169.866C237.099 169.866 236.48 170.485 236.48 171.248C236.48 172.012 237.099 172.631 237.863 172.631Z" fill="#83CD20"/>
<path d="M52.4526 172.631C53.2159 172.631 53.8348 172.012 53.8348 171.248C53.8348 170.485 53.2159 169.866 52.4526 169.866C51.6892 169.866 51.0703 170.485 51.0703 171.248C51.0703 172.012 51.6892 172.631 52.4526 172.631Z" fill="#83CD20"/>
<path d="M254.515 172.631C255.278 172.631 255.897 172.012 255.897 171.248C255.897 170.485 255.278 169.866 254.515 169.866C253.752 169.866 253.133 170.485 253.133 171.248C253.133 172.012 253.752 172.631 254.515 172.631Z" fill="#83CD20"/>
<path d="M69.1088 172.631C69.8722 172.631 70.491 172.012 70.491 171.248C70.491 170.485 69.8722 169.866 69.1088 169.866C68.3454 169.866 67.7266 170.485 67.7266 171.248C67.7266 172.012 68.3454 172.631 69.1088 172.631Z" fill="#83CD20"/>
<path d="M272.281 172.631C273.044 172.631 273.663 172.012 273.663 171.248C273.663 170.485 273.044 169.866 272.281 169.866C271.517 169.866 270.898 170.485 270.898 171.248C270.898 172.012 271.517 172.631 272.281 172.631Z" fill="#83CD20"/>
<path d="M85.7611 172.631C86.5245 172.631 87.1434 172.012 87.1434 171.248C87.1434 170.485 86.5245 169.866 85.7611 169.866C84.9978 169.866 84.3789 170.485 84.3789 171.248C84.3789 172.012 84.9978 172.631 85.7611 172.631Z" fill="#83CD20"/>
<path d="M288.933 172.631C289.696 172.631 290.315 172.012 290.315 171.248C290.315 170.485 289.696 169.866 288.933 169.866C288.17 169.866 287.551 170.485 287.551 171.248C287.551 172.012 288.17 172.631 288.933 172.631Z" fill="#83CD20"/>
<path d="M102.413 172.631C103.177 172.631 103.796 172.012 103.796 171.248C103.796 170.485 103.177 169.866 102.413 169.866C101.65 169.866 101.031 170.485 101.031 171.248C101.031 172.012 101.65 172.631 102.413 172.631Z" fill="#83CD20"/>
<path d="M305.585 172.631C306.349 172.631 306.968 172.012 306.968 171.248C306.968 170.485 306.349 169.866 305.585 169.866C304.822 169.866 304.203 170.485 304.203 171.248C304.203 172.012 304.822 172.631 305.585 172.631Z" fill="#83CD20"/>
<path d="M120.179 172.631C120.943 172.631 121.561 172.012 121.561 171.248C121.561 170.485 120.943 169.866 120.179 169.866C119.416 169.866 118.797 170.485 118.797 171.248C118.797 172.012 119.416 172.631 120.179 172.631Z" fill="#83CD20"/>
<path d="M136.831 191.502C137.595 191.502 138.214 190.883 138.214 190.12C138.214 189.356 137.595 188.737 136.831 188.737C136.068 188.737 135.449 189.356 135.449 190.12C135.449 190.883 136.068 191.502 136.831 191.502Z" fill="#83CD20"/>
<path d="M153.484 191.502C154.247 191.502 154.866 190.883 154.866 190.12C154.866 189.356 154.247 188.737 153.484 188.737C152.72 188.737 152.102 189.356 152.102 190.12C152.102 190.883 152.72 191.502 153.484 191.502Z" fill="#83CD20"/>
<path d="M170.14 191.502C170.903 191.502 171.522 190.883 171.522 190.12C171.522 189.356 170.903 188.737 170.14 188.737C169.377 188.737 168.758 189.356 168.758 190.12C168.758 190.883 169.377 191.502 170.14 191.502Z" fill="#83CD20"/>
<path d="M186.792 191.502C187.556 191.502 188.175 190.883 188.175 190.12C188.175 189.356 187.556 188.737 186.792 188.737C186.029 188.737 185.41 189.356 185.41 190.12C185.41 190.883 186.029 191.502 186.792 191.502Z" fill="#83CD20"/>
<path d="M1.38224 191.502C2.14563 191.502 2.76448 190.883 2.76448 190.12C2.76448 189.356 2.14563 188.737 1.38224 188.737C0.61885 188.737 0 189.356 0 190.12C0 190.883 0.61885 191.502 1.38224 191.502Z" fill="#83CD20"/>
<path d="M205.936 190.12C205.936 190.393 205.855 190.66 205.703 190.887C205.552 191.115 205.336 191.292 205.083 191.397C204.831 191.501 204.553 191.529 204.284 191.475C204.016 191.422 203.77 191.29 203.577 191.097C203.383 190.904 203.252 190.657 203.198 190.389C203.145 190.121 203.172 189.843 203.277 189.591C203.382 189.338 203.559 189.122 203.786 188.97C204.014 188.818 204.281 188.737 204.554 188.737C204.921 188.737 205.272 188.883 205.532 189.142C205.791 189.401 205.936 189.753 205.936 190.12Z" fill="#83CD20"/>
<path d="M19.4168 190.12C19.4168 190.393 19.3358 190.66 19.1839 190.887C19.032 191.115 18.8161 191.292 18.5636 191.397C18.311 191.501 18.0331 191.529 17.7649 191.475C17.4968 191.422 17.2505 191.29 17.0572 191.097C16.8639 190.904 16.7322 190.657 16.6789 190.389C16.6256 190.121 16.6529 189.843 16.7576 189.591C16.8622 189.338 17.0394 189.122 17.2667 188.97C17.494 188.818 17.7612 188.737 18.0346 188.737C18.4012 188.737 18.7528 188.883 19.012 189.142C19.2712 189.401 19.4168 189.753 19.4168 190.12Z" fill="#83CD20"/>
<path d="M221.21 191.502C221.974 191.502 222.593 190.883 222.593 190.12C222.593 189.356 221.974 188.737 221.21 188.737C220.447 188.737 219.828 189.356 219.828 190.12C219.828 190.883 220.447 191.502 221.21 191.502Z" fill="#83CD20"/>
<path d="M34.6869 191.502C35.4503 191.502 36.0692 190.883 36.0692 190.12C36.0692 189.356 35.4503 188.737 34.6869 188.737C33.9235 188.737 33.3047 189.356 33.3047 190.12C33.3047 190.883 33.9235 191.502 34.6869 191.502Z" fill="#83CD20"/>
<path d="M237.863 191.502C238.626 191.502 239.245 190.883 239.245 190.12C239.245 189.356 238.626 188.737 237.863 188.737C237.099 188.737 236.48 189.356 236.48 190.12C236.48 190.883 237.099 191.502 237.863 191.502Z" fill="#83CD20"/>
<path d="M52.4526 191.502C53.2159 191.502 53.8348 190.883 53.8348 190.12C53.8348 189.356 53.2159 188.737 52.4526 188.737C51.6892 188.737 51.0703 189.356 51.0703 190.12C51.0703 190.883 51.6892 191.502 52.4526 191.502Z" fill="#83CD20"/>
<path d="M254.515 191.502C255.278 191.502 255.897 190.883 255.897 190.12C255.897 189.356 255.278 188.737 254.515 188.737C253.752 188.737 253.133 189.356 253.133 190.12C253.133 190.883 253.752 191.502 254.515 191.502Z" fill="#83CD20"/>
<path d="M69.1088 191.502C69.8722 191.502 70.491 190.883 70.491 190.12C70.491 189.356 69.8722 188.737 69.1088 188.737C68.3454 188.737 67.7266 189.356 67.7266 190.12C67.7266 190.883 68.3454 191.502 69.1088 191.502Z" fill="#83CD20"/>
<path d="M272.281 191.502C273.044 191.502 273.663 190.883 273.663 190.12C273.663 189.356 273.044 188.737 272.281 188.737C271.517 188.737 270.898 189.356 270.898 190.12C270.898 190.883 271.517 191.502 272.281 191.502Z" fill="#83CD20"/>
<path d="M85.7611 191.502C86.5245 191.502 87.1434 190.883 87.1434 190.12C87.1434 189.356 86.5245 188.737 85.7611 188.737C84.9978 188.737 84.3789 189.356 84.3789 190.12C84.3789 190.883 84.9978 191.502 85.7611 191.502Z" fill="#83CD20"/>
<path d="M288.933 191.502C289.696 191.502 290.315 190.883 290.315 190.12C290.315 189.356 289.696 188.737 288.933 188.737C288.17 188.737 287.551 189.356 287.551 190.12C287.551 190.883 288.17 191.502 288.933 191.502Z" fill="#83CD20"/>
<path d="M102.413 191.502C103.177 191.502 103.796 190.883 103.796 190.12C103.796 189.356 103.177 188.737 102.413 188.737C101.65 188.737 101.031 189.356 101.031 190.12C101.031 190.883 101.65 191.502 102.413 191.502Z" fill="#83CD20"/>
<path d="M305.585 191.502C306.349 191.502 306.968 190.883 306.968 190.12C306.968 189.356 306.349 188.737 305.585 188.737C304.822 188.737 304.203 189.356 304.203 190.12C304.203 190.883 304.822 191.502 305.585 191.502Z" fill="#83CD20"/>
<path d="M120.179 191.502C120.943 191.502 121.561 190.883 121.561 190.12C121.561 189.356 120.943 188.737 120.179 188.737C119.416 188.737 118.797 189.356 118.797 190.12C118.797 190.883 119.416 191.502 120.179 191.502Z" fill="#83CD20"/>
<path d="M136.831 210.377C137.595 210.377 138.214 209.758 138.214 208.995C138.214 208.231 137.595 207.612 136.831 207.612C136.068 207.612 135.449 208.231 135.449 208.995C135.449 209.758 136.068 210.377 136.831 210.377Z" fill="#83CD20"/>
<path d="M153.484 210.377C154.247 210.377 154.866 209.758 154.866 208.995C154.866 208.231 154.247 207.612 153.484 207.612C152.72 207.612 152.102 208.231 152.102 208.995C152.102 209.758 152.72 210.377 153.484 210.377Z" fill="#83CD20"/>
<path d="M170.14 210.377C170.903 210.377 171.522 209.758 171.522 208.995C171.522 208.231 170.903 207.612 170.14 207.612C169.377 207.612 168.758 208.231 168.758 208.995C168.758 209.758 169.377 210.377 170.14 210.377Z" fill="#83CD20"/>
<path d="M186.792 210.377C187.556 210.377 188.175 209.758 188.175 208.995C188.175 208.231 187.556 207.612 186.792 207.612C186.029 207.612 185.41 208.231 185.41 208.995C185.41 209.758 186.029 210.377 186.792 210.377Z" fill="#83CD20"/>
<path d="M1.38224 210.377C2.14563 210.377 2.76448 209.758 2.76448 208.995C2.76448 208.231 2.14563 207.612 1.38224 207.612C0.61885 207.612 0 208.231 0 208.995C0 209.758 0.61885 210.377 1.38224 210.377Z" fill="#83CD20"/>
<path d="M205.936 208.995C205.936 209.268 205.855 209.535 205.703 209.762C205.552 209.99 205.336 210.167 205.083 210.272C204.831 210.376 204.553 210.404 204.284 210.35C204.016 210.297 203.77 210.165 203.577 209.972C203.383 209.779 203.252 209.532 203.198 209.264C203.145 208.996 203.172 208.718 203.277 208.466C203.382 208.213 203.559 207.997 203.786 207.845C204.014 207.693 204.281 207.612 204.554 207.612C204.921 207.612 205.272 207.758 205.532 208.017C205.791 208.276 205.936 208.628 205.936 208.995Z" fill="#83CD20"/>
<path d="M19.4168 208.995C19.4168 209.268 19.3358 209.535 19.1839 209.762C19.032 209.99 18.8161 210.167 18.5636 210.272C18.311 210.376 18.0331 210.404 17.7649 210.35C17.4968 210.297 17.2505 210.165 17.0572 209.972C16.8639 209.779 16.7322 209.532 16.6789 209.264C16.6256 208.996 16.6529 208.718 16.7576 208.466C16.8622 208.213 17.0394 207.997 17.2667 207.845C17.494 207.693 17.7612 207.612 18.0346 207.612C18.4012 207.612 18.7528 207.758 19.012 208.017C19.2712 208.276 19.4168 208.628 19.4168 208.995Z" fill="#83CD20"/>
<path d="M221.21 210.377C221.974 210.377 222.593 209.758 222.593 208.995C222.593 208.231 221.974 207.612 221.21 207.612C220.447 207.612 219.828 208.231 219.828 208.995C219.828 209.758 220.447 210.377 221.21 210.377Z" fill="#83CD20"/>
<path d="M34.6869 210.377C35.4503 210.377 36.0692 209.758 36.0692 208.995C36.0692 208.231 35.4503 207.612 34.6869 207.612C33.9235 207.612 33.3047 208.231 33.3047 208.995C33.3047 209.758 33.9235 210.377 34.6869 210.377Z" fill="#83CD20"/>
<path d="M237.863 210.377C238.626 210.377 239.245 209.758 239.245 208.995C239.245 208.231 238.626 207.612 237.863 207.612C237.099 207.612 236.48 208.231 236.48 208.995C236.48 209.758 237.099 210.377 237.863 210.377Z" fill="#83CD20"/>
<path d="M52.4526 210.377C53.2159 210.377 53.8348 209.758 53.8348 208.995C53.8348 208.231 53.2159 207.612 52.4526 207.612C51.6892 207.612 51.0703 208.231 51.0703 208.995C51.0703 209.758 51.6892 210.377 52.4526 210.377Z" fill="#83CD20"/>
<path d="M254.515 210.377C255.278 210.377 255.897 209.758 255.897 208.995C255.897 208.231 255.278 207.612 254.515 207.612C253.752 207.612 253.133 208.231 253.133 208.995C253.133 209.758 253.752 210.377 254.515 210.377Z" fill="#83CD20"/>
<path d="M69.1088 210.377C69.8722 210.377 70.491 209.758 70.491 208.995C70.491 208.231 69.8722 207.612 69.1088 207.612C68.3454 207.612 67.7266 208.231 67.7266 208.995C67.7266 209.758 68.3454 210.377 69.1088 210.377Z" fill="#83CD20"/>
<path d="M272.281 210.377C273.044 210.377 273.663 209.758 273.663 208.995C273.663 208.231 273.044 207.612 272.281 207.612C271.517 207.612 270.898 208.231 270.898 208.995C270.898 209.758 271.517 210.377 272.281 210.377Z" fill="#83CD20"/>
<path d="M85.7611 210.377C86.5245 210.377 87.1434 209.758 87.1434 208.995C87.1434 208.231 86.5245 207.612 85.7611 207.612C84.9978 207.612 84.3789 208.231 84.3789 208.995C84.3789 209.758 84.9978 210.377 85.7611 210.377Z" fill="#83CD20"/>
<path d="M288.933 210.377C289.696 210.377 290.315 209.758 290.315 208.995C290.315 208.231 289.696 207.612 288.933 207.612C288.17 207.612 287.551 208.231 287.551 208.995C287.551 209.758 288.17 210.377 288.933 210.377Z" fill="#83CD20"/>
<path d="M102.413 210.377C103.177 210.377 103.796 209.758 103.796 208.995C103.796 208.231 103.177 207.612 102.413 207.612C101.65 207.612 101.031 208.231 101.031 208.995C101.031 209.758 101.65 210.377 102.413 210.377Z" fill="#83CD20"/>
<path d="M305.585 210.377C306.349 210.377 306.968 209.758 306.968 208.995C306.968 208.231 306.349 207.612 305.585 207.612C304.822 207.612 304.203 208.231 304.203 208.995C304.203 209.758 304.822 210.377 305.585 210.377Z" fill="#83CD20"/>
<path d="M120.179 210.377C120.943 210.377 121.561 209.758 121.561 208.995C121.561 208.231 120.943 207.612 120.179 207.612C119.416 207.612 118.797 208.231 118.797 208.995C118.797 209.758 119.416 210.377 120.179 210.377Z" fill="#83CD20"/>
<path d="M136.831 229.252C137.595 229.252 138.214 228.633 138.214 227.87C138.214 227.106 137.595 226.487 136.831 226.487C136.068 226.487 135.449 227.106 135.449 227.87C135.449 228.633 136.068 229.252 136.831 229.252Z" fill="#83CD20"/>
<path d="M153.484 229.252C154.247 229.252 154.866 228.633 154.866 227.87C154.866 227.106 154.247 226.487 153.484 226.487C152.72 226.487 152.102 227.106 152.102 227.87C152.102 228.633 152.72 229.252 153.484 229.252Z" fill="#83CD20"/>
<path d="M170.14 229.252C170.903 229.252 171.522 228.633 171.522 227.87C171.522 227.106 170.903 226.487 170.14 226.487C169.377 226.487 168.758 227.106 168.758 227.87C168.758 228.633 169.377 229.252 170.14 229.252Z" fill="#83CD20"/>
<path d="M186.792 229.252C187.556 229.252 188.175 228.633 188.175 227.87C188.175 227.106 187.556 226.487 186.792 226.487C186.029 226.487 185.41 227.106 185.41 227.87C185.41 228.633 186.029 229.252 186.792 229.252Z" fill="#83CD20"/>
<path d="M1.38224 229.252C2.14563 229.252 2.76448 228.633 2.76448 227.87C2.76448 227.106 2.14563 226.487 1.38224 226.487C0.61885 226.487 0 227.106 0 227.87C0 228.633 0.61885 229.252 1.38224 229.252Z" fill="#83CD20"/>
<path d="M205.936 227.87C205.936 228.143 205.855 228.41 205.703 228.637C205.552 228.865 205.336 229.042 205.083 229.147C204.831 229.251 204.553 229.279 204.284 229.225C204.016 229.172 203.77 229.04 203.577 228.847C203.383 228.654 203.252 228.407 203.198 228.139C203.145 227.871 203.172 227.593 203.277 227.341C203.382 227.088 203.559 226.872 203.786 226.72C204.014 226.568 204.281 226.487 204.554 226.487C204.921 226.487 205.272 226.633 205.532 226.892C205.791 227.151 205.936 227.503 205.936 227.87Z" fill="#83CD20"/>
<path d="M19.4168 227.87C19.4168 228.143 19.3358 228.41 19.1839 228.637C19.032 228.865 18.8161 229.042 18.5636 229.147C18.311 229.251 18.0331 229.279 17.7649 229.225C17.4968 229.172 17.2505 229.04 17.0572 228.847C16.8639 228.654 16.7322 228.407 16.6789 228.139C16.6256 227.871 16.6529 227.593 16.7576 227.341C16.8622 227.088 17.0394 226.872 17.2667 226.72C17.494 226.568 17.7612 226.487 18.0346 226.487C18.4012 226.487 18.7528 226.633 19.012 226.892C19.2712 227.151 19.4168 227.503 19.4168 227.87Z" fill="#83CD20"/>
<path d="M221.21 229.252C221.974 229.252 222.593 228.633 222.593 227.87C222.593 227.106 221.974 226.487 221.21 226.487C220.447 226.487 219.828 227.106 219.828 227.87C219.828 228.633 220.447 229.252 221.21 229.252Z" fill="#83CD20"/>
<path d="M34.6869 229.252C35.4503 229.252 36.0692 228.633 36.0692 227.87C36.0692 227.106 35.4503 226.487 34.6869 226.487C33.9235 226.487 33.3047 227.106 33.3047 227.87C33.3047 228.633 33.9235 229.252 34.6869 229.252Z" fill="#83CD20"/>
<path d="M237.863 229.252C238.626 229.252 239.245 228.633 239.245 227.87C239.245 227.106 238.626 226.487 237.863 226.487C237.099 226.487 236.48 227.106 236.48 227.87C236.48 228.633 237.099 229.252 237.863 229.252Z" fill="#83CD20"/>
<path d="M52.4526 229.252C53.2159 229.252 53.8348 228.633 53.8348 227.87C53.8348 227.106 53.2159 226.487 52.4526 226.487C51.6892 226.487 51.0703 227.106 51.0703 227.87C51.0703 228.633 51.6892 229.252 52.4526 229.252Z" fill="#83CD20"/>
<path d="M254.515 229.252C255.278 229.252 255.897 228.633 255.897 227.87C255.897 227.106 255.278 226.487 254.515 226.487C253.752 226.487 253.133 227.106 253.133 227.87C253.133 228.633 253.752 229.252 254.515 229.252Z" fill="#83CD20"/>
<path d="M69.1088 229.252C69.8722 229.252 70.491 228.633 70.491 227.87C70.491 227.106 69.8722 226.487 69.1088 226.487C68.3454 226.487 67.7266 227.106 67.7266 227.87C67.7266 228.633 68.3454 229.252 69.1088 229.252Z" fill="#83CD20"/>
<path d="M272.281 229.252C273.044 229.252 273.663 228.633 273.663 227.87C273.663 227.106 273.044 226.487 272.281 226.487C271.517 226.487 270.898 227.106 270.898 227.87C270.898 228.633 271.517 229.252 272.281 229.252Z" fill="#83CD20"/>
<path d="M85.7611 229.252C86.5245 229.252 87.1434 228.633 87.1434 227.87C87.1434 227.106 86.5245 226.487 85.7611 226.487C84.9978 226.487 84.3789 227.106 84.3789 227.87C84.3789 228.633 84.9978 229.252 85.7611 229.252Z" fill="#83CD20"/>
<path d="M288.933 229.252C289.696 229.252 290.315 228.633 290.315 227.87C290.315 227.106 289.696 226.487 288.933 226.487C288.17 226.487 287.551 227.106 287.551 227.87C287.551 228.633 288.17 229.252 288.933 229.252Z" fill="#83CD20"/>
<path d="M102.413 229.252C103.177 229.252 103.796 228.633 103.796 227.87C103.796 227.106 103.177 226.487 102.413 226.487C101.65 226.487 101.031 227.106 101.031 227.87C101.031 228.633 101.65 229.252 102.413 229.252Z" fill="#83CD20"/>
<path d="M305.585 229.252C306.349 229.252 306.968 228.633 306.968 227.87C306.968 227.106 306.349 226.487 305.585 226.487C304.822 226.487 304.203 227.106 304.203 227.87C304.203 228.633 304.822 229.252 305.585 229.252Z" fill="#83CD20"/>
<path d="M120.179 229.252C120.943 229.252 121.561 228.633 121.561 227.87C121.561 227.106 120.943 226.487 120.179 226.487C119.416 226.487 118.797 227.106 118.797 227.87C118.797 228.633 119.416 229.252 120.179 229.252Z" fill="#83CD20"/>
<path d="M136.831 248.127C137.595 248.127 138.214 247.508 138.214 246.745C138.214 245.981 137.595 245.362 136.831 245.362C136.068 245.362 135.449 245.981 135.449 246.745C135.449 247.508 136.068 248.127 136.831 248.127Z" fill="#83CD20"/>
<path d="M153.484 248.127C154.247 248.127 154.866 247.508 154.866 246.745C154.866 245.981 154.247 245.362 153.484 245.362C152.72 245.362 152.102 245.981 152.102 246.745C152.102 247.508 152.72 248.127 153.484 248.127Z" fill="#83CD20"/>
<path d="M170.14 248.127C170.903 248.127 171.522 247.508 171.522 246.745C171.522 245.981 170.903 245.362 170.14 245.362C169.377 245.362 168.758 245.981 168.758 246.745C168.758 247.508 169.377 248.127 170.14 248.127Z" fill="#83CD20"/>
<path d="M186.792 248.127C187.556 248.127 188.175 247.508 188.175 246.745C188.175 245.981 187.556 245.362 186.792 245.362C186.029 245.362 185.41 245.981 185.41 246.745C185.41 247.508 186.029 248.127 186.792 248.127Z" fill="#83CD20"/>
<path d="M1.38224 248.127C2.14563 248.127 2.76448 247.508 2.76448 246.745C2.76448 245.981 2.14563 245.362 1.38224 245.362C0.61885 245.362 0 245.981 0 246.745C0 247.508 0.61885 248.127 1.38224 248.127Z" fill="#83CD20"/>
<path d="M205.936 246.745C205.936 247.018 205.855 247.285 205.703 247.512C205.552 247.74 205.336 247.917 205.083 248.022C204.831 248.126 204.553 248.154 204.284 248.1C204.016 248.047 203.77 247.915 203.577 247.722C203.383 247.529 203.252 247.282 203.198 247.014C203.145 246.746 203.172 246.468 203.277 246.216C203.382 245.963 203.559 245.747 203.786 245.595C204.014 245.443 204.281 245.362 204.554 245.362C204.921 245.362 205.272 245.508 205.532 245.767C205.791 246.026 205.936 246.378 205.936 246.745Z" fill="#83CD20"/>
<path d="M19.4168 246.745C19.4168 247.018 19.3358 247.285 19.1839 247.512C19.032 247.74 18.8161 247.917 18.5636 248.022C18.311 248.126 18.0331 248.154 17.7649 248.1C17.4968 248.047 17.2505 247.915 17.0572 247.722C16.8639 247.529 16.7322 247.282 16.6789 247.014C16.6256 246.746 16.6529 246.468 16.7576 246.216C16.8622 245.963 17.0394 245.747 17.2667 245.595C17.494 245.443 17.7612 245.362 18.0346 245.362C18.4012 245.362 18.7528 245.508 19.012 245.767C19.2712 246.026 19.4168 246.378 19.4168 246.745Z" fill="#83CD20"/>
<path d="M221.21 248.127C221.974 248.127 222.593 247.508 222.593 246.745C222.593 245.981 221.974 245.362 221.21 245.362C220.447 245.362 219.828 245.981 219.828 246.745C219.828 247.508 220.447 248.127 221.21 248.127Z" fill="#83CD20"/>
<path d="M34.6869 248.127C35.4503 248.127 36.0692 247.508 36.0692 246.745C36.0692 245.981 35.4503 245.362 34.6869 245.362C33.9235 245.362 33.3047 245.981 33.3047 246.745C33.3047 247.508 33.9235 248.127 34.6869 248.127Z" fill="#83CD20"/>
<path d="M237.863 248.127C238.626 248.127 239.245 247.508 239.245 246.745C239.245 245.981 238.626 245.362 237.863 245.362C237.099 245.362 236.48 245.981 236.48 246.745C236.48 247.508 237.099 248.127 237.863 248.127Z" fill="#83CD20"/>
<path d="M52.4526 248.127C53.2159 248.127 53.8348 247.508 53.8348 246.745C53.8348 245.981 53.2159 245.362 52.4526 245.362C51.6892 245.362 51.0703 245.981 51.0703 246.745C51.0703 247.508 51.6892 248.127 52.4526 248.127Z" fill="#83CD20"/>
<path d="M254.515 248.127C255.278 248.127 255.897 247.508 255.897 246.745C255.897 245.981 255.278 245.362 254.515 245.362C253.752 245.362 253.133 245.981 253.133 246.745C253.133 247.508 253.752 248.127 254.515 248.127Z" fill="#83CD20"/>
<path d="M69.1088 248.127C69.8722 248.127 70.491 247.508 70.491 246.745C70.491 245.981 69.8722 245.362 69.1088 245.362C68.3454 245.362 67.7266 245.981 67.7266 246.745C67.7266 247.508 68.3454 248.127 69.1088 248.127Z" fill="#83CD20"/>
<path d="M272.281 248.127C273.044 248.127 273.663 247.508 273.663 246.745C273.663 245.981 273.044 245.362 272.281 245.362C271.517 245.362 270.898 245.981 270.898 246.745C270.898 247.508 271.517 248.127 272.281 248.127Z" fill="#83CD20"/>
<path d="M85.7611 248.127C86.5245 248.127 87.1434 247.508 87.1434 246.745C87.1434 245.981 86.5245 245.362 85.7611 245.362C84.9978 245.362 84.3789 245.981 84.3789 246.745C84.3789 247.508 84.9978 248.127 85.7611 248.127Z" fill="#83CD20"/>
<path d="M288.933 248.127C289.696 248.127 290.315 247.508 290.315 246.745C290.315 245.981 289.696 245.362 288.933 245.362C288.17 245.362 287.551 245.981 287.551 246.745C287.551 247.508 288.17 248.127 288.933 248.127Z" fill="#83CD20"/>
<path d="M102.413 248.127C103.177 248.127 103.796 247.508 103.796 246.745C103.796 245.981 103.177 245.362 102.413 245.362C101.65 245.362 101.031 245.981 101.031 246.745C101.031 247.508 101.65 248.127 102.413 248.127Z" fill="#83CD20"/>
<path d="M305.585 248.127C306.349 248.127 306.968 247.508 306.968 246.745C306.968 245.981 306.349 245.362 305.585 245.362C304.822 245.362 304.203 245.981 304.203 246.745C304.203 247.508 304.822 248.127 305.585 248.127Z" fill="#83CD20"/>
<path d="M120.179 248.127C120.943 248.127 121.561 247.508 121.561 246.745C121.561 245.981 120.943 245.362 120.179 245.362C119.416 245.362 118.797 245.981 118.797 246.745C118.797 247.508 119.416 248.127 120.179 248.127Z" fill="#83CD20"/>
<path d="M136.831 266.998C137.595 266.998 138.214 266.379 138.214 265.616C138.214 264.852 137.595 264.233 136.831 264.233C136.068 264.233 135.449 264.852 135.449 265.616C135.449 266.379 136.068 266.998 136.831 266.998Z" fill="#83CD20"/>
<path d="M153.484 266.998C154.247 266.998 154.866 266.379 154.866 265.616C154.866 264.852 154.247 264.233 153.484 264.233C152.72 264.233 152.102 264.852 152.102 265.616C152.102 266.379 152.72 266.998 153.484 266.998Z" fill="#83CD20"/>
<path d="M170.14 266.998C170.903 266.998 171.522 266.379 171.522 265.616C171.522 264.852 170.903 264.233 170.14 264.233C169.377 264.233 168.758 264.852 168.758 265.616C168.758 266.379 169.377 266.998 170.14 266.998Z" fill="#83CD20"/>
<path d="M186.792 266.998C187.556 266.998 188.175 266.379 188.175 265.616C188.175 264.852 187.556 264.233 186.792 264.233C186.029 264.233 185.41 264.852 185.41 265.616C185.41 266.379 186.029 266.998 186.792 266.998Z" fill="#83CD20"/>
<path d="M1.38224 266.998C2.14563 266.998 2.76448 266.379 2.76448 265.616C2.76448 264.852 2.14563 264.233 1.38224 264.233C0.61885 264.233 0 264.852 0 265.616C0 266.379 0.61885 266.998 1.38224 266.998Z" fill="#83CD20"/>
<path d="M205.936 265.616C205.936 265.889 205.855 266.156 205.703 266.384C205.552 266.611 205.336 266.788 205.083 266.893C204.831 266.997 204.553 267.025 204.284 266.971C204.016 266.918 203.77 266.786 203.577 266.593C203.383 266.4 203.252 266.153 203.198 265.885C203.145 265.617 203.172 265.339 203.277 265.087C203.382 264.834 203.559 264.618 203.786 264.466C204.014 264.314 204.281 264.233 204.554 264.233C204.921 264.233 205.272 264.379 205.532 264.638C205.791 264.897 205.936 265.249 205.936 265.616Z" fill="#83CD20"/>
<path d="M19.4168 265.616C19.4168 265.889 19.3358 266.156 19.1839 266.384C19.032 266.611 18.8161 266.788 18.5636 266.893C18.311 266.997 18.0331 267.025 17.7649 266.971C17.4968 266.918 17.2505 266.786 17.0572 266.593C16.8639 266.4 16.7322 266.153 16.6789 265.885C16.6256 265.617 16.6529 265.339 16.7576 265.087C16.8622 264.834 17.0394 264.618 17.2667 264.466C17.494 264.314 17.7612 264.233 18.0346 264.233C18.4012 264.233 18.7528 264.379 19.012 264.638C19.2712 264.897 19.4168 265.249 19.4168 265.616Z" fill="#83CD20"/>
<path d="M221.21 266.998C221.974 266.998 222.593 266.379 222.593 265.616C222.593 264.852 221.974 264.233 221.21 264.233C220.447 264.233 219.828 264.852 219.828 265.616C219.828 266.379 220.447 266.998 221.21 266.998Z" fill="#83CD20"/>
<path d="M34.6869 266.998C35.4503 266.998 36.0692 266.379 36.0692 265.616C36.0692 264.852 35.4503 264.233 34.6869 264.233C33.9235 264.233 33.3047 264.852 33.3047 265.616C33.3047 266.379 33.9235 266.998 34.6869 266.998Z" fill="#83CD20"/>
<path d="M237.863 266.998C238.626 266.998 239.245 266.379 239.245 265.616C239.245 264.852 238.626 264.233 237.863 264.233C237.099 264.233 236.48 264.852 236.48 265.616C236.48 266.379 237.099 266.998 237.863 266.998Z" fill="#83CD20"/>
<path d="M52.4526 266.998C53.2159 266.998 53.8348 266.379 53.8348 265.616C53.8348 264.852 53.2159 264.233 52.4526 264.233C51.6892 264.233 51.0703 264.852 51.0703 265.616C51.0703 266.379 51.6892 266.998 52.4526 266.998Z" fill="#83CD20"/>
<path d="M254.515 266.998C255.278 266.998 255.897 266.379 255.897 265.616C255.897 264.852 255.278 264.233 254.515 264.233C253.752 264.233 253.133 264.852 253.133 265.616C253.133 266.379 253.752 266.998 254.515 266.998Z" fill="#83CD20"/>
<path d="M69.1088 266.998C69.8722 266.998 70.491 266.379 70.491 265.616C70.491 264.852 69.8722 264.233 69.1088 264.233C68.3454 264.233 67.7266 264.852 67.7266 265.616C67.7266 266.379 68.3454 266.998 69.1088 266.998Z" fill="#83CD20"/>
<path d="M272.281 266.998C273.044 266.998 273.663 266.379 273.663 265.616C273.663 264.852 273.044 264.233 272.281 264.233C271.517 264.233 270.898 264.852 270.898 265.616C270.898 266.379 271.517 266.998 272.281 266.998Z" fill="#83CD20"/>
<path d="M85.7611 266.998C86.5245 266.998 87.1434 266.379 87.1434 265.616C87.1434 264.852 86.5245 264.233 85.7611 264.233C84.9978 264.233 84.3789 264.852 84.3789 265.616C84.3789 266.379 84.9978 266.998 85.7611 266.998Z" fill="#83CD20"/>
<path d="M288.933 266.998C289.696 266.998 290.315 266.379 290.315 265.616C290.315 264.852 289.696 264.233 288.933 264.233C288.17 264.233 287.551 264.852 287.551 265.616C287.551 266.379 288.17 266.998 288.933 266.998Z" fill="#83CD20"/>
<path d="M102.413 266.998C103.177 266.998 103.796 266.379 103.796 265.616C103.796 264.852 103.177 264.233 102.413 264.233C101.65 264.233 101.031 264.852 101.031 265.616C101.031 266.379 101.65 266.998 102.413 266.998Z" fill="#83CD20"/>
<path d="M305.585 266.998C306.349 266.998 306.968 266.379 306.968 265.616C306.968 264.852 306.349 264.233 305.585 264.233C304.822 264.233 304.203 264.852 304.203 265.616C304.203 266.379 304.822 266.998 305.585 266.998Z" fill="#83CD20"/>
<path d="M120.179 266.998C120.943 266.998 121.561 266.379 121.561 265.616C121.561 264.852 120.943 264.233 120.179 264.233C119.416 264.233 118.797 264.852 118.797 265.616C118.797 266.379 119.416 266.998 120.179 266.998Z" fill="#83CD20"/>
</svg>
