<svg width="185" height="66" viewBox="0 0 185 66" fill="none" xmlns="http://www.w3.org/2000/svg">
<mask id="mask0_2133_2384" style="mask-type:luminance" maskUnits="userSpaceOnUse" x="0" y="53" width="43" height="13">
<path d="M0.902344 53.9351H42.351V65.6552H0.902344V53.9351Z" fill="white"/>
</mask>
<g mask="url(#mask0_2133_2384)">
<path d="M21.6321 58.0228C12.3407 58.0228 4.37053 56.4006 0.976562 54.0898C5.19917 61.0152 12.8692 65.645 21.6321 65.645C30.3943 65.645 38.0651 61.0152 42.2877 54.0898C38.8937 56.4006 30.9236 58.0228 21.6321 58.0228Z" fill="#FAA13D"/>
</g>
<mask id="mask1_2133_2384" style="mask-type:luminance" maskUnits="userSpaceOnUse" x="14" y="19" width="28" height="37">
<path d="M14.9805 19.2637H41.0317V55.9298H14.9805V19.2637Z" fill="white"/>
</mask>
<g mask="url(#mask1_2133_2384)">
<path d="M33.688 19.332C35.4018 33.4068 26.3723 34.5629 19.4484 44.247C16.7235 48.0589 15.49 51.752 14.9883 54.8133C14.9883 54.8133 32.7791 49.4253 35.3376 33.0255C35.3376 33.0255 36.7772 45.5582 19.6378 55.8642C20.2946 55.9308 20.9606 55.9687 21.6357 55.9687C22.9035 55.9687 24.1415 55.8476 25.3413 55.6183C34.3165 53.9038 41.0968 46.0811 41.0968 36.6883C41.0968 31.5137 37.7403 25.5023 33.688 19.332Z" fill="#61AB32"/>
</g>
<mask id="mask2_2133_2384" style="mask-type:luminance" maskUnits="userSpaceOnUse" x="2" y="0" width="30" height="54">
<path d="M2.17188 0H31.5972V53.7417H2.17188V0Z" fill="white"/>
</mask>
<g mask="url(#mask2_2133_2384)">
<path d="M5.0343 36.3584C5.0343 27.8425 14.1233 17.0621 20.4492 7.03302C15.162 18.1857 5.80336 30.832 6.63964 39.938C6.9688 43.5183 8.26713 46.7794 10.2536 49.4919C7.01692 46.0492 5.0343 41.4346 5.0343 36.3584ZM17.2508 42.7057C19.587 39.4378 22.1271 37.0938 24.3679 35.0252C28.7768 30.9545 33.321 26.8725 30.874 15.1501C27.351 9.98084 23.7584 4.80702 21.633 0.0175781C16.3817 11.8512 2.17188 26.0395 2.17188 36.6875C2.17188 44.0472 6.33568 50.4414 12.4554 53.6904C13.1977 49.8142 14.8084 46.1219 17.2508 42.7057Z" fill="#1B72B1"/>
</g>
<path d="M49.9062 47.0694V21.4282H53.2707L63.9228 35.4015H64.142V21.4282H69.4024V47.0694H65.9941L55.3821 32.879H55.1666V47.0694H49.9062Z" fill="black"/>
<path d="M74.5742 47.0694V21.4282H79.8345V47.0694H74.5742Z" fill="black"/>
<path d="M85.0117 47.0694V21.4282H99.1598V25.5286H90.2721V32.1552H96.3543V36.2556H90.2721V42.9654H99.1598V47.0694H85.0117Z" fill="black"/>
<path d="M110.633 47.2396C107.872 47.2396 105.513 46.8551 103.557 46.0852L104.292 41.8979C104.406 41.9268 104.737 42.0417 105.285 42.2417C105.831 42.4398 106.247 42.5819 106.535 42.6687C106.792 42.7538 107.181 42.8388 107.7 42.9257C108.216 43.0107 108.705 43.0524 109.165 43.0524C110.947 43.0524 112.213 42.8533 112.964 42.4552C113.711 42.0553 114.085 41.2284 114.085 39.9762C114.085 39.1492 113.883 38.4923 113.479 38.0074C113.048 37.5541 112.501 37.2275 111.839 37.0266C111.149 36.8266 110.401 36.6556 109.596 36.5127C108.792 36.3706 107.987 36.1716 107.181 35.9155C106.375 35.6604 105.641 35.3039 104.982 34.8479C104.29 34.3919 103.744 33.679 103.342 32.709C102.911 31.7418 102.695 30.5448 102.695 29.1189C102.695 26.2146 103.428 24.1635 104.894 22.9665C106.36 21.7993 108.489 21.2148 111.28 21.2148C113.81 21.2148 115.88 21.3994 117.49 21.7686L117.318 22.7928L116.975 24.7615L116.803 25.7857C114.73 25.5306 113.349 25.4021 112.661 25.4021C110.675 25.4021 109.381 25.7016 108.778 26.2997C108.144 26.8986 107.828 27.7527 107.828 28.862C107.828 29.745 108.115 30.429 108.69 30.914C109.238 31.3989 109.943 31.6984 110.805 31.8115C111.64 31.9255 112.546 32.111 113.523 32.3688C114.502 32.6538 115.422 32.9949 116.285 33.393C117.117 33.7911 117.821 34.5466 118.396 35.6586C118.944 36.7715 119.218 38.21 119.218 39.9762C119.218 44.8185 116.356 47.2396 110.633 47.2396Z" fill="black"/>
<path d="M122.016 47.0694L128.142 21.4282H136.682L142.809 47.0694H137.72L136.339 41.3838H128.489L127.108 47.0694H122.016ZM129.566 36.8962H135.218L132.544 25.7856H132.284L129.566 36.8962Z" fill="black"/>
<path d="M146.473 47.0694V21.4282H155.141C156.75 21.4282 158.16 21.6843 159.368 22.1955C160.575 22.7094 161.525 23.3644 162.217 24.1606C162.906 24.9885 163.466 25.9865 163.898 27.1536C164.33 28.3506 164.619 29.5051 164.763 30.6171C164.877 31.7272 164.935 32.9658 164.935 34.3339C164.935 35.7019 164.877 36.9269 164.763 38.0072C164.619 39.1201 164.33 40.2601 163.898 41.4273C163.466 42.5953 162.906 43.5643 162.217 44.3334C161.525 45.1323 160.575 45.7873 159.368 46.2985C158.16 46.8124 156.75 47.0694 155.141 47.0694H146.473ZM151.733 42.9654H155.097C156.709 42.9654 157.889 42.2832 158.637 40.917C159.355 39.5761 159.715 37.4101 159.715 34.4207C159.715 28.4927 158.175 25.5286 155.097 25.5286H151.733V42.9654Z" fill="black"/>
<path d="M173.863 47.0694V25.5286H168.168V21.4282H184.822V25.5286H179.127V47.0694H173.863Z" fill="black"/>
<path d="M53.3738 56.2232C53.3126 56.2232 53.266 56.2069 53.235 56.1761C53.203 56.1426 53.1875 56.0929 53.1875 56.0277V52.9949C53.1875 52.9325 53.203 52.8846 53.235 52.8502C53.266 52.814 53.308 52.7959 53.3592 52.7959C53.4103 52.7959 53.4478 52.8049 53.4724 52.8212C53.4962 52.8384 53.5245 52.8701 53.5565 52.9153L55.6569 55.6839H55.54V52.9841C55.54 52.9244 55.5556 52.8782 55.5875 52.8466C55.6213 52.8131 55.6688 52.7959 55.73 52.7959C55.7857 52.7959 55.8286 52.8131 55.8578 52.8466C55.8889 52.8782 55.9053 52.9244 55.9053 52.9841V56.035C55.9053 56.0956 55.8916 56.1426 55.8652 56.1761C55.8378 56.2069 55.7994 56.2232 55.7483 56.2232C55.6989 56.2232 55.6606 56.2132 55.6314 56.1942C55.6021 56.1752 55.5711 56.1454 55.54 56.1037L53.4469 53.3351H53.5565V56.0277C53.5565 56.0929 53.54 56.1426 53.509 56.1761C53.477 56.2069 53.4323 56.2232 53.3738 56.2232Z" fill="black"/>
<path d="M58.0852 56.2343C57.8606 56.2343 57.6633 56.2053 57.4934 56.1474C57.3254 56.0877 57.1838 55.999 57.0697 55.8832C56.9546 55.7674 56.8688 55.6245 56.8103 55.4525C56.7519 55.2815 56.7227 55.0834 56.7227 54.859V52.9952C56.7227 52.9282 56.7391 52.8785 56.7738 52.8468C56.8076 52.8133 56.856 52.7961 56.9199 52.7961C56.9829 52.7961 57.0313 52.8133 57.066 52.8468C57.0998 52.8785 57.1172 52.9282 57.1172 52.9952V54.8409C57.1172 55.1911 57.1985 55.4525 57.3619 55.6263C57.5272 55.8 57.7683 55.8868 58.0852 55.8868C58.404 55.8868 58.6423 55.8 58.8012 55.6263C58.962 55.4525 59.0423 55.1911 59.0423 54.8409V52.9952C59.0423 52.9282 59.0588 52.8785 59.0935 52.8468C59.13 52.8133 59.1811 52.7961 59.2469 52.7961C59.3072 52.7961 59.3537 52.8133 59.3857 52.8468C59.4195 52.8785 59.4368 52.9282 59.4368 52.9952V54.859C59.4368 55.1558 59.3857 55.4082 59.2834 55.6154C59.183 55.8208 59.0323 55.9755 58.8304 56.0786C58.6277 56.1827 58.3793 56.2343 58.0852 56.2343ZM58.2533 52.5211C58.2286 52.55 58.1994 52.5663 58.1656 52.5681C58.1309 52.5709 58.1008 52.5636 58.0743 52.5464C58.0496 52.5274 58.0323 52.503 58.0231 52.474C58.0158 52.4451 58.0231 52.4143 58.045 52.3799L58.4761 51.7647C58.5053 51.724 58.5364 51.6987 58.5711 51.6887C58.6076 51.6797 58.6423 51.6806 58.677 51.6923C58.7135 51.7023 58.7409 51.7204 58.761 51.7466C58.783 51.771 58.7939 51.8 58.7939 51.8335C58.7957 51.8678 58.783 51.9013 58.7537 51.9348L58.2533 52.5211Z" fill="black"/>
<path d="M61.7175 56.2341C61.3832 56.2341 61.0974 56.1645 60.859 56.0242C60.6225 55.8849 60.4398 55.6858 60.3111 55.4271C60.1841 55.1692 60.1211 54.8625 60.1211 54.5078C60.1211 54.24 60.1576 54.0012 60.2307 53.7913C60.3037 53.5795 60.4079 53.3995 60.5448 53.252C60.6809 53.1027 60.848 52.9878 61.0453 52.9082C61.2444 52.8268 61.4691 52.7852 61.7175 52.7852C61.9147 52.7852 62.1029 52.8132 62.2837 52.8684C62.4636 52.9245 62.6198 53.0059 62.7513 53.1145C62.7924 53.1462 62.8207 53.1824 62.8353 53.2231C62.8499 53.262 62.8508 53.2991 62.8389 53.3353C62.8289 53.3714 62.8097 53.4022 62.7805 53.4257C62.7531 53.4502 62.7202 53.4619 62.6819 53.4619C62.6453 53.4619 62.6024 53.4465 62.554 53.4149C62.4389 53.3235 62.3129 53.2556 62.1741 53.2122C62.0353 53.167 61.8855 53.1434 61.7248 53.1434C61.4709 53.1434 61.2554 53.1968 61.0782 53.3027C60.9028 53.4094 60.7695 53.5651 60.68 53.7695C60.5896 53.9722 60.5448 54.2183 60.5448 54.5078C60.5448 54.7974 60.5896 55.0453 60.68 55.2497C60.7695 55.4551 60.9028 55.6108 61.0782 55.7166C61.2554 55.8234 61.4709 55.8758 61.7248 55.8758C61.8828 55.8758 62.0325 55.8532 62.1741 55.8071C62.3147 55.7618 62.4453 55.6931 62.565 55.6008C62.6106 55.5673 62.6535 55.5519 62.6928 55.5538C62.7312 55.5565 62.7631 55.5682 62.7878 55.5899C62.8143 55.6117 62.8325 55.6406 62.8426 55.6768C62.8545 55.7112 62.8545 55.7474 62.8426 55.7854C62.8325 55.8243 62.8079 55.8578 62.7695 55.8867C62.6353 56.0007 62.4773 56.0876 62.2946 56.1473C62.1138 56.2052 61.922 56.2341 61.7175 56.2341Z" fill="black"/>
<path d="M63.6931 56.1907C63.6292 56.1907 63.5799 56.1726 63.5433 56.1364C63.5086 56.1002 63.4922 56.0495 63.4922 55.9844V53.0095C63.4922 52.9426 63.5077 52.8919 63.5397 52.8575C63.5735 52.8213 63.6237 52.8032 63.6894 52.8032C63.7525 52.8032 63.8009 52.8213 63.8356 52.8575C63.8694 52.8919 63.8867 52.9426 63.8867 53.0095V55.8469H65.4648C65.5233 55.8469 65.568 55.8632 65.6 55.8939C65.631 55.9229 65.6475 55.9654 65.6475 56.0206C65.6475 56.074 65.631 56.1165 65.6 56.1473C65.568 56.1762 65.5233 56.1907 65.4648 56.1907H63.6931Z" fill="black"/>
<path d="M66.3171 56.1912C66.2459 56.1912 66.1929 56.1731 66.1564 56.1369C66.1198 56.1007 66.1016 56.0483 66.1016 55.9777V53.0426C66.1016 52.973 66.1198 52.9196 66.1564 52.8834C66.1929 52.8472 66.2459 52.8291 66.3171 52.8291H68.1071C68.1628 52.8291 68.2039 52.8436 68.2313 52.8725C68.2605 52.9015 68.2751 52.9413 68.2751 52.992C68.2751 53.0453 68.2605 53.0861 68.2313 53.115C68.2039 53.144 68.1628 53.1584 68.1071 53.1584H66.4851V54.3202H68.0084C68.0614 54.3202 68.1034 54.3346 68.1326 54.3636C68.1619 54.3907 68.1765 54.4305 68.1765 54.483C68.1765 54.5391 68.1619 54.5807 68.1326 54.6097C68.1034 54.6368 68.0614 54.6495 68.0084 54.6495H66.4851V55.8619H68.1071C68.1628 55.8619 68.2039 55.8764 68.2313 55.9053C68.2605 55.9343 68.2751 55.9741 68.2751 56.0247C68.2751 56.0781 68.2605 56.1188 68.2313 56.1478C68.2039 56.1767 68.1628 56.1912 68.1071 56.1912H66.3171Z" fill="black"/>
<path d="M70.3377 56.2341C70.0235 56.2341 69.7496 56.1645 69.5158 56.0242C69.2838 55.8822 69.1039 55.6822 68.9751 55.4235C68.8482 55.1656 68.7852 54.8607 68.7852 54.5078C68.7852 54.24 68.8217 54.0012 68.8947 53.7913C68.9678 53.5795 69.071 53.3995 69.2053 53.252C69.3386 53.1027 69.5011 52.9878 69.6911 52.9082C69.8829 52.8268 70.0984 52.7852 70.3377 52.7852C70.6591 52.7852 70.935 52.8557 71.1669 52.9951C71.4007 53.1353 71.5806 53.3334 71.7076 53.5886C71.8336 53.8446 71.8975 54.1486 71.8975 54.5006C71.8975 54.7684 71.8592 55.01 71.7843 55.2244C71.7112 55.437 71.6062 55.618 71.4701 55.7673C71.3359 55.9175 71.1742 56.0333 70.9843 56.1147C70.7943 56.1943 70.5788 56.2341 70.3377 56.2341ZM70.3377 55.8867C70.5806 55.8867 70.787 55.8324 70.955 55.7238C71.1231 55.6153 71.2518 55.4588 71.3423 55.2534C71.4318 55.0462 71.4774 54.7974 71.4774 54.5078C71.4774 54.0717 71.3788 53.7334 71.1815 53.4945C70.9843 53.2538 70.703 53.1326 70.3377 53.1326C70.0984 53.1326 69.8957 53.1869 69.7276 53.2954C69.5596 53.404 69.4299 53.5614 69.3404 53.7659C69.25 53.9713 69.2053 54.2183 69.2053 54.5078C69.2053 54.9403 69.3039 55.2778 69.5011 55.5212C69.7002 55.7655 69.9797 55.8867 70.3377 55.8867Z" fill="black"/>
<path d="M74.0632 56.1912C73.9919 56.1912 73.939 56.1731 73.9025 56.1369C73.8659 56.1007 73.8477 56.0483 73.8477 55.9777V53.0426C73.8477 52.973 73.8659 52.9196 73.9025 52.8834C73.939 52.8472 73.9919 52.8291 74.0632 52.8291H74.991C75.5408 52.8291 75.9646 52.973 76.2623 53.2598C76.5618 53.5448 76.7116 53.961 76.7116 54.5084C76.7116 54.7816 76.6733 55.0223 76.5984 55.2322C76.5226 55.4403 76.4102 55.6149 76.2623 55.7569C76.1162 55.8999 75.9372 56.0085 75.7253 56.0827C75.5134 56.155 75.2687 56.1912 74.991 56.1912H74.0632ZM74.2422 55.8583H74.9618C75.1883 55.8583 75.3828 55.8293 75.5463 55.7714C75.7116 55.7135 75.8495 55.6294 75.9591 55.5181C76.0705 55.4077 76.1536 55.2675 76.2075 55.0983C76.2632 54.9273 76.2915 54.7309 76.2915 54.5084C76.2915 54.0596 76.1801 53.723 75.9591 53.4986C75.7372 53.2742 75.4048 53.1621 74.9618 53.1621H74.2422V55.8583Z" fill="black"/>
<path d="M77.6296 56.1912C77.5584 56.1912 77.5054 56.1731 77.4689 56.1369C77.4323 56.1007 77.4141 56.0483 77.4141 55.9777V53.0426C77.4141 52.973 77.4323 52.9196 77.4689 52.8834C77.5054 52.8472 77.5584 52.8291 77.6296 52.8291H79.4196C79.4753 52.8291 79.5164 52.8436 79.5438 52.8725C79.573 52.9015 79.5876 52.9413 79.5876 52.992C79.5876 53.0453 79.573 53.0861 79.5438 53.115C79.5164 53.144 79.4753 53.1584 79.4196 53.1584H77.7976V54.3202H79.3209C79.3739 54.3202 79.4159 54.3346 79.4451 54.3636C79.4744 54.3907 79.489 54.4305 79.489 54.483C79.489 54.5391 79.4744 54.5807 79.4451 54.6097C79.4159 54.6368 79.3739 54.6495 79.3209 54.6495H77.7976V55.8619H79.4196C79.4753 55.8619 79.5164 55.8764 79.5438 55.9053C79.573 55.9343 79.5876 55.9741 79.5876 56.0247C79.5876 56.0781 79.573 56.1188 79.5438 56.1478C79.5164 56.1767 79.4753 56.1912 79.4196 56.1912H77.6296Z" fill="black"/>
<path d="M81.6621 56.2232C81.5964 56.2232 81.5461 56.2051 81.5123 56.1689C81.4804 56.1327 81.4648 56.0838 81.4648 56.0205V52.9986C81.4648 52.9334 81.4804 52.8846 81.5123 52.8502C81.5461 52.814 81.5964 52.7959 81.6621 52.7959C81.7251 52.7959 81.7735 52.814 81.8082 52.8502C81.842 52.8846 81.8594 52.9334 81.8594 52.9986V56.0205C81.8594 56.0838 81.842 56.1327 81.8082 56.1689C81.7763 56.2051 81.7279 56.2232 81.6621 56.2232Z" fill="black"/>
<path d="M82.8894 56.2232C82.8282 56.2232 82.7817 56.2069 82.7506 56.1761C82.7187 56.1426 82.7031 56.0929 82.7031 56.0277V52.9949C82.7031 52.9325 82.7187 52.8846 82.7506 52.8502C82.7817 52.814 82.8237 52.7959 82.8748 52.7959C82.926 52.7959 82.9634 52.8049 82.9881 52.8212C83.0118 52.8384 83.0401 52.8701 83.0721 52.9153L85.1726 55.6839H85.0557V52.9841C85.0557 52.9244 85.0712 52.8782 85.1032 52.8466C85.1369 52.8131 85.1844 52.7959 85.2456 52.7959C85.3013 52.7959 85.3442 52.8131 85.3735 52.8466C85.4045 52.8782 85.421 52.9244 85.421 52.9841V56.035C85.421 56.0956 85.4073 56.1426 85.3808 56.1761C85.3534 56.2069 85.315 56.2232 85.2639 56.2232C85.2146 56.2232 85.1762 56.2132 85.147 56.1942C85.1178 56.1752 85.0867 56.1454 85.0557 56.1037L82.9625 53.3351H83.0721V56.0277C83.0721 56.0929 83.0556 56.1426 83.0246 56.1761C82.9926 56.2069 82.9479 56.2232 82.8894 56.2232Z" fill="black"/>
<path d="M87.6892 56.2341C87.3751 56.2341 87.1011 56.1645 86.8673 56.0242C86.6354 55.8822 86.4554 55.6822 86.3267 55.4235C86.1997 55.1656 86.1367 54.8607 86.1367 54.5078C86.1367 54.24 86.1732 54.0012 86.2463 53.7913C86.3194 53.5795 86.4226 53.3995 86.5568 53.252C86.6901 53.1027 86.8527 52.9878 87.0427 52.9082C87.2344 52.8268 87.45 52.7852 87.6892 52.7852C88.0107 52.7852 88.2865 52.8557 88.5185 52.9951C88.7523 53.1353 88.9322 53.3334 89.0591 53.5886C89.1852 53.8446 89.2491 54.1486 89.2491 54.5006C89.2491 54.7684 89.2107 55.01 89.1358 55.2244C89.0628 55.437 88.9578 55.618 88.8217 55.7673C88.6874 55.9175 88.5258 56.0333 88.3358 56.1147C88.1459 56.1943 87.9303 56.2341 87.6892 56.2341ZM87.6892 55.8867C87.9322 55.8867 88.1386 55.8324 88.3066 55.7238C88.4746 55.6153 88.6034 55.4588 88.6938 55.2534C88.7833 55.0462 88.829 54.7974 88.829 54.5078C88.829 54.0717 88.7304 53.7334 88.5331 53.4945C88.3358 53.2538 88.0545 53.1326 87.6892 53.1326C87.45 53.1326 87.2472 53.1869 87.0792 53.2954C86.9112 53.404 86.7815 53.5614 86.692 53.7659C86.6016 53.9713 86.5568 54.2183 86.5568 54.5078C86.5568 54.9403 86.6554 55.2778 86.8527 55.5212C87.0518 55.7655 87.3313 55.8867 87.6892 55.8867Z" fill="black"/>
<path d="M91.1994 56.2232C91.1382 56.2232 91.088 56.2096 91.0496 56.1834C91.0104 56.1544 90.9802 56.111 90.9583 56.0531L89.6323 53.0529C89.6104 52.9977 89.604 52.9515 89.614 52.9153C89.6231 52.8791 89.6451 52.8502 89.6798 52.8285C89.7136 52.8068 89.7528 52.7959 89.7967 52.7959C89.8569 52.7959 89.9026 52.8095 89.9318 52.8357C89.9629 52.8629 89.9884 52.9009 90.0085 52.9515L91.2798 55.8757H91.1264L92.3939 52.9479C92.4159 52.8999 92.4423 52.8629 92.4743 52.8357C92.5054 52.8095 92.551 52.7959 92.6095 52.7959C92.6533 52.7959 92.6898 52.8068 92.7191 52.8285C92.7501 52.8502 92.7702 52.8809 92.7775 52.9189C92.7866 52.9579 92.7812 53.0022 92.7592 53.0529L91.4332 56.0531C91.4113 56.111 91.3821 56.1544 91.3455 56.1834C91.309 56.2096 91.2597 56.2232 91.1994 56.2232Z" fill="black"/>
<path d="M93.2003 56.2232C93.1492 56.2232 93.1072 56.2105 93.0761 56.187C93.0469 56.1635 93.0296 56.1318 93.025 56.0929C93.0195 56.0549 93.0286 56.0087 93.0506 55.9554L94.373 52.9696C94.4022 52.9072 94.436 52.8629 94.4752 52.8357C94.5163 52.8095 94.5611 52.7959 94.6104 52.7959C94.6588 52.7959 94.7026 52.8095 94.7419 52.8357C94.783 52.8629 94.8159 52.9072 94.8405 52.9696L96.1702 55.9554C96.1967 56.0087 96.2077 56.0558 96.2031 56.0965C96.1976 56.1381 96.1812 56.1689 96.152 56.1906C96.1227 56.2123 96.0826 56.2232 96.0314 56.2232C95.973 56.2232 95.9255 56.2087 95.8889 56.1797C95.8542 56.149 95.8268 56.1037 95.8049 56.0458L95.4469 55.2315L95.6405 55.3329H93.5693L93.7666 55.2315L93.4159 56.0458C93.3866 56.1092 93.3556 56.1544 93.3245 56.1834C93.2926 56.2096 93.2515 56.2232 93.2003 56.2232ZM94.6067 53.2845L93.8323 55.094L93.7154 55.0035H95.4981L95.3921 55.094L94.614 53.2845H94.6067Z" fill="black"/>
<path d="M98.2487 56.2341C97.9145 56.2341 97.6286 56.1645 97.3903 56.0242C97.1537 55.8849 96.9711 55.6858 96.8423 55.4271C96.7154 55.1692 96.6523 54.8625 96.6523 54.5078C96.6523 54.24 96.6889 54.0012 96.7619 53.7913C96.835 53.5795 96.9391 53.3995 97.0761 53.252C97.2122 53.1027 97.3793 52.9878 97.5766 52.9082C97.7756 52.8268 98.0003 52.7852 98.2487 52.7852C98.446 52.7852 98.6341 52.8132 98.8149 52.8684C98.9948 52.9245 99.151 53.0059 99.2825 53.1145C99.3236 53.1462 99.3519 53.1824 99.3665 53.2231C99.3811 53.262 99.3821 53.2991 99.3702 53.3353C99.3601 53.3714 99.341 53.4022 99.3117 53.4257C99.2843 53.4502 99.2515 53.4619 99.2131 53.4619C99.1766 53.4619 99.1336 53.4465 99.0852 53.4149C98.9702 53.3235 98.8441 53.2556 98.7053 53.2122C98.5665 53.167 98.4167 53.1434 98.256 53.1434C98.0021 53.1434 97.7866 53.1968 97.6094 53.3027C97.4341 53.4094 97.3008 53.5651 97.2113 53.7695C97.1208 53.9722 97.0761 54.2183 97.0761 54.5078C97.0761 54.7974 97.1208 55.0453 97.2113 55.2497C97.3008 55.4551 97.4341 55.6108 97.6094 55.7166C97.7866 55.8234 98.0021 55.8758 98.256 55.8758C98.414 55.8758 98.5638 55.8532 98.7053 55.8071C98.846 55.7618 98.9766 55.6931 99.0962 55.6008C99.1419 55.5673 99.1848 55.5519 99.2241 55.5538C99.2624 55.5565 99.2944 55.5682 99.319 55.5899C99.3455 55.6117 99.3638 55.6406 99.3738 55.6768C99.3857 55.7112 99.3857 55.7474 99.3738 55.7854C99.3638 55.8243 99.3391 55.8578 99.3008 55.8867C99.1665 56.0007 99.0085 56.0876 98.8259 56.1473C98.6451 56.2052 98.4533 56.2341 98.2487 56.2341ZM98.2268 57.1063C98.1683 57.1063 98.1072 57.1009 98.0441 57.0919C97.983 57.0846 97.9272 57.0701 97.8761 57.0484C97.8396 57.0358 97.8149 57.0159 97.803 56.9869C97.7903 56.958 97.7893 56.929 97.7994 56.9C97.8085 56.8729 97.8259 56.853 97.8505 56.8385C97.877 56.824 97.9099 56.824 97.9492 56.8385C97.9857 56.8548 98.0259 56.8657 98.0697 56.8711C98.1135 56.8783 98.1619 56.882 98.2158 56.882C98.3008 56.882 98.3693 56.8657 98.4204 56.8349C98.4715 56.806 98.4971 56.7625 98.4971 56.7046C98.4971 56.663 98.4825 56.6304 98.4533 56.6069C98.4241 56.5825 98.3775 56.5707 98.3145 56.5707C98.2871 56.5707 98.2615 56.5716 98.2377 56.5743C98.2131 56.5789 98.1848 56.5852 98.1537 56.5924C98.1245 56.6015 98.1008 56.6069 98.0843 56.6069C98.0697 56.6069 98.0551 56.6015 98.0405 56.5924C98.0259 56.578 98.0167 56.5617 98.0149 56.5454C98.0149 56.5282 98.0158 56.5038 98.0186 56.473L98.077 56.0966H98.3218L98.2597 56.4513L98.1464 56.4259C98.183 56.416 98.2195 56.4079 98.256 56.4006C98.2944 56.3934 98.33 56.3898 98.362 56.3898C98.4761 56.3898 98.572 56.4187 98.6505 56.4766C98.7282 56.5345 98.7674 56.6141 98.7674 56.7155C98.7674 56.8331 98.7172 56.9272 98.6177 56.9978C98.5172 57.0701 98.3875 57.1063 98.2268 57.1063Z" fill="black"/>
<path d="M99.9464 56.2233C99.8953 56.2233 99.8533 56.2106 99.8222 56.1871C99.793 56.1636 99.7757 56.1319 99.7711 56.093C99.7656 56.055 99.7747 56.0089 99.7967 55.9555L101.119 52.9698C101.148 52.9073 101.182 52.863 101.221 52.8359C101.262 52.8096 101.307 52.796 101.356 52.796C101.405 52.796 101.449 52.8096 101.488 52.8359C101.529 52.863 101.562 52.9073 101.587 52.9698L102.916 55.9555C102.943 56.0089 102.954 56.0559 102.949 56.0966C102.944 56.1383 102.927 56.169 102.898 56.1907C102.869 56.2125 102.829 56.2233 102.778 56.2233C102.719 56.2233 102.672 56.2088 102.635 56.1799C102.6 56.1491 102.573 56.1039 102.551 56.046L102.193 55.2317L102.387 55.333H100.315L100.513 55.2317L100.162 56.046C100.133 56.1093 100.102 56.1545 100.071 56.1835C100.039 56.2097 99.9976 56.2233 99.9464 56.2233ZM101.353 53.2846L100.578 55.0942L100.462 55.0037H102.244L102.138 55.0942L101.36 53.2846H101.353ZM100.472 52.4703C100.438 52.4703 100.41 52.4586 100.388 52.4341C100.368 52.4106 100.361 52.378 100.367 52.3364C100.4 52.1681 100.467 52.0378 100.567 51.9456C100.67 51.8542 100.791 51.808 100.933 51.808C101.018 51.808 101.099 51.8261 101.177 51.8623C101.255 51.8985 101.329 51.941 101.4 51.989C101.473 52.0378 101.543 52.0795 101.609 52.1157C101.674 52.1518 101.738 52.1699 101.802 52.1699C101.89 52.1699 101.96 52.1437 102.014 52.0903C102.07 52.0351 102.105 51.9627 102.12 51.8732C102.129 51.8397 102.144 51.8153 102.164 51.8008C102.186 51.7845 102.213 51.7773 102.248 51.7791C102.282 51.7791 102.31 51.7917 102.332 51.8153C102.354 51.8397 102.361 51.8723 102.354 51.913C102.319 52.0822 102.253 52.2125 102.156 52.3038C102.059 52.3961 101.938 52.4414 101.795 52.4414C101.707 52.4414 101.623 52.4233 101.543 52.3871C101.464 52.3509 101.39 52.3102 101.32 52.264C101.249 52.2188 101.179 52.1763 101.112 52.1374C101.046 52.0994 100.981 52.0795 100.918 52.0795C100.832 52.0795 100.762 52.1075 100.706 52.1627C100.65 52.2161 100.615 52.2876 100.6 52.3762C100.59 52.4079 100.575 52.4323 100.553 52.4486C100.533 52.4658 100.506 52.473 100.472 52.4703Z" fill="black"/>
<path d="M104.955 56.2341C104.641 56.2341 104.367 56.1645 104.133 56.0242C103.901 55.8822 103.721 55.6822 103.592 55.4235C103.465 55.1656 103.402 54.8607 103.402 54.5078C103.402 54.24 103.439 54.0012 103.512 53.7913C103.585 53.5795 103.688 53.3995 103.822 53.252C103.956 53.1027 104.118 52.9878 104.308 52.9082C104.5 52.8268 104.716 52.7852 104.955 52.7852C105.276 52.7852 105.552 52.8557 105.784 52.9951C106.018 53.1353 106.198 53.3334 106.325 53.5886C106.451 53.8446 106.515 54.1486 106.515 54.5006C106.515 54.7684 106.476 55.01 106.401 55.2244C106.328 55.437 106.223 55.618 106.087 55.7673C105.953 55.9175 105.791 56.0333 105.601 56.1147C105.411 56.1943 105.196 56.2341 104.955 56.2341ZM104.955 55.8867C105.198 55.8867 105.404 55.8324 105.572 55.7238C105.74 55.6153 105.869 55.4588 105.959 55.2534C106.049 55.0462 106.095 54.7974 106.095 54.5078C106.095 54.0717 105.996 53.7334 105.799 53.4945C105.601 53.2538 105.32 53.1326 104.955 53.1326C104.716 53.1326 104.513 53.1869 104.345 53.2954C104.177 53.404 104.047 53.5614 103.958 53.7659C103.867 53.9713 103.822 54.2183 103.822 54.5078C103.822 54.9403 103.921 55.2778 104.118 55.5212C104.317 55.7655 104.597 55.8867 104.955 55.8867Z" fill="black"/>
<path d="M108.68 56.1912C108.609 56.1912 108.556 56.1731 108.52 56.1369C108.483 56.1007 108.465 56.0483 108.465 55.9777V53.0426C108.465 52.973 108.483 52.9196 108.52 52.8834C108.556 52.8472 108.609 52.8291 108.68 52.8291H109.608C110.158 52.8291 110.582 52.973 110.879 53.2598C111.179 53.5448 111.329 53.961 111.329 54.5084C111.329 54.7816 111.29 55.0223 111.216 55.2322C111.14 55.4403 111.027 55.6149 110.879 55.7569C110.733 55.8999 110.554 56.0085 110.342 56.0827C110.131 56.155 109.886 56.1912 109.608 56.1912H108.68ZM108.859 55.8583H109.579C109.805 55.8583 110 55.8293 110.163 55.7714C110.329 55.7135 110.467 55.6294 110.576 55.5181C110.688 55.4077 110.771 55.2675 110.825 55.0983C110.88 54.9273 110.909 54.7309 110.909 54.5084C110.909 54.0596 110.797 53.723 110.576 53.4986C110.354 53.2742 110.022 53.1621 109.579 53.1621H108.859V55.8583Z" fill="black"/>
<path d="M112.251 56.1912C112.179 56.1912 112.126 56.1731 112.09 56.1369C112.053 56.1007 112.035 56.0483 112.035 55.9777V53.0426C112.035 52.973 112.053 52.9196 112.09 52.8834C112.126 52.8472 112.179 52.8291 112.251 52.8291H114.041C114.096 52.8291 114.137 52.8436 114.165 52.8725C114.194 52.9015 114.209 52.9413 114.209 52.992C114.209 53.0453 114.194 53.0861 114.165 53.115C114.137 53.144 114.096 53.1584 114.041 53.1584H112.419V54.3202H113.942C113.995 54.3202 114.037 54.3346 114.066 54.3636C114.095 54.3907 114.11 54.4305 114.11 54.483C114.11 54.5391 114.095 54.5807 114.066 54.6097C114.037 54.6368 113.995 54.6495 113.942 54.6495H112.419V55.8619H114.041C114.096 55.8619 114.137 55.8764 114.165 55.9053C114.194 55.9343 114.209 55.9741 114.209 56.0247C114.209 56.0781 114.194 56.1188 114.165 56.1478C114.137 56.1767 114.096 56.1912 114.041 56.1912H112.251Z" fill="black"/>
<path d="M116.301 56.1912C116.23 56.1912 116.177 56.1731 116.141 56.1369C116.104 56.1007 116.086 56.0483 116.086 55.9777V53.0426C116.086 52.973 116.104 52.9196 116.141 52.8834C116.177 52.8472 116.23 52.8291 116.301 52.8291H118.091C118.147 52.8291 118.188 52.8436 118.216 52.8725C118.245 52.9015 118.259 52.9413 118.259 52.992C118.259 53.0453 118.245 53.0861 118.216 53.115C118.188 53.144 118.147 53.1584 118.091 53.1584H116.47V54.3202H117.993C118.046 54.3202 118.088 54.3346 118.117 54.3636C118.146 54.3907 118.161 54.4305 118.161 54.483C118.161 54.5391 118.146 54.5807 118.117 54.6097C118.088 54.6368 118.046 54.6495 117.993 54.6495H116.47V55.8619H118.091C118.147 55.8619 118.188 55.8764 118.216 55.9053C118.245 55.9343 118.259 55.9741 118.259 56.0247C118.259 56.0781 118.245 56.1188 118.216 56.1478C118.188 56.1767 118.147 56.1912 118.091 56.1912H116.301Z" fill="black"/>
<path d="M119.987 56.2341C119.835 56.2341 119.688 56.2206 119.545 56.1943C119.4 56.1708 119.267 56.1346 119.143 56.0858C119.019 56.0378 118.906 55.9772 118.807 55.9048C118.768 55.8758 118.741 55.8433 118.726 55.8071C118.714 55.7709 118.712 55.7347 118.719 55.6985C118.726 55.6605 118.742 55.6288 118.767 55.6044C118.79 55.5782 118.82 55.5637 118.854 55.561C118.891 55.5592 118.929 55.57 118.971 55.5936C119.115 55.6949 119.268 55.77 119.431 55.8179C119.597 55.8641 119.782 55.8867 119.987 55.8867C120.276 55.8867 120.491 55.8342 120.63 55.7275C120.768 55.6189 120.838 55.4778 120.838 55.304C120.838 55.162 120.787 55.0498 120.684 54.9675C120.584 54.886 120.416 54.8218 120.18 54.7756L119.68 54.6743C119.378 54.6119 119.151 54.5078 119 54.3631C118.852 54.2183 118.778 54.0247 118.778 53.7804C118.778 53.6311 118.808 53.4963 118.869 53.3751C118.929 53.252 119.015 53.1471 119.125 53.0602C119.234 52.9715 119.364 52.9037 119.515 52.8575C119.666 52.8096 119.833 52.7852 120.016 52.7852C120.218 52.7852 120.407 52.8132 120.582 52.8684C120.757 52.9245 120.915 53.0077 121.057 53.1181C121.091 53.1471 121.114 53.1796 121.126 53.2158C121.141 53.252 121.143 53.2873 121.134 53.3208C121.124 53.3552 121.106 53.3841 121.083 53.4076C121.058 53.4294 121.028 53.442 120.991 53.4438C120.955 53.4465 120.913 53.433 120.867 53.404C120.74 53.3099 120.608 53.2412 120.469 53.1977C120.33 53.1543 120.178 53.1326 120.012 53.1326C119.842 53.1326 119.694 53.1579 119.57 53.2086C119.446 53.2593 119.349 53.3344 119.282 53.433C119.213 53.5298 119.179 53.6411 119.179 53.7659C119.179 53.9206 119.227 54.0428 119.322 54.1315C119.417 54.221 119.571 54.2862 119.786 54.3269L120.286 54.4318C120.61 54.497 120.85 54.5974 121.006 54.7322C121.161 54.8679 121.24 55.0525 121.24 55.2859C121.24 55.4262 121.21 55.5556 121.152 55.6732C121.094 55.789 121.01 55.8894 120.9 55.9736C120.792 56.0586 120.661 56.1238 120.505 56.169C120.352 56.2124 120.178 56.2341 119.987 56.2341Z" fill="black"/>
<path d="M122.883 56.2238C122.822 56.2238 122.773 56.2057 122.737 56.1695C122.702 56.1333 122.686 56.0845 122.686 56.0211V53.1657H121.601C121.542 53.1657 121.497 53.1503 121.465 53.1186C121.433 53.0879 121.418 53.0462 121.418 52.9956C121.418 52.9431 121.433 52.9015 121.465 52.8725C121.497 52.8436 121.542 52.8291 121.601 52.8291H124.169C124.224 52.8291 124.268 52.8436 124.3 52.8725C124.334 52.9015 124.351 52.9431 124.351 52.9956C124.351 53.049 124.334 53.0915 124.3 53.1222C124.268 53.1512 124.224 53.1657 124.169 53.1657H123.084V56.0211C123.084 56.0845 123.066 56.1333 123.033 56.1695C122.998 56.2057 122.949 56.2238 122.883 56.2238Z" fill="black"/>
<path d="M126.089 56.234C125.864 56.234 125.667 56.2051 125.497 56.1472C125.329 56.0875 125.188 55.9988 125.074 55.883C124.959 55.7672 124.873 55.6242 124.814 55.4523C124.756 55.2813 124.727 55.0832 124.727 54.8588V52.9949C124.727 52.928 124.743 52.8782 124.778 52.8466C124.811 52.8131 124.86 52.7959 124.924 52.7959C124.987 52.7959 125.035 52.8131 125.07 52.8466C125.104 52.8782 125.121 52.928 125.121 52.9949V54.8407C125.121 55.1908 125.202 55.4523 125.366 55.626C125.531 55.7997 125.772 55.8866 126.089 55.8866C126.408 55.8866 126.646 55.7997 126.805 55.626C126.966 55.4523 127.046 55.1908 127.046 54.8407V52.9949C127.046 52.928 127.063 52.8782 127.097 52.8466C127.134 52.8131 127.185 52.7959 127.251 52.7959C127.311 52.7959 127.358 52.8131 127.39 52.8466C127.423 52.8782 127.441 52.928 127.441 52.9949V54.8588C127.441 55.1555 127.39 55.408 127.287 55.6152C127.187 55.8205 127.036 55.9753 126.834 56.0784C126.632 56.1825 126.383 56.234 126.089 56.234Z" fill="black"/>
<path d="M128.469 56.1912C128.398 56.1912 128.345 56.1731 128.309 56.1369C128.272 56.1007 128.254 56.0483 128.254 55.9777V53.0426C128.254 52.973 128.272 52.9196 128.309 52.8834C128.345 52.8472 128.398 52.8291 128.469 52.8291H129.397C129.947 52.8291 130.371 52.973 130.669 53.2598C130.968 53.5448 131.118 53.961 131.118 54.5084C131.118 54.7816 131.08 55.0223 131.005 55.2322C130.929 55.4403 130.816 55.6149 130.669 55.7569C130.522 55.8999 130.343 56.0085 130.132 56.0827C129.92 56.155 129.675 56.1912 129.397 56.1912H128.469ZM128.648 55.8583H129.368C129.595 55.8583 129.789 55.8293 129.953 55.7714C130.118 55.7135 130.256 55.6294 130.365 55.5181C130.477 55.4077 130.56 55.2675 130.614 55.0983C130.669 54.9273 130.698 54.7309 130.698 54.5084C130.698 54.0596 130.586 53.723 130.365 53.4986C130.143 53.2742 129.811 53.1621 129.368 53.1621H128.648V55.8583Z" fill="black"/>
<path d="M133.252 56.2341C132.938 56.2341 132.664 56.1645 132.43 56.0242C132.198 55.8822 132.018 55.6822 131.889 55.4235C131.762 55.1656 131.699 54.8607 131.699 54.5078C131.699 54.24 131.736 54.0012 131.809 53.7913C131.882 53.5795 131.985 53.3995 132.119 53.252C132.253 53.1027 132.415 52.9878 132.605 52.9082C132.797 52.8268 133.012 52.7852 133.252 52.7852C133.573 52.7852 133.849 52.8557 134.081 52.9951C134.315 53.1353 134.495 53.3334 134.622 53.5886C134.748 53.8446 134.812 54.1486 134.812 54.5006C134.812 54.7684 134.773 55.01 134.698 55.2244C134.625 55.437 134.52 55.618 134.384 55.7673C134.25 55.9175 134.088 56.0333 133.898 56.1147C133.708 56.1943 133.493 56.2341 133.252 56.2341ZM133.252 55.8867C133.495 55.8867 133.701 55.8324 133.869 55.7238C134.037 55.6153 134.166 55.4588 134.256 55.2534C134.346 55.0462 134.391 54.7974 134.391 54.5078C134.391 54.0717 134.293 53.7334 134.096 53.4945C133.898 53.2538 133.617 53.1326 133.252 53.1326C133.012 53.1326 132.81 53.1869 132.642 53.2954C132.474 53.404 132.344 53.5614 132.254 53.7659C132.164 53.9713 132.119 54.2183 132.119 54.5078C132.119 54.9403 132.218 55.2778 132.415 55.5212C132.614 55.7655 132.894 55.8867 133.252 55.8867Z" fill="black"/>
<path d="M136.616 56.2341C136.464 56.2341 136.317 56.2206 136.174 56.1943C136.029 56.1708 135.896 56.1346 135.772 56.0858C135.648 56.0378 135.535 55.9772 135.436 55.9048C135.396 55.8758 135.37 55.8433 135.355 55.8071C135.343 55.7709 135.341 55.7347 135.348 55.6985C135.355 55.6605 135.371 55.6288 135.396 55.6044C135.419 55.5782 135.448 55.5637 135.483 55.561C135.52 55.5592 135.558 55.57 135.6 55.5936C135.743 55.6949 135.897 55.77 136.06 55.8179C136.226 55.8641 136.411 55.8867 136.616 55.8867C136.905 55.8867 137.12 55.8342 137.259 55.7275C137.397 55.6189 137.467 55.4778 137.467 55.304C137.467 55.162 137.416 55.0498 137.313 54.9675C137.213 54.886 137.045 54.8218 136.809 54.7756L136.309 54.6743C136.006 54.6119 135.78 54.5078 135.629 54.3631C135.48 54.2183 135.406 54.0247 135.406 53.7804C135.406 53.6311 135.437 53.4963 135.498 53.3751C135.558 53.252 135.644 53.1471 135.754 53.0602C135.863 52.9715 135.993 52.9037 136.144 52.8575C136.295 52.8096 136.462 52.7852 136.645 52.7852C136.847 52.7852 137.036 52.8132 137.211 52.8684C137.386 52.9245 137.544 53.0077 137.686 53.1181C137.72 53.1471 137.743 53.1796 137.755 53.2158C137.77 53.252 137.772 53.2873 137.763 53.3208C137.753 53.3552 137.735 53.3841 137.712 53.4076C137.687 53.4294 137.657 53.442 137.62 53.4438C137.584 53.4465 137.542 53.433 137.496 53.404C137.369 53.3099 137.237 53.2412 137.098 53.1977C136.959 53.1543 136.806 53.1326 136.641 53.1326C136.47 53.1326 136.323 53.1579 136.199 53.2086C136.075 53.2593 135.978 53.3344 135.911 53.433C135.842 53.5298 135.808 53.6411 135.808 53.7659C135.808 53.9206 135.856 54.0428 135.951 54.1315C136.046 54.221 136.2 54.2862 136.415 54.3269L136.915 54.4318C137.238 54.497 137.479 54.5974 137.635 54.7322C137.79 54.8679 137.869 55.0525 137.869 55.2859C137.869 55.4262 137.839 55.5556 137.781 55.6732C137.722 55.789 137.638 55.8894 137.529 55.9736C137.421 56.0586 137.29 56.1238 137.134 56.169C136.981 56.2124 136.807 56.2341 136.616 56.2341Z" fill="black"/>
<path d="M139.934 56.1912C139.863 56.1912 139.81 56.1731 139.774 56.1369C139.737 56.1007 139.719 56.0483 139.719 55.9777V53.0426C139.719 52.973 139.737 52.9196 139.774 52.8834C139.81 52.8472 139.863 52.8291 139.934 52.8291H141.724C141.78 52.8291 141.821 52.8436 141.848 52.8725C141.878 52.9015 141.892 52.9413 141.892 52.992C141.892 53.0453 141.878 53.0861 141.848 53.115C141.821 53.144 141.78 53.1584 141.724 53.1584H140.102V54.3202H141.626C141.679 54.3202 141.721 54.3346 141.75 54.3636C141.779 54.3907 141.794 54.4305 141.794 54.483C141.794 54.5391 141.779 54.5807 141.75 54.6097C141.721 54.6368 141.679 54.6495 141.626 54.6495H140.102V55.8619H141.724C141.78 55.8619 141.821 55.8764 141.848 55.9053C141.878 55.9343 141.892 55.9741 141.892 56.0247C141.892 56.0781 141.878 56.1188 141.848 56.1478C141.821 56.1767 141.78 56.1912 141.724 56.1912H139.934Z" fill="black"/>
<path d="M142.718 56.2232C142.661 56.2232 142.616 56.2069 142.583 56.1761C142.551 56.1426 142.535 56.0956 142.535 56.035V52.9841C142.535 52.9217 142.551 52.8746 142.583 52.8429C142.616 52.8122 142.661 52.7959 142.718 52.7959C142.769 52.7959 142.81 52.8068 142.842 52.8285C142.873 52.8484 142.901 52.8809 142.926 52.9262L144.245 55.3908H144.102L145.414 52.9262C145.44 52.8809 145.469 52.8484 145.498 52.8285C145.527 52.8068 145.568 52.7959 145.622 52.7959C145.678 52.7959 145.721 52.8122 145.753 52.8429C145.785 52.8746 145.801 52.9217 145.801 52.9841V56.035C145.801 56.0956 145.785 56.1426 145.753 56.1761C145.724 56.2069 145.679 56.2232 145.618 56.2232C145.56 56.2232 145.514 56.2069 145.483 56.1761C145.451 56.1426 145.436 56.0956 145.436 56.035V53.3532H145.549L144.347 55.5898C144.325 55.6314 144.301 55.6613 144.278 55.6803C144.253 55.6975 144.217 55.7056 144.172 55.7056C144.128 55.7056 144.092 55.6966 144.066 55.6767C144.041 55.6577 144.019 55.6287 144 55.5898L142.784 53.346H142.897V56.035C142.897 56.0956 142.88 56.1426 142.849 56.1761C142.82 56.2069 142.776 56.2232 142.718 56.2232Z" fill="black"/>
<path d="M148.979 56.2341C148.827 56.2341 148.68 56.2206 148.537 56.1943C148.393 56.1708 148.259 56.1346 148.135 56.0858C148.011 56.0378 147.899 55.9772 147.799 55.9048C147.76 55.8758 147.733 55.8433 147.719 55.8071C147.706 55.7709 147.704 55.7347 147.711 55.6985C147.719 55.6605 147.734 55.6288 147.759 55.6044C147.783 55.5782 147.812 55.5637 147.846 55.561C147.883 55.5592 147.921 55.57 147.963 55.5936C148.107 55.6949 148.26 55.77 148.424 55.8179C148.589 55.8641 148.774 55.8867 148.979 55.8867C149.268 55.8867 149.483 55.8342 149.622 55.7275C149.761 55.6189 149.83 55.4778 149.83 55.304C149.83 55.162 149.779 55.0498 149.677 54.9675C149.576 54.886 149.408 54.8218 149.173 54.7756L148.672 54.6743C148.37 54.6119 148.143 54.5078 147.993 54.3631C147.844 54.2183 147.77 54.0247 147.77 53.7804C147.77 53.6311 147.8 53.4963 147.861 53.3751C147.921 53.252 148.007 53.1471 148.117 53.0602C148.226 52.9715 148.356 52.9037 148.508 52.8575C148.658 52.8096 148.825 52.7852 149.008 52.7852C149.21 52.7852 149.399 52.8132 149.574 52.8684C149.75 52.9245 149.908 53.0077 150.049 53.1181C150.083 53.1471 150.106 53.1796 150.119 53.2158C150.133 53.252 150.135 53.2873 150.126 53.3208C150.116 53.3552 150.099 53.3841 150.075 53.4076C150.05 53.4294 150.02 53.442 149.983 53.4438C149.947 53.4465 149.905 53.433 149.859 53.404C149.732 53.3099 149.6 53.2412 149.461 53.1977C149.322 53.1543 149.17 53.1326 149.004 53.1326C148.834 53.1326 148.687 53.1579 148.562 53.2086C148.438 53.2593 148.341 53.3344 148.274 53.433C148.205 53.5298 148.172 53.6411 148.172 53.7659C148.172 53.9206 148.219 54.0428 148.314 54.1315C148.409 54.221 148.563 54.2862 148.778 54.3269L149.278 54.4318C149.602 54.497 149.842 54.5974 149.998 54.7322C150.153 54.8679 150.232 55.0525 150.232 55.2859C150.232 55.4262 150.203 55.5556 150.144 55.6732C150.086 55.789 150.002 55.8894 149.892 55.9736C149.784 56.0586 149.653 56.1238 149.498 56.169C149.344 56.2124 149.171 56.2341 148.979 56.2341Z" fill="black"/>
<path d="M150.775 56.2232C150.723 56.2232 150.681 56.2105 150.65 56.187C150.621 56.1635 150.604 56.1318 150.599 56.0929C150.594 56.0549 150.603 56.0087 150.625 55.9554L151.947 52.9696C151.976 52.9072 152.01 52.8629 152.049 52.8357C152.091 52.8095 152.135 52.7959 152.185 52.7959C152.233 52.7959 152.277 52.8095 152.316 52.8357C152.357 52.8629 152.39 52.9072 152.415 52.9696L153.744 55.9554C153.771 56.0087 153.782 56.0558 153.777 56.0965C153.772 56.1381 153.755 56.1689 153.726 56.1906C153.697 56.2123 153.657 56.2232 153.606 56.2232C153.547 56.2232 153.5 56.2087 153.463 56.1797C153.428 56.149 153.401 56.1037 153.379 56.0458L153.021 55.2315L153.215 55.3329H151.144L151.341 55.2315L150.99 56.0458C150.961 56.1092 150.93 56.1544 150.899 56.1834C150.867 56.2096 150.826 56.2232 150.775 56.2232ZM152.181 53.2845L151.407 55.094L151.29 55.0035H153.072L152.966 55.094L152.188 53.2845H152.181Z" fill="black"/>
<path d="M154.542 56.2232C154.481 56.2232 154.434 56.2069 154.403 56.1761C154.371 56.1426 154.355 56.0929 154.355 56.0277V52.9949C154.355 52.9325 154.371 52.8846 154.403 52.8502C154.434 52.814 154.476 52.7959 154.527 52.7959C154.578 52.7959 154.616 52.8049 154.64 52.8212C154.664 52.8384 154.692 52.8701 154.724 52.9153L156.825 55.6839H156.708V52.9841C156.708 52.9244 156.724 52.8782 156.755 52.8466C156.789 52.8131 156.837 52.7959 156.898 52.7959C156.954 52.7959 156.997 52.8131 157.026 52.8466C157.057 52.8782 157.073 52.9244 157.073 52.9841V56.035C157.073 56.0956 157.06 56.1426 157.033 56.1761C157.006 56.2069 156.967 56.2232 156.916 56.2232C156.867 56.2232 156.829 56.2132 156.799 56.1942C156.77 56.1752 156.739 56.1454 156.708 56.1037L154.615 53.3351H154.724V56.0277C154.724 56.0929 154.708 56.1426 154.677 56.1761C154.645 56.2069 154.6 56.2232 154.542 56.2232Z" fill="black"/>
<path d="M158.133 56.1912C158.062 56.1912 158.009 56.1731 157.973 56.1369C157.936 56.1007 157.918 56.0483 157.918 55.9777V53.0426C157.918 52.973 157.936 52.9196 157.973 52.8834C158.009 52.8472 158.062 52.8291 158.133 52.8291H159.923C159.979 52.8291 160.02 52.8436 160.048 52.8725C160.077 52.9015 160.092 52.9413 160.092 52.992C160.092 53.0453 160.077 53.0861 160.048 53.115C160.02 53.144 159.979 53.1584 159.923 53.1584H158.302V54.3202H159.825C159.878 54.3202 159.92 54.3346 159.949 54.3636C159.978 54.3907 159.993 54.4305 159.993 54.483C159.993 54.5391 159.978 54.5807 159.949 54.6097C159.92 54.6368 159.878 54.6495 159.825 54.6495H158.302V55.8619H159.923C159.979 55.8619 160.02 55.8764 160.048 55.9053C160.077 55.9343 160.092 55.9741 160.092 56.0247C160.092 56.0781 160.077 56.1188 160.048 56.1478C160.02 56.1767 159.979 56.1912 159.923 56.1912H158.133Z" fill="black"/>
<path d="M160.65 56.2232C160.598 56.2232 160.556 56.2105 160.525 56.187C160.496 56.1635 160.479 56.1318 160.474 56.0929C160.469 56.0549 160.478 56.0087 160.5 55.9554L161.822 52.9696C161.851 52.9072 161.885 52.8629 161.924 52.8357C161.966 52.8095 162.01 52.7959 162.06 52.7959C162.108 52.7959 162.152 52.8095 162.191 52.8357C162.232 52.8629 162.265 52.9072 162.29 52.9696L163.619 55.9554C163.646 56.0087 163.657 56.0558 163.652 56.0965C163.647 56.1381 163.63 56.1689 163.601 56.1906C163.572 56.2123 163.532 56.2232 163.481 56.2232C163.422 56.2232 163.375 56.2087 163.338 56.1797C163.303 56.149 163.276 56.1037 163.254 56.0458L162.896 55.2315L163.09 55.3329H161.019L161.216 55.2315L160.865 56.0458C160.836 56.1092 160.805 56.1544 160.774 56.1834C160.742 56.2096 160.701 56.2232 160.65 56.2232ZM162.056 53.2845L161.282 55.094L161.165 55.0035H162.947L162.841 55.094L162.063 53.2845H162.056Z" fill="black"/>
<path d="M164.425 56.2232C164.368 56.2232 164.323 56.2069 164.29 56.1761C164.258 56.1426 164.242 56.0956 164.242 56.035V52.9841C164.242 52.9217 164.258 52.8746 164.29 52.8429C164.323 52.8122 164.368 52.7959 164.425 52.7959C164.476 52.7959 164.517 52.8068 164.549 52.8285C164.58 52.8484 164.608 52.8809 164.633 52.9262L165.952 55.3908H165.809L167.121 52.9262C167.147 52.8809 167.176 52.8484 167.205 52.8285C167.234 52.8068 167.275 52.7959 167.329 52.7959C167.385 52.7959 167.429 52.8122 167.46 52.8429C167.492 52.8746 167.508 52.9217 167.508 52.9841V56.035C167.508 56.0956 167.492 56.1426 167.46 56.1761C167.431 56.2069 167.386 56.2232 167.325 56.2232C167.267 56.2232 167.221 56.2069 167.19 56.1761C167.158 56.1426 167.143 56.0956 167.143 56.035V53.3532H167.256L166.054 55.5898C166.032 55.6314 166.008 55.6613 165.985 55.6803C165.96 55.6975 165.924 55.7056 165.879 55.7056C165.835 55.7056 165.799 55.6966 165.773 55.6767C165.748 55.6577 165.726 55.6287 165.707 55.5898L164.491 53.346H164.604V56.035C164.604 56.0956 164.587 56.1426 164.556 56.1761C164.527 56.2069 164.483 56.2232 164.425 56.2232Z" fill="black"/>
<path d="M168.563 56.1912C168.492 56.1912 168.439 56.1731 168.402 56.1369C168.366 56.1007 168.348 56.0483 168.348 55.9777V53.0426C168.348 52.973 168.366 52.9196 168.402 52.8834C168.439 52.8472 168.492 52.8291 168.563 52.8291H170.353C170.409 52.8291 170.45 52.8436 170.477 52.8725C170.507 52.9015 170.521 52.9413 170.521 52.992C170.521 53.0453 170.507 53.0861 170.477 53.115C170.45 53.144 170.409 53.1584 170.353 53.1584H168.731V54.3202H170.255C170.307 54.3202 170.35 54.3346 170.379 54.3636C170.408 54.3907 170.423 54.4305 170.423 54.483C170.423 54.5391 170.408 54.5807 170.379 54.6097C170.35 54.6368 170.307 54.6495 170.255 54.6495H168.731V55.8619H170.353C170.409 55.8619 170.45 55.8764 170.477 55.9053C170.507 55.9343 170.521 55.9741 170.521 56.0247C170.521 56.0781 170.507 56.1188 170.477 56.1478C170.45 56.1767 170.409 56.1912 170.353 56.1912H168.563Z" fill="black"/>
<path d="M171.339 56.2232C171.277 56.2232 171.231 56.2069 171.2 56.1761C171.168 56.1426 171.152 56.0929 171.152 56.0277V52.9949C171.152 52.9325 171.168 52.8846 171.2 52.8502C171.231 52.814 171.273 52.7959 171.324 52.7959C171.375 52.7959 171.413 52.8049 171.437 52.8212C171.461 52.8384 171.489 52.8701 171.521 52.9153L173.622 55.6839H173.505V52.9841C173.505 52.9244 173.52 52.8782 173.552 52.8466C173.586 52.8131 173.634 52.7959 173.695 52.7959C173.751 52.7959 173.793 52.8131 173.823 52.8466C173.854 52.8782 173.87 52.9244 173.87 52.9841V56.035C173.87 56.0956 173.856 56.1426 173.83 56.1761C173.803 56.2069 173.764 56.2232 173.713 56.2232C173.664 56.2232 173.625 56.2132 173.596 56.1942C173.567 56.1752 173.536 56.1454 173.505 56.1037L171.412 53.3351H171.521V56.0277C171.521 56.0929 171.505 56.1426 171.474 56.1761C171.442 56.2069 171.397 56.2232 171.339 56.2232Z" fill="black"/>
<path d="M175.746 56.2238C175.685 56.2238 175.637 56.2057 175.6 56.1695C175.565 56.1333 175.549 56.0845 175.549 56.0211V53.1657H174.464C174.405 53.1657 174.36 53.1503 174.329 53.1186C174.297 53.0879 174.281 53.0462 174.281 52.9956C174.281 52.9431 174.297 52.9015 174.329 52.8725C174.36 52.8436 174.405 52.8291 174.464 52.8291H177.032C177.088 52.8291 177.132 52.8436 177.163 52.8725C177.197 52.9015 177.215 52.9431 177.215 52.9956C177.215 53.049 177.197 53.0915 177.163 53.1222C177.132 53.1512 177.088 53.1657 177.032 53.1657H175.947V56.0211C175.947 56.0845 175.93 56.1333 175.896 56.1695C175.861 56.2057 175.812 56.2238 175.746 56.2238Z" fill="black"/>
<path d="M179.041 56.2341C178.727 56.2341 178.453 56.1645 178.219 56.0242C177.987 55.8822 177.807 55.6822 177.678 55.4235C177.551 55.1656 177.488 54.8607 177.488 54.5078C177.488 54.24 177.525 54.0012 177.598 53.7913C177.671 53.5795 177.774 53.3995 177.908 53.252C178.042 53.1027 178.204 52.9878 178.394 52.9082C178.586 52.8268 178.802 52.7852 179.041 52.7852C179.362 52.7852 179.638 52.8557 179.87 52.9951C180.104 53.1353 180.284 53.3334 180.411 53.5886C180.537 53.8446 180.601 54.1486 180.601 54.5006C180.601 54.7684 180.562 55.01 180.487 55.2244C180.414 55.437 180.309 55.618 180.173 55.7673C180.039 55.9175 179.877 56.0333 179.687 56.1147C179.497 56.1943 179.282 56.2341 179.041 56.2341ZM179.041 55.8867C179.284 55.8867 179.49 55.8324 179.658 55.7238C179.826 55.6153 179.955 55.4588 180.045 55.2534C180.135 55.0462 180.181 54.7974 180.181 54.5078C180.181 54.0717 180.082 53.7334 179.885 53.4945C179.687 53.2538 179.406 53.1326 179.041 53.1326C178.802 53.1326 178.599 53.1869 178.431 53.2954C178.263 53.404 178.133 53.5614 178.044 53.7659C177.953 53.9713 177.908 54.2183 177.908 54.5078C177.908 54.9403 178.007 55.2778 178.204 55.5212C178.403 55.7655 178.683 55.8867 179.041 55.8867Z" fill="black"/>
<path d="M61.3996 62.8247C61.3484 62.8247 61.3064 62.8121 61.2754 62.7885C61.2461 62.765 61.2288 62.7333 61.2242 62.6944C61.2187 62.6564 61.2279 62.6103 61.2498 62.5569L62.5722 59.5712C62.6014 59.5087 62.6352 59.4644 62.6745 59.4373C62.7156 59.411 62.7603 59.3975 62.8096 59.3975C62.858 59.3975 62.9019 59.411 62.9411 59.4373C62.9822 59.4644 63.0151 59.5087 63.0398 59.5712L64.3694 62.5569C64.3959 62.6103 64.4069 62.6573 64.4023 62.6981C64.3968 62.7397 64.3804 62.7704 64.3512 62.7922C64.322 62.8139 64.2818 62.8247 64.2306 62.8247C64.1722 62.8247 64.1247 62.8103 64.0882 62.7813C64.0535 62.7505 64.0261 62.7053 64.0041 62.6474L63.6462 61.8331L63.8398 61.9344H61.7685L61.9658 61.8331L61.6151 62.6474C61.5859 62.7107 61.5548 62.756 61.5238 62.7849C61.4918 62.8112 61.4507 62.8247 61.3996 62.8247ZM62.806 59.886L62.0315 61.6956L61.9146 61.6051H63.6973L63.5914 61.6956L62.8133 59.886H62.806Z" fill="black"/>
<path d="M65.1748 62.8247C65.1182 62.8247 65.0735 62.8084 65.0397 62.7777C65.0077 62.7442 64.9922 62.6972 64.9922 62.6365V59.5857C64.9922 59.5232 65.0077 59.4762 65.0397 59.4445C65.0735 59.4137 65.1182 59.3975 65.1748 59.3975C65.226 59.3975 65.2671 59.4083 65.299 59.43C65.3301 59.4499 65.3584 59.4825 65.3831 59.5277L66.7018 61.9923H66.5593L67.8708 59.5277C67.8972 59.4825 67.9256 59.4499 67.9548 59.43C67.984 59.4083 68.0251 59.3975 68.079 59.3975C68.1347 59.3975 68.1785 59.4137 68.2105 59.4445C68.2415 59.4762 68.258 59.5232 68.258 59.5857V62.6365C68.258 62.6972 68.2415 62.7442 68.2105 62.7777C68.1813 62.8084 68.1356 62.8247 68.0753 62.8247C68.0169 62.8247 67.9712 62.8084 67.9402 62.7777C67.9082 62.7442 67.8927 62.6972 67.8927 62.6365V59.9548H68.0059L66.8041 62.1914C66.7822 62.233 66.7584 62.2629 66.7347 62.2819C66.71 62.2991 66.6744 62.3072 66.6287 62.3072C66.5849 62.3072 66.5493 62.2982 66.5228 62.2782C66.4981 62.2592 66.4762 62.2303 66.457 62.1914L65.2406 59.9476H65.3538V62.6365C65.3538 62.6972 65.3374 62.7442 65.3063 62.7777C65.2771 62.8084 65.2333 62.8247 65.1748 62.8247Z" fill="black"/>
<path d="M69.3132 62.7923C69.2419 62.7923 69.189 62.7742 69.1525 62.738C69.1159 62.7018 69.0977 62.6493 69.0977 62.5788V59.6437C69.0977 59.574 69.1159 59.5207 69.1525 59.4845C69.189 59.4483 69.2419 59.4302 69.3132 59.4302H70.4529C70.6885 59.4302 70.8876 59.4646 71.0484 59.5315C71.2109 59.5994 71.3351 59.6998 71.421 59.8319C71.5086 59.9622 71.5525 60.1205 71.5525 60.306C71.5525 60.5159 71.4904 60.6914 71.3662 60.8308C71.242 60.971 71.0739 61.0642 70.8621 61.1094V61.0407C71.1032 61.0696 71.2913 61.1565 71.4283 61.3012C71.5643 61.4442 71.6328 61.6324 71.6328 61.8658C71.6328 62.1653 71.5342 62.3942 71.3369 62.5534C71.1415 62.7127 70.8666 62.7923 70.5114 62.7923H69.3132ZM69.4812 62.4774H70.4748C70.7306 62.4774 70.9214 62.4268 71.0484 62.3254C71.1771 62.2241 71.242 62.0703 71.242 61.8622C71.242 61.6523 71.1771 61.4985 71.0484 61.399C70.9214 61.2976 70.7306 61.247 70.4748 61.247H69.4812V62.4774ZM69.4812 60.9321H70.3981C70.6465 60.9321 70.8347 60.8814 70.9643 60.7801C71.0959 60.6788 71.1616 60.5331 71.1616 60.3422C71.1616 60.1449 71.0959 59.9966 70.9643 59.897C70.8347 59.7957 70.6465 59.745 70.3981 59.745H69.4812V60.9321Z" fill="black"/>
<path d="M72.5488 62.8247C72.4831 62.8247 72.4328 62.8066 72.3991 62.7704C72.3671 62.7343 72.3516 62.6854 72.3516 62.6221V59.6001C72.3516 59.535 72.3671 59.4861 72.3991 59.4517C72.4328 59.4156 72.4831 59.3975 72.5488 59.3975C72.6118 59.3975 72.6602 59.4156 72.6949 59.4517C72.7287 59.4861 72.7461 59.535 72.7461 59.6001V62.6221C72.7461 62.6854 72.7287 62.7343 72.6949 62.7704C72.663 62.8066 72.6146 62.8247 72.5488 62.8247Z" fill="black"/>
<path d="M73.8054 62.7923C73.7341 62.7923 73.6812 62.7742 73.6446 62.738C73.6081 62.7018 73.5898 62.6493 73.5898 62.5788V59.6437C73.5898 59.574 73.6081 59.5207 73.6446 59.4845C73.6812 59.4483 73.7341 59.4302 73.8054 59.4302H75.5953C75.6511 59.4302 75.6921 59.4447 75.7195 59.4736C75.7488 59.5026 75.7634 59.5424 75.7634 59.593C75.7634 59.6464 75.7488 59.6871 75.7195 59.7161C75.6921 59.745 75.6511 59.7595 75.5953 59.7595H73.9734V60.9212H75.4967C75.5497 60.9212 75.5917 60.9357 75.6209 60.9647C75.6501 60.9918 75.6648 61.0316 75.6648 61.0841C75.6648 61.1402 75.6501 61.1818 75.6209 61.2108C75.5917 61.2379 75.5497 61.2506 75.4967 61.2506H73.9734V62.463H75.5953C75.6511 62.463 75.6921 62.4774 75.7195 62.5064C75.7488 62.5353 75.7634 62.5752 75.7634 62.6258C75.7634 62.6792 75.7488 62.7199 75.7195 62.7489C75.6921 62.7778 75.6511 62.7923 75.5953 62.7923H73.8054Z" fill="black"/>
<path d="M76.5808 62.8247C76.5196 62.8247 76.4731 62.8084 76.442 62.7777C76.4101 62.7442 76.3945 62.6944 76.3945 62.6293V59.5965C76.3945 59.5341 76.4101 59.4861 76.442 59.4517C76.4731 59.4156 76.5151 59.3975 76.5662 59.3975C76.6174 59.3975 76.6548 59.4065 76.6795 59.4228C76.7032 59.44 76.7315 59.4717 76.7635 59.5169L78.864 62.2855H78.7471V59.5857C78.7471 59.5259 78.7626 59.4798 78.7946 59.4481C78.8283 59.4147 78.8758 59.3975 78.937 59.3975C78.9927 59.3975 79.0357 59.4147 79.0649 59.4481C79.0959 59.4798 79.1124 59.5259 79.1124 59.5857V62.6365C79.1124 62.6972 79.0987 62.7442 79.0722 62.7777C79.0448 62.8084 79.0064 62.8247 78.9553 62.8247C78.906 62.8247 78.8676 62.8148 78.8384 62.7958C78.8092 62.7768 78.7781 62.7469 78.7471 62.7053L76.6539 59.9367H76.7635V62.6293C76.7635 62.6944 76.747 62.7442 76.716 62.7777C76.684 62.8084 76.6393 62.8247 76.5808 62.8247Z" fill="black"/>
<path d="M80.9883 62.8249C80.9271 62.8249 80.8787 62.8068 80.8422 62.7706C80.8075 62.7344 80.791 62.6855 80.791 62.6222V59.7668H79.7061C79.6476 59.7668 79.602 59.7514 79.5709 59.7197C79.539 59.6889 79.5234 59.6473 79.5234 59.5967C79.5234 59.5442 79.539 59.5026 79.5709 59.4736C79.602 59.4447 79.6476 59.4302 79.7061 59.4302H82.2742C82.3299 59.4302 82.3737 59.4447 82.4057 59.4736C82.4395 59.5026 82.4568 59.5442 82.4568 59.5967C82.4568 59.65 82.4395 59.6926 82.4057 59.7233C82.3737 59.7523 82.3299 59.7668 82.2742 59.7668H81.1892V62.6222C81.1892 62.6855 81.1719 62.7344 81.1381 62.7706C81.1034 62.8068 81.054 62.8249 80.9883 62.8249Z" fill="black"/>
<path d="M82.7785 62.8247C82.7273 62.8247 82.6853 62.8121 82.6543 62.7885C82.625 62.765 82.6077 62.7333 82.6031 62.6944C82.5976 62.6564 82.6068 62.6103 82.6287 62.5569L83.9511 59.5712C83.9803 59.5087 84.0141 59.4644 84.0534 59.4373C84.0945 59.411 84.1392 59.3975 84.1885 59.3975C84.2369 59.3975 84.2808 59.411 84.32 59.4373C84.3611 59.4644 84.394 59.5087 84.4187 59.5712L85.7484 62.5569C85.7748 62.6103 85.7858 62.6573 85.7812 62.6981C85.7758 62.7397 85.7593 62.7704 85.7301 62.7922C85.7009 62.8139 85.6607 62.8247 85.6095 62.8247C85.5511 62.8247 85.5036 62.8103 85.4671 62.7813C85.4324 62.7505 85.405 62.7053 85.3831 62.6474L85.0251 61.8331L85.2187 61.9344H83.1474L83.3447 61.8331L82.994 62.6474C82.9648 62.7107 82.9337 62.756 82.9027 62.7849C82.8707 62.8112 82.8296 62.8247 82.7785 62.8247ZM84.1849 59.886L83.4104 61.6956L83.2935 61.6051H85.0762L84.9703 61.6956L84.1922 59.886H84.1849Z" fill="black"/>
<path d="M86.5642 62.7922C86.5003 62.7922 86.451 62.7741 86.4144 62.738C86.3797 62.7018 86.3633 62.6511 86.3633 62.586V59.6111C86.3633 59.5441 86.3788 59.4935 86.4108 59.4591C86.4446 59.4229 86.4948 59.4048 86.5605 59.4048C86.6236 59.4048 86.672 59.4229 86.7067 59.4591C86.7405 59.4935 86.7578 59.5441 86.7578 59.6111V62.4484H88.3359C88.3944 62.4484 88.4391 62.4647 88.4711 62.4955C88.5021 62.5244 88.5186 62.567 88.5186 62.6221C88.5186 62.6755 88.5021 62.7181 88.4711 62.7488C88.4391 62.7778 88.3944 62.7922 88.3359 62.7922H86.5642Z" fill="black"/>
<path d="M90.4382 62.7923C90.3669 62.7923 90.314 62.7742 90.2775 62.738C90.2409 62.7018 90.2227 62.6493 90.2227 62.5788V59.6437C90.2227 59.574 90.2409 59.5207 90.2775 59.4845C90.314 59.4483 90.3669 59.4302 90.4382 59.4302H92.2282C92.2839 59.4302 92.325 59.4447 92.3524 59.4736C92.3816 59.5026 92.3962 59.5424 92.3962 59.593C92.3962 59.6464 92.3816 59.6871 92.3524 59.7161C92.325 59.745 92.2839 59.7595 92.2282 59.7595H90.6062V60.9212H92.1295C92.1825 60.9212 92.2245 60.9357 92.2537 60.9647C92.283 60.9918 92.2976 61.0316 92.2976 61.0841C92.2976 61.1402 92.283 61.1818 92.2537 61.2108C92.2245 61.2379 92.1825 61.2506 92.1295 61.2506H90.6062V62.463H92.2282C92.2839 62.463 92.325 62.4774 92.3524 62.5064C92.3816 62.5353 92.3962 62.5752 92.3962 62.6258C92.3962 62.6792 92.3816 62.7199 92.3524 62.7489C92.325 62.7778 92.2839 62.7923 92.2282 62.7923H90.4382Z" fill="black"/>
<path d="M94.4812 62.7923C94.4099 62.7923 94.357 62.7742 94.3204 62.738C94.2839 62.7018 94.2656 62.6493 94.2656 62.5788V59.6437C94.2656 59.574 94.2839 59.5207 94.3204 59.4845C94.357 59.4483 94.4099 59.4302 94.4812 59.4302H95.409C95.9588 59.4302 96.3825 59.574 96.6803 59.8608C96.9798 60.1458 97.1296 60.562 97.1296 61.1094C97.1296 61.3827 97.0912 61.6233 97.0163 61.8332C96.9405 62.0413 96.8282 62.216 96.6803 62.358C96.5341 62.501 96.3551 62.6095 96.1433 62.6837C95.9314 62.7561 95.6866 62.7923 95.409 62.7923H94.4812ZM94.6601 62.4593H95.3798C95.6063 62.4593 95.8008 62.4304 95.9643 62.3725C96.1296 62.3146 96.2675 62.2304 96.3771 62.1192C96.4885 62.0088 96.5716 61.8685 96.6255 61.6993C96.6812 61.5283 96.7095 61.332 96.7095 61.1094C96.7095 60.6607 96.5981 60.3241 96.3771 60.0997C96.1551 59.8753 95.8227 59.7631 95.3798 59.7631H94.6601V62.4593Z" fill="black"/>
<path d="M98.0554 62.7923C97.9841 62.7923 97.9312 62.7742 97.8946 62.738C97.8581 62.7018 97.8398 62.6493 97.8398 62.5788V59.6437C97.8398 59.574 97.8581 59.5207 97.8946 59.4845C97.9312 59.4483 97.9841 59.4302 98.0554 59.4302H99.8453C99.9011 59.4302 99.9421 59.4447 99.9695 59.4736C99.9988 59.5026 100.013 59.5424 100.013 59.593C100.013 59.6464 99.9988 59.6871 99.9695 59.7161C99.9421 59.745 99.9011 59.7595 99.8453 59.7595H98.2234V60.9212H99.7467C99.7997 60.9212 99.8417 60.9357 99.8709 60.9647C99.9001 60.9918 99.9148 61.0316 99.9148 61.0841C99.9148 61.1402 99.9001 61.1818 99.8709 61.2108C99.8417 61.2379 99.7997 61.2506 99.7467 61.2506H98.2234V62.463H99.8453C99.9011 62.463 99.9421 62.4774 99.9695 62.5064C99.9988 62.5353 100.013 62.5752 100.013 62.6258C100.013 62.6792 99.9988 62.7199 99.9695 62.7489C99.9421 62.7778 99.9011 62.7923 99.8453 62.7923H98.0554Z" fill="black"/>
<path d="M101.741 62.8357C101.589 62.8357 101.442 62.8221 101.299 62.7959C101.154 62.7724 101.021 62.7362 100.897 62.6873C100.773 62.6394 100.66 62.5787 100.561 62.5064C100.521 62.4774 100.495 62.4448 100.48 62.4086C100.468 62.3725 100.466 62.3363 100.473 62.3001C100.48 62.2621 100.496 62.2304 100.521 62.206C100.544 62.1797 100.573 62.1653 100.608 62.1626C100.645 62.1607 100.683 62.1716 100.725 62.1951C100.868 62.2965 101.022 62.3716 101.185 62.4195C101.351 62.4657 101.536 62.4883 101.741 62.4883C102.03 62.4883 102.245 62.4358 102.384 62.329C102.522 62.2205 102.592 62.0793 102.592 61.9056C102.592 61.7635 102.541 61.6514 102.438 61.569C102.338 61.4876 102.17 61.4234 101.934 61.3772L101.434 61.2759C101.131 61.2134 100.905 61.1094 100.754 60.9646C100.605 60.8199 100.531 60.6263 100.531 60.382C100.531 60.2327 100.562 60.0979 100.623 59.9766C100.683 59.8536 100.769 59.7486 100.879 59.6618C100.988 59.5731 101.118 59.5052 101.269 59.4591C101.42 59.4111 101.587 59.3867 101.77 59.3867C101.972 59.3867 102.161 59.4148 102.336 59.47C102.511 59.5261 102.669 59.6093 102.811 59.7197C102.845 59.7486 102.868 59.7812 102.88 59.8174C102.895 59.8536 102.897 59.8889 102.888 59.9223C102.878 59.9567 102.86 59.9857 102.837 60.0092C102.812 60.0309 102.782 60.0436 102.745 60.0454C102.709 60.0481 102.667 60.0345 102.621 60.0056C102.494 59.9115 102.362 59.8427 102.223 59.7993C102.084 59.7559 101.931 59.7342 101.766 59.7342C101.595 59.7342 101.448 59.7595 101.324 59.8102C101.2 59.8608 101.103 59.9359 101.036 60.0345C100.967 60.1313 100.933 60.2426 100.933 60.3675C100.933 60.5222 100.981 60.6443 101.076 60.733C101.171 60.8226 101.325 60.8877 101.54 60.9284L102.04 61.0334C102.363 61.0985 102.604 61.199 102.76 61.3338C102.915 61.4695 102.994 61.6541 102.994 61.8875C102.994 62.0277 102.964 62.1571 102.906 62.2747C102.847 62.3906 102.763 62.491 102.654 62.5751C102.546 62.6602 102.415 62.7253 102.259 62.7706C102.106 62.814 101.932 62.8357 101.741 62.8357Z" fill="black"/>
<path d="M103.821 62.7923C103.75 62.7923 103.697 62.7742 103.66 62.738C103.624 62.7018 103.605 62.6493 103.605 62.5788V59.6437C103.605 59.574 103.624 59.5207 103.66 59.4845C103.697 59.4483 103.75 59.4302 103.821 59.4302H105.611C105.667 59.4302 105.708 59.4447 105.735 59.4736C105.764 59.5026 105.779 59.5424 105.779 59.593C105.779 59.6464 105.764 59.6871 105.735 59.7161C105.708 59.745 105.667 59.7595 105.611 59.7595H103.989V60.9212H105.512C105.565 60.9212 105.607 60.9357 105.637 60.9647C105.666 60.9918 105.68 61.0316 105.68 61.0841C105.68 61.1402 105.666 61.1818 105.637 61.2108C105.607 61.2379 105.565 61.2506 105.512 61.2506H103.989V62.463H105.611C105.667 62.463 105.708 62.4774 105.735 62.5064C105.764 62.5353 105.779 62.5752 105.779 62.6258C105.779 62.6792 105.764 62.7199 105.735 62.7489C105.708 62.7778 105.667 62.7923 105.611 62.7923H103.821Z" fill="black"/>
<path d="M106.6 62.8247C106.539 62.8247 106.493 62.8084 106.462 62.7777C106.43 62.7442 106.414 62.6944 106.414 62.6293V59.5965C106.414 59.5341 106.43 59.4861 106.462 59.4517C106.493 59.4156 106.535 59.3975 106.586 59.3975C106.637 59.3975 106.674 59.4065 106.699 59.4228C106.723 59.44 106.751 59.4717 106.783 59.5169L108.883 62.2855H108.767V59.5857C108.767 59.5259 108.782 59.4798 108.814 59.4481C108.848 59.4147 108.895 59.3975 108.957 59.3975C109.012 59.3975 109.055 59.4147 109.084 59.4481C109.115 59.4798 109.132 59.5259 109.132 59.5857V62.6365C109.132 62.6972 109.118 62.7442 109.092 62.7777C109.064 62.8084 109.026 62.8247 108.975 62.8247C108.926 62.8247 108.887 62.8148 108.858 62.7958C108.829 62.7768 108.798 62.7469 108.767 62.7053L106.673 59.9367H106.783V62.6293C106.783 62.6944 106.767 62.7442 106.736 62.7777C106.704 62.8084 106.659 62.8247 106.6 62.8247Z" fill="black"/>
<path d="M111.219 62.8247C111.158 62.8247 111.108 62.8112 111.069 62.7849C111.03 62.756 111 62.7125 110.978 62.6546L109.652 59.6544C109.63 59.5992 109.623 59.5531 109.634 59.5169C109.643 59.4807 109.665 59.4517 109.699 59.43C109.733 59.4083 109.772 59.3975 109.816 59.3975C109.876 59.3975 109.922 59.411 109.951 59.4373C109.982 59.4644 110.008 59.5024 110.028 59.5531L111.299 62.4773H111.146L112.413 59.5495C112.435 59.5015 112.462 59.4644 112.494 59.4373C112.525 59.411 112.571 59.3975 112.629 59.3975C112.673 59.3975 112.709 59.4083 112.739 59.43C112.77 59.4517 112.79 59.4825 112.797 59.5205C112.806 59.5594 112.801 59.6037 112.779 59.6544L111.453 62.6546C111.431 62.7125 111.402 62.756 111.365 62.7849C111.329 62.8112 111.279 62.8247 111.219 62.8247Z" fill="black"/>
<path d="M114.717 62.8357C114.402 62.8357 114.128 62.766 113.895 62.6258C113.663 62.4837 113.483 62.2838 113.354 62.025C113.227 61.7672 113.164 61.4623 113.164 61.1094C113.164 60.8416 113.201 60.6027 113.274 60.3928C113.347 60.1811 113.45 60.0011 113.584 59.8536C113.717 59.7043 113.88 59.5894 114.07 59.5098C114.262 59.4283 114.477 59.3867 114.717 59.3867C115.038 59.3867 115.314 59.4573 115.546 59.5966C115.78 59.7369 115.96 59.935 116.086 60.1902C116.212 60.4462 116.276 60.7502 116.276 61.1022C116.276 61.37 116.238 61.6115 116.163 61.826C116.09 62.0386 115.985 62.2196 115.849 62.3688C115.715 62.519 115.553 62.6348 115.363 62.7163C115.173 62.7959 114.958 62.8357 114.717 62.8357ZM114.717 62.4883C114.96 62.4883 115.166 62.434 115.334 62.3254C115.502 62.2168 115.631 62.0603 115.721 61.8549C115.811 61.6477 115.856 61.3989 115.856 61.1094C115.856 60.6733 115.758 60.3349 115.56 60.0961C115.363 59.8554 115.082 59.7342 114.717 59.7342C114.477 59.7342 114.275 59.7884 114.107 59.897C113.939 60.0056 113.809 60.163 113.719 60.3675C113.629 60.5729 113.584 60.8199 113.584 61.1094C113.584 61.5419 113.683 61.8794 113.88 62.1227C114.079 62.367 114.359 62.4883 114.717 62.4883Z" fill="black"/>
<path d="M117.185 62.7922C117.121 62.7922 117.072 62.7741 117.036 62.738C117.001 62.7018 116.984 62.6511 116.984 62.586V59.6111C116.984 59.5441 117 59.4935 117.032 59.4591C117.066 59.4229 117.116 59.4048 117.182 59.4048C117.245 59.4048 117.293 59.4229 117.328 59.4591C117.362 59.4935 117.379 59.5441 117.379 59.6111V62.4484H118.957C119.015 62.4484 119.06 62.4647 119.092 62.4955C119.123 62.5244 119.14 62.567 119.14 62.6221C119.14 62.6755 119.123 62.7181 119.092 62.7488C119.06 62.7778 119.015 62.7922 118.957 62.7922H117.185Z" fill="black"/>
<path d="M120.84 62.8247C120.779 62.8247 120.729 62.8112 120.69 62.7849C120.651 62.756 120.621 62.7125 120.599 62.6546L119.273 59.6544C119.251 59.5992 119.245 59.5531 119.255 59.5169C119.264 59.4807 119.286 59.4517 119.32 59.43C119.354 59.4083 119.393 59.3975 119.437 59.3975C119.498 59.3975 119.543 59.411 119.572 59.4373C119.603 59.4644 119.629 59.5024 119.649 59.5531L120.92 62.4773H120.767L122.035 59.5495C122.056 59.5015 122.083 59.4644 122.115 59.4373C122.146 59.411 122.192 59.3975 122.25 59.3975C122.294 59.3975 122.33 59.4083 122.36 59.43C122.391 59.4517 122.411 59.4825 122.418 59.5205C122.427 59.5594 122.422 59.6037 122.4 59.6544L121.074 62.6546C121.052 62.7125 121.023 62.756 120.986 62.7849C120.95 62.8112 120.9 62.8247 120.84 62.8247Z" fill="black"/>
<path d="M123.111 62.8247C123.046 62.8247 122.995 62.8066 122.962 62.7704C122.93 62.7343 122.914 62.6854 122.914 62.6221V59.6001C122.914 59.535 122.93 59.4861 122.962 59.4517C122.995 59.4156 123.046 59.3975 123.111 59.3975C123.174 59.3975 123.223 59.4156 123.257 59.4517C123.291 59.4861 123.309 59.535 123.309 59.6001V62.6221C123.309 62.6854 123.291 62.7343 123.257 62.7704C123.225 62.8066 123.177 62.8247 123.111 62.8247Z" fill="black"/>
<path d="M124.339 62.8247C124.282 62.8247 124.238 62.8084 124.204 62.7777C124.172 62.7442 124.156 62.6972 124.156 62.6365V59.5857C124.156 59.5232 124.172 59.4762 124.204 59.4445C124.238 59.4137 124.282 59.3975 124.339 59.3975C124.39 59.3975 124.431 59.4083 124.463 59.43C124.494 59.4499 124.522 59.4825 124.547 59.5277L125.866 61.9923H125.723L127.035 59.5277C127.061 59.4825 127.09 59.4499 127.119 59.43C127.148 59.4083 127.189 59.3975 127.243 59.3975C127.299 59.3975 127.343 59.4137 127.375 59.4445C127.406 59.4762 127.422 59.5232 127.422 59.5857V62.6365C127.422 62.6972 127.406 62.7442 127.375 62.7777C127.345 62.8084 127.3 62.8247 127.239 62.8247C127.181 62.8247 127.135 62.8084 127.104 62.7777C127.072 62.7442 127.057 62.6972 127.057 62.6365V59.9548H127.17L125.968 62.1914C125.946 62.233 125.922 62.2629 125.899 62.2819C125.874 62.2991 125.838 62.3072 125.793 62.3072C125.749 62.3072 125.713 62.2982 125.687 62.2782C125.662 62.2592 125.64 62.2303 125.621 62.1914L124.405 59.9476H124.518V62.6365C124.518 62.6972 124.501 62.7442 124.47 62.7777C124.441 62.8084 124.397 62.8247 124.339 62.8247Z" fill="black"/>
<path d="M128.481 62.7923C128.41 62.7923 128.357 62.7742 128.32 62.738C128.284 62.7018 128.266 62.6493 128.266 62.5788V59.6437C128.266 59.574 128.284 59.5207 128.32 59.4845C128.357 59.4483 128.41 59.4302 128.481 59.4302H130.271C130.327 59.4302 130.368 59.4447 130.395 59.4736C130.425 59.5026 130.439 59.5424 130.439 59.593C130.439 59.6464 130.425 59.6871 130.395 59.7161C130.368 59.745 130.327 59.7595 130.271 59.7595H128.649V60.9212H130.172C130.225 60.9212 130.267 60.9357 130.297 60.9647C130.326 60.9918 130.341 61.0316 130.341 61.0841C130.341 61.1402 130.326 61.1818 130.297 61.2108C130.267 61.2379 130.225 61.2506 130.172 61.2506H128.649V62.463H130.271C130.327 62.463 130.368 62.4774 130.395 62.5064C130.425 62.5353 130.439 62.5752 130.439 62.6258C130.439 62.6792 130.425 62.7199 130.395 62.7489C130.368 62.7778 130.327 62.7923 130.271 62.7923H128.481Z" fill="black"/>
<path d="M131.261 62.8247C131.199 62.8247 131.153 62.8084 131.122 62.7777C131.09 62.7442 131.074 62.6944 131.074 62.6293V59.5965C131.074 59.5341 131.09 59.4861 131.122 59.4517C131.153 59.4156 131.195 59.3975 131.246 59.3975C131.297 59.3975 131.334 59.4065 131.359 59.4228C131.383 59.44 131.411 59.4717 131.443 59.5169L133.544 62.2855H133.427V59.5857C133.427 59.5259 133.442 59.4798 133.474 59.4481C133.508 59.4147 133.556 59.3975 133.617 59.3975C133.672 59.3975 133.715 59.4147 133.745 59.4481C133.776 59.4798 133.792 59.5259 133.792 59.5857V62.6365C133.792 62.6972 133.778 62.7442 133.752 62.7777C133.724 62.8084 133.686 62.8247 133.635 62.8247C133.586 62.8247 133.547 62.8148 133.518 62.7958C133.489 62.7768 133.458 62.7469 133.427 62.7053L131.334 59.9367H131.443V62.6293C131.443 62.6944 131.427 62.7442 131.396 62.7777C131.364 62.8084 131.319 62.8247 131.261 62.8247Z" fill="black"/>
<path d="M135.668 62.8249C135.607 62.8249 135.558 62.8068 135.522 62.7706C135.487 62.7344 135.471 62.6855 135.471 62.6222V59.7668H134.386C134.327 59.7668 134.282 59.7514 134.251 59.7197C134.219 59.6889 134.203 59.6473 134.203 59.5967C134.203 59.5442 134.219 59.5026 134.251 59.4736C134.282 59.4447 134.327 59.4302 134.386 59.4302H136.954C137.01 59.4302 137.053 59.4447 137.085 59.4736C137.119 59.5026 137.136 59.5442 137.136 59.5967C137.136 59.65 137.119 59.6926 137.085 59.7233C137.053 59.7523 137.01 59.7668 136.954 59.7668H135.869V62.6222C135.869 62.6855 135.852 62.7344 135.818 62.7706C135.783 62.8068 135.734 62.8249 135.668 62.8249Z" fill="black"/>
<path d="M138.959 62.8357C138.645 62.8357 138.371 62.766 138.137 62.6258C137.905 62.4837 137.725 62.2838 137.596 62.025C137.469 61.7672 137.406 61.4623 137.406 61.1094C137.406 60.8416 137.443 60.6027 137.516 60.3928C137.589 60.1811 137.692 60.0011 137.826 59.8536C137.96 59.7043 138.122 59.5894 138.312 59.5098C138.504 59.4283 138.72 59.3867 138.959 59.3867C139.28 59.3867 139.556 59.4573 139.788 59.5966C140.022 59.7369 140.202 59.935 140.329 60.1902C140.455 60.4462 140.519 60.7502 140.519 61.1022C140.519 61.37 140.48 61.6115 140.405 61.826C140.332 62.0386 140.227 62.2196 140.091 62.3688C139.957 62.519 139.795 62.6348 139.605 62.7163C139.415 62.7959 139.2 62.8357 138.959 62.8357ZM138.959 62.4883C139.202 62.4883 139.408 62.434 139.576 62.3254C139.744 62.2168 139.873 62.0603 139.963 61.8549C140.053 61.6477 140.099 61.3989 140.099 61.1094C140.099 60.6733 140 60.3349 139.803 60.0961C139.605 59.8554 139.324 59.7342 138.959 59.7342C138.72 59.7342 138.517 59.7884 138.349 59.897C138.181 60.0056 138.051 60.163 137.962 60.3675C137.871 60.5729 137.826 60.8199 137.826 61.1094C137.826 61.5419 137.925 61.8794 138.122 62.1227C138.321 62.367 138.601 62.4883 138.959 62.4883Z" fill="black"/>
<path d="M143.5 62.8249C143.439 62.8249 143.39 62.8068 143.354 62.7706C143.319 62.7344 143.303 62.6855 143.303 62.6222V59.7668H142.218C142.159 59.7668 142.114 59.7514 142.083 59.7197C142.051 59.6889 142.035 59.6473 142.035 59.5967C142.035 59.5442 142.051 59.5026 142.083 59.4736C142.114 59.4447 142.159 59.4302 142.218 59.4302H144.786C144.842 59.4302 144.885 59.4447 144.917 59.4736C144.951 59.5026 144.969 59.5442 144.969 59.5967C144.969 59.65 144.951 59.6926 144.917 59.7233C144.885 59.7523 144.842 59.7668 144.786 59.7668H143.701V62.6222C143.701 62.6855 143.684 62.7344 143.65 62.7706C143.615 62.8068 143.566 62.8249 143.5 62.8249Z" fill="black"/>
<path d="M145.583 62.7923C145.511 62.7923 145.459 62.7742 145.422 62.738C145.385 62.7018 145.367 62.6493 145.367 62.5788V59.6437C145.367 59.574 145.385 59.5207 145.422 59.4845C145.459 59.4483 145.511 59.4302 145.583 59.4302H147.373C147.428 59.4302 147.469 59.4447 147.497 59.4736C147.526 59.5026 147.541 59.5424 147.541 59.593C147.541 59.6464 147.526 59.6871 147.497 59.7161C147.469 59.745 147.428 59.7595 147.373 59.7595H145.751V60.9212H147.274C147.327 60.9212 147.369 60.9357 147.398 60.9647C147.427 60.9918 147.442 61.0316 147.442 61.0841C147.442 61.1402 147.427 61.1818 147.398 61.2108C147.369 61.2379 147.327 61.2506 147.274 61.2506H145.751V62.463H147.373C147.428 62.463 147.469 62.4774 147.497 62.5064C147.526 62.5353 147.541 62.5752 147.541 62.6258C147.541 62.6792 147.526 62.7199 147.497 62.7489C147.469 62.7778 147.428 62.7923 147.373 62.7923H145.583Z" fill="black"/>
<path d="M148.369 62.8249C148.303 62.8249 148.253 62.8068 148.219 62.7706C148.187 62.7344 148.172 62.6855 148.172 62.6222V59.6292C148.172 59.5623 148.188 59.5125 148.223 59.4808C148.26 59.4474 148.309 59.4302 148.373 59.4302H149.513C149.875 59.4302 150.154 59.5152 150.349 59.6835C150.546 59.8527 150.645 60.0925 150.645 60.4037C150.645 60.5991 150.601 60.7692 150.513 60.914C150.426 61.0588 150.296 61.1691 150.126 61.2433C149.955 61.3184 149.751 61.3555 149.513 61.3555L149.564 61.294H149.659C149.783 61.294 149.891 61.3266 149.984 61.3917C150.079 61.4551 150.164 61.5564 150.239 61.6957L150.703 62.5498C150.727 62.5933 150.738 62.6367 150.736 62.6801C150.736 62.7235 150.722 62.7588 150.692 62.7851C150.663 62.8113 150.621 62.8249 150.568 62.8249C150.514 62.8249 150.47 62.8122 150.433 62.7887C150.398 62.7624 150.368 62.7253 150.342 62.6765L149.816 61.7138C149.743 61.5763 149.657 61.4849 149.56 61.4388C149.465 61.3935 149.338 61.37 149.18 61.37H148.566V62.6222C148.566 62.6855 148.549 62.7344 148.515 62.7706C148.483 62.8068 148.435 62.8249 148.369 62.8249ZM148.566 61.0624H149.458C149.721 61.0624 149.919 61.0081 150.053 60.8995C150.187 60.7891 150.254 60.6236 150.254 60.4037C150.254 60.1893 150.187 60.0273 150.053 59.9188C149.919 59.8084 149.721 59.7523 149.458 59.7523H148.566V61.0624Z" fill="black"/>
<path d="M151.592 62.8249C151.526 62.8249 151.476 62.8068 151.442 62.7706C151.41 62.7344 151.395 62.6855 151.395 62.6222V59.6292C151.395 59.5623 151.411 59.5125 151.446 59.4808C151.482 59.4474 151.532 59.4302 151.595 59.4302H152.735C153.098 59.4302 153.376 59.5152 153.572 59.6835C153.769 59.8527 153.868 60.0925 153.868 60.4037C153.868 60.5991 153.824 60.7692 153.736 60.914C153.648 61.0588 153.519 61.1691 153.349 61.2433C153.178 61.3184 152.974 61.3555 152.735 61.3555L152.786 61.294H152.881C153.006 61.294 153.113 61.3266 153.206 61.3917C153.301 61.4551 153.386 61.5564 153.462 61.6957L153.926 62.5498C153.95 62.5933 153.961 62.6367 153.959 62.6801C153.959 62.7235 153.944 62.7588 153.915 62.7851C153.886 62.8113 153.844 62.8249 153.791 62.8249C153.737 62.8249 153.692 62.8122 153.656 62.7887C153.621 62.7624 153.591 62.7253 153.564 62.6765L153.038 61.7138C152.965 61.5763 152.879 61.4849 152.783 61.4388C152.688 61.3935 152.561 61.37 152.403 61.37H151.789V62.6222C151.789 62.6855 151.772 62.7344 151.738 62.7706C151.706 62.8068 151.658 62.8249 151.592 62.8249ZM151.789 61.0624H152.68C152.943 61.0624 153.142 61.0081 153.276 60.8995C153.409 60.7891 153.477 60.6236 153.477 60.4037C153.477 60.1893 153.409 60.0273 153.276 59.9188C153.142 59.8084 152.943 59.7523 152.68 59.7523H151.789V61.0624Z" fill="black"/>
<path d="M154.811 62.8247C154.745 62.8247 154.695 62.8066 154.661 62.7704C154.629 62.7343 154.613 62.6854 154.613 62.6221V59.6001C154.613 59.535 154.629 59.4861 154.661 59.4517C154.695 59.4156 154.745 59.3975 154.811 59.3975C154.874 59.3975 154.922 59.4156 154.957 59.4517C154.99 59.4861 155.008 59.535 155.008 59.6001V62.6221C155.008 62.6854 154.99 62.7343 154.957 62.7704C154.925 62.8066 154.876 62.8247 154.811 62.8247Z" fill="black"/>
<path d="M156.883 62.8249C156.822 62.8249 156.773 62.8068 156.737 62.7706C156.702 62.7344 156.686 62.6855 156.686 62.6222V59.7668H155.601C155.542 59.7668 155.497 59.7514 155.465 59.7197C155.433 59.6889 155.418 59.6473 155.418 59.5967C155.418 59.5442 155.433 59.5026 155.465 59.4736C155.497 59.4447 155.542 59.4302 155.601 59.4302H158.169C158.224 59.4302 158.268 59.4447 158.3 59.4736C158.334 59.5026 158.351 59.5442 158.351 59.5967C158.351 59.65 158.334 59.6926 158.3 59.7233C158.268 59.7523 158.224 59.7668 158.169 59.7668H157.084V62.6222C157.084 62.6855 157.066 62.7344 157.033 62.7706C156.998 62.8068 156.949 62.8249 156.883 62.8249Z" fill="black"/>
<path d="M160.174 62.8352C159.859 62.8352 159.585 62.7655 159.352 62.6253C159.12 62.4833 158.94 62.2833 158.811 62.0245C158.684 61.7667 158.621 61.4618 158.621 61.1089C158.621 60.8411 158.658 60.6022 158.731 60.3923C158.804 60.1806 158.907 60.0006 159.041 59.8531C159.175 59.7038 159.337 59.5889 159.527 59.5093C159.719 59.4278 159.934 59.3862 160.174 59.3862C160.495 59.3862 160.771 59.4568 161.003 59.5961C161.237 59.7364 161.417 59.9345 161.543 60.1897C161.67 60.4457 161.733 60.7497 161.733 61.1017C161.733 61.3695 161.695 61.6111 161.62 61.8255C161.547 62.0381 161.442 62.2191 161.306 62.3684C161.172 62.5185 161.01 62.6344 160.82 62.7158C160.63 62.7954 160.415 62.8352 160.174 62.8352ZM160.174 62.4878C160.417 62.4878 160.623 62.4335 160.791 62.3249C160.959 62.2164 161.088 62.0598 161.178 61.8544C161.268 61.6473 161.313 61.3984 161.313 61.1089C161.313 60.6728 161.215 60.3344 161.017 60.0956C160.82 59.8549 160.539 59.7337 160.174 59.7337C159.934 59.7337 159.732 59.7879 159.564 59.8965C159.396 60.0051 159.266 60.1625 159.176 60.367C159.086 60.5724 159.041 60.8194 159.041 61.1089C159.041 61.5414 159.14 61.8789 159.337 62.1223C159.536 62.3665 159.816 62.4878 160.174 62.4878Z" fill="black"/>
<path d="M162.639 62.8249C162.573 62.8249 162.523 62.8068 162.489 62.7706C162.457 62.7344 162.441 62.6855 162.441 62.6222V59.6292C162.441 59.5623 162.458 59.5125 162.493 59.4808C162.529 59.4474 162.578 59.4302 162.642 59.4302H163.782C164.145 59.4302 164.423 59.5152 164.619 59.6835C164.816 59.8527 164.914 60.0925 164.914 60.4037C164.914 60.5991 164.871 60.7692 164.783 60.914C164.695 61.0588 164.566 61.1691 164.396 61.2433C164.225 61.3184 164.02 61.3555 163.782 61.3555L163.833 61.294H163.928C164.052 61.294 164.16 61.3266 164.253 61.3917C164.348 61.4551 164.433 61.5564 164.509 61.6957L164.973 62.5498C164.997 62.5933 165.008 62.6367 165.006 62.6801C165.006 62.7235 164.991 62.7588 164.962 62.7851C164.933 62.8113 164.891 62.8249 164.838 62.8249C164.784 62.8249 164.739 62.8122 164.703 62.7887C164.668 62.7624 164.638 62.7253 164.611 62.6765L164.085 61.7138C164.012 61.5763 163.926 61.4849 163.83 61.4388C163.735 61.3935 163.608 61.37 163.45 61.37H162.836V62.6222C162.836 62.6855 162.819 62.7344 162.785 62.7706C162.753 62.8068 162.704 62.8249 162.639 62.8249ZM162.836 61.0624H163.727C163.99 61.0624 164.188 61.0081 164.323 60.8995C164.456 60.7891 164.524 60.6236 164.524 60.4037C164.524 60.1893 164.456 60.0273 164.323 59.9188C164.188 59.8084 163.99 59.7523 163.727 59.7523H162.836V61.0624Z" fill="black"/>
<path d="M165.857 62.8247C165.792 62.8247 165.741 62.8066 165.708 62.7704C165.676 62.7343 165.66 62.6854 165.66 62.6221V59.6001C165.66 59.535 165.676 59.4861 165.708 59.4517C165.741 59.4156 165.792 59.3975 165.857 59.3975C165.92 59.3975 165.969 59.4156 166.004 59.4517C166.037 59.4861 166.055 59.535 166.055 59.6001V62.6221C166.055 62.6854 166.037 62.7343 166.004 62.7704C165.972 62.8066 165.923 62.8247 165.857 62.8247Z" fill="black"/>
<path d="M166.825 62.8247C166.774 62.8247 166.732 62.8121 166.701 62.7885C166.672 62.765 166.655 62.7333 166.65 62.6944C166.645 62.6564 166.654 62.6103 166.676 62.5569L167.998 59.5712C168.027 59.5087 168.061 59.4644 168.1 59.4373C168.141 59.411 168.186 59.3975 168.235 59.3975C168.284 59.3975 168.328 59.411 168.367 59.4373C168.408 59.4644 168.441 59.5087 168.466 59.5712L169.795 62.5569C169.822 62.6103 169.833 62.6573 169.828 62.6981C169.823 62.7397 169.806 62.7704 169.777 62.7922C169.748 62.8139 169.708 62.8247 169.656 62.8247C169.598 62.8247 169.55 62.8103 169.514 62.7813C169.479 62.7505 169.452 62.7053 169.43 62.6474L169.072 61.8331L169.266 61.9344H167.194L167.392 61.8331L167.041 62.6474C167.012 62.7107 166.981 62.756 166.95 62.7849C166.918 62.8112 166.876 62.8247 166.825 62.8247ZM168.232 59.886L167.457 61.6956L167.34 61.6051H169.123L169.017 61.6956L168.239 59.886H168.232Z" fill="black"/>
<path d="M170.607 62.7922C170.543 62.7922 170.494 62.7741 170.457 62.738C170.423 62.7018 170.406 62.6511 170.406 62.586V59.6111C170.406 59.5441 170.422 59.4935 170.454 59.4591C170.488 59.4229 170.538 59.4048 170.604 59.4048C170.667 59.4048 170.715 59.4229 170.75 59.4591C170.783 59.4935 170.801 59.5441 170.801 59.6111V62.4484H172.379C172.437 62.4484 172.482 62.4647 172.514 62.4955C172.545 62.5244 172.562 62.567 172.562 62.6221C172.562 62.6755 172.545 62.7181 172.514 62.7488C172.482 62.7778 172.437 62.7922 172.379 62.7922H170.607Z" fill="black"/>
</svg>
