<svg width="194" height="194" viewBox="0 0 194 194" fill="none" xmlns="http://www.w3.org/2000/svg">
<circle cx="97" cy="97" r="96.2382" stroke="#8C9EAB" stroke-width="1.52356"/>
<g filter="url(#filter0_d_2109_7575)">
<path d="M67.7212 89.6898C74.3845 96.1062 85.1886 96.1062 91.8519 89.6898C91.8629 89.6792 91.8738 89.6676 91.8848 89.656L67.7552 66.4204C67.7443 66.431 67.7322 66.4415 67.7201 66.4521C61.0568 72.8685 61.0568 83.2723 67.7201 89.6887L67.7212 89.6898Z" fill="#EF802E"/>
<path d="M91.7876 66.2625C85.1827 59.8461 74.4734 59.8461 67.8686 66.2625C67.8577 66.2731 67.8468 66.2847 67.8359 66.2963L91.7538 89.5319C91.7647 89.5213 91.7767 89.5108 91.7886 89.5002C98.3935 83.0838 98.3935 72.68 91.7886 66.2636L91.7876 66.2625Z" fill="#30B5AB"/>
<path d="M91.7876 66.2625C85.1827 59.8461 74.4734 59.8461 67.8686 66.2625C67.8577 66.2731 67.8468 66.2847 67.8359 66.2963L91.7538 89.5319C91.7647 89.5213 91.7767 89.5108 91.7886 89.5002C98.3935 83.0838 98.3935 72.68 91.7886 66.2636L91.7876 66.2625Z" fill="url(#paint0_linear_2109_7575)"/>
<path d="M97 94.7505L131.534 127.802V94.7505H97ZM130.666 112.786C130.539 112.969 130.416 113.147 130.32 113.284C129.333 114.698 128.348 116.112 127.362 117.527C126.945 118.125 126.027 118.124 125.61 117.527C124.504 115.941 123.402 114.36 122.294 112.769C122.011 112.363 122.314 111.819 122.824 111.819H124.055C124.06 111.819 124.065 111.814 124.065 111.809C123.995 108.979 122.931 106.58 120.663 104.789C117.438 102.243 113.94 101.891 110.262 103.429C109.901 103.58 109.498 103.319 109.502 102.943C109.511 101.952 109.401 100.292 109.401 99.3483C109.401 98.8136 109.979 98.542 110.139 98.4965C110.96 98.263 111.794 98.0886 112.648 97.9904C113.588 97.8826 114.529 97.8604 115.472 97.9291C116.965 98.0379 118.411 98.3539 119.798 98.8981C122.796 100.075 125.144 101.993 126.828 104.638C127.866 106.268 128.524 108.035 128.772 109.934C128.846 110.506 128.869 111.084 128.916 111.659C128.92 111.705 128.925 111.753 128.931 111.816C129.197 111.816 129.452 111.817 129.707 111.816C129.822 111.816 129.967 111.816 130.124 111.816C130.644 111.816 130.956 112.372 130.666 112.786Z" fill="#EF802E"/>
<path d="M98.4258 112.106C97.903 112.106 97.5901 111.549 97.8808 111.134C98.0085 110.951 98.1328 110.773 98.2293 110.635C99.2216 109.218 100.212 107.801 101.203 106.383C101.621 105.783 102.545 105.784 102.964 106.383C104.075 107.972 105.183 109.557 106.297 111.152C106.581 111.558 106.277 112.104 105.764 112.104H104.527C104.521 112.104 104.517 112.108 104.517 112.113C104.587 114.95 105.657 117.354 107.936 119.149C111.179 121.701 114.695 122.054 118.392 120.512C118.755 120.361 119.16 120.622 119.156 120.999C119.148 121.993 119.257 123.656 119.257 124.602C119.257 125.138 118.677 125.41 118.516 125.456C117.69 125.69 116.852 125.865 115.993 125.962C115.049 126.07 114.103 126.092 113.155 126.024C111.654 125.914 110.201 125.598 108.807 125.052C105.792 123.873 103.433 121.95 101.739 119.299C100.696 117.666 100.034 115.894 99.7854 113.991C99.7111 113.418 99.6878 112.839 99.64 112.263C99.6367 112.216 99.6311 112.168 99.6256 112.105C99.3581 112.105 99.1017 112.104 98.8453 112.105C98.7299 112.105 98.5834 112.105 98.4258 112.105V112.106Z" fill="#EF802E"/>
<path d="M128.016 89.0074L102.589 64.7844C101.946 64.1715 100.908 64.1715 100.265 64.7844L100.221 64.8266C99.5722 65.4437 99.5722 66.4486 100.221 67.0657L125.651 91.2919C126.326 91.9354 127.429 91.8985 128.055 91.2106L128.097 91.1651C128.669 90.5385 128.633 89.5939 128.018 89.0074H128.016Z" fill="#3A50BF"/>
<path d="M128.627 80.5043L111.446 64.1365C111.137 63.8428 110.719 63.6769 110.284 63.6769H110.194C108.724 63.6769 107.99 65.3823 109.032 66.3756L126.302 82.829C127.342 83.8191 129.113 83.1143 129.113 81.7089V81.6244C129.113 81.2038 128.937 80.8012 128.626 80.5043H128.627Z" fill="#3A50BF"/>
<path d="M128.626 71.5112L120.884 64.1357C120.575 63.8419 120.157 63.676 119.721 63.676H119.632C118.162 63.676 117.427 65.3815 118.469 66.3748L126.3 73.8348C127.341 74.8249 129.111 74.1201 129.111 72.7148V72.6302C129.111 72.2097 128.935 71.8071 128.624 71.5102L128.626 71.5112Z" fill="#3A50BF"/>
<path d="M99.5322 84.7659L107.148 92.022C107.457 92.3158 107.875 92.4817 108.311 92.4817H108.4C109.87 92.4817 110.605 90.7762 109.563 89.783L101.857 82.4423C100.817 81.4522 99.0469 82.157 99.0469 83.5624V83.6469C99.0469 84.0674 99.2222 84.47 99.5333 84.767L99.5322 84.7659Z" fill="#3A50BF"/>
<path d="M99.5322 75.7725L116.587 92.0209C116.896 92.3146 117.314 92.4805 117.75 92.4805H117.839C119.309 92.4805 120.044 90.7751 119.002 89.7818L101.857 73.4489C100.817 72.4588 99.0469 73.1636 99.0469 74.569V74.6535C99.0469 75.074 99.2222 75.4766 99.5333 75.7736L99.5322 75.7725Z" fill="#3A50BF"/>
<path d="M128.016 89.0074L102.589 64.7844C101.946 64.1715 100.908 64.1715 100.265 64.7844L100.221 64.8266C99.5722 65.4437 99.5722 66.4486 100.221 67.0657L125.651 91.2919C126.326 91.9354 127.429 91.8985 128.055 91.2106L128.097 91.1651C128.669 90.5385 128.633 89.5939 128.018 89.0074H128.016Z" fill="url(#paint1_linear_2109_7575)"/>
<path d="M128.627 80.5043L111.446 64.1365C111.137 63.8428 110.719 63.6769 110.284 63.6769H110.194C108.724 63.6769 107.99 65.3823 109.032 66.3756L126.302 82.829C127.342 83.8191 129.113 83.1143 129.113 81.7089V81.6244C129.113 81.2038 128.937 80.8012 128.626 80.5043H128.627Z" fill="url(#paint2_linear_2109_7575)"/>
<path d="M128.626 71.5112L120.884 64.1357C120.575 63.8419 120.157 63.676 119.721 63.676H119.632C118.162 63.676 117.427 65.3815 118.469 66.3748L126.3 73.8348C127.341 74.8249 129.111 74.1201 129.111 72.7148V72.6302C129.111 72.2097 128.935 71.8071 128.624 71.5102L128.626 71.5112Z" fill="url(#paint3_linear_2109_7575)"/>
<path d="M99.5322 84.7659L107.148 92.022C107.457 92.3158 107.875 92.4817 108.311 92.4817H108.4C109.87 92.4817 110.605 90.7762 109.563 89.783L101.857 82.4423C100.817 81.4522 99.0469 82.157 99.0469 83.5624V83.6469C99.0469 84.0674 99.2222 84.47 99.5333 84.767L99.5322 84.7659Z" fill="url(#paint4_linear_2109_7575)"/>
<path d="M99.5322 75.7725L116.587 92.0209C116.896 92.3146 117.314 92.4805 117.75 92.4805H117.839C119.309 92.4805 120.044 90.7751 119.002 89.7818L101.857 73.4489C100.817 72.4588 99.0469 73.1636 99.0469 74.569V74.6535C99.0469 75.074 99.2222 75.4766 99.5333 75.7736L99.5322 75.7725Z" fill="url(#paint5_linear_2109_7575)"/>
<path d="M128.016 89.0074L102.589 64.7844C101.946 64.1715 100.908 64.1715 100.265 64.7844L100.221 64.8266C99.5722 65.4437 99.5722 66.4486 100.221 67.0657L125.651 91.2919C126.326 91.9354 127.429 91.8985 128.055 91.2106L128.097 91.1651C128.669 90.5385 128.633 89.5939 128.018 89.0074H128.016Z" fill="url(#paint6_linear_2109_7575)"/>
<path d="M128.627 80.5043L111.446 64.1365C111.137 63.8428 110.719 63.6769 110.284 63.6769H110.194C108.724 63.6769 107.99 65.3823 109.032 66.3756L126.302 82.829C127.342 83.8191 129.113 83.1143 129.113 81.7089V81.6244C129.113 81.2038 128.937 80.8012 128.626 80.5043H128.627Z" fill="url(#paint7_linear_2109_7575)"/>
<path d="M128.626 71.5112L120.884 64.1357C120.575 63.8419 120.157 63.676 119.721 63.676H119.632C118.162 63.676 117.427 65.3815 118.469 66.3748L126.3 73.8348C127.341 74.8249 129.111 74.1201 129.111 72.7148V72.6302C129.111 72.2097 128.935 71.8071 128.624 71.5102L128.626 71.5112Z" fill="url(#paint8_linear_2109_7575)"/>
<path d="M99.5322 84.7659L107.148 92.022C107.457 92.3158 107.875 92.4817 108.311 92.4817H108.4C109.87 92.4817 110.605 90.7762 109.563 89.783L101.857 82.4423C100.817 81.4522 99.0469 82.157 99.0469 83.5624V83.6469C99.0469 84.0674 99.2222 84.47 99.5333 84.767L99.5322 84.7659Z" fill="url(#paint9_linear_2109_7575)"/>
<path d="M99.5322 75.7725L116.587 92.0209C116.896 92.3146 117.314 92.4805 117.75 92.4805H117.839C119.309 92.4805 120.044 90.7751 119.002 89.7818L101.857 73.4489C100.817 72.4588 99.0469 73.1636 99.0469 74.569V74.6535C99.0469 75.074 99.2222 75.4766 99.5333 75.7736L99.5322 75.7725Z" fill="url(#paint10_linear_2109_7575)"/>
<path d="M92.2229 95.0006V109.605C92.2229 116.224 86.622 121.588 79.7141 121.588C72.8052 121.588 67.2054 116.223 67.2054 109.605V95.0006H62.4648V128.051H96.9634V95.0006H92.2229Z" fill="#30B5AB"/>
<path d="M92.2245 109.605C92.2245 116.224 86.6237 121.588 79.7158 121.588C72.8068 121.588 67.207 116.223 67.207 109.605H92.2245Z" fill="#3A50BF"/>
<path d="M92.2229 95.0006V109.605C92.2229 116.224 86.622 121.588 79.7141 121.588C72.8052 121.588 67.2054 116.223 67.2054 109.605V95.0006H62.4648V128.051H96.9634V95.0006H92.2229Z" fill="url(#paint11_linear_2109_7575)"/>
<path d="M92.2245 109.605C92.2245 116.224 86.6237 121.588 79.7158 121.588C72.8068 121.588 67.207 116.223 67.207 109.605H92.2245Z" fill="url(#paint12_linear_2109_7575)"/>
<path d="M92.2245 109.605C92.2245 116.224 86.6237 121.588 79.7158 121.588C72.8068 121.588 67.207 116.223 67.207 109.605H92.2245Z" fill="url(#paint13_linear_2109_7575)"/>
<path d="M67.7212 89.6898C74.3845 96.1062 85.1886 96.1062 91.8519 89.6898C91.8629 89.6792 91.8738 89.6676 91.8848 89.656L67.7552 66.4204C67.7443 66.431 67.7322 66.4415 67.7201 66.4521C61.0568 72.8685 61.0568 83.2723 67.7201 89.6887L67.7212 89.6898Z" fill="url(#paint14_linear_2109_7575)"/>
<path d="M88.0493 81.3504C88.0493 85.8695 84.212 89.5319 79.4797 89.5319C74.7474 89.5319 70.9102 85.8684 70.9102 81.3504C70.9102 76.8325 79.4797 66.4204 79.4797 66.4204C79.4797 66.4204 88.0493 76.8314 88.0493 81.3504Z" fill="white"/>
<path d="M97 94.7505L131.534 127.802V94.7505H97ZM130.666 112.786C130.539 112.969 130.416 113.147 130.32 113.284C129.333 114.698 128.348 116.112 127.362 117.527C126.945 118.125 126.027 118.124 125.61 117.527C124.504 115.941 123.402 114.36 122.294 112.769C122.011 112.363 122.314 111.819 122.824 111.819H124.055C124.06 111.819 124.065 111.814 124.065 111.809C123.995 108.979 122.931 106.58 120.663 104.789C117.438 102.243 113.94 101.891 110.262 103.429C109.901 103.58 109.498 103.319 109.502 102.943C109.511 101.952 109.401 100.292 109.401 99.3483C109.401 98.8136 109.979 98.542 110.139 98.4965C110.96 98.263 111.794 98.0886 112.648 97.9904C113.588 97.8826 114.529 97.8604 115.472 97.9291C116.965 98.0379 118.411 98.3539 119.798 98.8981C122.796 100.075 125.144 101.993 126.828 104.638C127.866 106.268 128.524 108.035 128.772 109.934C128.846 110.506 128.869 111.084 128.916 111.659C128.92 111.705 128.925 111.753 128.931 111.816C129.197 111.816 129.452 111.817 129.707 111.816C129.822 111.816 129.967 111.816 130.124 111.816C130.644 111.816 130.956 112.372 130.666 112.786Z" fill="url(#paint15_linear_2109_7575)"/>
<path d="M98.4258 112.03C97.903 112.03 97.5901 111.48 97.8808 111.07C98.0085 110.889 98.1328 110.713 98.2293 110.577C99.2216 109.177 100.212 107.778 101.203 106.377C101.621 105.785 102.545 105.786 102.964 106.377C104.075 107.947 105.183 109.512 106.297 111.087C106.581 111.489 106.277 112.028 105.764 112.028H104.527C104.521 112.028 104.517 112.032 104.517 112.037C104.587 114.838 105.657 117.213 107.936 118.986C111.179 121.507 114.695 121.855 118.392 120.332C118.755 120.182 119.16 120.441 119.156 120.813C119.148 121.794 119.257 123.438 119.257 124.372C119.257 124.901 118.677 125.17 118.516 125.215C117.69 125.446 116.852 125.619 115.993 125.715C115.049 125.822 114.103 125.843 113.155 125.775C111.654 125.668 110.201 125.355 108.807 124.816C105.792 123.651 103.433 121.753 101.739 119.134C100.696 117.521 100.034 115.771 99.7854 113.892C99.7111 113.326 99.6878 112.754 99.64 112.185C99.6367 112.139 99.6311 112.092 99.6256 112.029C99.3581 112.029 99.1017 112.028 98.8453 112.029C98.7299 112.029 98.5834 112.029 98.4258 112.029V112.03Z" fill="url(#paint16_linear_2109_7575)"/>
</g>
<path d="M72.4745 170.628L71.792 170.353L71.6107 159.383L71.5405 159.355L63.8031 167.133L63.1207 166.858L67.2627 156.581L67.8649 156.824L64.3235 165.611L64.3837 165.635L71.6436 158.347L72.2357 158.585L72.4128 168.871L72.473 168.895L76.0144 160.108L76.6165 160.351L72.4745 170.628Z" fill="#235D89"/>
<path d="M59.662 155.436L56.9221 160.045L56.3547 159.707L60.6014 152.564L61.1688 152.901L60.4803 154.059L60.5269 154.087C60.9136 153.818 61.3637 153.678 61.8771 153.669C62.3874 153.657 62.8967 153.803 63.4052 154.105C63.8734 154.383 64.2264 154.732 64.4644 155.15C64.7024 155.569 64.8122 156.026 64.7938 156.523C64.7736 157.023 64.6086 157.533 64.299 158.054L61.4982 162.765L60.9309 162.428L63.7178 157.74C64.0717 157.145 64.1785 156.556 64.0382 155.973C63.8929 155.392 63.5335 154.93 62.9599 154.589C62.5879 154.368 62.1955 154.248 61.7829 154.229C61.3702 154.211 60.9771 154.3 60.6037 154.498C60.2284 154.698 59.9145 155.011 59.662 155.436Z" fill="#235D89"/>
<path d="M54.9867 148.126C55.5015 148.551 55.8339 149.063 55.9838 149.664C56.1337 150.264 56.1091 150.901 55.9098 151.573C55.7054 152.246 55.3359 152.907 54.8012 153.555C54.271 154.198 53.6948 154.681 53.0726 155.005C52.4452 155.329 51.8225 155.475 51.2044 155.442C50.584 155.412 50.0178 155.186 49.5058 154.763C49.1385 154.461 48.8784 154.127 48.7255 153.762C48.5676 153.398 48.492 153.025 48.4988 152.643C48.5028 152.258 48.5698 151.888 48.6996 151.532L48.6495 151.491L45.7063 155.059L45.2012 154.643L52.2511 146.094L52.7436 146.501L51.5905 147.899L51.6531 147.951C51.9832 147.76 52.3365 147.624 52.7129 147.541C53.0871 147.462 53.469 147.463 53.8587 147.546C54.2462 147.632 54.6222 147.825 54.9867 148.126ZM54.5518 148.56C54.1177 148.202 53.6441 148.019 53.131 148.012C52.6128 148.006 52.0949 148.149 51.5773 148.442C51.0546 148.736 50.5684 149.155 50.1186 149.701C49.6688 150.246 49.3518 150.8 49.1677 151.364C48.9785 151.928 48.9387 152.461 49.0484 152.963C49.153 153.465 49.4224 153.895 49.8565 154.253C50.2962 154.616 50.7765 154.802 51.2975 154.81C51.8134 154.82 52.3315 154.679 52.8519 154.388C53.3695 154.095 53.8497 153.68 54.2926 153.143C54.7356 152.606 55.0528 152.054 55.2443 151.487C55.433 150.918 55.476 150.379 55.3732 149.868C55.2653 149.359 54.9915 148.922 54.5518 148.56Z" fill="#235D89"/>
<path d="M47.8284 141.257C48.1476 141.615 48.369 142.007 48.4926 142.433C48.6139 142.856 48.6176 143.281 48.5037 143.706C48.3874 144.128 48.1327 144.515 47.7396 144.865C47.4811 145.096 47.2127 145.253 46.9346 145.336C46.6564 145.42 46.3608 145.43 46.0477 145.366C45.7346 145.302 45.3991 145.161 45.0411 144.944C44.6805 144.729 44.2898 144.437 43.8691 144.068C43.5506 143.786 43.2635 143.537 43.0077 143.321C42.7493 143.107 42.5186 142.964 42.3157 142.894C42.1104 142.821 41.9283 142.855 41.7695 142.997L41.511 143.227C41.0586 143.63 40.8263 144.093 40.8141 144.616C40.8019 145.139 41.019 145.651 41.4653 146.152C41.8613 146.596 42.2931 146.883 42.7609 147.012C43.2235 147.141 43.6623 147.129 44.0773 146.977L44.3176 147.596C43.9158 147.741 43.517 147.79 43.1213 147.742C42.7231 147.691 42.346 147.563 41.9899 147.359C41.6313 147.151 41.3093 146.888 41.0237 146.567C40.7766 146.29 40.5804 145.991 40.4353 145.671C40.2878 145.348 40.2059 145.018 40.1896 144.68C40.1709 144.339 40.2338 144 40.3784 143.664C40.5202 143.33 40.7621 143.01 41.1041 142.705L45.4381 138.843L45.8773 139.336L44.7584 140.333L44.7908 140.369C45.1184 140.27 45.4618 140.23 45.8209 140.248C46.175 140.266 46.5262 140.357 46.8745 140.52C47.2176 140.682 47.5356 140.928 47.8284 141.257ZM47.3288 141.615C46.9832 141.227 46.583 140.968 46.1281 140.837C45.6682 140.706 45.197 140.703 44.7146 140.828C44.2322 140.954 43.781 141.204 43.3609 141.578L42.448 142.392C42.5571 142.406 42.686 142.453 42.8346 142.533C42.9782 142.613 43.1322 142.712 43.2965 142.831C43.4557 142.95 43.6194 143.08 43.7876 143.22C43.9507 143.36 44.1089 143.496 44.2621 143.63C44.7192 144.035 45.1314 144.329 45.4989 144.514C45.8613 144.698 46.1914 144.776 46.4895 144.747C46.7851 144.716 47.0608 144.586 47.3166 144.358C47.7393 143.981 47.9437 143.538 47.9295 143.029C47.9154 142.52 47.7151 142.048 47.3288 141.615Z" fill="#235D89"/>
<path d="M38.1263 138.009L42.6494 135.08L43.0082 135.634L36.0328 140.151L35.6828 139.61L36.7863 138.896L36.751 138.841C36.2849 138.911 35.8262 138.836 35.3749 138.617C34.9236 138.398 34.5372 138.04 34.2156 137.544C33.9117 137.075 33.745 136.598 33.7154 136.115C33.6839 135.628 33.7881 135.165 34.0281 134.726C34.263 134.286 34.6348 133.901 35.1434 133.572L39.7438 130.593L40.1025 131.147L35.5249 134.111C34.9315 134.496 34.5694 134.981 34.4385 135.569C34.3027 136.155 34.422 136.738 34.7964 137.316C35.0474 137.704 35.3557 137.994 35.7213 138.187C36.0869 138.38 36.4784 138.464 36.896 138.438C37.3105 138.415 37.7206 138.271 38.1263 138.009Z" fill="#235D89"/>
<path d="M36.4156 123.535C36.7048 124.18 36.7898 124.824 36.6707 125.467C36.5482 126.11 36.2527 126.703 35.7842 127.245C35.3143 127.784 34.7041 128.222 33.9537 128.558C33.2032 128.895 32.4698 129.057 31.7535 129.046C31.0371 129.036 30.3978 128.862 29.8357 128.525C29.2735 128.188 28.8493 127.7 28.5631 127.062C28.3477 126.581 28.2502 126.099 28.2706 125.615C28.2895 125.129 28.4168 124.676 28.6524 124.258C28.8866 123.837 29.2194 123.486 29.6511 123.206L29.9255 123.818C29.4563 124.147 29.1424 124.584 28.9837 125.13C28.8203 125.673 28.867 126.232 29.1237 126.804C29.3539 127.318 29.7038 127.71 30.1734 127.982C30.6398 128.255 31.178 128.393 31.7882 128.397C32.395 128.401 33.0243 128.257 33.676 127.965C34.3178 127.678 34.8436 127.307 35.2534 126.855C35.66 126.404 35.9213 125.911 36.0375 125.377C36.1537 124.843 36.0938 124.312 35.8577 123.785C35.691 123.414 35.465 123.108 35.1797 122.868C34.8928 122.625 34.5664 122.461 34.2002 122.376C33.8341 122.291 33.4536 122.298 33.0588 122.396L32.7843 121.784C33.2842 121.647 33.7694 121.627 34.2399 121.724C34.7105 121.821 35.1354 122.024 35.5147 122.332C35.894 122.641 36.1943 123.042 36.4156 123.535ZM36.3709 123.965L36.1318 123.431L36.56 123.328C36.4707 122.997 36.4794 122.694 36.5862 122.421C36.6963 122.147 36.9175 121.935 37.2499 121.786C37.6252 121.618 37.9736 121.623 38.2954 121.803C38.6157 121.98 38.8966 122.324 39.1381 122.837L38.678 123.067C38.515 122.721 38.3392 122.487 38.1505 122.366C37.9652 122.244 37.7533 122.234 37.5149 122.337C37.253 122.458 37.0994 122.636 37.054 122.87C37.0086 123.104 37.0662 123.404 37.2267 123.771L36.3709 123.965Z" fill="#235D89"/>
<path d="M33.3163 114.798C33.4434 115.26 33.4678 115.71 33.3896 116.146C33.3104 116.58 33.1254 116.962 32.8347 117.292C32.543 117.619 32.1433 117.852 31.6355 117.992C31.3016 118.084 30.9915 118.105 30.7051 118.057C30.4187 118.008 30.1494 117.886 29.8972 117.69C29.645 117.493 29.4068 117.218 29.1824 116.865C28.9546 116.512 28.7341 116.077 28.5208 115.56C28.3603 115.166 28.2134 114.816 28.0803 114.508C27.9437 114.202 27.8001 113.972 27.6495 113.819C27.498 113.662 27.3196 113.612 27.1144 113.668L26.7806 113.76C26.1963 113.921 25.7826 114.233 25.5396 114.696C25.2966 115.159 25.264 115.714 25.4417 116.361C25.5994 116.935 25.8592 117.384 26.2211 117.707C26.5786 118.027 26.9771 118.212 27.4166 118.259L27.3571 118.921C26.9325 118.873 26.5536 118.739 26.2203 118.521C25.8862 118.298 25.6049 118.016 25.3764 117.675C25.147 117.33 24.9755 116.951 24.8617 116.537C24.7633 116.179 24.7201 115.824 24.732 115.473C24.7431 115.119 24.8163 114.786 24.9517 114.476C25.0862 114.162 25.2929 113.886 25.5717 113.649C25.8471 113.412 26.2057 113.233 26.6474 113.112L32.2452 111.574L32.4201 112.21L30.975 112.607L30.9879 112.654C31.3252 112.711 31.6508 112.827 31.9647 113.003C32.2741 113.176 32.5486 113.413 32.7884 113.714C33.0237 114.012 33.1996 114.373 33.3163 114.798ZM32.7095 114.897C32.5719 114.396 32.3283 113.986 31.9788 113.667C31.6248 113.345 31.2038 113.134 30.7158 113.032C30.2278 112.931 29.7125 112.954 29.1699 113.103L27.9909 113.427C28.0824 113.488 28.1771 113.588 28.2748 113.725C28.368 113.861 28.4618 114.018 28.5561 114.198C28.646 114.375 28.7352 114.564 28.8239 114.764C28.9081 114.962 28.9891 115.154 29.067 115.342C29.2971 115.908 29.5359 116.354 29.7833 116.683C30.0262 117.009 30.2876 117.225 30.5675 117.332C30.8464 117.434 31.1511 117.441 31.4815 117.35C32.0275 117.2 32.4072 116.893 32.6204 116.431C32.8337 115.968 32.8634 115.457 32.7095 114.897Z" fill="#235D89"/>
<path d="M24.3434 102.581L24.5747 103.17C24.2849 103.301 24.0411 103.469 23.8432 103.674C23.6453 103.878 23.5029 104.123 23.4161 104.409C23.3253 104.692 23.3016 105.022 23.3451 105.398C23.415 106.003 23.6228 106.482 23.9684 106.834C24.3137 107.183 24.7281 107.329 25.2119 107.274C25.606 107.228 25.917 107.06 26.1448 106.768C26.369 106.477 26.5163 106.056 26.5869 105.503L26.7575 104.198C26.8435 103.527 27.0484 103.006 27.3722 102.634C27.6925 102.263 28.1195 102.047 28.6534 101.986C29.1085 101.933 29.5259 102.01 29.9055 102.217C30.2852 102.423 30.5988 102.734 30.8464 103.148C31.0935 103.559 31.2504 104.053 31.317 104.63C31.4059 105.4 31.2998 106.053 30.9985 106.589C30.6937 107.125 30.2126 107.502 29.5551 107.72L29.3212 107.11C29.8451 106.929 30.227 106.637 30.467 106.231C30.7031 105.823 30.7859 105.314 30.7156 104.705C30.6379 104.031 30.4157 103.507 30.0493 103.131C29.6824 102.753 29.2499 102.592 28.7519 102.649C28.3721 102.693 28.0654 102.852 27.832 103.126C27.5986 103.4 27.4495 103.791 27.3847 104.3L27.2143 105.654C27.1272 106.346 26.9222 106.882 26.5992 107.26C26.2726 107.64 25.8423 107.86 25.3084 107.921C24.8641 107.973 24.4601 107.901 24.0964 107.707C23.7327 107.513 23.4324 107.223 23.1953 106.837C22.9582 106.45 22.8093 105.993 22.7485 105.467C22.6678 104.768 22.7669 104.179 23.0456 103.7C23.3244 103.222 23.757 102.849 24.3434 102.581Z" fill="#235D89"/>
<path d="M28.975 67.7432L28.741 68.395C28.3635 68.3361 27.9767 68.3408 27.5803 68.4093C27.1806 68.4765 26.7953 68.6102 26.4245 68.8104C26.0514 69.0061 25.7173 69.2693 25.4222 69.6002C25.1271 69.9311 24.8954 70.3308 24.7271 70.7993C24.4808 71.485 24.4374 72.1822 24.5967 72.891C24.7539 73.5951 25.1234 74.2471 25.7051 74.847C26.288 75.4434 27.0904 75.9251 28.1122 76.2921C29.1407 76.6615 30.0696 76.8016 30.8988 76.7123C31.7293 76.6197 32.4291 76.3517 32.9984 75.9085C33.5655 75.4606 33.9722 74.8939 34.2184 74.2081C34.3867 73.7397 34.4639 73.2845 34.4502 72.8427C34.433 72.3996 34.3445 71.9846 34.1845 71.5975C34.0224 71.2059 33.8086 70.857 33.543 70.5508C33.2773 70.2446 32.9802 69.9942 32.6515 69.7995L32.8856 69.1477C33.2797 69.3736 33.6404 69.666 33.9675 70.0249C34.2959 70.3805 34.5625 70.7905 34.7674 71.255C34.9702 71.7149 35.0842 72.2138 35.1094 72.7518C35.1325 73.2851 35.0392 73.8437 34.8295 74.4276C34.5174 75.2966 34.0218 75.9829 33.3427 76.4863C32.6603 76.9885 31.8492 77.2836 30.9093 77.3714C29.9707 77.4559 28.9633 77.3049 27.8872 76.9184C26.8111 76.5319 25.9379 76.0075 25.2675 75.3451C24.5983 74.6794 24.1619 73.9363 23.9583 73.1158C23.7514 72.2942 23.804 71.4488 24.1161 70.5798C24.3258 69.9959 24.6109 69.5062 24.9714 69.1107C25.3298 68.7105 25.7335 68.3975 26.1825 68.1717C26.6293 67.9412 27.0925 67.7933 27.5721 67.728C28.0528 67.6592 28.5205 67.6643 28.975 67.7432Z" fill="#235D89"/>
<path d="M29.1985 59.7117L38.9328 65.005L38.6175 65.5849L28.8832 60.2916L29.1985 59.7117Z" fill="#235D89"/>
<path d="M44.1014 57.0227L37.4923 51.9848L37.8891 51.4641L44.4983 56.5021L44.1014 57.0227ZM36.522 50.8302C36.4345 50.9449 36.3178 51.0147 36.1719 51.0395C36.0282 51.0615 35.8989 51.0287 35.7842 50.9413C35.6694 50.8538 35.6036 50.7379 35.5867 50.5935C35.5698 50.4491 35.6062 50.318 35.6958 50.2004C35.7833 50.0857 35.8989 50.0173 36.0426 49.9954C36.1885 49.9705 36.3189 50.0019 36.4336 50.0893C36.5484 50.1768 36.6142 50.2927 36.6311 50.4371C36.648 50.5816 36.6116 50.7126 36.522 50.8302Z" fill="#235D89"/>
<path d="M47.6661 52.4423L41.9035 46.4545L42.3674 46.0081L43.2378 46.9125L43.2846 46.8675C43.1088 46.4559 43.0762 46.0268 43.1868 45.5799C43.2974 45.1331 43.5502 44.7196 43.9452 44.3394C44.3792 43.9217 44.8288 43.6892 45.294 43.642C45.7618 43.5923 46.2255 43.6892 46.6851 43.9327L46.728 43.8914C46.5073 43.428 46.4463 42.946 46.5452 42.4454C46.6467 41.9422 46.9196 41.4768 47.364 41.0491C47.9436 40.4914 48.5617 40.2494 49.2184 40.3232C49.8753 40.3919 50.5088 40.7433 51.1191 41.3774L54.9871 45.3966L54.5115 45.8543L50.6435 41.8351C50.1633 41.3362 49.6661 41.0588 49.1519 41.003C48.6376 40.9472 48.1492 41.142 47.6866 41.5872C47.1928 42.0624 46.9622 42.5822 46.9948 43.1466C47.0273 43.711 47.2737 44.2322 47.7339 44.7104L51.5644 48.6906L51.0888 49.1483L47.1908 45.098C46.7431 44.6328 46.2622 44.3672 45.7482 44.3012C45.2317 44.2327 44.7395 44.4235 44.2717 44.8737C43.9547 45.1788 43.7505 45.5155 43.6593 45.8836C43.5706 46.2492 43.5852 46.6207 43.703 46.9979C43.8233 47.3727 44.0424 47.7251 44.36 48.0551L48.1417 51.9846L47.6661 52.4423Z" fill="#235D89"/>
<path d="M58.8088 42.9918C58.4164 43.2678 58.0015 43.4428 57.564 43.5167C57.1295 43.5887 56.7076 43.5437 56.2983 43.3818C55.8919 43.2178 55.5372 42.9205 55.2343 42.4897C55.0351 42.2065 54.9099 41.9219 54.8587 41.636C54.8075 41.3501 54.8317 41.0553 54.9311 40.7516C55.0306 40.4479 55.2088 40.1307 55.4657 39.8001C55.7206 39.4665 56.0555 39.1119 56.4704 38.7363C56.7865 38.4522 57.0668 38.1955 57.3112 37.9662C57.5536 37.734 57.7214 37.5212 57.8146 37.3277C57.9108 37.1322 57.8977 36.9474 57.7752 36.7733L57.576 36.4901C57.2274 35.9945 56.794 35.7106 56.2759 35.6385C55.7577 35.5664 55.2242 35.7233 54.6755 36.1093C54.1887 36.4517 53.8544 36.8478 53.6725 37.2977C53.4915 37.7425 53.4529 38.1798 53.5567 38.6095L52.9139 38.7771C52.8155 38.3613 52.8129 37.9596 52.9063 37.572C53.0027 37.1823 53.1728 36.8223 53.4167 36.492C53.6636 36.1596 53.9625 35.8699 54.3136 35.623C54.6175 35.4093 54.9367 35.2487 55.2712 35.1412C55.6087 35.0317 55.9464 34.9883 56.2842 35.0108C56.6249 35.0314 56.9542 35.1327 57.272 35.3149C57.5877 35.4941 57.8773 35.7711 58.1408 36.1458L61.4807 40.8941L60.9408 41.2739L60.0786 40.048L60.0388 40.0761C60.0992 40.4128 60.0999 40.7585 60.0407 41.1132C59.9824 41.4629 59.8523 41.8014 59.6503 42.1287C59.4492 42.4509 59.1687 42.7386 58.8088 42.9918ZM58.5101 42.4544C58.935 42.1556 59.2385 41.7877 59.4207 41.3509C59.6038 40.909 59.6607 40.4413 59.5913 39.9476C59.5219 39.454 59.3254 38.9771 59.0016 38.5169L58.2982 37.5168C58.2718 37.6235 58.2103 37.7461 58.1137 37.8846C58.018 38.0181 57.9014 38.1596 57.7641 38.3092C57.6276 38.4537 57.4802 38.6015 57.3219 38.7525C57.1644 38.8985 57.0103 39.04 56.8596 39.1768C56.4055 39.5845 56.0657 39.9602 55.8401 40.3041C55.6154 40.6429 55.5003 40.962 55.4948 41.2614C55.4922 41.5586 55.5895 41.8474 55.7866 42.1277C56.1124 42.5909 56.529 42.8446 57.0365 42.889C57.5439 42.9333 58.0352 42.7885 58.5101 42.4544ZM53.5132 34.8895L53.3234 32.0993L53.9651 31.648L54.0089 34.5409L53.5132 34.8895Z" fill="#235D89"/>
<path d="M65.7348 29.185L65.9965 29.7135L62.7431 31.3244L62.4814 30.7959L65.7348 29.185ZM62.6986 28.4667L63.2852 28.1762L66.9847 35.6479C67.1352 35.9517 67.3166 36.1718 67.529 36.3081C67.743 36.4396 67.9686 36.505 68.2057 36.5043C68.4444 36.4988 68.6737 36.4416 68.8935 36.3328C69.0002 36.28 69.0883 36.2263 69.1579 36.1717C69.2307 36.1155 69.2963 36.0569 69.3546 35.9959L69.7665 36.462C69.692 36.5392 69.6054 36.6163 69.5067 36.6933C69.4096 36.7736 69.2867 36.8505 69.138 36.9241C68.8277 37.0778 68.4992 37.1539 68.1523 37.1526C67.8088 37.1496 67.4857 37.058 67.1832 36.8778C66.8806 36.6976 66.6365 36.42 66.4508 36.045L62.6986 28.4667Z" fill="#235D89"/>
<path d="M76.7641 33.8103L74.2567 25.8872L74.8809 25.6897L77.3883 33.6127L76.7641 33.8103ZM74.1274 24.3846C73.9898 24.4281 73.8542 24.4181 73.7206 24.3545C73.5904 24.2897 73.5035 24.1886 73.46 24.051C73.4165 23.9135 73.4293 23.7808 73.4986 23.6529C73.5678 23.5251 73.673 23.4389 73.8139 23.3942C73.9515 23.3507 74.0854 23.3613 74.2156 23.426C74.3492 23.4897 74.4378 23.5903 74.4813 23.7278C74.5249 23.8654 74.512 23.9981 74.4427 24.1259C74.3735 24.2538 74.2684 24.34 74.1274 24.3846Z" fill="#235D89"/>
<path d="M87.6178 31.4711C86.9191 31.579 86.2759 31.4904 85.688 31.2053C85.0996 30.9166 84.6062 30.4746 84.2076 29.8792C83.8127 29.2833 83.5524 28.5789 83.4269 27.7662C83.3013 26.9535 83.3387 26.2031 83.539 25.5153C83.7394 24.8274 84.0765 24.257 84.5503 23.8043C85.0242 23.3515 85.6069 23.0717 86.2984 22.9649C86.8189 22.8845 87.3095 22.9182 87.7703 23.0661C88.2347 23.2133 88.6371 23.4559 88.9776 23.7938C89.3217 24.1312 89.5718 24.5451 89.7278 25.0356L89.0648 25.138C88.872 24.5985 88.5336 24.1799 88.0497 23.8824C87.5688 23.5808 87.0182 23.4778 86.3979 23.5737C85.8419 23.6595 85.3706 23.8929 84.9842 24.2738C84.5972 24.6511 84.3213 25.1335 84.1566 25.721C83.9913 26.3049 83.9632 26.9498 84.0722 27.6556C84.1796 28.3507 84.3971 28.9558 84.7248 29.4708C85.052 29.9824 85.4578 30.3649 85.9423 30.6186C86.4267 30.8722 86.9541 30.955 87.5245 30.8669C87.9273 30.8047 88.282 30.6678 88.5888 30.4562C88.8991 30.244 89.1437 29.9726 89.3225 29.6421C89.5014 29.3115 89.5959 28.9429 89.6061 28.5362L90.2691 28.4338C90.2689 28.9521 90.1595 29.4252 89.9409 29.8531C89.7223 30.2811 89.4142 30.6371 89.0164 30.9211C88.6187 31.2052 88.1525 31.3885 87.6178 31.4711Z" fill="#235D89"/>
<path d="M97.0496 30.7963C96.5699 30.7963 96.1299 30.7008 95.7295 30.5096C95.3327 30.3184 95.0135 30.0389 94.7719 29.671C94.5338 29.3031 94.4148 28.8558 94.4148 28.3292C94.4148 27.9829 94.4761 27.6782 94.5987 27.4149C94.7214 27.1516 94.9107 26.9243 95.1668 26.7332C95.4229 26.542 95.7511 26.3851 96.1515 26.2624C96.5519 26.1362 97.0298 26.0388 97.5853 25.9703C98.0073 25.9198 98.3842 25.8711 98.716 25.8242C99.0479 25.7737 99.3076 25.6962 99.4951 25.5916C99.6863 25.487 99.7819 25.3283 99.7819 25.1155V24.7692C99.7819 24.1632 99.5907 23.6817 99.2084 23.3246C98.826 22.9675 98.2994 22.789 97.6285 22.789C97.0334 22.789 96.532 22.9206 96.1245 23.1839C95.7205 23.4436 95.4373 23.7791 95.275 24.1903L94.6528 23.9576C94.8115 23.5609 95.0406 23.2308 95.34 22.9675C95.6429 22.7042 95.9892 22.5077 96.3787 22.3778C96.7719 22.248 97.1831 22.183 97.6123 22.183C97.9838 22.183 98.3373 22.2353 98.6727 22.3399C99.0118 22.4445 99.313 22.6032 99.5763 22.816C99.8432 23.0289 100.054 23.3012 100.209 23.633C100.364 23.9612 100.442 24.3544 100.442 24.8125V30.6178H99.7819V29.1191H99.7332C99.5889 29.4293 99.3905 29.7125 99.138 29.9686C98.8892 30.221 98.588 30.423 98.2345 30.5745C97.8846 30.7224 97.4897 30.7963 97.0496 30.7963ZM97.1146 30.185C97.634 30.185 98.0938 30.0587 98.4942 29.8062C98.8982 29.5502 99.2138 29.2003 99.441 28.7566C99.6682 28.313 99.7819 27.8098 99.7819 27.2471V26.0244C99.6989 26.0965 99.5781 26.1615 99.4194 26.2192C99.2643 26.2733 99.0875 26.322 98.8892 26.3652C98.6944 26.4049 98.4888 26.441 98.2724 26.4735C98.0596 26.5023 97.8522 26.5294 97.6502 26.5546C97.0442 26.6267 96.5501 26.7386 96.1677 26.8901C95.789 27.0379 95.5113 27.2327 95.3345 27.4744C95.1614 27.716 95.0748 28.0082 95.0748 28.3509C95.0748 28.9171 95.2696 29.3644 95.6592 29.6926C96.0487 30.0209 96.5338 30.185 97.1146 30.185Z" fill="#235D89"/>
<path d="M111.025 25.3831L110.396 25.4502C110.346 25.1359 110.249 24.8563 110.104 24.6113C109.959 24.3663 109.761 24.1641 109.508 24.0046C109.259 23.8421 108.948 23.732 108.574 23.6742C107.971 23.5811 107.454 23.6546 107.023 23.8945C106.595 24.1351 106.344 24.4959 106.27 24.9772C106.209 25.3693 106.289 25.7137 106.51 26.0106C106.731 26.3039 107.099 26.5578 107.613 26.7722L108.826 27.2826C109.45 27.5432 109.899 27.8789 110.171 28.2896C110.444 28.6967 110.539 29.1658 110.457 29.6969C110.387 30.1497 110.202 30.5317 109.902 30.843C109.602 31.1544 109.22 31.3745 108.755 31.5034C108.293 31.6328 107.775 31.6532 107.201 31.5646C106.435 31.4462 105.833 31.1708 105.397 30.7383C104.96 30.3023 104.724 29.7385 104.689 29.0469L105.339 28.9831C105.374 29.5359 105.555 29.9818 105.883 30.3207C106.214 30.6565 106.683 30.8713 107.289 30.9649C107.959 31.0684 108.523 30.9932 108.982 30.7392C109.445 30.4858 109.714 30.1114 109.791 29.6159C109.849 29.2381 109.777 28.9003 109.575 28.6027C109.373 28.305 109.035 28.0576 108.562 27.8604L107.302 27.3372C106.657 27.0698 106.195 26.7301 105.915 26.3183C105.636 25.903 105.538 25.4297 105.62 24.8986C105.688 24.4566 105.864 24.0859 106.147 23.7867C106.431 23.4874 106.79 23.2746 107.226 23.1485C107.661 23.0223 108.141 22.9997 108.665 23.0807C109.36 23.188 109.902 23.4395 110.29 23.8352C110.677 24.2309 110.922 24.7469 111.025 25.3831Z" fill="#235D89"/>
<path d="M142.414 37.5458C142.763 36.9491 142.853 36.3315 142.685 35.6928C142.52 35.0563 142.111 34.5087 141.459 34.0501C141.02 33.7409 140.572 33.5471 140.115 33.4686C139.659 33.3902 139.235 33.4226 138.843 33.5659C138.451 33.7092 138.128 33.9623 137.872 34.3252C137.708 34.5582 137.604 34.8003 137.56 35.0514C137.521 35.3016 137.532 35.5585 137.593 35.8222C137.657 36.083 137.764 36.3479 137.914 36.6168C138.065 36.8857 138.248 37.158 138.464 37.4336L139.25 38.4229C139.517 38.7648 139.745 39.1043 139.936 39.4413C140.13 39.7803 140.266 40.119 140.346 40.4572C140.431 40.7945 140.444 41.1301 140.385 41.4639C140.33 41.7997 140.187 42.1314 139.957 42.4588C139.62 42.9368 139.196 43.2774 138.682 43.4807C138.172 43.6861 137.613 43.7382 137.005 43.6369C136.402 43.5348 135.794 43.2679 135.18 42.8363C134.596 42.4254 134.156 41.9686 133.862 41.4659C133.57 40.9653 133.422 40.4512 133.418 39.9238C133.417 39.3934 133.561 38.8866 133.853 38.4036L134.419 38.802C134.185 39.1974 134.076 39.606 134.093 40.0277C134.114 40.4485 134.249 40.8562 134.496 41.2506C134.743 41.6451 135.093 42.001 135.544 42.3185C136.031 42.6609 136.518 42.8803 137.006 42.9765C137.496 43.0698 137.951 43.0411 138.37 42.8905C138.789 42.7399 139.137 42.4669 139.415 42.0716C139.64 41.7529 139.756 41.4271 139.766 41.0941C139.775 40.7611 139.69 40.4083 139.511 40.0356C139.336 39.6649 139.076 39.2622 138.734 38.8273L137.9 37.7647C137.344 37.0514 137.009 36.377 136.896 35.7418C136.786 35.1086 136.926 34.5147 137.316 33.96C137.644 33.4939 138.058 33.168 138.559 32.9824C139.062 32.7938 139.599 32.7457 140.169 32.838C140.742 32.9324 141.297 33.1684 141.834 33.5461C142.373 33.9258 142.776 34.3657 143.042 34.8657C143.31 35.3627 143.437 35.8777 143.424 36.4108C143.412 36.9409 143.257 37.4468 142.958 37.9287L142.414 37.5458Z" fill="#235D89"/>
<path d="M142.853 49.137C142.507 48.8044 142.256 48.4304 142.1 48.015C141.947 47.6021 141.911 47.1794 141.992 46.7467C142.075 46.3166 142.3 45.9118 142.665 45.5323C142.905 45.2828 143.161 45.1057 143.431 45.0011C143.702 44.8964 143.996 44.864 144.314 44.9038C144.631 44.9437 144.976 45.0582 145.349 45.2475C145.725 45.4341 146.137 45.6954 146.585 46.0312C146.924 46.2874 147.229 46.5137 147.501 46.71C147.775 46.9038 148.016 47.028 148.224 47.0827C148.434 47.1399 148.613 47.0918 148.761 46.9385L149.001 46.689C149.421 46.2524 149.617 45.7728 149.589 45.2504C149.561 44.728 149.306 44.2342 148.822 43.769C148.393 43.3563 147.941 43.1035 147.465 43.0106C146.993 42.9176 146.557 42.9629 146.155 43.1467L145.868 42.5476C146.257 42.3718 146.651 42.2928 147.049 42.3107C147.45 42.331 147.836 42.4295 148.207 42.6061C148.58 42.7851 148.921 43.0235 149.231 43.3211C149.498 43.5788 149.717 43.8616 149.886 44.1695C150.058 44.48 150.165 44.8032 150.207 45.1391C150.252 45.4775 150.215 45.8201 150.096 46.1667C149.981 46.5108 149.764 46.8478 149.446 47.1779L145.421 51.3607L144.945 50.903L145.984 49.8232L145.949 49.7894C145.63 49.9129 145.291 49.9793 144.931 49.9888C144.577 49.9981 144.22 49.9348 143.86 49.7988C143.505 49.6628 143.17 49.4422 142.853 49.137ZM143.323 48.7415C143.698 49.1017 144.116 49.3296 144.58 49.4254C145.049 49.521 145.519 49.4877 145.99 49.3256C146.461 49.1636 146.892 48.8798 147.282 48.4744L148.13 47.5934C148.02 47.5878 147.888 47.5508 147.734 47.4823C147.585 47.4138 147.424 47.3263 147.251 47.2199C147.083 47.1134 146.91 46.9969 146.731 46.8702C146.558 46.7434 146.39 46.6191 146.227 46.4972C145.74 46.129 145.306 45.8669 144.926 45.7109C144.55 45.5549 144.215 45.5026 143.92 45.5542C143.628 45.6083 143.363 45.7587 143.125 46.0056C142.733 46.4136 142.563 46.871 142.616 47.3776C142.669 47.8842 142.905 48.3389 143.323 48.7415Z" fill="#235D89"/>
<path d="M152.775 51.6325L148.489 54.8993L148.089 54.3743L154.698 49.3364L155.089 49.8484L154.043 50.6454L154.083 50.6971C154.542 50.5918 155.005 50.6311 155.472 50.815C155.939 50.9989 156.351 51.3261 156.71 51.7965C157.049 52.2412 157.251 52.7034 157.318 53.1834C157.387 53.6662 157.318 54.1356 157.113 54.5917C156.912 55.0485 156.571 55.4606 156.089 55.8279L151.73 59.1504L151.33 58.6255L155.667 55.3194C156.229 54.8908 156.553 54.3786 156.639 53.7828C156.729 53.1876 156.566 52.6161 156.148 52.0682C155.868 51.701 155.539 51.4352 155.159 51.2708C154.78 51.1064 154.383 51.0529 153.969 51.1102C153.557 51.1654 153.159 51.3395 152.775 51.6325Z" fill="#235D89"/>
<path d="M155.386 65.5607C155.027 64.9016 154.879 64.2393 154.94 63.5738C155.001 62.9084 155.242 62.2883 155.665 61.7137C156.087 61.1391 156.661 60.6545 157.387 60.2599C158.116 59.8636 158.838 59.6435 159.553 59.5995C160.27 59.5587 160.92 59.6831 161.505 59.9729C162.09 60.2627 162.546 60.7086 162.873 61.3107C163.095 61.7194 163.223 62.1508 163.256 62.6048C163.295 63.0603 163.236 63.511 163.08 63.957C162.926 64.4061 162.675 64.8279 162.327 65.2224C161.981 65.6201 161.537 65.9663 160.995 66.2609L160.634 66.4574L157.491 60.6776L158.019 60.3907L160.846 65.5906C161.375 65.3028 161.794 64.9358 162.101 64.4894C162.409 64.043 162.587 63.5664 162.635 63.0595C162.684 62.5527 162.583 62.0679 162.331 61.6053C162.067 61.1205 161.696 60.7621 161.217 60.53C160.742 60.2994 160.215 60.1981 159.635 60.2261C159.057 60.2573 158.481 60.4224 157.909 60.7213L157.671 60.8506C157.063 61.1814 156.574 61.5848 156.205 62.0607C155.84 62.5381 155.625 63.0531 155.561 63.6057C155.499 64.1566 155.62 64.7109 155.923 65.2686C156.14 65.6679 156.392 65.9723 156.678 66.1819C156.969 66.393 157.261 66.5363 157.552 66.6118C157.844 66.6874 158.105 66.722 158.336 66.7156L158.409 67.3595C158.104 67.3813 157.766 67.3413 157.395 67.2395C157.028 67.1391 156.667 66.9538 156.31 66.6837C155.956 66.4166 155.648 66.0423 155.386 65.5607Z" fill="#235D89"/>
<path d="M159.348 74.4075C159.186 73.956 159.128 73.5095 159.172 73.0681C159.218 72.6301 159.373 72.2352 159.638 71.8834C159.903 71.535 160.284 71.2718 160.78 71.0938C161.106 70.9767 161.413 70.9314 161.702 70.9578C161.992 70.9843 162.27 71.0857 162.536 71.2621C162.803 71.4385 163.061 71.6943 163.312 72.0297C163.566 72.3638 163.819 72.7807 164.071 73.2803C164.262 73.6604 164.435 73.9987 164.591 74.2951C164.751 74.5904 164.912 74.8086 165.073 74.9497C165.237 75.0943 165.418 75.1306 165.619 75.0587L165.944 74.9416C166.515 74.7368 166.903 74.3941 167.11 73.9136C167.317 73.4331 167.307 72.8771 167.08 72.2457C166.879 71.6856 166.586 71.2582 166.2 70.9637C165.819 70.6712 165.408 70.5181 164.966 70.5044L164.974 69.8402C165.402 69.8554 165.79 69.9594 166.139 70.1522C166.489 70.3483 166.791 70.6078 167.045 70.9305C167.3 71.2566 167.5 71.6216 167.645 72.0256C167.771 72.3752 167.841 72.7256 167.856 73.0767C167.872 73.4311 167.824 73.7682 167.713 74.0879C167.603 74.4111 167.418 74.7017 167.158 74.9598C166.902 75.2168 166.558 75.4226 166.127 75.5775L160.663 77.5398L160.44 76.9186L161.85 76.412L161.834 76.3661C161.493 76.3352 161.16 76.2442 160.833 76.0932C160.512 75.9443 160.22 75.7291 159.958 75.4476C159.7 75.1683 159.497 74.8216 159.348 74.4075ZM159.946 74.2619C160.121 74.7508 160.396 75.1409 160.769 75.4324C161.146 75.726 161.582 75.9048 162.076 75.9687C162.571 76.0326 163.083 75.9694 163.612 75.7792L164.763 75.3659C164.667 75.3122 164.565 75.2204 164.457 75.0906C164.354 74.9629 164.248 74.813 164.141 74.641C164.037 74.4711 163.934 74.2898 163.83 74.097C163.731 73.9065 163.636 73.7205 163.544 73.5389C163.271 72.993 162.999 72.5657 162.727 72.2571C162.46 71.9507 162.182 71.7551 161.895 71.6705C161.609 71.5892 161.305 71.6065 160.982 71.7223C160.45 71.9137 160.094 72.2482 159.917 72.7258C159.74 73.2034 159.749 73.7154 159.946 74.2619Z" fill="#235D89"/>
<path d="M161.395 79.7506L169.554 78.1684L169.676 78.8005L168.444 79.0395L168.456 79.1032C168.897 79.1793 169.275 79.3853 169.59 79.721C169.905 80.0567 170.115 80.4937 170.219 81.0319C170.334 81.6232 170.285 82.127 170.071 82.5431C169.859 82.9627 169.525 83.2993 169.071 83.5527L169.083 83.6111C169.592 83.6778 170.029 83.8886 170.396 84.2438C170.763 84.6024 171.005 85.0845 171.123 85.69C171.276 86.4796 171.143 87.13 170.724 87.6411C170.309 88.1551 169.67 88.4959 168.806 88.6634L163.33 89.7254L163.204 89.0775L168.68 88.0154C169.36 87.8836 169.863 87.617 170.19 87.2157C170.516 86.8144 170.618 86.2986 170.496 85.6683C170.365 84.9955 170.054 84.5194 169.563 84.24C169.071 83.9605 168.5 83.884 167.848 84.0103L162.425 85.062L162.3 84.414L167.818 83.3438C168.452 83.2209 168.936 82.9616 169.271 82.566C169.61 82.1697 169.717 81.6529 169.593 81.0155C169.509 80.5835 169.338 80.2292 169.078 79.9525C168.82 79.6794 168.5 79.4897 168.119 79.3835C167.739 79.2808 167.325 79.2731 166.875 79.3603L161.521 80.3986L161.395 79.7506Z" fill="#235D89"/>
<path d="M163.294 94.6869C163.265 93.9372 163.426 93.2777 163.776 92.7084C164.126 92.1391 164.618 91.6907 165.251 91.3632C165.885 91.0357 166.614 90.8562 167.439 90.8245C168.268 90.7928 169.013 90.9158 169.674 91.1937C170.334 91.4752 170.862 91.8755 171.257 92.3946C171.652 92.9136 171.863 93.5156 171.89 94.2004C171.907 94.6653 171.83 95.1086 171.659 95.5303C171.491 95.9554 171.239 96.3333 170.901 96.6639C170.564 96.9981 170.152 97.2647 169.665 97.4639C169.178 97.6666 168.627 97.7798 168.01 97.8034L167.599 97.8192L167.347 91.245L167.947 91.222L168.174 97.1366C168.776 97.1135 169.314 96.9702 169.787 96.7066C170.261 96.443 170.632 96.0949 170.901 95.6622C171.169 95.2296 171.293 94.7502 171.273 94.224C171.252 93.6725 171.078 93.1865 170.752 92.7659C170.429 92.3487 170.001 92.024 169.469 91.7917C168.937 91.5631 168.348 91.4557 167.702 91.4696L167.432 91.48C166.74 91.5065 166.123 91.6511 165.581 91.9137C165.042 92.1798 164.621 92.546 164.318 93.0125C164.018 93.4788 163.881 94.0291 163.905 94.6634C163.922 95.1176 164.013 95.5021 164.176 95.8171C164.344 96.1356 164.541 96.3933 164.769 96.5903C164.997 96.7873 165.216 96.9342 165.425 97.0308L165.205 97.6402C164.922 97.5247 164.637 97.3389 164.35 97.0829C164.066 96.8302 163.824 96.5038 163.624 96.1036C163.425 95.7069 163.315 95.2347 163.294 94.6869Z" fill="#235D89"/>
<path d="M168.691 102.921L163.338 102.303L163.414 101.647L171.669 102.6L171.595 103.24L170.289 103.089L170.282 103.154C170.686 103.396 170.992 103.746 171.201 104.202C171.41 104.658 171.48 105.18 171.412 105.768C171.348 106.323 171.174 106.797 170.889 107.189C170.603 107.584 170.229 107.875 169.764 108.061C169.303 108.251 168.771 108.311 168.169 108.242L162.725 107.613L162.8 106.958L168.218 107.583C168.92 107.664 169.509 107.52 169.984 107.15C170.462 106.784 170.74 106.258 170.819 105.574C170.872 105.115 170.819 104.695 170.66 104.314C170.5 103.932 170.252 103.619 169.913 103.373C169.579 103.127 169.171 102.977 168.691 102.921Z" fill="#235D89"/>
<path d="M168.62 118.727L168.051 118.571L169.013 115.07L169.582 115.227L168.62 118.727ZM171.177 116.938L171.003 117.57L162.964 115.36C162.637 115.271 162.352 115.26 162.109 115.327C161.868 115.4 161.669 115.525 161.512 115.702C161.357 115.884 161.247 116.093 161.182 116.33C161.151 116.444 161.132 116.546 161.127 116.634C161.12 116.726 161.12 116.814 161.127 116.898L160.505 116.895C160.497 116.788 160.497 116.673 160.505 116.548C160.51 116.422 160.534 116.279 160.578 116.119C160.67 115.785 160.832 115.489 161.063 115.231C161.294 114.976 161.578 114.796 161.913 114.69C162.249 114.584 162.619 114.587 163.022 114.698L171.177 116.938Z" fill="#235D89"/>
<path d="M157.54 124.111C157.82 123.486 158.237 123.005 158.791 122.668C159.349 122.333 159.986 122.159 160.704 122.144C161.422 122.13 162.159 122.293 162.916 122.632C163.677 122.973 164.289 123.415 164.753 123.959C165.22 124.505 165.513 125.097 165.634 125.736C165.755 126.375 165.675 127.007 165.394 127.633C165.114 128.258 164.695 128.738 164.138 129.073C163.58 129.408 162.943 129.583 162.225 129.597C161.507 129.611 160.77 129.449 160.013 129.11C159.256 128.77 158.644 128.328 158.177 127.782C157.71 127.237 157.416 126.645 157.295 126.006C157.178 125.368 157.259 124.737 157.54 124.111ZM158.098 124.361C157.86 124.891 157.802 125.421 157.925 125.95C158.046 126.483 158.313 126.972 158.726 127.418C159.137 127.867 159.655 128.232 160.281 128.512C160.906 128.792 161.521 128.936 162.127 128.943C162.736 128.951 163.279 128.825 163.756 128.564C164.235 128.305 164.594 127.91 164.832 127.38C165.069 126.85 165.125 126.32 164.999 125.789C164.877 125.26 164.61 124.771 164.199 124.322C163.791 123.874 163.274 123.51 162.649 123.23C162.023 122.949 161.407 122.803 160.799 122.792C160.19 122.784 159.648 122.91 159.171 123.171C158.693 123.435 158.335 123.832 158.098 124.361Z" fill="#235D89"/>
<path d="M141.78 146.244L148.83 154.793L146.196 156.965C145.656 157.41 145.104 157.688 144.54 157.797C143.976 157.907 143.435 157.86 142.917 157.657C142.4 157.456 141.938 157.108 141.529 156.613C141.126 156.123 140.874 155.605 140.775 155.06C140.679 154.518 140.739 153.982 140.957 153.452C141.171 152.924 141.549 152.438 142.089 151.993L144.447 150.048L144.85 150.536L142.504 152.471C142.064 152.833 141.756 153.225 141.58 153.647C141.404 154.068 141.354 154.495 141.43 154.927C141.509 155.363 141.714 155.782 142.047 156.186C142.382 156.592 142.757 156.877 143.172 157.039C143.589 157.205 144.024 157.242 144.476 157.149C144.925 157.059 145.37 156.833 145.809 156.47L147.909 154.739L141.258 146.675L141.78 146.244ZM141.464 153.013L136.166 150.874L136.767 150.379L142.053 152.527L141.464 153.013Z" fill="#235D89"/>
<path d="M130.54 157.821L133.28 162.429L132.712 162.767L128.466 155.623L129.033 155.286L129.721 156.444L129.768 156.416C129.716 155.948 129.809 155.486 130.045 155.03C130.279 154.577 130.65 154.199 131.159 153.896C131.627 153.618 132.102 153.474 132.583 153.465C133.064 153.456 133.519 153.578 133.946 153.831C134.376 154.088 134.746 154.477 135.055 154.998L137.856 159.709L137.289 160.046L134.502 155.358C134.148 154.763 133.681 154.388 133.102 154.233C132.522 154.082 131.945 154.178 131.372 154.519C131 154.74 130.707 155.027 130.493 155.381C130.28 155.735 130.17 156.123 130.165 156.545C130.163 156.971 130.287 157.396 130.54 157.821Z" fill="#235D89"/>
<path d="M123.066 158.146L126.172 165.853L125.575 166.094L125.09 164.89L125.035 164.912C125.026 165.374 124.871 165.804 124.569 166.202C124.268 166.604 123.863 166.907 123.354 167.112C123.301 167.133 123.247 167.155 123.194 167.176C123.14 167.198 123.089 167.216 123.041 167.232L122.792 166.615C122.834 166.602 122.885 166.587 122.944 166.571C123.002 166.56 123.071 166.538 123.151 166.505C123.579 166.333 123.923 166.087 124.184 165.768C124.441 165.451 124.599 165.091 124.659 164.69C124.72 164.292 124.667 163.885 124.5 163.471L122.454 158.392L123.066 158.146Z" fill="#235D89"/>
<path d="M112.428 161.443C112.895 161.334 113.345 161.326 113.779 161.421C114.209 161.517 114.583 161.717 114.902 162.02C115.218 162.324 115.436 162.732 115.556 163.245C115.635 163.582 115.644 163.893 115.585 164.177C115.526 164.461 115.393 164.726 115.187 164.97C114.981 165.215 114.698 165.442 114.336 165.653C113.975 165.867 113.531 166.071 113.006 166.264C112.607 166.409 112.251 166.543 111.939 166.664C111.627 166.789 111.392 166.923 111.233 167.068C111.071 167.213 111.014 167.39 111.062 167.597L111.141 167.934C111.279 168.524 111.575 168.949 112.029 169.21C112.482 169.471 113.036 169.524 113.689 169.372C114.268 169.236 114.727 168.994 115.063 168.644C115.398 168.299 115.597 167.908 115.661 167.471L116.32 167.556C116.256 167.978 116.108 168.352 115.877 168.676C115.642 169.002 115.349 169.272 115 169.487C114.646 169.703 114.261 169.86 113.843 169.958C113.481 170.043 113.125 170.072 112.775 170.047C112.421 170.022 112.091 169.936 111.786 169.789C111.478 169.643 111.21 169.426 110.984 169.138C110.758 168.854 110.593 168.488 110.489 168.042L109.166 162.39L109.808 162.239L110.15 163.699L110.197 163.688C110.267 163.353 110.396 163.032 110.583 162.725C110.768 162.422 111.015 162.157 111.325 161.929C111.632 161.705 112 161.543 112.428 161.443ZM112.504 162.053C111.998 162.171 111.579 162.399 111.247 162.736C110.912 163.078 110.685 163.49 110.564 163.974C110.444 164.458 110.448 164.973 110.576 165.521L110.855 166.712C110.919 166.623 111.022 166.532 111.164 166.44C111.302 166.352 111.463 166.264 111.647 166.177C111.827 166.094 112.019 166.012 112.223 165.931C112.423 165.854 112.619 165.781 112.81 165.71C113.383 165.502 113.839 165.28 114.177 165.046C114.512 164.815 114.738 164.562 114.855 164.287C114.969 164.012 114.986 163.708 114.908 163.374C114.779 162.823 114.488 162.432 114.034 162.201C113.579 161.97 113.07 161.921 112.504 162.053Z" fill="#235D89"/>
<path d="M102.708 174.297L101.859 163.249L102.517 163.198L103.366 174.246L102.708 174.297Z" fill="#235D89"/>
<defs>
<filter id="filter0_d_2109_7575" x="60.983" y="61.4502" width="72.034" height="69.5645" filterUnits="userSpaceOnUse" color-interpolation-filters="sRGB">
<feFlood flood-opacity="0" result="BackgroundImageFix"/>
<feColorMatrix in="SourceAlpha" type="matrix" values="0 0 0 0 0 0 0 0 0 0 0 0 0 0 0 0 0 0 127 0" result="hardAlpha"/>
<feOffset dy="1.48183"/>
<feGaussianBlur stdDeviation="0.740916"/>
<feComposite in2="hardAlpha" operator="out"/>
<feColorMatrix type="matrix" values="0 0 0 0 0 0 0 0 0 0 0 0 0 0 0 0 0 0 0.25 0"/>
<feBlend mode="normal" in2="BackgroundImageFix" result="effect1_dropShadow_2109_7575"/>
<feBlend mode="normal" in="SourceGraphic" in2="effect1_dropShadow_2109_7575" result="shape"/>
</filter>
<linearGradient id="paint0_linear_2109_7575" x1="79.7936" y1="77.9149" x2="91.4403" y2="65.9262" gradientUnits="userSpaceOnUse">
<stop stop-color="white" stop-opacity="0.45"/>
<stop offset="0.38" stop-color="white" stop-opacity="0"/>
</linearGradient>
<linearGradient id="paint1_linear_2109_7575" x1="99.7333" y1="78.0381" x2="128.501" y2="78.0381" gradientUnits="userSpaceOnUse">
<stop offset="0.59" stop-opacity="0"/>
<stop offset="1" stop-opacity="0.35"/>
</linearGradient>
<linearGradient id="paint2_linear_2109_7575" x1="108.543" y1="73.4838" x2="129.113" y2="73.4838" gradientUnits="userSpaceOnUse">
<stop offset="0.59" stop-opacity="0"/>
<stop offset="1" stop-opacity="0.35"/>
</linearGradient>
<linearGradient id="paint3_linear_2109_7575" x1="117.981" y1="68.9879" x2="129.111" y2="68.9879" gradientUnits="userSpaceOnUse">
<stop offset="0.59" stop-opacity="0"/>
<stop offset="1" stop-opacity="0.35"/>
</linearGradient>
<linearGradient id="paint4_linear_2109_7575" x1="99.0458" y1="87.229" x2="110.051" y2="87.229" gradientUnits="userSpaceOnUse">
<stop offset="0.59" stop-opacity="0"/>
<stop offset="1" stop-opacity="0.35"/>
</linearGradient>
<linearGradient id="paint5_linear_2109_7575" x1="99.0458" y1="82.7328" x2="119.49" y2="82.7328" gradientUnits="userSpaceOnUse">
<stop offset="0.59" stop-opacity="0"/>
<stop offset="1" stop-opacity="0.35"/>
</linearGradient>
<linearGradient id="paint6_linear_2109_7575" x1="99.7333" y1="78.0381" x2="128.501" y2="78.0381" gradientUnits="userSpaceOnUse">
<stop stop-color="#30B5AB" stop-opacity="0.6"/>
<stop offset="0.64" stop-color="#30B5AB" stop-opacity="0"/>
</linearGradient>
<linearGradient id="paint7_linear_2109_7575" x1="108.543" y1="73.4838" x2="129.113" y2="73.4838" gradientUnits="userSpaceOnUse">
<stop stop-color="#30B5AB" stop-opacity="0.6"/>
<stop offset="0.64" stop-color="#30B5AB" stop-opacity="0"/>
</linearGradient>
<linearGradient id="paint8_linear_2109_7575" x1="117.981" y1="68.9879" x2="129.111" y2="68.9879" gradientUnits="userSpaceOnUse">
<stop stop-color="#30B5AB" stop-opacity="0.6"/>
<stop offset="0.64" stop-color="#30B5AB" stop-opacity="0"/>
</linearGradient>
<linearGradient id="paint9_linear_2109_7575" x1="99.0458" y1="87.229" x2="110.051" y2="87.229" gradientUnits="userSpaceOnUse">
<stop stop-color="#30B5AB" stop-opacity="0.6"/>
<stop offset="0.64" stop-color="#30B5AB" stop-opacity="0"/>
</linearGradient>
<linearGradient id="paint10_linear_2109_7575" x1="99.0458" y1="82.7328" x2="119.49" y2="82.7328" gradientUnits="userSpaceOnUse">
<stop stop-color="#30B5AB" stop-opacity="0.6"/>
<stop offset="0.64" stop-color="#30B5AB" stop-opacity="0"/>
</linearGradient>
<linearGradient id="paint11_linear_2109_7575" x1="62.4637" y1="111.526" x2="96.9634" y2="111.526" gradientUnits="userSpaceOnUse">
<stop offset="0.5" stop-color="white" stop-opacity="0.45"/>
<stop offset="1" stop-color="white" stop-opacity="0"/>
</linearGradient>
<linearGradient id="paint12_linear_2109_7575" x1="67.2059" y1="115.596" x2="92.2245" y2="115.596" gradientUnits="userSpaceOnUse">
<stop stop-color="white" stop-opacity="0.35"/>
<stop offset="0.38" stop-color="white" stop-opacity="0"/>
</linearGradient>
<linearGradient id="paint13_linear_2109_7575" x1="67.2059" y1="115.596" x2="92.2245" y2="115.596" gradientUnits="userSpaceOnUse">
<stop offset="0.59" stop-opacity="0"/>
<stop offset="1" stop-opacity="0.35"/>
</linearGradient>
<linearGradient id="paint14_linear_2109_7575" x1="62.7235" y1="80.4609" x2="91.8859" y2="80.4609" gradientUnits="userSpaceOnUse">
<stop offset="0.59" stop-opacity="0"/>
<stop offset="1" stop-opacity="0.25"/>
</linearGradient>
<linearGradient id="paint15_linear_2109_7575" x1="97" y1="111.276" x2="131.534" y2="111.276" gradientUnits="userSpaceOnUse">
<stop offset="0.7" stop-color="white" stop-opacity="0"/>
<stop offset="1" stop-color="white" stop-opacity="0.25"/>
</linearGradient>
<linearGradient id="paint16_linear_2109_7575" x1="97.7699" y1="115.875" x2="119.257" y2="115.875" gradientUnits="userSpaceOnUse">
<stop offset="0.59" stop-opacity="0"/>
<stop offset="1" stop-opacity="0.25"/>
</linearGradient>
</defs>
</svg>
