<svg width="1008" height="194" viewBox="0 0 1008 194" fill="none" xmlns="http://www.w3.org/2000/svg">
<path d="M976.369 83.681H1006.35V103.63H956.42V41.0674C956.42 29.9713 965.273 21 976.369 21V83.681Z" fill="#3144A2"/>
<path d="M941.632 21H948.479V103.63H928.529V34.2209C928.529 26.9022 934.313 21 941.632 21Z" fill="#3144A2"/>
<path d="M883.441 21H920.979V47.3237H901.03V41.0674H883.441V53.58H920.979V83.681C920.979 94.7771 912.008 103.63 901.03 103.63H863.492V78.6052H883.441V83.681H901.03V73.6473H883.441C872.345 73.6473 863.492 64.676 863.492 53.58V41.0674C863.492 29.9713 872.345 21 883.441 21Z" fill="#3144A2"/>
<path d="M836.729 21C847.707 21 856.679 29.9713 856.679 41.0674V103.63H836.729V73.6473H819.141V103.63H799.191V21H836.729ZM819.141 53.58H836.729V41.0674H819.141V53.58Z" fill="#3144A2"/>
<path d="M774.791 103.63L762.16 73.6473H753.779V103.63H733.83V21H766.292C777.388 21 786.359 29.9713 786.359 41.0674V53.58C786.359 59.3641 783.88 64.558 780.103 68.0993L795.331 103.63H774.791ZM753.779 41.0674V53.58H766.292V41.0674H753.779Z" fill="#3144A2"/>
<path d="M720.96 58.8919C724.973 62.5513 727.452 67.7452 727.452 73.6473V83.681C727.452 94.7771 718.481 103.63 707.503 103.63H669.965V21H702.427C713.523 21 722.494 29.9713 722.494 41.0674V51.1011C722.494 53.8161 721.904 56.413 720.96 58.8919ZM689.914 41.0674V53.58H702.427V41.0674H689.914ZM689.914 83.681H707.503V73.6473H689.914V83.681Z" fill="#3144A2"/>
<path d="M605.483 21C616.461 21 625.432 29.9713 625.432 41.0674V103.63H605.483V73.6473H587.895V103.63H567.945V21H605.483ZM587.895 53.58H605.483V41.0674H587.895V53.58Z" fill="#3144A2"/>
<path d="M550.219 41.0674H524.84V53.58H544.907V73.6473H524.84V83.681H562.378V103.63H504.891V21H562.378V28.9089C562.378 35.6374 556.948 41.0674 550.219 41.0674Z" fill="#3144A2"/>
<path d="M476.602 21H496.552V103.63H476.602L459.014 65.1482V103.63H439.064V21C451.223 21 462.319 28.2006 467.277 39.2967L476.602 59.6002V21Z" fill="#3144A2"/>
<path d="M411.241 21C422.219 21 431.19 29.9713 431.19 41.0674V103.63H411.241V73.6473H393.652V103.63H373.703V21H411.241ZM393.652 53.58H411.241V41.0674H393.652V53.58Z" fill="#3144A2"/>
<path d="M328.379 21H365.917V47.3237H345.967V41.0674H328.379V53.58H365.917V83.681C365.917 94.7771 356.946 103.63 345.967 103.63H308.43V78.6052H328.379V83.681H345.967V73.6473H328.379C317.283 73.6473 308.43 64.676 308.43 53.58V41.0674C308.43 29.9713 317.283 21 328.379 21Z" fill="#3144A2"/>
<path d="M257.23 21H264.076V103.63H244.127V34.2209C244.127 26.9022 249.911 21 257.23 21Z" fill="#3144A2"/>
<path d="M229.103 21H235.949V103.63H216V34.2209C216 26.9022 221.784 21 229.103 21Z" fill="#3144A2"/>
<path d="M238.478 143.012C236.569 143.012 234.919 142.622 233.527 141.842C232.134 141.05 231.06 139.921 230.304 138.457C229.56 136.993 229.188 135.258 229.188 133.254V126.07C229.188 124.053 229.56 122.319 230.304 120.867C231.06 119.402 232.134 118.274 233.527 117.482C234.919 116.69 236.569 116.293 238.478 116.293C240.062 116.293 241.491 116.635 242.763 117.32C244.035 117.992 245.092 118.958 245.932 120.218C246.784 121.467 247.366 122.961 247.678 124.702H243.249C243.033 123.837 242.691 123.099 242.223 122.487C241.755 121.863 241.197 121.383 240.548 121.047C239.912 120.711 239.222 120.542 238.478 120.542C236.978 120.542 235.789 121.041 234.913 122.037C234.049 123.021 233.617 124.365 233.617 126.07V133.254C233.617 134.958 234.049 136.303 234.913 137.287C235.789 138.271 236.978 138.763 238.478 138.763C239.594 138.763 240.59 138.403 241.467 137.683C242.343 136.963 242.937 135.936 243.249 134.604H247.678C247.354 136.345 246.766 137.845 245.914 139.105C245.074 140.354 244.017 141.32 242.745 142.004C241.485 142.676 240.062 143.012 238.478 143.012ZM259.543 143.012C257.035 143.012 255.09 142.304 253.71 140.888C252.342 139.459 251.657 137.455 251.657 134.874V131.831C251.657 129.275 252.342 127.294 253.71 125.89C255.09 124.486 257.035 123.783 259.543 123.783C262.052 123.783 263.99 124.486 265.359 125.89C266.739 127.294 267.429 129.275 267.429 131.831V134.928C267.429 137.497 266.739 139.489 265.359 140.906C263.99 142.31 262.052 143.012 259.543 143.012ZM259.543 138.889C260.684 138.889 261.566 138.541 262.19 137.845C262.814 137.149 263.126 136.177 263.126 134.928V131.831C263.126 130.583 262.814 129.617 262.19 128.933C261.566 128.248 260.684 127.906 259.543 127.906C258.415 127.906 257.533 128.248 256.897 128.933C256.273 129.617 255.96 130.583 255.96 131.831V134.928C255.96 136.177 256.273 137.149 256.897 137.845C257.533 138.541 258.415 138.889 259.543 138.889ZM272.291 142.742V124.053H276.594V142.742H272.291ZM283.363 142.742V131.417C283.363 130.289 283.063 129.425 282.463 128.825C281.863 128.212 281.011 127.906 279.907 127.906C278.85 127.906 278.034 128.194 277.458 128.771C276.882 129.347 276.594 130.151 276.594 131.183L276.216 127.312C276.768 126.184 277.47 125.314 278.322 124.702C279.174 124.089 280.195 123.783 281.383 123.783C283.387 123.783 284.936 124.449 286.028 125.782C287.12 127.102 287.667 128.975 287.667 131.399V142.742H283.363ZM299.334 150.34C297.893 150.34 296.597 150.076 295.445 149.548C294.304 149.032 293.422 148.3 292.798 147.351L295.697 144.705C296.141 145.257 296.675 145.683 297.299 145.983C297.935 146.295 298.595 146.451 299.28 146.451C300.48 146.451 301.44 146.115 302.16 145.443C302.88 144.783 303.241 143.846 303.241 142.634V124.053H307.544V142.184C307.544 144.777 306.829 146.781 305.401 148.198C303.973 149.626 301.95 150.34 299.334 150.34ZM298.721 143.048C296.693 143.048 295.12 142.364 294.004 140.996C292.9 139.615 292.348 137.683 292.348 135.198V131.633C292.348 129.125 292.894 127.186 293.986 125.818C295.09 124.437 296.639 123.747 298.631 123.747C299.676 123.747 300.636 124.041 301.512 124.63C302.388 125.218 303.091 126.046 303.619 127.114L303.241 131.093C303.241 130.373 303.115 129.761 302.862 129.257C302.61 128.753 302.244 128.369 301.764 128.104C301.284 127.84 300.702 127.708 300.018 127.708C298.949 127.708 298.121 128.056 297.533 128.753C296.945 129.449 296.651 130.421 296.651 131.669V135.198C296.651 136.435 296.945 137.395 297.533 138.079C298.121 138.751 298.949 139.087 300.018 139.087C300.702 139.087 301.284 138.955 301.764 138.691C302.244 138.415 302.61 138.025 302.862 137.521C303.115 137.017 303.241 136.411 303.241 135.702L303.493 139.807C303.145 140.732 302.562 141.506 301.746 142.13C300.942 142.742 299.934 143.048 298.721 143.048ZM312.765 142.742V124.053H317.248V142.742H312.765ZM323.172 128.861C322.884 128.549 322.53 128.314 322.109 128.158C321.689 127.99 321.203 127.906 320.651 127.906C319.571 127.906 318.731 128.23 318.13 128.879C317.542 129.515 317.248 130.403 317.248 131.543L316.87 127.312C317.41 126.208 318.112 125.344 318.977 124.72C319.853 124.095 320.813 123.783 321.857 123.783C322.674 123.783 323.412 123.909 324.072 124.161C324.732 124.401 325.308 124.762 325.8 125.242L323.172 128.861ZM335.973 143.012C333.32 143.012 331.262 142.286 329.797 140.834C328.333 139.381 327.601 137.317 327.601 134.64V132.534C327.601 129.749 328.303 127.594 329.707 126.07C331.112 124.546 333.092 123.783 335.649 123.783C338.061 123.783 339.928 124.672 341.248 126.448C342.569 128.212 343.229 130.703 343.229 133.92V135.144H330.536V131.993H339.232L339.214 131.795C339.094 130.499 338.728 129.491 338.115 128.771C337.503 128.038 336.681 127.672 335.649 127.672C334.365 127.672 333.362 128.08 332.642 128.897C331.934 129.701 331.58 130.847 331.58 132.336V134.712C331.58 136.128 331.964 137.221 332.732 137.989C333.5 138.745 334.581 139.123 335.973 139.123C336.681 139.123 337.377 138.991 338.061 138.727C338.758 138.451 339.382 138.073 339.934 137.593L342.743 140.222C341.794 141.11 340.726 141.8 339.538 142.292C338.362 142.772 337.173 143.012 335.973 143.012ZM354.788 143.012C353.119 143.012 351.565 142.778 350.125 142.31C348.696 141.842 347.448 141.164 346.38 140.276L348.99 137.035C349.951 137.707 350.923 138.217 351.907 138.565C352.891 138.913 353.852 139.087 354.788 139.087C356.096 139.087 357.086 138.913 357.759 138.565C358.443 138.205 358.785 137.689 358.785 137.017C358.785 136.381 358.551 135.942 358.083 135.702C357.627 135.45 357.026 135.288 356.282 135.216C355.538 135.132 354.74 135.048 353.888 134.964C353.107 134.88 352.333 134.772 351.565 134.64C350.809 134.496 350.113 134.256 349.476 133.92C348.852 133.584 348.348 133.086 347.964 132.426C347.592 131.753 347.406 130.847 347.406 129.707C347.406 127.774 348.042 126.304 349.314 125.296C350.587 124.287 352.429 123.783 354.842 123.783C356.294 123.783 357.681 123.987 359.001 124.395C360.321 124.804 361.534 125.404 362.638 126.196L360.063 129.329C359.187 128.801 358.299 128.399 357.398 128.122C356.51 127.846 355.646 127.708 354.806 127.708C353.677 127.708 352.819 127.87 352.231 128.194C351.643 128.519 351.349 128.999 351.349 129.635C351.349 130.103 351.553 130.445 351.961 130.661C352.369 130.865 352.903 131.009 353.563 131.093C354.236 131.165 354.956 131.237 355.724 131.309C356.528 131.381 357.338 131.483 358.155 131.615C358.971 131.747 359.721 131.993 360.405 132.354C361.101 132.714 361.66 133.254 362.08 133.974C362.5 134.694 362.71 135.678 362.71 136.927C362.71 138.907 362.032 140.42 360.675 141.464C359.331 142.496 357.368 143.012 354.788 143.012ZM373.909 143.012C372.24 143.012 370.686 142.778 369.245 142.31C367.817 141.842 366.569 141.164 365.501 140.276L368.111 137.035C369.071 137.707 370.044 138.217 371.028 138.565C372.012 138.913 372.972 139.087 373.909 139.087C375.217 139.087 376.207 138.913 376.879 138.565C377.564 138.205 377.906 137.689 377.906 137.017C377.906 136.381 377.672 135.942 377.204 135.702C376.747 135.45 376.147 135.288 375.403 135.216C374.659 135.132 373.861 135.048 373.008 134.964C372.228 134.88 371.454 134.772 370.686 134.64C369.93 134.496 369.233 134.256 368.597 133.92C367.973 133.584 367.469 133.086 367.085 132.426C366.713 131.753 366.527 130.847 366.527 129.707C366.527 127.774 367.163 126.304 368.435 125.296C369.708 124.287 371.55 123.783 373.963 123.783C375.415 123.783 376.801 123.987 378.122 124.395C379.442 124.804 380.654 125.404 381.759 126.196L379.184 129.329C378.308 128.801 377.42 128.399 376.519 128.122C375.631 127.846 374.767 127.708 373.927 127.708C372.798 127.708 371.94 127.87 371.352 128.194C370.764 128.519 370.47 128.999 370.47 129.635C370.47 130.103 370.674 130.445 371.082 130.661C371.49 130.865 372.024 131.009 372.684 131.093C373.357 131.165 374.077 131.237 374.845 131.309C375.649 131.381 376.459 131.483 377.276 131.615C378.092 131.747 378.842 131.993 379.526 132.354C380.222 132.714 380.78 133.254 381.201 133.974C381.621 134.694 381.831 135.678 381.831 136.927C381.831 138.907 381.153 140.42 379.796 141.464C378.452 142.496 376.489 143.012 373.909 143.012ZM393.498 143.012C390.989 143.012 389.045 142.304 387.664 140.888C386.296 139.459 385.612 137.455 385.612 134.874V131.831C385.612 129.275 386.296 127.294 387.664 125.89C389.045 124.486 390.989 123.783 393.498 123.783C396.006 123.783 397.945 124.486 399.313 125.89C400.694 127.294 401.384 129.275 401.384 131.831V134.928C401.384 137.497 400.694 139.489 399.313 140.906C397.945 142.31 396.006 143.012 393.498 143.012ZM393.498 138.889C394.638 138.889 395.52 138.541 396.144 137.845C396.769 137.149 397.081 136.177 397.081 134.928V131.831C397.081 130.583 396.769 129.617 396.144 128.933C395.52 128.248 394.638 127.906 393.498 127.906C392.369 127.906 391.487 128.248 390.851 128.933C390.227 129.617 389.915 130.583 389.915 131.831V134.928C389.915 136.177 390.227 137.149 390.851 137.845C391.487 138.541 392.369 138.889 393.498 138.889ZM420.721 116.563V142.742H416.328V116.563H420.721ZM426.302 142.742V124.053H430.605V142.742H426.302ZM437.375 142.742V131.417C437.375 130.289 437.075 129.425 436.475 128.825C435.875 128.212 435.022 127.906 433.918 127.906C432.862 127.906 432.046 128.194 431.469 128.771C430.893 129.347 430.605 130.151 430.605 131.183L430.227 127.312C430.779 126.184 431.481 125.314 432.334 124.702C433.186 124.089 434.206 123.783 435.394 123.783C437.399 123.783 438.947 124.449 440.04 125.782C441.132 127.102 441.678 128.975 441.678 131.399V142.742H437.375ZM451.941 142.832C450.344 142.832 449.186 142.406 448.466 141.554C447.746 140.702 447.386 139.477 447.386 137.881V118.616H451.689V137.287C451.689 137.731 451.779 138.079 451.959 138.331C452.139 138.583 452.403 138.709 452.751 138.709H454.245V142.832H451.941ZM445.459 127.816V124.053H454.245V127.816H445.459ZM466.758 143.012C464.106 143.012 462.047 142.286 460.583 140.834C459.119 139.381 458.386 137.317 458.386 134.64V132.534C458.386 129.749 459.089 127.594 460.493 126.07C461.897 124.546 463.878 123.783 466.434 123.783C468.847 123.783 470.713 124.672 472.034 126.448C473.354 128.212 474.014 130.703 474.014 133.92V135.144H461.321V131.993H470.017L469.999 131.795C469.879 130.499 469.513 129.491 468.901 128.771C468.289 128.038 467.467 127.672 466.434 127.672C465.15 127.672 464.148 128.08 463.428 128.897C462.719 129.701 462.365 130.847 462.365 132.336V134.712C462.365 136.128 462.749 137.221 463.518 137.989C464.286 138.745 465.366 139.123 466.758 139.123C467.467 139.123 468.163 138.991 468.847 138.727C469.543 138.451 470.167 138.073 470.719 137.593L473.528 140.222C472.58 141.11 471.512 141.8 470.323 142.292C469.147 142.772 467.959 143.012 466.758 143.012ZM478.696 142.742V124.053H483.179V142.742H478.696ZM489.102 128.861C488.814 128.549 488.46 128.314 488.04 128.158C487.62 127.99 487.134 127.906 486.582 127.906C485.501 127.906 484.661 128.23 484.061 128.879C483.473 129.515 483.179 130.403 483.179 131.543L482.801 127.312C483.341 126.208 484.043 125.344 484.907 124.72C485.783 124.095 486.744 123.783 487.788 123.783C488.604 123.783 489.342 123.909 490.002 124.161C490.663 124.401 491.239 124.762 491.731 125.242L489.102 128.861ZM494.432 142.742V124.053H498.735V142.742H494.432ZM505.504 142.742V131.417C505.504 130.289 505.204 129.425 504.604 128.825C504.004 128.212 503.152 127.906 502.048 127.906C500.991 127.906 500.175 128.194 499.599 128.771C499.023 129.347 498.735 130.151 498.735 131.183L498.357 127.312C498.909 126.184 499.611 125.314 500.463 124.702C501.315 124.089 502.336 123.783 503.524 123.783C505.528 123.783 507.077 124.449 508.169 125.782C509.261 127.102 509.807 128.975 509.807 131.399V142.742H505.504ZM525.454 142.742V130.895C525.454 129.851 525.141 129.041 524.517 128.465C523.905 127.888 523.035 127.6 521.907 127.6C521.186 127.6 520.478 127.714 519.782 127.942C519.086 128.158 518.462 128.477 517.91 128.897L515.047 126.484C515.779 125.632 516.739 124.972 517.928 124.504C519.116 124.023 520.436 123.783 521.889 123.783C524.289 123.783 526.144 124.389 527.452 125.602C528.772 126.814 529.433 128.525 529.433 130.733V142.742H525.454ZM520.556 143.012C518.42 143.012 516.811 142.538 515.731 141.59C514.663 140.642 514.129 139.189 514.129 137.233C514.129 135.372 514.669 133.986 515.749 133.074C516.829 132.149 518.45 131.687 520.61 131.687H525.616L525.868 135.036H520.628C519.788 135.036 519.152 135.216 518.72 135.576C518.288 135.936 518.072 136.489 518.072 137.233C518.072 138.013 518.348 138.595 518.9 138.979C519.464 139.351 520.298 139.537 521.402 139.537C522.747 139.537 523.755 139.387 524.427 139.087C525.111 138.787 525.454 138.319 525.454 137.683L525.832 140.348C525.628 140.96 525.261 141.464 524.733 141.86C524.217 142.244 523.599 142.532 522.879 142.724C522.159 142.916 521.384 143.012 520.556 143.012ZM542.378 143.012C539.761 143.012 537.727 142.28 536.274 140.816C534.834 139.351 534.114 137.287 534.114 134.622V132.083C534.114 129.443 534.834 127.402 536.274 125.962C537.715 124.51 539.749 123.783 542.378 123.783C543.878 123.783 545.229 124.041 546.429 124.558C547.641 125.074 548.607 125.812 549.328 126.772L546.411 129.509C545.931 128.993 545.361 128.597 544.7 128.32C544.04 128.044 543.344 127.906 542.612 127.906C541.28 127.906 540.247 128.272 539.515 129.005C538.783 129.737 538.417 130.763 538.417 132.083V134.622C538.417 135.978 538.783 137.029 539.515 137.773C540.247 138.517 541.28 138.889 542.612 138.889C543.344 138.889 544.04 138.739 544.7 138.439C545.361 138.139 545.931 137.713 546.411 137.161L549.328 140.078C548.619 141.014 547.653 141.74 546.429 142.256C545.217 142.76 543.866 143.012 542.378 143.012ZM552.893 120.867V116.563H557.178V120.867H552.893ZM552.893 142.742V124.053H557.178V142.742H552.893ZM569.619 143.012C567.11 143.012 565.166 142.304 563.785 140.888C562.417 139.459 561.733 137.455 561.733 134.874V131.831C561.733 129.275 562.417 127.294 563.785 125.89C565.166 124.486 567.11 123.783 569.619 123.783C572.127 123.783 574.066 124.486 575.434 125.89C576.815 127.294 577.505 129.275 577.505 131.831V134.928C577.505 137.497 576.815 139.489 575.434 140.906C574.066 142.31 572.127 143.012 569.619 143.012ZM569.619 138.889C570.759 138.889 571.641 138.541 572.266 137.845C572.89 137.149 573.202 136.177 573.202 134.928V131.831C573.202 130.583 572.89 129.617 572.266 128.933C571.641 128.248 570.759 127.906 569.619 127.906C568.491 127.906 567.608 128.248 566.972 128.933C566.348 129.617 566.036 130.583 566.036 131.831V134.928C566.036 136.177 566.348 137.149 566.972 137.845C567.608 138.541 568.491 138.889 569.619 138.889ZM582.366 142.742V124.053H586.669V142.742H582.366ZM593.439 142.742V131.417C593.439 130.289 593.139 129.425 592.539 128.825C591.939 128.212 591.086 127.906 589.982 127.906C588.926 127.906 588.11 128.194 587.533 128.771C586.957 129.347 586.669 130.151 586.669 131.183L586.291 127.312C586.843 126.184 587.545 125.314 588.398 124.702C589.25 124.089 590.27 123.783 591.458 123.783C593.463 123.783 595.011 124.449 596.104 125.782C597.196 127.102 597.742 128.975 597.742 131.399V142.742H593.439ZM613.388 142.742V130.895C613.388 129.851 613.076 129.041 612.452 128.465C611.84 127.888 610.969 127.6 609.841 127.6C609.121 127.6 608.413 127.714 607.717 127.942C607.02 128.158 606.396 128.477 605.844 128.897L602.981 126.484C603.714 125.632 604.674 124.972 605.862 124.504C607.05 124.023 608.371 123.783 609.823 123.783C612.224 123.783 614.078 124.389 615.387 125.602C616.707 126.814 617.367 128.525 617.367 130.733V142.742H613.388ZM608.491 143.012C606.354 143.012 604.746 142.538 603.666 141.59C602.597 140.642 602.063 139.189 602.063 137.233C602.063 135.372 602.603 133.986 603.684 133.074C604.764 132.149 606.384 131.687 608.545 131.687H613.55L613.802 135.036H608.563C607.723 135.036 607.086 135.216 606.654 135.576C606.222 135.936 606.006 136.489 606.006 137.233C606.006 138.013 606.282 138.595 606.834 138.979C607.399 139.351 608.233 139.537 609.337 139.537C610.681 139.537 611.69 139.387 612.362 139.087C613.046 138.787 613.388 138.319 613.388 137.683L613.766 140.348C613.562 140.96 613.196 141.464 612.668 141.86C612.152 142.244 611.534 142.532 610.813 142.724C610.093 142.916 609.319 143.012 608.491 143.012ZM626.892 116.563V137.251C626.892 137.695 627.006 138.043 627.234 138.295C627.462 138.547 627.786 138.673 628.206 138.673H629.484V142.796H627.144C625.703 142.796 624.581 142.364 623.777 141.5C622.985 140.636 622.588 139.417 622.588 137.845V116.563H626.892ZM653.538 142.742V116.563H657.841V142.742H653.538ZM649.019 143.048C646.991 143.048 645.418 142.364 644.302 140.996C643.198 139.615 642.646 137.683 642.646 135.198V131.633C642.646 129.125 643.192 127.186 644.284 125.818C645.388 124.437 646.937 123.747 648.929 123.747C649.973 123.747 650.934 124.041 651.81 124.63C652.686 125.218 653.388 126.046 653.916 127.114L653.538 131.093C653.538 130.373 653.412 129.761 653.16 129.257C652.908 128.753 652.542 128.369 652.062 128.104C651.582 127.84 651 127.708 650.316 127.708C649.247 127.708 648.419 128.056 647.831 128.753C647.243 129.449 646.949 130.421 646.949 131.669V135.198C646.949 136.435 647.243 137.395 647.831 138.079C648.419 138.751 649.247 139.087 650.316 139.087C651 139.087 651.582 138.955 652.062 138.691C652.542 138.415 652.908 138.025 653.16 137.521C653.412 137.017 653.538 136.411 653.538 135.702L653.79 139.807C653.442 140.732 652.86 141.506 652.044 142.13C651.24 142.742 650.231 143.048 649.019 143.048ZM670.895 143.012C668.242 143.012 666.184 142.286 664.719 140.834C663.255 139.381 662.523 137.317 662.523 134.64V132.534C662.523 129.749 663.225 127.594 664.629 126.07C666.034 124.546 668.014 123.783 670.571 123.783C672.983 123.783 674.85 124.672 676.17 126.448C677.49 128.212 678.151 130.703 678.151 133.92V135.144H665.457V131.993H674.154L674.136 131.795C674.016 130.499 673.649 129.491 673.037 128.771C672.425 128.038 671.603 127.672 670.571 127.672C669.286 127.672 668.284 128.08 667.564 128.897C666.856 129.701 666.502 130.847 666.502 132.336V134.712C666.502 136.128 666.886 137.221 667.654 137.989C668.422 138.745 669.502 139.123 670.895 139.123C671.603 139.123 672.299 138.991 672.983 138.727C673.68 138.451 674.304 138.073 674.856 137.593L677.665 140.222C676.716 141.11 675.648 141.8 674.46 142.292C673.283 142.772 672.095 143.012 670.895 143.012ZM701.143 143.012C699.882 143.012 698.67 142.892 697.506 142.652C696.353 142.4 695.273 142.034 694.265 141.554C693.257 141.074 692.326 140.48 691.474 139.771L693.761 136.333C694.769 137.185 695.897 137.833 697.146 138.277C698.406 138.709 699.738 138.925 701.143 138.925C702.895 138.925 704.251 138.613 705.212 137.989C706.184 137.365 706.67 136.483 706.67 135.342V135.324C706.67 134.448 706.424 133.776 705.932 133.308C705.452 132.84 704.815 132.498 704.023 132.282C703.231 132.053 702.367 131.861 701.431 131.705C700.434 131.549 699.42 131.357 698.388 131.129C697.368 130.889 696.425 130.523 695.561 130.031C694.709 129.527 694.019 128.813 693.491 127.888C692.974 126.952 692.716 125.71 692.716 124.161V124.143C692.716 121.647 693.539 119.714 695.183 118.346C696.839 116.978 699.174 116.293 702.187 116.293C703.591 116.293 704.996 116.527 706.4 116.996C707.804 117.452 709.143 118.13 710.415 119.03L708.326 122.577C707.318 121.845 706.292 121.299 705.248 120.939C704.203 120.567 703.183 120.38 702.187 120.38C700.53 120.38 699.246 120.687 698.334 121.299C697.434 121.899 696.983 122.751 696.983 123.855V123.873C696.983 124.786 697.248 125.482 697.776 125.962C698.316 126.43 699.012 126.778 699.864 127.006C700.728 127.234 701.659 127.45 702.655 127.654C703.639 127.846 704.617 128.08 705.59 128.357C706.574 128.633 707.468 129.029 708.272 129.545C709.077 130.061 709.719 130.775 710.199 131.687C710.691 132.588 710.937 133.764 710.937 135.216V135.252C710.937 137.725 710.079 139.639 708.362 140.996C706.658 142.34 704.251 143.012 701.143 143.012ZM725.881 142.742V130.895C725.881 129.851 725.569 129.041 724.945 128.465C724.332 127.888 723.462 127.6 722.334 127.6C721.614 127.6 720.906 127.714 720.209 127.942C719.513 128.158 718.889 128.477 718.337 128.897L715.474 126.484C716.206 125.632 717.167 124.972 718.355 124.504C719.543 124.023 720.864 123.783 722.316 123.783C724.717 123.783 726.571 124.389 727.879 125.602C729.2 126.814 729.86 128.525 729.86 130.733V142.742H725.881ZM720.984 143.012C718.847 143.012 717.239 142.538 716.158 141.59C715.09 140.642 714.556 139.189 714.556 137.233C714.556 135.372 715.096 133.986 716.176 133.074C717.257 132.149 718.877 131.687 721.038 131.687H726.043L726.295 135.036H721.056C720.215 135.036 719.579 135.216 719.147 135.576C718.715 135.936 718.499 136.489 718.499 137.233C718.499 138.013 718.775 138.595 719.327 138.979C719.891 139.351 720.726 139.537 721.83 139.537C723.174 139.537 724.182 139.387 724.855 139.087C725.539 138.787 725.881 138.319 725.881 137.683L726.259 140.348C726.055 140.96 725.689 141.464 725.161 141.86C724.645 142.244 724.026 142.532 723.306 142.724C722.586 142.916 721.812 143.012 720.984 143.012ZM735.081 142.742V124.053H739.384V142.742H735.081ZM746.154 142.742V131.417C746.154 130.289 745.854 129.425 745.254 128.825C744.654 128.212 743.801 127.906 742.697 127.906C741.641 127.906 740.825 128.194 740.249 128.771C739.672 129.347 739.384 130.151 739.384 131.183L739.006 127.312C739.558 126.184 740.261 125.314 741.113 124.702C741.965 124.089 742.985 123.783 744.174 123.783C746.178 123.783 747.726 124.449 748.819 125.782C749.911 127.102 750.457 128.975 750.457 131.399V142.742H746.154ZM763.511 143.012C760.858 143.012 758.799 142.286 757.335 140.834C755.871 139.381 755.138 137.317 755.138 134.64V132.534C755.138 129.749 755.841 127.594 757.245 126.07C758.649 124.546 760.63 123.783 763.186 123.783C765.599 123.783 767.466 124.672 768.786 126.448C770.106 128.212 770.766 130.703 770.766 133.92V135.144H758.073V131.993H766.769L766.751 131.795C766.631 130.499 766.265 129.491 765.653 128.771C765.041 128.038 764.219 127.672 763.186 127.672C761.902 127.672 760.9 128.08 760.18 128.897C759.472 129.701 759.117 130.847 759.117 132.336V134.712C759.117 136.128 759.502 137.221 760.27 137.989C761.038 138.745 762.118 139.123 763.511 139.123C764.219 139.123 764.915 138.991 765.599 138.727C766.295 138.451 766.919 138.073 767.472 137.593L770.28 140.222C769.332 141.11 768.264 141.8 767.075 142.292C765.899 142.772 764.711 143.012 763.511 143.012ZM785.872 142.742V130.895C785.872 129.851 785.56 129.041 784.936 128.465C784.324 127.888 783.454 127.6 782.325 127.6C781.605 127.6 780.897 127.714 780.201 127.942C779.505 128.158 778.88 128.477 778.328 128.897L775.466 126.484C776.198 125.632 777.158 124.972 778.346 124.504C779.535 124.023 780.855 123.783 782.307 123.783C784.708 123.783 786.562 124.389 787.871 125.602C789.191 126.814 789.851 128.525 789.851 130.733V142.742H785.872ZM780.975 143.012C778.838 143.012 777.23 142.538 776.15 141.59C775.081 140.642 774.547 139.189 774.547 137.233C774.547 135.372 775.087 133.986 776.168 133.074C777.248 132.149 778.868 131.687 781.029 131.687H786.034L786.286 135.036H781.047C780.207 135.036 779.571 135.216 779.139 135.576C778.706 135.936 778.49 136.489 778.49 137.233C778.49 138.013 778.766 138.595 779.319 138.979C779.883 139.351 780.717 139.537 781.821 139.537C783.166 139.537 784.174 139.387 784.846 139.087C785.53 138.787 785.872 138.319 785.872 137.683L786.25 140.348C786.046 140.96 785.68 141.464 785.152 141.86C784.636 142.244 784.018 142.532 783.298 142.724C782.577 142.916 781.803 143.012 780.975 143.012ZM817.128 142.742V131.687C817.128 130.487 816.828 129.557 816.228 128.897C815.628 128.236 814.776 127.906 813.671 127.906C812.627 127.906 811.817 128.224 811.241 128.861C810.677 129.497 810.395 130.391 810.395 131.543L809.566 127.582C810.167 126.358 810.941 125.422 811.889 124.774C812.849 124.113 813.905 123.783 815.058 123.783C817.086 123.783 818.653 124.474 819.757 125.854C820.873 127.222 821.431 129.161 821.431 131.669V142.742H817.128ZM795.073 142.742V124.053H799.376V142.742H795.073ZM806.109 142.742V131.687C806.109 130.487 805.809 129.557 805.209 128.897C804.621 128.236 803.781 127.906 802.689 127.906C801.632 127.906 800.816 128.194 800.24 128.771C799.664 129.347 799.376 130.151 799.376 131.183L798.998 127.312C799.55 126.184 800.264 125.314 801.14 124.702C802.016 124.089 803.025 123.783 804.165 123.783C806.145 123.783 807.676 124.474 808.756 125.854C809.848 127.222 810.395 129.161 810.395 131.669V142.742H806.109ZM834.485 143.012C831.832 143.012 829.774 142.286 828.309 140.834C826.845 139.381 826.113 137.317 826.113 134.64V132.534C826.113 129.749 826.815 127.594 828.219 126.07C829.623 124.546 831.604 123.783 834.161 123.783C836.573 123.783 838.44 124.672 839.76 126.448C841.08 128.212 841.741 130.703 841.741 133.92V135.144H829.047V131.993H837.744L837.726 131.795C837.606 130.499 837.239 129.491 836.627 128.771C836.015 128.038 835.193 127.672 834.161 127.672C832.876 127.672 831.874 128.08 831.154 128.897C830.446 129.701 830.092 130.847 830.092 132.336V134.712C830.092 136.128 830.476 137.221 831.244 137.989C832.012 138.745 833.092 139.123 834.485 139.123C835.193 139.123 835.889 138.991 836.573 138.727C837.269 138.451 837.894 138.073 838.446 137.593L841.254 140.222C840.306 141.11 839.238 141.8 838.05 142.292C836.873 142.772 835.685 143.012 834.485 143.012ZM846.422 142.742V124.053H850.725V142.742H846.422ZM857.495 142.742V131.417C857.495 130.289 857.195 129.425 856.594 128.825C855.994 128.212 855.142 127.906 854.038 127.906C852.981 127.906 852.165 128.194 851.589 128.771C851.013 129.347 850.725 130.151 850.725 131.183L850.347 127.312C850.899 126.184 851.601 125.314 852.453 124.702C853.306 124.089 854.326 123.783 855.514 123.783C857.519 123.783 859.067 124.449 860.159 125.782C861.252 127.102 861.798 128.975 861.798 131.399V142.742H857.495ZM872.06 142.832C870.464 142.832 869.306 142.406 868.585 141.554C867.865 140.702 867.505 139.477 867.505 137.881V118.616H871.808V137.287C871.808 137.731 871.898 138.079 872.078 138.331C872.258 138.583 872.522 138.709 872.871 138.709H874.365V142.832H872.06ZM865.579 127.816V124.053H874.365V127.816H865.579ZM886.392 143.012C883.883 143.012 881.939 142.304 880.559 140.888C879.19 139.459 878.506 137.455 878.506 134.874V131.831C878.506 129.275 879.19 127.294 880.559 125.89C881.939 124.486 883.883 123.783 886.392 123.783C888.901 123.783 890.839 124.486 892.208 125.89C893.588 127.294 894.278 129.275 894.278 131.831V134.928C894.278 137.497 893.588 139.489 892.208 140.906C890.839 142.31 888.901 143.012 886.392 143.012ZM886.392 138.889C887.532 138.889 888.415 138.541 889.039 137.845C889.663 137.149 889.975 136.177 889.975 134.928V131.831C889.975 130.583 889.663 129.617 889.039 128.933C888.415 128.248 887.532 127.906 886.392 127.906C885.264 127.906 884.382 128.248 883.745 128.933C883.121 129.617 882.809 130.583 882.809 131.831V134.928C882.809 136.177 883.121 137.149 883.745 137.845C884.382 138.541 885.264 138.889 886.392 138.889ZM911.184 131.939V127.816H920.205C921.129 127.816 921.867 127.492 922.419 126.844C922.971 126.184 923.253 125.314 923.265 124.233C923.265 123.165 922.983 122.307 922.419 121.659C921.867 120.999 921.129 120.669 920.205 120.669H911.184V116.545H920.331C921.819 116.545 923.115 116.864 924.22 117.5C925.336 118.136 926.2 119.03 926.812 120.182C927.437 121.335 927.749 122.685 927.749 124.233C927.749 125.782 927.437 127.132 926.812 128.284C926.188 129.437 925.324 130.337 924.22 130.985C923.115 131.621 921.819 131.939 920.331 131.939H911.184ZM909.402 142.742V116.545H913.705V142.742H909.402ZM923.68 142.742L917.504 131.129L921.969 130.301L928.847 142.742H923.68ZM943.557 142.742V124.053H947.842V142.742H943.557ZM936.859 124.053V135.414C936.859 136.519 937.153 137.377 937.741 137.989C938.329 138.589 939.158 138.889 940.226 138.889C941.294 138.889 942.116 138.601 942.692 138.025C943.269 137.449 943.557 136.633 943.557 135.576L943.809 139.573C943.485 140.462 942.915 141.26 942.098 141.968C941.294 142.664 940.238 143.012 938.929 143.012C936.901 143.012 935.329 142.358 934.212 141.05C933.108 139.729 932.556 137.881 932.556 135.504V124.053H936.859ZM953.081 142.742V124.053H957.564V142.742H953.081ZM963.488 128.861C963.2 128.549 962.846 128.314 962.426 128.158C962.005 127.99 961.519 127.906 960.967 127.906C959.887 127.906 959.047 128.23 958.446 128.879C957.858 129.515 957.564 130.403 957.564 131.543L957.186 127.312C957.726 126.208 958.428 125.344 959.293 124.72C960.169 124.095 961.129 123.783 962.173 123.783C962.99 123.783 963.728 123.909 964.388 124.161C965.048 124.401 965.624 124.762 966.116 125.242L963.488 128.861ZM979.242 142.742V130.895C979.242 129.851 978.93 129.041 978.306 128.465C977.693 127.888 976.823 127.6 975.695 127.6C974.975 127.6 974.267 127.714 973.57 127.942C972.874 128.158 972.25 128.477 971.698 128.897L968.835 126.484C969.567 125.632 970.528 124.972 971.716 124.504C972.904 124.023 974.225 123.783 975.677 123.783C978.078 123.783 979.932 124.389 981.24 125.602C982.561 126.814 983.221 128.525 983.221 130.733V142.742H979.242ZM974.345 143.012C972.208 143.012 970.6 142.538 969.519 141.59C968.451 140.642 967.917 139.189 967.917 137.233C967.917 135.372 968.457 133.986 969.537 133.074C970.618 132.149 972.238 131.687 974.399 131.687H979.404L979.656 135.036H974.417C973.576 135.036 972.94 135.216 972.508 135.576C972.076 135.936 971.86 136.489 971.86 137.233C971.86 138.013 972.136 138.595 972.688 138.979C973.252 139.351 974.086 139.537 975.191 139.537C976.535 139.537 977.543 139.387 978.216 139.087C978.9 138.787 979.242 138.319 979.242 137.683L979.62 140.348C979.416 140.96 979.05 141.464 978.522 141.86C978.006 142.244 977.387 142.532 976.667 142.724C975.947 142.916 975.173 143.012 974.345 143.012ZM992.745 116.563V137.251C992.745 137.695 992.859 138.043 993.087 138.295C993.315 138.547 993.64 138.673 994.06 138.673H995.338V142.796H992.997C991.557 142.796 990.435 142.364 989.631 141.5C988.838 140.636 988.442 139.417 988.442 137.845V116.563H992.745Z" fill="#3144A2"/>
<path d="M225.521 168.487L231.15 155.831H233.668V175H231.044V160.643L231.176 161.487L226.457 172.337H224.584L219.865 161.75L219.997 160.643V175H217.373V155.831H219.891L225.521 168.487ZM246.403 175V161.315H249.08V175H246.403ZM240.84 161.315V169.634C240.84 170.592 241.082 171.335 241.565 171.862C242.057 172.381 242.747 172.64 243.635 172.64C244.522 172.64 245.204 172.407 245.678 171.941C246.162 171.467 246.403 170.803 246.403 169.951L246.588 172.812C246.342 173.427 245.911 173.98 245.296 174.473C244.681 174.956 243.876 175.198 242.883 175.198C241.372 175.198 240.203 174.714 239.376 173.748C238.559 172.772 238.15 171.401 238.15 169.634V161.315H240.84ZM260.958 175V155.831H263.647V175H260.958ZM257.517 175.237C256.005 175.237 254.836 174.754 254.01 173.787C253.193 172.812 252.784 171.44 252.784 169.674V166.655C252.784 164.879 253.184 163.508 253.984 162.542C254.792 161.566 255.926 161.078 257.385 161.078C258.194 161.078 258.932 161.289 259.6 161.711C260.277 162.133 260.822 162.726 261.235 163.491L260.958 166.286C260.958 165.706 260.853 165.209 260.642 164.796C260.431 164.383 260.123 164.071 259.719 163.86C259.323 163.64 258.84 163.53 258.269 163.53C257.381 163.53 256.691 163.807 256.199 164.361C255.715 164.915 255.474 165.692 255.474 166.694V169.674C255.474 170.667 255.715 171.436 256.199 171.981C256.691 172.517 257.381 172.785 258.269 172.785C258.84 172.785 259.323 172.675 259.719 172.456C260.123 172.227 260.431 171.902 260.642 171.48C260.853 171.058 260.958 170.553 260.958 169.964L261.143 172.851C260.896 173.466 260.47 174.02 259.864 174.512C259.266 174.996 258.484 175.237 257.517 175.237ZM275.46 175V166.325C275.46 165.429 275.218 164.734 274.735 164.242C274.26 163.741 273.583 163.491 272.705 163.491C272.168 163.491 271.637 163.574 271.109 163.741C270.591 163.899 270.125 164.132 269.712 164.44L267.748 163.095C268.266 162.471 268.947 161.988 269.791 161.645C270.644 161.293 271.588 161.118 272.625 161.118C274.339 161.118 275.667 161.562 276.607 162.449C277.547 163.337 278.018 164.589 278.018 166.207V175H275.46ZM272.111 175.198C270.433 175.198 269.171 174.851 268.328 174.156C267.493 173.462 267.075 172.398 267.075 170.966C267.075 169.604 267.458 168.588 268.222 167.92C268.996 167.244 270.151 166.905 271.689 166.905H275.579L275.763 169.067H271.703C271.008 169.067 270.485 169.226 270.134 169.542C269.782 169.85 269.606 170.324 269.606 170.966C269.606 171.66 269.839 172.174 270.305 172.508C270.771 172.842 271.47 173.009 272.401 173.009C273.421 173.009 274.186 172.899 274.695 172.68C275.205 172.46 275.46 172.117 275.46 171.651L275.737 173.576C275.5 173.945 275.205 174.249 274.854 174.486C274.502 174.723 274.098 174.899 273.641 175.013C273.192 175.136 272.683 175.198 272.111 175.198ZM282.104 175V161.315H284.794V175H282.104ZM290.41 175V166.708C290.41 165.741 290.16 164.994 289.659 164.466C289.167 163.939 288.463 163.675 287.549 163.675C286.67 163.675 285.989 163.908 285.506 164.374C285.031 164.84 284.794 165.495 284.794 166.338L284.517 163.702C284.939 162.875 285.488 162.238 286.165 161.79C286.851 161.342 287.606 161.118 288.433 161.118C289.918 161.118 291.065 161.605 291.874 162.581C292.691 163.548 293.1 164.919 293.1 166.694V175H290.41ZM302.71 175.198C300.83 175.198 299.371 174.679 298.333 173.642C297.305 172.605 296.791 171.142 296.791 169.252V166.998C296.791 165.125 297.305 163.68 298.333 162.66C299.371 161.632 300.83 161.118 302.71 161.118C303.783 161.118 304.75 161.307 305.611 161.685C306.472 162.062 307.158 162.603 307.667 163.306L305.729 165.046C305.352 164.607 304.903 164.269 304.385 164.031C303.866 163.794 303.321 163.675 302.75 163.675C301.713 163.675 300.909 163.965 300.337 164.545C299.766 165.125 299.48 165.943 299.48 166.998V169.252C299.48 170.333 299.766 171.168 300.337 171.757C300.909 172.346 301.713 172.64 302.75 172.64C303.321 172.64 303.866 172.513 304.385 172.258C304.903 172.003 305.352 171.643 305.729 171.177L307.667 173.049C307.158 173.734 306.468 174.266 305.598 174.644C304.736 175.013 303.774 175.198 302.71 175.198ZM302.025 180.563C301.146 180.563 300.421 180.484 299.85 180.326L300.403 178.48C300.825 178.604 301.243 178.665 301.656 178.665C302.614 178.665 303.093 178.441 303.093 177.993C303.093 177.773 302.935 177.61 302.618 177.505C302.302 177.399 301.818 177.347 301.168 177.347L302.315 175.817C303.352 175.817 304.125 176.011 304.635 176.397C305.154 176.793 305.413 177.386 305.413 178.177C305.413 178.977 305.132 179.575 304.569 179.97C304.007 180.366 303.159 180.563 302.025 180.563ZM300.957 177.347V173.8H303.146V177.347H300.957ZM318.359 175V166.325C318.359 165.429 318.118 164.734 317.634 164.242C317.16 163.741 316.483 163.491 315.604 163.491C315.068 163.491 314.536 163.574 314.009 163.741C313.49 163.899 313.024 164.132 312.611 164.44L310.647 163.095C311.166 162.471 311.847 161.988 312.69 161.645C313.543 161.293 314.488 161.118 315.525 161.118C317.239 161.118 318.566 161.562 319.506 162.449C320.447 163.337 320.917 164.589 320.917 166.207V175H318.359ZM315.011 175.198C313.332 175.198 312.071 174.851 311.227 174.156C310.392 173.462 309.975 172.398 309.975 170.966C309.975 169.604 310.357 168.588 311.122 167.92C311.895 167.244 313.051 166.905 314.589 166.905H318.478L318.663 169.067H314.602C313.908 169.067 313.385 169.226 313.033 169.542C312.682 169.85 312.506 170.324 312.506 170.966C312.506 171.66 312.739 172.174 313.205 172.508C313.67 172.842 314.369 173.009 315.301 173.009C316.32 173.009 317.085 172.899 317.595 172.68C318.104 172.46 318.359 172.117 318.359 171.651L318.636 173.576C318.399 173.945 318.104 174.249 317.753 174.486C317.401 174.723 316.997 174.899 316.54 175.013C316.092 175.136 315.582 175.198 315.011 175.198ZM329.842 175.198C328.629 175.198 327.526 175.022 326.533 174.67C325.549 174.31 324.666 173.774 323.883 173.062L325.479 171.098C326.226 171.66 326.959 172.082 327.68 172.363C328.41 172.645 329.13 172.785 329.842 172.785C330.906 172.785 331.701 172.623 332.229 172.297C332.765 171.963 333.033 171.467 333.033 170.808C333.033 170.298 332.853 169.938 332.492 169.727C332.141 169.516 331.675 169.379 331.095 169.318C330.523 169.248 329.908 169.19 329.249 169.146C328.695 169.103 328.146 169.037 327.601 168.949C327.056 168.852 326.56 168.685 326.111 168.448C325.663 168.202 325.303 167.841 325.03 167.367C324.767 166.892 324.635 166.255 324.635 165.455C324.635 164.005 325.079 162.919 325.966 162.199C326.854 161.478 328.177 161.118 329.935 161.118C331.007 161.118 332.004 161.263 332.927 161.553C333.85 161.843 334.716 162.287 335.524 162.884L333.903 164.849C333.217 164.409 332.541 164.08 331.873 163.86C331.213 163.64 330.567 163.53 329.935 163.53C329.021 163.53 328.335 163.688 327.878 164.005C327.421 164.312 327.192 164.778 327.192 165.402C327.192 165.815 327.351 166.114 327.667 166.299C327.983 166.475 328.401 166.589 328.919 166.642C329.438 166.694 329.996 166.743 330.594 166.787C331.165 166.822 331.741 166.888 332.321 166.984C332.91 167.072 333.45 167.248 333.942 167.512C334.435 167.775 334.83 168.167 335.129 168.685C335.428 169.204 335.577 169.911 335.577 170.808C335.577 172.275 335.098 173.374 334.14 174.104C333.191 174.833 331.758 175.198 329.842 175.198ZM352.795 175.198C351.459 175.198 350.29 174.903 349.288 174.314C348.286 173.717 347.508 172.882 346.955 171.81C346.401 170.737 346.124 169.485 346.124 168.052V162.792C346.124 161.351 346.401 160.094 346.955 159.021C347.508 157.949 348.286 157.119 349.288 156.53C350.29 155.932 351.459 155.633 352.795 155.633C353.902 155.633 354.913 155.871 355.827 156.345C356.75 156.82 357.519 157.483 358.134 158.336C358.758 159.188 359.18 160.186 359.4 161.329H356.645C356.478 160.713 356.196 160.177 355.801 159.72C355.414 159.254 354.957 158.894 354.43 158.639C353.902 158.384 353.357 158.257 352.795 158.257C351.617 158.257 350.668 158.674 349.947 159.509C349.235 160.335 348.879 161.43 348.879 162.792V168.052C348.879 169.415 349.235 170.509 349.947 171.335C350.668 172.161 351.617 172.574 352.795 172.574C353.63 172.574 354.417 172.311 355.155 171.783C355.893 171.256 356.39 170.496 356.645 169.502H359.4C359.18 170.645 358.758 171.643 358.134 172.495C357.51 173.348 356.741 174.011 355.827 174.486C354.913 174.96 353.902 175.198 352.795 175.198ZM365.662 155.831V171.467C365.662 171.792 365.732 172.047 365.873 172.231C366.022 172.416 366.229 172.508 366.493 172.508H367.758V175.066H366.176C365.166 175.066 364.379 174.75 363.816 174.117C363.254 173.484 362.973 172.592 362.973 171.44V155.831H365.662ZM370.804 158.521V155.831H373.493V158.521H370.804ZM370.804 175V161.315H373.493V175H370.804ZM393.928 175V166.708C393.928 165.741 393.677 164.994 393.176 164.466C392.684 163.939 391.981 163.675 391.067 163.675C390.232 163.675 389.586 163.93 389.129 164.44C388.672 164.95 388.443 165.67 388.443 166.602L387.903 163.965C388.342 163.051 388.914 162.348 389.617 161.856C390.32 161.364 391.098 161.118 391.95 161.118C393.436 161.118 394.583 161.605 395.391 162.581C396.208 163.548 396.617 164.919 396.617 166.694V175H393.928ZM377.58 175V161.315H380.27V175H377.58ZM385.754 175V166.708C385.754 165.741 385.517 164.994 385.042 164.466C384.567 163.939 383.895 163.675 383.025 163.675C382.146 163.675 381.465 163.908 380.981 164.374C380.507 164.84 380.27 165.495 380.27 166.338L379.993 163.702C380.415 162.875 380.964 162.238 381.641 161.79C382.326 161.342 383.082 161.118 383.908 161.118C385.35 161.118 386.466 161.605 387.257 162.581C388.048 163.548 388.443 164.919 388.443 166.694V175H385.754ZM408.43 175V166.325C408.43 165.429 408.188 164.734 407.705 164.242C407.23 163.741 406.553 163.491 405.674 163.491C405.138 163.491 404.606 163.574 404.079 163.741C403.561 163.899 403.095 164.132 402.682 164.44L400.717 163.095C401.236 162.471 401.917 161.988 402.761 161.645C403.613 161.293 404.558 161.118 405.595 161.118C407.309 161.118 408.636 161.562 409.577 162.449C410.517 163.337 410.987 164.589 410.987 166.207V175H408.43ZM405.081 175.198C403.402 175.198 402.141 174.851 401.297 174.156C400.462 173.462 400.045 172.398 400.045 170.966C400.045 169.604 400.427 168.588 401.192 167.92C401.965 167.244 403.121 166.905 404.659 166.905H408.548L408.733 169.067H404.672C403.978 169.067 403.455 169.226 403.104 169.542C402.752 169.85 402.576 170.324 402.576 170.966C402.576 171.66 402.809 172.174 403.275 172.508C403.741 172.842 404.439 173.009 405.371 173.009C406.391 173.009 407.155 172.899 407.665 172.68C408.175 172.46 408.43 172.117 408.43 171.651L408.707 173.576C408.469 173.945 408.175 174.249 407.823 174.486C407.472 174.723 407.067 174.899 406.61 175.013C406.162 175.136 405.652 175.198 405.081 175.198ZM405.938 158.679L404.25 157.321L408.021 152.641L409.959 154.249L405.938 158.679ZM418.634 175.066C417.509 175.066 416.691 174.754 416.182 174.13C415.681 173.506 415.43 172.609 415.43 171.44V157.334H418.12V171.467C418.12 171.792 418.186 172.047 418.317 172.231C418.449 172.416 418.643 172.508 418.897 172.508H420.189V175.066H418.634ZM414.02 163.741V161.315H420.189V163.741H414.02ZM423.881 158.521V155.831H426.57V158.521H423.881ZM423.881 175V161.315H426.57V175H423.881ZM436.181 175.198C434.3 175.198 432.841 174.679 431.804 173.642C430.776 172.605 430.262 171.142 430.262 169.252V166.998C430.262 165.125 430.776 163.68 431.804 162.66C432.841 161.632 434.3 161.118 436.181 161.118C437.253 161.118 438.22 161.307 439.082 161.685C439.943 162.062 440.628 162.603 441.138 163.306L439.2 165.046C438.822 164.607 438.374 164.269 437.855 164.031C437.337 163.794 436.792 163.675 436.221 163.675C435.184 163.675 434.379 163.965 433.808 164.545C433.237 165.125 432.951 165.943 432.951 166.998V169.252C432.951 170.333 433.237 171.168 433.808 171.757C434.379 172.346 435.184 172.64 436.221 172.64C436.792 172.64 437.337 172.513 437.855 172.258C438.374 172.003 438.822 171.643 439.2 171.177L441.138 173.049C440.628 173.734 439.938 174.266 439.068 174.644C438.207 175.013 437.245 175.198 436.181 175.198ZM451.83 175V166.325C451.83 165.429 451.588 164.734 451.105 164.242C450.63 163.741 449.954 163.491 449.075 163.491C448.539 163.491 448.007 163.574 447.479 163.741C446.961 163.899 446.495 164.132 446.082 164.44L444.118 163.095C444.636 162.471 445.317 161.988 446.161 161.645C447.014 161.293 447.958 161.118 448.996 161.118C450.709 161.118 452.037 161.562 452.977 162.449C453.917 163.337 454.388 164.589 454.388 166.207V175H451.83ZM448.481 175.198C446.803 175.198 445.542 174.851 444.698 174.156C443.863 173.462 443.445 172.398 443.445 170.966C443.445 169.604 443.828 168.588 444.592 167.92C445.366 167.244 446.521 166.905 448.06 166.905H451.949L452.133 169.067H448.073C447.378 169.067 446.855 169.226 446.504 169.542C446.152 169.85 445.977 170.324 445.977 170.966C445.977 171.66 446.209 172.174 446.675 172.508C447.141 172.842 447.84 173.009 448.771 173.009C449.791 173.009 450.556 172.899 451.065 172.68C451.575 172.46 451.83 172.117 451.83 171.651L452.107 173.576C451.87 173.945 451.575 174.249 451.224 174.486C450.872 174.723 450.468 174.899 450.011 175.013C449.562 175.136 449.053 175.198 448.481 175.198ZM463.313 175.198C462.1 175.198 460.997 175.022 460.004 174.67C459.02 174.31 458.136 173.774 457.354 173.062L458.949 171.098C459.696 171.66 460.43 172.082 461.151 172.363C461.88 172.645 462.601 172.785 463.313 172.785C464.376 172.785 465.172 172.623 465.699 172.297C466.235 171.963 466.503 171.467 466.503 170.808C466.503 170.298 466.323 169.938 465.963 169.727C465.611 169.516 465.146 169.379 464.565 169.318C463.994 169.248 463.379 169.19 462.72 169.146C462.166 169.103 461.617 169.037 461.072 168.949C460.527 168.852 460.03 168.685 459.582 168.448C459.134 168.202 458.773 167.841 458.501 167.367C458.237 166.892 458.105 166.255 458.105 165.455C458.105 164.005 458.549 162.919 459.437 162.199C460.325 161.478 461.647 161.118 463.405 161.118C464.478 161.118 465.475 161.263 466.398 161.553C467.321 161.843 468.187 162.287 468.995 162.884L467.374 164.849C466.688 164.409 466.011 164.08 465.343 163.86C464.684 163.64 464.038 163.53 463.405 163.53C462.491 163.53 461.806 163.688 461.349 164.005C460.892 164.312 460.663 164.778 460.663 165.402C460.663 165.815 460.821 166.114 461.138 166.299C461.454 166.475 461.872 166.589 462.39 166.642C462.909 166.694 463.467 166.743 464.064 166.787C464.636 166.822 465.211 166.888 465.792 166.984C466.38 167.072 466.921 167.248 467.413 167.512C467.905 167.775 468.301 168.167 468.6 168.685C468.898 169.204 469.048 169.911 469.048 170.808C469.048 172.275 468.569 173.374 467.611 174.104C466.662 174.833 465.229 175.198 463.313 175.198ZM472.014 175V172.179H474.835V175H472.014ZM472.014 164.005V161.184H474.835V164.005H472.014ZM492.567 175.198C490.432 175.198 488.775 174.578 487.597 173.339C486.428 172.091 485.844 170.333 485.844 168.065V155.831H488.533V168.158C488.533 169.555 488.885 170.636 489.588 171.401C490.291 172.166 491.284 172.548 492.567 172.548C493.859 172.548 494.857 172.166 495.56 171.401C496.272 170.636 496.628 169.555 496.628 168.158V155.831H499.317V168.065C499.317 170.333 498.729 172.091 497.551 173.339C496.373 174.578 494.712 175.198 492.567 175.198ZM519.884 175V166.708C519.884 165.741 519.633 164.994 519.132 164.466C518.64 163.939 517.937 163.675 517.023 163.675C516.188 163.675 515.542 163.93 515.085 164.44C514.628 164.95 514.399 165.67 514.399 166.602L513.859 163.965C514.298 163.051 514.87 162.348 515.573 161.856C516.276 161.364 517.054 161.118 517.906 161.118C519.392 161.118 520.539 161.605 521.347 162.581C522.165 163.548 522.573 164.919 522.573 166.694V175H519.884ZM503.536 175V161.315H506.226V175H503.536ZM511.71 175V166.708C511.71 165.741 511.473 164.994 510.998 164.466C510.523 163.939 509.851 163.675 508.981 163.675C508.102 163.675 507.421 163.908 506.938 164.374C506.463 164.84 506.226 165.495 506.226 166.338L505.949 163.702C506.371 162.875 506.92 162.238 507.597 161.79C508.282 161.342 509.038 161.118 509.864 161.118C511.306 161.118 512.422 161.605 513.213 162.581C514.004 163.548 514.399 164.919 514.399 166.694V175H511.71ZM533.911 175V161.315H536.601V175H533.911ZM542.217 175V166.708C542.217 165.741 541.966 164.994 541.465 164.466C540.973 163.939 540.27 163.675 539.356 163.675C538.477 163.675 537.796 163.908 537.312 164.374C536.838 164.84 536.601 165.495 536.601 166.338L536.324 163.702C536.746 162.875 537.295 162.238 537.972 161.79C538.657 161.342 539.413 161.118 540.239 161.118C541.725 161.118 542.872 161.605 543.68 162.581C544.498 163.548 544.906 164.919 544.906 166.694V175H542.217ZM554.24 175.198C552.447 175.198 551.059 174.679 550.074 173.642C549.09 172.596 548.598 171.128 548.598 169.239V167.011C548.598 165.139 549.09 163.688 550.074 162.66C551.059 161.632 552.447 161.118 554.24 161.118C556.033 161.118 557.422 161.632 558.406 162.66C559.391 163.688 559.883 165.139 559.883 167.011V169.278C559.883 171.159 559.391 172.618 558.406 173.655C557.422 174.684 556.033 175.198 554.24 175.198ZM554.24 172.64C555.181 172.64 555.906 172.346 556.416 171.757C556.934 171.168 557.193 170.342 557.193 169.278V167.011C557.193 165.947 556.934 165.125 556.416 164.545C555.906 163.965 555.181 163.675 554.24 163.675C553.309 163.675 552.583 163.965 552.065 164.545C551.546 165.125 551.287 165.947 551.287 167.011V169.278C551.287 170.342 551.546 171.168 552.065 171.757C552.583 172.346 553.309 172.64 554.24 172.64ZM567.885 171.084L571.234 161.315H574.042L568.9 175H566.87L561.729 161.315H564.537L567.885 171.084ZM581.662 175.198C579.869 175.198 578.48 174.679 577.496 173.642C576.512 172.596 576.02 171.128 576.02 169.239V167.011C576.02 165.139 576.512 163.688 577.496 162.66C578.48 161.632 579.869 161.118 581.662 161.118C583.455 161.118 584.844 161.632 585.828 162.66C586.812 163.688 587.305 165.139 587.305 167.011V169.278C587.305 171.159 586.812 172.618 585.828 173.655C584.844 174.684 583.455 175.198 581.662 175.198ZM581.662 172.64C582.603 172.64 583.328 172.346 583.837 171.757C584.356 171.168 584.615 170.342 584.615 169.278V167.011C584.615 165.947 584.356 165.125 583.837 164.545C583.328 163.965 582.603 163.675 581.662 163.675C580.73 163.675 580.005 163.965 579.487 164.545C578.968 165.125 578.709 165.947 578.709 167.011V169.278C578.709 170.342 578.968 171.168 579.487 171.757C580.005 172.346 580.73 172.64 581.662 172.64ZM600.462 175V172.442H604.799C606.214 172.442 607.309 172.078 608.082 171.348C608.864 170.61 609.255 169.573 609.255 168.237V162.594C609.255 161.258 608.864 160.226 608.082 159.496C607.309 158.758 606.214 158.389 604.799 158.389H600.462V155.831H604.72C607.041 155.831 608.833 156.433 610.099 157.637C611.374 158.833 612.011 160.52 612.011 162.7V168.131C612.011 169.582 611.725 170.821 611.154 171.849C610.583 172.869 609.752 173.651 608.662 174.196C607.572 174.732 606.254 175 604.707 175H600.462ZM598.643 175V155.831H601.332V175H598.643ZM621.701 175.198C619.793 175.198 618.317 174.666 617.271 173.603C616.225 172.539 615.702 171.027 615.702 169.067V167.525C615.702 165.486 616.203 163.908 617.205 162.792C618.216 161.676 619.635 161.118 621.463 161.118C623.186 161.118 624.518 161.75 625.458 163.016C626.407 164.282 626.882 166.057 626.882 168.342V169.239H617.653V167.077H624.324C624.245 165.969 623.955 165.104 623.454 164.479C622.962 163.855 622.298 163.543 621.463 163.543C620.453 163.543 619.666 163.877 619.104 164.545C618.541 165.213 618.26 166.158 618.26 167.38V169.12C618.26 170.254 618.559 171.124 619.156 171.73C619.763 172.337 620.611 172.64 621.701 172.64C622.246 172.64 622.786 172.53 623.322 172.311C623.858 172.091 624.337 171.783 624.759 171.388L626.526 173.154C625.849 173.805 625.089 174.31 624.245 174.67C623.401 175.022 622.553 175.198 621.701 175.198ZM635.412 175.198C634.199 175.198 633.096 175.022 632.103 174.67C631.118 174.31 630.235 173.774 629.453 173.062L631.048 171.098C631.795 171.66 632.529 172.082 633.25 172.363C633.979 172.645 634.7 172.785 635.412 172.785C636.475 172.785 637.271 172.623 637.798 172.297C638.334 171.963 638.602 171.467 638.602 170.808C638.602 170.298 638.422 169.938 638.062 169.727C637.71 169.516 637.244 169.379 636.664 169.318C636.093 169.248 635.478 169.19 634.818 169.146C634.265 169.103 633.715 169.037 633.17 168.949C632.625 168.852 632.129 168.685 631.681 168.448C631.232 168.202 630.872 167.841 630.6 167.367C630.336 166.892 630.204 166.255 630.204 165.455C630.204 164.005 630.648 162.919 631.536 162.199C632.423 161.478 633.746 161.118 635.504 161.118C636.576 161.118 637.574 161.263 638.497 161.553C639.419 161.843 640.285 162.287 641.094 162.884L639.472 164.849C638.787 164.409 638.11 164.08 637.442 163.86C636.783 163.64 636.137 163.53 635.504 163.53C634.59 163.53 633.904 163.688 633.447 164.005C632.99 164.312 632.762 164.778 632.762 165.402C632.762 165.815 632.92 166.114 633.236 166.299C633.553 166.475 633.97 166.589 634.489 166.642C635.007 166.694 635.565 166.743 636.163 166.787C636.734 166.822 637.31 166.888 637.89 166.984C638.479 167.072 639.02 167.248 639.512 167.512C640.004 167.775 640.399 168.167 640.698 168.685C640.997 169.204 641.146 169.911 641.146 170.808C641.146 172.275 640.667 173.374 639.709 174.104C638.76 174.833 637.328 175.198 635.412 175.198ZM652.3 175V166.325C652.3 165.429 652.058 164.734 651.575 164.242C651.1 163.741 650.423 163.491 649.544 163.491C649.008 163.491 648.477 163.574 647.949 163.741C647.431 163.899 646.965 164.132 646.552 164.44L644.587 163.095C645.106 162.471 645.787 161.988 646.631 161.645C647.483 161.293 648.428 161.118 649.465 161.118C651.179 161.118 652.506 161.562 653.447 162.449C654.387 163.337 654.857 164.589 654.857 166.207V175H652.3ZM648.951 175.198C647.272 175.198 646.011 174.851 645.167 174.156C644.333 173.462 643.915 172.398 643.915 170.966C643.915 169.604 644.297 168.588 645.062 167.92C645.835 167.244 646.991 166.905 648.529 166.905H652.418L652.603 169.067H648.542C647.848 169.067 647.325 169.226 646.974 169.542C646.622 169.85 646.446 170.324 646.446 170.966C646.446 171.66 646.679 172.174 647.145 172.508C647.611 172.842 648.31 173.009 649.241 173.009C650.261 173.009 651.025 172.899 651.535 172.68C652.045 172.46 652.3 172.117 652.3 171.651L652.577 173.576C652.339 173.945 652.045 174.249 651.693 174.486C651.342 174.723 650.938 174.899 650.48 175.013C650.032 175.136 649.522 175.198 648.951 175.198ZM659.34 175V159.457C659.34 158.252 659.617 157.347 660.17 156.741C660.724 156.134 661.585 155.831 662.754 155.831H664.732V158.389H662.807C662.535 158.389 662.337 158.494 662.214 158.705C662.091 158.907 662.029 159.149 662.029 159.43V175H659.34ZM657.89 163.609V161.315H664.732V163.609H657.89ZM667.909 158.521V155.831H670.599V158.521H667.909ZM667.909 175V161.315H670.599V175H667.909ZM679.933 175.198C678.14 175.198 676.751 174.679 675.767 173.642C674.782 172.596 674.29 171.128 674.29 169.239V167.011C674.29 165.139 674.782 163.688 675.767 162.66C676.751 161.632 678.14 161.118 679.933 161.118C681.726 161.118 683.114 161.632 684.099 162.66C685.083 163.688 685.575 165.139 685.575 167.011V169.278C685.575 171.159 685.083 172.618 684.099 173.655C683.114 174.684 681.726 175.198 679.933 175.198ZM679.933 172.64C680.873 172.64 681.598 172.346 682.108 171.757C682.626 171.168 682.886 170.342 682.886 169.278V167.011C682.886 165.947 682.626 165.125 682.108 164.545C681.598 163.965 680.873 163.675 679.933 163.675C679.001 163.675 678.276 163.965 677.757 164.545C677.239 165.125 676.979 165.947 676.979 167.011V169.278C676.979 170.342 677.239 171.168 677.757 171.757C678.276 172.346 679.001 172.64 679.933 172.64ZM696.649 180.563V161.315H699.339V180.563H696.649ZM702.78 175.198C701.927 175.198 701.185 174.996 700.552 174.591C699.919 174.178 699.453 173.598 699.154 172.851L699.339 169.99C699.339 170.579 699.444 171.08 699.655 171.493C699.866 171.906 700.169 172.223 700.565 172.442C700.969 172.662 701.457 172.772 702.028 172.772C702.916 172.772 703.602 172.504 704.085 171.968C704.577 171.423 704.823 170.658 704.823 169.674V166.708C704.823 165.706 704.577 164.928 704.085 164.374C703.602 163.82 702.916 163.543 702.028 163.543C701.457 163.543 700.969 163.649 700.565 163.86C700.169 164.071 699.866 164.378 699.655 164.783C699.444 165.187 699.339 165.679 699.339 166.259L699.062 163.623C699.475 162.823 700.016 162.208 700.684 161.777C701.352 161.337 702.094 161.118 702.912 161.118C704.379 161.118 705.513 161.605 706.313 162.581C707.113 163.548 707.513 164.919 707.513 166.694V169.674C707.513 171.423 707.1 172.781 706.273 173.748C705.447 174.714 704.283 175.198 702.78 175.198ZM719.062 175V166.325C719.062 165.429 718.82 164.734 718.336 164.242C717.862 163.741 717.185 163.491 716.306 163.491C715.77 163.491 715.238 163.574 714.711 163.741C714.192 163.899 713.727 164.132 713.313 164.44L711.349 163.095C711.868 162.471 712.549 161.988 713.393 161.645C714.245 161.293 715.19 161.118 716.227 161.118C717.941 161.118 719.268 161.562 720.208 162.449C721.149 163.337 721.619 164.589 721.619 166.207V175H719.062ZM715.713 175.198C714.034 175.198 712.773 174.851 711.929 174.156C711.094 173.462 710.677 172.398 710.677 170.966C710.677 169.604 711.059 168.588 711.824 167.92C712.597 167.244 713.753 166.905 715.291 166.905H719.18L719.365 169.067H715.304C714.61 169.067 714.087 169.226 713.735 169.542C713.384 169.85 713.208 170.324 713.208 170.966C713.208 171.66 713.441 172.174 713.907 172.508C714.373 172.842 715.071 173.009 716.003 173.009C717.022 173.009 717.787 172.899 718.297 172.68C718.807 172.46 719.062 172.117 719.062 171.651L719.338 173.576C719.101 173.945 718.807 174.249 718.455 174.486C718.104 174.723 717.699 174.899 717.242 175.013C716.794 175.136 716.284 175.198 715.713 175.198ZM725.706 175V161.315H728.396V175H725.706ZM733.234 164.559C732.997 164.269 732.698 164.049 732.337 163.899C731.977 163.75 731.56 163.675 731.085 163.675C730.232 163.675 729.569 163.913 729.094 164.387C728.628 164.853 728.396 165.503 728.396 166.338L728.119 163.702C728.532 162.893 729.072 162.26 729.74 161.803C730.417 161.346 731.16 161.118 731.968 161.118C732.592 161.118 733.155 161.21 733.656 161.395C734.166 161.57 734.609 161.834 734.987 162.186L733.234 164.559ZM744.954 175V166.325C744.954 165.429 744.712 164.734 744.229 164.242C743.754 163.741 743.078 163.491 742.199 163.491C741.663 163.491 741.131 163.574 740.604 163.741C740.085 163.899 739.619 164.132 739.206 164.44L737.242 163.095C737.76 162.471 738.441 161.988 739.285 161.645C740.138 161.293 741.083 161.118 742.12 161.118C743.833 161.118 745.161 161.562 746.101 162.449C747.042 163.337 747.512 164.589 747.512 166.207V175H744.954ZM741.605 175.198C739.927 175.198 738.666 174.851 737.822 174.156C736.987 173.462 736.569 172.398 736.569 170.966C736.569 169.604 736.952 168.588 737.716 167.92C738.49 167.244 739.646 166.905 741.184 166.905H745.073L745.257 169.067H741.197C740.502 169.067 739.979 169.226 739.628 169.542C739.276 169.85 739.101 170.324 739.101 170.966C739.101 171.66 739.333 172.174 739.799 172.508C740.265 172.842 740.964 173.009 741.896 173.009C742.915 173.009 743.68 172.899 744.189 172.68C744.699 172.46 744.954 172.117 744.954 171.651L745.231 173.576C744.994 173.945 744.699 174.249 744.348 174.486C743.996 174.723 743.592 174.899 743.135 175.013C742.687 175.136 742.177 175.198 741.605 175.198ZM764.097 175.198C762.304 175.198 760.915 174.679 759.931 173.642C758.946 172.596 758.454 171.128 758.454 169.239V167.011C758.454 165.139 758.946 163.688 759.931 162.66C760.915 161.632 762.304 161.118 764.097 161.118C765.89 161.118 767.278 161.632 768.263 162.66C769.247 163.688 769.739 165.139 769.739 167.011V169.278C769.739 171.159 769.247 172.618 768.263 173.655C767.278 174.684 765.89 175.198 764.097 175.198ZM764.097 172.64C765.037 172.64 765.762 172.346 766.272 171.757C766.791 171.168 767.05 170.342 767.05 169.278V167.011C767.05 165.947 766.791 165.125 766.272 164.545C765.762 163.965 765.037 163.675 764.097 163.675C763.165 163.675 762.44 163.965 761.921 164.545C761.403 165.125 761.144 165.947 761.144 167.011V169.278C761.144 170.342 761.403 171.168 761.921 171.757C762.44 172.346 763.165 172.64 764.097 172.64ZM786.838 175.198C785.907 175.198 785.028 175.11 784.202 174.934C783.384 174.758 782.615 174.495 781.895 174.143C781.183 173.792 780.515 173.352 779.891 172.825L781.565 170.768C782.294 171.401 783.099 171.875 783.978 172.192C784.856 172.508 785.81 172.667 786.838 172.667C788.227 172.667 789.304 172.407 790.068 171.889C790.833 171.37 791.215 170.645 791.215 169.713V169.7C791.215 168.971 791.022 168.413 790.635 168.026C790.249 167.639 789.739 167.354 789.106 167.169C788.482 166.976 787.796 166.817 787.049 166.694C786.329 166.571 785.599 166.426 784.861 166.259C784.131 166.092 783.459 165.833 782.844 165.481C782.229 165.121 781.732 164.607 781.354 163.939C780.985 163.271 780.8 162.379 780.8 161.263V161.25C780.8 159.465 781.394 158.085 782.58 157.11C783.767 156.125 785.441 155.633 787.603 155.633C788.631 155.633 789.638 155.8 790.622 156.134C791.606 156.459 792.564 156.96 793.496 157.637L791.967 159.773C791.237 159.228 790.508 158.824 789.778 158.56C789.058 158.296 788.333 158.165 787.603 158.165C786.293 158.165 785.274 158.428 784.544 158.956C783.824 159.474 783.463 160.212 783.463 161.17V161.184C783.463 161.904 783.674 162.454 784.096 162.832C784.518 163.209 785.067 163.491 785.744 163.675C786.43 163.851 787.164 164.018 787.946 164.176C788.649 164.317 789.352 164.488 790.055 164.69C790.758 164.884 791.396 165.169 791.967 165.547C792.547 165.917 793.008 166.426 793.351 167.077C793.703 167.727 793.878 168.575 793.878 169.621V169.647C793.878 171.414 793.263 172.781 792.033 173.748C790.802 174.714 789.071 175.198 786.838 175.198ZM805.177 175V166.325C805.177 165.429 804.935 164.734 804.452 164.242C803.977 163.741 803.3 163.491 802.421 163.491C801.885 163.491 801.354 163.574 800.826 163.741C800.308 163.899 799.842 164.132 799.429 164.44L797.464 163.095C797.983 162.471 798.664 161.988 799.508 161.645C800.36 161.293 801.305 161.118 802.342 161.118C804.056 161.118 805.383 161.562 806.324 162.449C807.264 163.337 807.734 164.589 807.734 166.207V175H805.177ZM801.828 175.198C800.149 175.198 798.888 174.851 798.044 174.156C797.209 173.462 796.792 172.398 796.792 170.966C796.792 169.604 797.174 168.588 797.939 167.92C798.712 167.244 799.868 166.905 801.406 166.905H805.295L805.48 169.067H801.419C800.725 169.067 800.202 169.226 799.851 169.542C799.499 169.85 799.323 170.324 799.323 170.966C799.323 171.66 799.556 172.174 800.022 172.508C800.488 172.842 801.187 173.009 802.118 173.009C803.138 173.009 803.902 172.899 804.412 172.68C804.922 172.46 805.177 172.117 805.177 171.651L805.454 173.576C805.216 173.945 804.922 174.249 804.57 174.486C804.219 174.723 803.814 174.899 803.357 175.013C802.909 175.136 802.399 175.198 801.828 175.198ZM811.821 175V161.315H814.511V175H811.821ZM820.127 175V166.708C820.127 165.741 819.876 164.994 819.375 164.466C818.883 163.939 818.18 163.675 817.266 163.675C816.387 163.675 815.706 163.908 815.223 164.374C814.748 164.84 814.511 165.495 814.511 166.338L814.234 163.702C814.656 162.875 815.205 162.238 815.882 161.79C816.567 161.342 817.323 161.118 818.149 161.118C819.635 161.118 820.782 161.605 821.59 162.581C822.408 163.548 822.816 164.919 822.816 166.694V175H820.127ZM832.506 175.198C830.599 175.198 829.123 174.666 828.077 173.603C827.031 172.539 826.508 171.027 826.508 169.067V167.525C826.508 165.486 827.009 163.908 828.011 162.792C829.021 161.676 830.441 161.118 832.269 161.118C833.992 161.118 835.323 161.75 836.264 163.016C837.213 164.282 837.688 166.057 837.688 168.342V169.239H828.459V167.077H835.13C835.051 165.969 834.761 165.104 834.26 164.479C833.768 163.855 833.104 163.543 832.269 163.543C831.258 163.543 830.472 163.877 829.909 164.545C829.347 165.213 829.065 166.158 829.065 167.38V169.12C829.065 170.254 829.364 171.124 829.962 171.73C830.568 172.337 831.417 172.64 832.506 172.64C833.051 172.64 833.592 172.53 834.128 172.311C834.664 172.091 835.143 171.783 835.565 171.388L837.332 173.154C836.655 173.805 835.895 174.31 835.051 174.67C834.207 175.022 833.359 175.198 832.506 175.198ZM849.104 175V166.325C849.104 165.429 848.863 164.734 848.379 164.242C847.905 163.741 847.228 163.491 846.349 163.491C845.813 163.491 845.281 163.574 844.754 163.741C844.235 163.899 843.77 164.132 843.356 164.44L841.392 163.095C841.911 162.471 842.592 161.988 843.436 161.645C844.288 161.293 845.233 161.118 846.27 161.118C847.984 161.118 849.311 161.562 850.251 162.449C851.192 163.337 851.662 164.589 851.662 166.207V175H849.104ZM845.756 175.198C844.077 175.198 842.816 174.851 841.972 174.156C841.137 173.462 840.72 172.398 840.72 170.966C840.72 169.604 841.102 168.588 841.867 167.92C842.64 167.244 843.796 166.905 845.334 166.905H849.223L849.408 169.067H845.347C844.653 169.067 844.13 169.226 843.778 169.542C843.427 169.85 843.251 170.324 843.251 170.966C843.251 171.66 843.484 172.174 843.95 172.508C844.416 172.842 845.114 173.009 846.046 173.009C847.065 173.009 847.83 172.899 848.34 172.68C848.85 172.46 849.104 172.117 849.104 171.651L849.381 173.576C849.144 173.945 848.85 174.249 848.498 174.486C848.146 174.723 847.742 174.899 847.285 175.013C846.837 175.136 846.327 175.198 845.756 175.198ZM872.097 175V166.708C872.097 165.741 871.846 164.994 871.345 164.466C870.853 163.939 870.15 163.675 869.236 163.675C868.401 163.675 867.755 163.93 867.298 164.44C866.841 164.95 866.612 165.67 866.612 166.602L866.072 163.965C866.511 163.051 867.083 162.348 867.786 161.856C868.489 161.364 869.267 161.118 870.119 161.118C871.604 161.118 872.751 161.605 873.56 162.581C874.377 163.548 874.786 164.919 874.786 166.694V175H872.097ZM855.749 175V161.315H858.438V175H855.749ZM863.923 175V166.708C863.923 165.741 863.686 164.994 863.211 164.466C862.736 163.939 862.064 163.675 861.194 163.675C860.315 163.675 859.634 163.908 859.15 164.374C858.676 164.84 858.438 165.495 858.438 166.338L858.162 163.702C858.583 162.875 859.133 162.238 859.81 161.79C860.495 161.342 861.251 161.118 862.077 161.118C863.519 161.118 864.635 161.605 865.426 162.581C866.217 163.548 866.612 164.919 866.612 166.694V175H863.923ZM884.476 175.198C882.569 175.198 881.092 174.666 880.046 173.603C879 172.539 878.478 171.027 878.478 169.067V167.525C878.478 165.486 878.979 163.908 879.98 162.792C880.991 161.676 882.411 161.118 884.239 161.118C885.961 161.118 887.293 161.75 888.233 163.016C889.183 164.282 889.657 166.057 889.657 168.342V169.239H880.429V167.077H887.1C887.021 165.969 886.73 165.104 886.229 164.479C885.737 163.855 885.074 163.543 884.239 163.543C883.228 163.543 882.441 163.877 881.879 164.545C881.316 165.213 881.035 166.158 881.035 167.38V169.12C881.035 170.254 881.334 171.124 881.932 171.73C882.538 172.337 883.386 172.64 884.476 172.64C885.021 172.64 885.562 172.53 886.098 172.311C886.634 172.091 887.113 171.783 887.535 171.388L889.301 173.154C888.625 173.805 887.864 174.31 887.021 174.67C886.177 175.022 885.329 175.198 884.476 175.198ZM893.349 175V161.315H896.038V175H893.349ZM901.654 175V166.708C901.654 165.741 901.404 164.994 900.903 164.466C900.411 163.939 899.708 163.675 898.793 163.675C897.915 163.675 897.233 163.908 896.75 164.374C896.275 164.84 896.038 165.495 896.038 166.338L895.761 163.702C896.183 162.875 896.732 162.238 897.409 161.79C898.095 161.342 898.851 161.118 899.677 161.118C901.162 161.118 902.309 161.605 903.118 162.581C903.935 163.548 904.344 164.919 904.344 166.694V175H901.654ZM911.99 175.066C910.865 175.066 910.048 174.754 909.538 174.13C909.037 173.506 908.787 172.609 908.787 171.44V157.334H911.476V171.467C911.476 171.792 911.542 172.047 911.674 172.231C911.806 172.416 911.999 172.508 912.254 172.508H913.546V175.066H911.99ZM907.376 163.741V161.315H913.546V163.741H907.376ZM922.484 175.198C920.691 175.198 919.303 174.679 918.318 173.642C917.334 172.596 916.842 171.128 916.842 169.239V167.011C916.842 165.139 917.334 163.688 918.318 162.66C919.303 161.632 920.691 161.118 922.484 161.118C924.277 161.118 925.666 161.632 926.65 162.66C927.635 163.688 928.127 165.139 928.127 167.011V169.278C928.127 171.159 927.635 172.618 926.65 173.655C925.666 174.684 924.277 175.198 922.484 175.198ZM922.484 172.64C923.425 172.64 924.15 172.346 924.66 171.757C925.178 171.168 925.438 170.342 925.438 169.278V167.011C925.438 165.947 925.178 165.125 924.66 164.545C924.15 163.965 923.425 163.675 922.484 163.675C921.553 163.675 920.828 163.965 920.309 164.545C919.791 165.125 919.531 165.947 919.531 167.011V169.278C919.531 170.342 919.791 171.168 920.309 171.757C920.828 172.346 921.553 172.64 922.484 172.64ZM940.638 166.892V164.334H947.177C947.959 164.334 948.588 164.062 949.062 163.517C949.537 162.972 949.774 162.251 949.774 161.355C949.774 160.458 949.537 159.738 949.062 159.193C948.588 158.648 947.959 158.375 947.177 158.375H940.638V155.818H947.072C948.188 155.818 949.164 156.051 949.999 156.517C950.833 156.974 951.479 157.615 951.937 158.441C952.402 159.268 952.635 160.239 952.635 161.355C952.635 162.462 952.402 163.434 951.937 164.269C951.471 165.095 950.82 165.741 949.985 166.207C949.159 166.664 948.188 166.892 947.072 166.892H940.638ZM939.465 175V155.818H942.154V175H939.465ZM950.249 175L945.859 166.299L948.535 165.692L953.439 175H950.249ZM964.672 175V161.315H967.348V175H964.672ZM959.108 161.315V169.634C959.108 170.592 959.35 171.335 959.833 171.862C960.326 172.381 961.016 172.64 961.903 172.64C962.791 172.64 963.472 172.407 963.947 171.941C964.43 171.467 964.672 170.803 964.672 169.951L964.856 172.812C964.61 173.427 964.18 173.98 963.564 174.473C962.949 174.956 962.145 175.198 961.152 175.198C959.64 175.198 958.471 174.714 957.645 173.748C956.828 172.772 956.419 171.401 956.419 169.634V161.315H959.108ZM971.448 175V161.315H974.138V175H971.448ZM978.976 164.559C978.739 164.269 978.44 164.049 978.08 163.899C977.719 163.75 977.302 163.675 976.827 163.675C975.975 163.675 975.311 163.913 974.836 164.387C974.371 164.853 974.138 165.503 974.138 166.338L973.861 163.702C974.274 162.893 974.814 162.26 975.482 161.803C976.159 161.346 976.902 161.118 977.71 161.118C978.334 161.118 978.897 161.21 979.398 161.395C979.908 161.57 980.352 161.834 980.729 162.186L978.976 164.559ZM990.696 175V166.325C990.696 165.429 990.455 164.734 989.971 164.242C989.497 163.741 988.82 163.491 987.941 163.491C987.405 163.491 986.873 163.574 986.346 163.741C985.827 163.899 985.361 164.132 984.948 164.44L982.984 163.095C983.502 162.471 984.184 161.988 985.027 161.645C985.88 161.293 986.825 161.118 987.862 161.118C989.576 161.118 990.903 161.562 991.843 162.449C992.784 163.337 993.254 164.589 993.254 166.207V175H990.696ZM987.348 175.198C985.669 175.198 984.408 174.851 983.564 174.156C982.729 173.462 982.312 172.398 982.312 170.966C982.312 169.604 982.694 168.588 983.458 167.92C984.232 167.244 985.388 166.905 986.926 166.905H990.815L991 169.067H986.939C986.245 169.067 985.722 169.226 985.37 169.542C985.019 169.85 984.843 170.324 984.843 170.966C984.843 171.66 985.076 172.174 985.542 172.508C986.007 172.842 986.706 173.009 987.638 173.009C988.657 173.009 989.422 172.899 989.932 172.68C990.441 172.46 990.696 172.117 990.696 171.651L990.973 173.576C990.736 173.945 990.441 174.249 990.09 174.486C989.738 174.723 989.334 174.899 988.877 175.013C988.429 175.136 987.919 175.198 987.348 175.198ZM1000.03 155.831V171.467C1000.03 171.792 1000.1 172.047 1000.24 172.231C1000.39 172.416 1000.6 172.508 1000.86 172.508H1002.13V175.066H1000.54C999.534 175.066 998.747 174.75 998.185 174.117C997.622 173.484 997.341 172.592 997.341 171.44V155.831H1000.03Z" fill="#EF802E"/>
<g filter="url(#filter0_d_1921_8722)">
<path d="M15.4119 74.2024C32.4208 91.0621 59.9998 91.0621 77.0087 74.2024C77.0367 74.1746 77.0647 74.1441 77.0927 74.1135L15.4987 13.0598C15.4707 13.0876 15.4399 13.1153 15.4091 13.1431C-1.59989 30.0028 -1.59989 57.3399 15.4091 74.1996L15.4119 74.2024Z" fill="#EF802E"/>
<path d="M76.8507 12.6448C59.991 -4.21493 32.654 -4.21493 15.7942 12.6448C15.7665 12.6726 15.7387 12.7031 15.7109 12.7336L76.7647 73.7874C76.7924 73.7596 76.823 73.7318 76.8535 73.7041C93.7132 56.8443 93.7132 29.5073 76.8535 12.6476L76.8507 12.6448Z" fill="#30B5AB"/>
<path d="M76.8507 12.6448C59.991 -4.21493 32.654 -4.21493 15.7942 12.6448C15.7665 12.6726 15.7387 12.7031 15.7109 12.7336L76.7647 73.7874C76.7924 73.7596 76.823 73.7318 76.8535 73.7041C93.7132 56.8443 93.7132 29.5073 76.8535 12.6476L76.8507 12.6448Z" fill="url(#paint0_linear_1921_8722)"/>
<path d="M90.1504 87.4998L178.303 174.347V87.4998H90.1504ZM176.088 134.891C175.764 135.371 175.448 135.838 175.203 136.199C172.684 139.914 170.17 143.629 167.653 147.347C166.59 148.919 164.245 148.916 163.18 147.347C160.359 143.179 157.546 139.025 154.717 134.844C153.995 133.778 154.767 132.348 156.069 132.348H159.212C159.226 132.348 159.237 132.337 159.237 132.323C159.06 124.887 156.343 118.584 150.554 113.878C142.321 107.186 133.393 106.261 124.005 110.304C123.083 110.701 122.054 110.015 122.063 109.027C122.085 106.422 121.806 102.06 121.806 99.5808C121.806 98.1759 123.28 97.4623 123.689 97.3429C125.786 96.7292 127.914 96.2711 130.095 96.0129C132.494 95.7296 134.895 95.6714 137.302 95.8518C141.115 96.1378 144.804 96.968 148.344 98.398C155.999 101.491 161.991 106.531 166.292 113.481C168.941 117.762 170.621 122.407 171.252 127.397C171.441 128.899 171.5 130.418 171.621 131.928C171.63 132.051 171.644 132.176 171.658 132.342C172.337 132.342 172.988 132.345 173.639 132.342C173.932 132.342 174.304 132.342 174.704 132.342C176.032 132.342 176.827 133.803 176.088 134.891Z" fill="#EF802E"/>
<path d="M93.7865 133.103C92.4521 133.103 91.6532 131.639 92.3955 130.548C92.7213 130.067 93.0386 129.599 93.2851 129.238C95.8179 125.514 98.3451 121.791 100.875 118.064C101.943 116.489 104.3 116.492 105.371 118.064C108.207 122.241 111.035 126.405 113.879 130.596C114.605 131.664 113.828 133.097 112.519 133.097H109.36C109.346 133.097 109.335 133.108 109.335 133.122C109.513 140.575 112.245 146.892 118.064 151.609C126.34 158.316 135.315 159.242 144.752 155.191C145.679 154.793 146.713 155.48 146.704 156.471C146.682 159.081 146.962 163.453 146.962 165.938C146.962 167.346 145.48 168.061 145.07 168.181C142.962 168.796 140.823 169.255 138.63 169.511C136.219 169.795 133.805 169.853 131.385 169.673C127.552 169.386 123.844 168.554 120.285 167.121C112.59 164.021 106.567 158.97 102.244 152.004C99.5804 147.713 97.8918 143.057 97.2572 138.056C97.0673 136.551 97.0079 135.029 96.886 133.515C96.8775 133.392 96.8634 133.267 96.8492 133.1C96.1664 133.1 95.512 133.097 94.8575 133.1C94.5628 133.1 94.1889 133.1 93.7865 133.1V133.103Z" fill="#EF802E"/>
<path d="M169.326 72.4094L104.421 8.761C102.78 7.15063 100.13 7.15063 98.489 8.761L98.3764 8.87206C96.7209 10.4935 96.7209 13.134 98.3764 14.7555L163.29 78.4122C165.013 80.1031 167.829 80.0059 169.428 78.1984L169.535 78.079C170.993 76.4326 170.903 73.9504 169.332 72.4094H169.326Z" fill="#3A50BF"/>
<path d="M170.881 50.0665L127.024 7.05861C126.236 6.28674 125.169 5.85083 124.057 5.85083H123.829C120.076 5.85083 118.201 10.3321 120.861 12.942L164.946 56.1748C167.601 58.7764 172.12 56.9245 172.12 53.2317V53.0096C172.12 51.9046 171.672 50.8467 170.878 50.0665H170.881Z" fill="#3A50BF"/>
<path d="M170.88 26.4361L151.118 7.05617C150.33 6.2843 149.263 5.84839 148.151 5.84839H147.923C144.17 5.84839 142.295 10.3297 144.955 12.9396L164.945 32.5416C167.6 35.1432 172.119 33.2913 172.119 29.5985V29.3764C172.119 28.2714 171.671 27.2135 170.877 26.4333L170.88 26.4361Z" fill="#3A50BF"/>
<path d="M96.6158 61.2642L116.057 80.3304C116.845 81.1023 117.912 81.5382 119.024 81.5382H119.252C123.005 81.5382 124.88 77.0569 122.22 74.447L102.551 55.1587C99.8958 52.5571 95.377 54.409 95.377 58.1018V58.3239C95.377 59.4289 95.8246 60.4868 96.6186 61.267L96.6158 61.2642Z" fill="#3A50BF"/>
<path d="M96.6158 37.6338L140.151 80.328C140.94 81.0999 142.007 81.5358 143.119 81.5358H143.347C147.1 81.5358 148.975 77.0545 146.314 74.4446L102.551 31.5283C99.8958 28.9267 95.377 30.7787 95.377 34.4714V34.6935C95.377 35.7986 95.8246 36.8564 96.6186 37.6366L96.6158 37.6338Z" fill="#3A50BF"/>
<path d="M169.326 72.4094L104.421 8.761C102.78 7.15063 100.13 7.15063 98.489 8.761L98.3764 8.87206C96.7209 10.4935 96.7209 13.134 98.3764 14.7555L163.29 78.4122C165.013 80.1031 167.829 80.0059 169.428 78.1984L169.535 78.079C170.993 76.4326 170.903 73.9504 169.332 72.4094H169.326Z" fill="url(#paint1_linear_1921_8722)"/>
<path d="M170.881 50.0665L127.024 7.05861C126.236 6.28674 125.169 5.85083 124.057 5.85083H123.829C120.076 5.85083 118.201 10.3321 120.861 12.942L164.946 56.1748C167.601 58.7764 172.12 56.9245 172.12 53.2317V53.0096C172.12 51.9046 171.672 50.8467 170.878 50.0665H170.881Z" fill="url(#paint2_linear_1921_8722)"/>
<path d="M170.88 26.4361L151.118 7.05617C150.33 6.2843 149.263 5.84839 148.151 5.84839H147.923C144.17 5.84839 142.295 10.3297 144.955 12.9396L164.945 32.5416C167.6 35.1432 172.119 33.2913 172.119 29.5985V29.3764C172.119 28.2714 171.671 27.2135 170.877 26.4333L170.88 26.4361Z" fill="url(#paint3_linear_1921_8722)"/>
<path d="M96.6158 61.2642L116.057 80.3304C116.845 81.1023 117.912 81.5382 119.024 81.5382H119.252C123.005 81.5382 124.88 77.0569 122.22 74.447L102.551 55.1587C99.8958 52.5571 95.377 54.409 95.377 58.1018V58.3239C95.377 59.4289 95.8246 60.4868 96.6186 61.267L96.6158 61.2642Z" fill="url(#paint4_linear_1921_8722)"/>
<path d="M96.6158 37.6338L140.151 80.328C140.94 81.0999 142.007 81.5358 143.119 81.5358H143.347C147.1 81.5358 148.975 77.0545 146.314 74.4446L102.551 31.5283C99.8958 28.9267 95.377 30.7787 95.377 34.4714V34.6935C95.377 35.7986 95.8246 36.8564 96.6186 37.6366L96.6158 37.6338Z" fill="url(#paint5_linear_1921_8722)"/>
<path d="M169.326 72.4094L104.421 8.761C102.78 7.15063 100.13 7.15063 98.489 8.761L98.3764 8.87206C96.7209 10.4935 96.7209 13.134 98.3764 14.7555L163.29 78.4122C165.013 80.1031 167.829 80.0059 169.428 78.1984L169.535 78.079C170.993 76.4326 170.903 73.9504 169.332 72.4094H169.326Z" fill="url(#paint6_linear_1921_8722)"/>
<path d="M170.881 50.0665L127.024 7.05861C126.236 6.28674 125.169 5.85083 124.057 5.85083H123.829C120.076 5.85083 118.201 10.3321 120.861 12.942L164.946 56.1748C167.601 58.7764 172.12 56.9245 172.12 53.2317V53.0096C172.12 51.9046 171.672 50.8467 170.878 50.0665H170.881Z" fill="url(#paint7_linear_1921_8722)"/>
<path d="M170.88 26.4361L151.118 7.05617C150.33 6.2843 149.263 5.84839 148.151 5.84839H147.923C144.17 5.84839 142.295 10.3297 144.955 12.9396L164.945 32.5416C167.6 35.1432 172.119 33.2913 172.119 29.5985V29.3764C172.119 28.2714 171.671 27.2135 170.877 26.4333L170.88 26.4361Z" fill="url(#paint8_linear_1921_8722)"/>
<path d="M96.6158 61.2642L116.057 80.3304C116.845 81.1023 117.912 81.5382 119.024 81.5382H119.252C123.005 81.5382 124.88 77.0569 122.22 74.447L102.551 55.1587C99.8958 52.5571 95.377 54.409 95.377 58.1018V58.3239C95.377 59.4289 95.8246 60.4868 96.6186 61.267L96.6158 61.2642Z" fill="url(#paint9_linear_1921_8722)"/>
<path d="M96.6158 37.6338L140.151 80.328C140.94 81.0999 142.007 81.5358 143.119 81.5358H143.347C147.1 81.5358 148.975 77.0545 146.314 74.4446L102.551 31.5283C99.8958 28.9267 95.377 30.7787 95.377 34.4714V34.6935C95.377 35.7986 95.8246 36.8564 96.6186 37.6366L96.6158 37.6338Z" fill="url(#paint10_linear_1921_8722)"/>
<path d="M77.9615 88.1567V126.531C77.9615 143.923 63.6645 158.019 46.0312 158.019C28.3951 158.019 14.1009 143.92 14.1009 126.531V88.1567H2V175H90.0624V88.1567H77.9615Z" fill="#30B5AB"/>
<path d="M77.9621 126.531C77.9621 143.923 63.6652 158.019 46.0319 158.019C28.3957 158.019 14.1016 143.92 14.1016 126.531H77.9621Z" fill="#3A50BF"/>
<path d="M77.9615 88.1567V126.531C77.9615 143.923 63.6645 158.019 46.0312 158.019C28.3951 158.019 14.1009 143.92 14.1009 126.531V88.1567H2V175H90.0624V88.1567H77.9615Z" fill="url(#paint11_linear_1921_8722)"/>
<path d="M77.9621 126.531C77.9621 143.923 63.6652 158.019 46.0319 158.019C28.3957 158.019 14.1016 143.92 14.1016 126.531H77.9621Z" fill="url(#paint12_linear_1921_8722)"/>
<path d="M77.9621 126.531C77.9621 143.923 63.6652 158.019 46.0319 158.019C28.3957 158.019 14.1016 143.92 14.1016 126.531H77.9621Z" fill="url(#paint13_linear_1921_8722)"/>
<path d="M15.4119 74.2024C32.4208 91.0621 59.9998 91.0621 77.0087 74.2024C77.0367 74.1746 77.0647 74.1441 77.0927 74.1135L15.4987 13.0598C15.4707 13.0876 15.4399 13.1153 15.4091 13.1431C-1.59989 30.0028 -1.59989 57.3399 15.4091 74.1996L15.4119 74.2024Z" fill="url(#paint14_linear_1921_8722)"/>
<path d="M67.2989 52.2899C67.2989 64.1641 57.5037 73.7875 45.4238 73.7875C33.344 73.7875 23.5488 64.1613 23.5488 52.2899C23.5488 40.4186 45.4238 13.0598 45.4238 13.0598C45.4238 13.0598 67.2989 40.4158 67.2989 52.2899Z" fill="white"/>
<path d="M90.1504 87.4998L178.303 174.347V87.4998H90.1504ZM176.088 134.891C175.764 135.371 175.448 135.838 175.203 136.199C172.684 139.914 170.17 143.629 167.653 147.347C166.59 148.919 164.245 148.916 163.18 147.347C160.359 143.179 157.546 139.025 154.717 134.844C153.995 133.778 154.767 132.348 156.069 132.348H159.212C159.226 132.348 159.237 132.337 159.237 132.323C159.06 124.887 156.343 118.584 150.554 113.878C142.321 107.186 133.393 106.261 124.005 110.304C123.083 110.701 122.054 110.015 122.063 109.027C122.085 106.422 121.806 102.06 121.806 99.5808C121.806 98.1759 123.28 97.4623 123.689 97.3429C125.786 96.7292 127.914 96.2711 130.095 96.0129C132.494 95.7296 134.895 95.6714 137.302 95.8518C141.115 96.1378 144.804 96.968 148.344 98.398C155.999 101.491 161.991 106.531 166.292 113.481C168.941 117.762 170.621 122.407 171.252 127.397C171.441 128.899 171.5 130.418 171.621 131.928C171.63 132.051 171.644 132.176 171.658 132.342C172.337 132.342 172.988 132.345 173.639 132.342C173.932 132.342 174.304 132.342 174.704 132.342C176.032 132.342 176.827 133.803 176.088 134.891Z" fill="url(#paint15_linear_1921_8722)"/>
<path d="M93.7865 132.903C92.4521 132.903 91.6532 131.457 92.3955 130.38C92.7213 129.904 93.0386 129.442 93.2851 129.085C95.8179 125.408 98.3451 121.73 100.875 118.05C101.943 116.494 104.3 116.497 105.371 118.05C108.207 122.175 111.035 126.287 113.879 130.426C114.605 131.482 113.828 132.897 112.519 132.897H109.36C109.346 132.897 109.335 132.908 109.335 132.922C109.513 140.282 112.245 146.522 118.064 151.18C126.34 157.804 135.315 158.719 144.752 154.718C145.679 154.325 146.713 155.003 146.704 155.982C146.682 158.56 146.962 162.878 146.962 165.332C146.962 166.723 145.48 167.429 145.07 167.548C142.962 168.155 140.823 168.609 138.63 168.861C136.219 169.142 133.805 169.2 131.385 169.021C127.552 168.738 123.844 167.916 120.285 166.5C112.59 163.439 106.567 158.45 102.244 151.571C99.5804 147.332 97.8918 142.734 97.2572 137.795C97.0673 136.308 97.0079 134.805 96.886 133.309C96.8775 133.189 96.8634 133.065 96.8492 132.9C96.1664 132.9 95.512 132.897 94.8575 132.9C94.5628 132.9 94.1889 132.9 93.7865 132.9V132.903Z" fill="url(#paint16_linear_1921_8722)"/>
</g>
<defs>
<filter id="filter0_d_1921_8722" x="0.856727" y="0" width="178.589" height="177.287" filterUnits="userSpaceOnUse" color-interpolation-filters="sRGB">
<feFlood flood-opacity="0" result="BackgroundImageFix"/>
<feColorMatrix in="SourceAlpha" type="matrix" values="0 0 0 0 0 0 0 0 0 0 0 0 0 0 0 0 0 0 127 0" result="hardAlpha"/>
<feOffset dy="1.14327"/>
<feGaussianBlur stdDeviation="0.571636"/>
<feComposite in2="hardAlpha" operator="out"/>
<feColorMatrix type="matrix" values="0 0 0 0 0 0 0 0 0 0 0 0 0 0 0 0 0 0 0.25 0"/>
<feBlend mode="normal" in2="BackgroundImageFix" result="effect1_dropShadow_1921_8722"/>
<feBlend mode="normal" in="SourceGraphic" in2="effect1_dropShadow_1921_8722" result="shape"/>
</filter>
<linearGradient id="paint0_linear_1921_8722" x1="46.2344" y1="43.2627" x2="76.8502" y2="12.6469" gradientUnits="userSpaceOnUse">
<stop stop-color="white" stop-opacity="0.45"/>
<stop offset="0.38" stop-color="white" stop-opacity="0"/>
</linearGradient>
<linearGradient id="paint1_linear_1921_8722" x1="97.132" y1="43.5866" x2="170.565" y2="43.5866" gradientUnits="userSpaceOnUse">
<stop offset="0.59" stop-opacity="0"/>
<stop offset="1" stop-opacity="0.35"/>
</linearGradient>
<linearGradient id="paint2_linear_1921_8722" x1="119.614" y1="31.6195" x2="172.12" y2="31.6195" gradientUnits="userSpaceOnUse">
<stop offset="0.59" stop-opacity="0"/>
<stop offset="1" stop-opacity="0.35"/>
</linearGradient>
<linearGradient id="paint3_linear_1921_8722" x1="143.708" y1="19.8058" x2="172.119" y2="19.8058" gradientUnits="userSpaceOnUse">
<stop offset="0.59" stop-opacity="0"/>
<stop offset="1" stop-opacity="0.35"/>
</linearGradient>
<linearGradient id="paint4_linear_1921_8722" x1="95.3741" y1="67.7362" x2="123.467" y2="67.7362" gradientUnits="userSpaceOnUse">
<stop offset="0.59" stop-opacity="0"/>
<stop offset="1" stop-opacity="0.35"/>
</linearGradient>
<linearGradient id="paint5_linear_1921_8722" x1="95.3741" y1="55.9226" x2="147.562" y2="55.9226" gradientUnits="userSpaceOnUse">
<stop offset="0.59" stop-opacity="0"/>
<stop offset="1" stop-opacity="0.35"/>
</linearGradient>
<linearGradient id="paint6_linear_1921_8722" x1="97.132" y1="43.5866" x2="170.565" y2="43.5866" gradientUnits="userSpaceOnUse">
<stop stop-color="#30B5AB" stop-opacity="0.6"/>
<stop offset="0.64" stop-color="#30B5AB" stop-opacity="0"/>
</linearGradient>
<linearGradient id="paint7_linear_1921_8722" x1="119.614" y1="31.6195" x2="172.12" y2="31.6195" gradientUnits="userSpaceOnUse">
<stop stop-color="#30B5AB" stop-opacity="0.6"/>
<stop offset="0.64" stop-color="#30B5AB" stop-opacity="0"/>
</linearGradient>
<linearGradient id="paint8_linear_1921_8722" x1="143.708" y1="19.8058" x2="172.119" y2="19.8058" gradientUnits="userSpaceOnUse">
<stop stop-color="#30B5AB" stop-opacity="0.6"/>
<stop offset="0.64" stop-color="#30B5AB" stop-opacity="0"/>
</linearGradient>
<linearGradient id="paint9_linear_1921_8722" x1="95.3741" y1="67.7362" x2="123.467" y2="67.7362" gradientUnits="userSpaceOnUse">
<stop stop-color="#30B5AB" stop-opacity="0.6"/>
<stop offset="0.64" stop-color="#30B5AB" stop-opacity="0"/>
</linearGradient>
<linearGradient id="paint10_linear_1921_8722" x1="95.3741" y1="55.9226" x2="147.562" y2="55.9226" gradientUnits="userSpaceOnUse">
<stop stop-color="#30B5AB" stop-opacity="0.6"/>
<stop offset="0.64" stop-color="#30B5AB" stop-opacity="0"/>
</linearGradient>
<linearGradient id="paint11_linear_1921_8722" x1="1.99718" y1="131.578" x2="90.0624" y2="131.578" gradientUnits="userSpaceOnUse">
<stop offset="0.5" stop-color="white" stop-opacity="0.45"/>
<stop offset="1" stop-color="white" stop-opacity="0"/>
</linearGradient>
<linearGradient id="paint12_linear_1921_8722" x1="14.0987" y1="142.273" x2="77.9621" y2="142.273" gradientUnits="userSpaceOnUse">
<stop stop-color="white" stop-opacity="0.35"/>
<stop offset="0.38" stop-color="white" stop-opacity="0"/>
</linearGradient>
<linearGradient id="paint13_linear_1921_8722" x1="14.0987" y1="142.273" x2="77.9621" y2="142.273" gradientUnits="userSpaceOnUse">
<stop offset="0.59" stop-opacity="0"/>
<stop offset="1" stop-opacity="0.35"/>
</linearGradient>
<linearGradient id="paint14_linear_1921_8722" x1="2.65444" y1="49.9525" x2="77.0955" y2="49.9525" gradientUnits="userSpaceOnUse">
<stop offset="0.59" stop-opacity="0"/>
<stop offset="1" stop-opacity="0.25"/>
</linearGradient>
<linearGradient id="paint15_linear_1921_8722" x1="90.1504" y1="130.923" x2="178.303" y2="130.923" gradientUnits="userSpaceOnUse">
<stop offset="0.7" stop-color="white" stop-opacity="0"/>
<stop offset="1" stop-color="white" stop-opacity="0.25"/>
</linearGradient>
<linearGradient id="paint16_linear_1921_8722" x1="92.1122" y1="143.006" x2="146.962" y2="143.006" gradientUnits="userSpaceOnUse">
<stop offset="0.59" stop-opacity="0"/>
<stop offset="1" stop-opacity="0.25"/>
</linearGradient>
</defs>
</svg>
