<svg width="69" height="56" viewBox="0 0 69 56" fill="none" xmlns="http://www.w3.org/2000/svg">
<path d="M64.3105 7.5332C54.6828 8.6919 47.2199 16.881 47.2197 26.8066C47.2197 28.102 48.2515 29.1338 49.5469 29.1338H66.8311V52.6377H43.3281V26.8066C43.3283 14.7487 52.5448 4.79918 64.3105 3.62988V7.5332ZM24.5029 7.53516C20.1174 8.07203 16.0399 10.0903 12.9502 13.2617L12.6338 13.5947C9.2973 17.1855 7.44132 21.905 7.43848 26.8066L7.4502 27.0469C7.56842 28.2274 8.55133 29.1338 9.76562 29.1338H27.0508V52.6377H3.54688V26.8066C3.54702 14.7488 12.763 4.80013 24.5029 3.62988V7.53516Z" stroke="#235D89" stroke-width="2"/>
</svg>
