<svg width="69" height="56" viewBox="0 0 69 56" fill="none" xmlns="http://www.w3.org/2000/svg">
<path d="M4.68945 48.1973C14.3172 47.0386 21.7801 38.8495 21.7803 28.9238C21.7803 27.6285 20.7485 26.5967 19.4531 26.5967H2.16895V3.09277H25.6719V28.9238C25.6717 40.9818 16.4552 50.9313 4.68945 52.1006V48.1973ZM44.4971 48.1953C48.8826 47.6584 52.9601 45.6401 56.0498 42.4688L56.3662 42.1357C59.7027 38.545 61.5587 33.8254 61.5615 28.9238L61.5498 28.6836C61.4316 27.5031 60.4487 26.5967 59.2344 26.5967H41.9492V3.09277H65.4531V28.9238C65.453 40.9816 56.237 50.9303 44.4971 52.1006V48.1953Z" stroke="#235D89" stroke-width="2"/>
</svg>
