<svg width="216" height="23" viewBox="0 0 216 23" fill="none" xmlns="http://www.w3.org/2000/svg">
<path d="M207.808 17.1304H216.002V22.5825H202.355V5.48431C202.355 2.45181 204.775 0 207.808 0V17.1304Z" fill="white"/>
<path d="M198.311 0H200.183V22.5825H194.73V3.61319C194.73 1.61303 196.311 0 198.311 0Z" fill="white"/>
<path d="M182.409 0H192.668V7.19413H187.216V5.48431H182.409V8.90394H192.668V17.1304C192.668 20.1629 190.216 22.5825 187.216 22.5825H176.957V15.7432H182.409V17.1304H187.216V14.3883H182.409C179.377 14.3883 176.957 11.9364 176.957 8.90394V5.48431C176.957 2.45181 179.377 0 182.409 0Z" fill="white"/>
<path d="M169.642 0C172.642 0 175.094 2.45181 175.094 5.48431V22.5825H169.642V14.3883H164.835V22.5825H159.383V0H169.642ZM164.835 8.90394H169.642V5.48431H164.835V8.90394Z" fill="white"/>
<path d="M152.714 22.5825L149.262 14.3883H146.972V22.5825H141.52V0H150.391C153.424 0 155.876 2.45181 155.876 5.48431V8.90394C155.876 10.4847 155.198 11.9042 154.166 12.872L158.327 22.5825H152.714ZM146.972 5.48431V8.90394H150.391V5.48431H146.972Z" fill="white"/>
<path d="M138.003 10.3557C139.1 11.3558 139.777 12.7752 139.777 14.3883V17.1304C139.777 20.1629 137.326 22.5825 134.325 22.5825H124.066V0H132.938C135.971 0 138.422 2.45181 138.422 5.48431V8.22647C138.422 8.96846 138.261 9.6782 138.003 10.3557ZM129.518 5.48431V8.90394H132.938V5.48431H129.518ZM129.518 17.1304H134.325V14.3883H129.518V17.1304Z" fill="white"/>
<path d="M106.442 0C109.443 0 111.895 2.45181 111.895 5.48431V22.5825H106.442V14.3883H101.636V22.5825H96.1836V0H106.442ZM101.636 8.90394H106.442V5.48431H101.636V8.90394Z" fill="white"/>
<path d="M91.3412 5.48431H84.4052V8.90394H89.8895V14.3883H84.4052V17.1304H94.6641V22.5825H78.9531V0H94.6641V2.16146C94.6641 4.00032 93.1801 5.48431 91.3412 5.48431Z" fill="white"/>
<path d="M71.2198 0H76.6719V22.5825H71.2198L66.413 12.0655V22.5825H60.9609V0C64.2838 0 67.3163 1.9679 68.6712 5.0004L71.2198 10.5492V0Z" fill="white"/>
<path d="M53.3605 0C56.3607 0 58.8125 2.45181 58.8125 5.48431V22.5825H53.3605V14.3883H48.5536V22.5825H43.1016V0H53.3605ZM48.5536 8.90394H53.3605V5.48431H48.5536V8.90394Z" fill="white"/>
<path d="M30.7138 0H40.9727V7.19413H35.5206V5.48431H30.7138V8.90394H40.9727V17.1304C40.9727 20.1629 38.5208 22.5825 35.5206 22.5825H25.2617V15.7432H30.7138V17.1304H35.5206V14.3883H30.7138C27.6813 14.3883 25.2617 11.9364 25.2617 8.90394V5.48431C25.2617 2.45181 27.6813 0 30.7138 0Z" fill="white"/>
<path d="M11.2684 0H13.1396V22.5825H7.6875V3.61319C7.6875 1.61303 9.26827 0 11.2684 0Z" fill="white"/>
<path d="M3.58093 0H5.45205V22.5825H0V3.61319C0 1.61303 1.58077 0 3.58093 0Z" fill="white"/>
</svg>
