<svg width="559" height="277" viewBox="0 0 559 277" fill="none" xmlns="http://www.w3.org/2000/svg">
<path d="M30.2743 157.592C25.8822 157.592 21.0717 157.32 15.843 156.782C10.6274 156.257 6.09799 155.604 2.24835 154.807V142.625C11.8692 144.081 19.7711 144.803 25.9606 144.803C30.3527 144.803 33.8886 144.474 36.5749 143.816C39.2546 143.157 41.4899 141.891 43.2676 140.017C44.9212 138.434 46.0193 135.939 46.5617 132.546C47.1173 129.152 47.3983 124.53 47.3983 118.667C47.3983 110.684 47.15 105.232 46.6663 102.307C46.1957 99.3695 45.0977 97.2675 43.3722 96.0013C41.6598 94.735 38.4049 93.6397 33.5945 92.709L14.013 88.9102C9.88228 88.1188 6.78426 86.327 4.73199 83.5412C2.67318 80.7428 1.366 77.1466 0.810451 72.7526C0.267971 68.346 0 62.4199 0 54.9742C0 41.3998 2.49671 31.6876 7.50321 25.8248C12.5228 19.9683 20.8691 17.0369 32.5488 17.0369C37.9147 17.0369 42.9343 17.3408 47.6075 17.9486C52.2741 18.5437 55.5682 19.1642 57.4898 19.8227V31.8015C55.1499 31.2824 51.9865 30.8138 47.9996 30.4086C44.0258 30.0034 40.1108 29.8008 36.2612 29.8008C31.1697 29.8008 27.1763 30.3073 24.2874 31.3204C21.4116 32.3207 19.2221 33.8782 17.7254 36.0055C16.3463 38.1329 15.4509 40.6654 15.0326 43.6031C14.6143 46.5282 14.4051 50.3144 14.4051 54.9742C14.4051 61.2233 14.6469 65.7502 15.1371 68.5486C15.6208 71.3344 16.5097 73.2971 17.8038 74.4241C19.111 75.5574 21.3462 76.3931 24.5227 76.9313L42.0389 80.5275C46.9866 81.5912 50.8297 83.0284 53.5682 84.8328C56.3198 86.6246 58.4571 89.7839 59.9734 94.3045C60.7904 96.1659 61.3067 98.7554 61.5159 102.079C61.725 105.41 61.8296 110.202 61.8296 116.464C61.8296 126.715 60.9276 134.736 59.1368 140.523C57.359 146.316 54.2283 150.615 49.7513 153.414C45.2872 156.2 38.7971 157.592 30.2743 157.592Z" fill="#235D89"/>
<path d="M134.169 155.996L126.116 117.856H93.1493L85.3063 155.996H70.875L99.9467 18.6318H119.737L148.6 155.996H134.169ZM110.247 36.9927H109.018L95.2147 105.472H124.051L110.247 36.9927Z" fill="#235D89"/>
<path d="M215.769 155.997L178.044 53.7583H177.234V155.997H163.43V18.6321H178.044L215.142 118.667H216.187V18.6321H229.782V155.997H215.769Z" fill="#235D89"/>
<path d="M252.871 155.997V18.6321H306.858V31.396H267.276V80.122H301.916V92.9113H267.276V143.207H306.858V155.997H252.871Z" fill="#235D89"/>
<path d="M379.204 155.997L371.152 117.857H338.184L330.341 155.997H315.91L344.982 18.6321H364.773L393.635 155.997H379.204ZM355.282 36.9929H354.054L340.25 105.473H369.086L355.282 36.9929Z" fill="#235D89"/>
<path d="M228.205 267.316H258.113V275.775H218.793V265.847C218.793 257.743 218.924 252.038 219.185 248.727C219.46 245.422 220.192 242.712 221.381 240.598C222.564 238.47 224.656 236.394 227.656 234.368L242.27 224.314C244.812 222.642 246.518 220.686 247.394 218.438C248.263 216.197 248.701 212.689 248.701 207.928C248.701 203.42 248.348 200.071 247.655 197.874C246.976 195.664 245.786 194.164 244.1 193.366C242.427 192.575 239.865 192.176 236.414 192.176C231.95 192.176 226.44 192.575 219.891 193.366V185.566C222.067 185.047 224.924 184.603 228.466 184.249C232.022 183.894 235.348 183.717 238.453 183.717C242.825 183.717 246.374 184.211 249.093 185.186C251.825 186.148 254.015 188.314 255.655 191.669C257.289 195.012 258.113 200.039 258.113 206.738C258.113 211.853 257.773 215.931 257.093 218.97C256.414 222.009 255.381 224.415 254.008 226.188C252.649 227.948 250.74 229.657 248.283 231.329L232.858 241.915C231.133 242.978 229.904 244.39 229.172 246.144C228.714 247.296 228.44 248.866 228.335 250.855C228.244 252.83 228.205 256.242 228.205 261.086V267.316Z" fill="#235D89"/>
<path d="M289.916 276.838C283.184 276.838 278.386 275.648 275.511 273.267C272.648 270.887 270.811 266.677 269.994 260.63C269.171 254.59 268.766 244.466 268.766 230.265C268.766 216.07 269.171 205.953 269.994 199.925C270.811 193.885 272.648 189.668 275.511 187.288C278.386 184.907 283.184 183.717 289.916 183.717C297.027 183.717 302.007 184.907 304.87 187.288C307.746 189.668 309.523 193.746 310.203 199.52C310.883 205.294 311.223 215.545 311.223 230.265C311.223 244.466 310.811 254.59 309.994 260.63C309.171 266.677 307.327 270.887 304.452 273.267C301.589 275.648 296.746 276.838 289.916 276.838ZM289.916 268.38C293.922 268.38 296.674 267.696 298.177 266.328C299.674 264.961 300.674 261.814 301.184 256.882C301.687 251.937 301.942 243.067 301.942 230.265C301.942 217.488 301.687 208.631 301.184 203.699C300.674 198.754 299.674 195.595 298.177 194.227C296.674 192.859 293.922 192.176 289.916 192.176C286.007 192.176 283.301 192.859 281.785 194.227C280.282 195.595 279.282 198.754 278.779 203.699C278.288 208.631 278.047 217.488 278.047 230.265C278.047 243.067 278.288 251.937 278.779 256.882C279.282 261.814 280.282 264.961 281.785 266.328C283.301 267.696 286.007 268.38 289.916 268.38Z" fill="#235D89"/>
<path d="M331.279 267.316H361.187V275.775H321.867V265.847C321.867 257.743 321.998 252.038 322.259 248.727C322.534 245.422 323.266 242.712 324.455 240.598C325.638 238.47 327.73 236.394 330.73 234.368L345.344 224.314C347.887 222.642 349.592 220.686 350.468 218.438C351.338 216.197 351.775 212.689 351.775 207.928C351.775 203.42 351.423 200.071 350.73 197.874C350.05 195.664 348.86 194.164 347.174 193.366C345.501 192.575 342.939 192.176 339.488 192.176C335.024 192.176 329.514 192.575 322.965 193.366V185.566C325.142 185.047 327.998 184.603 331.54 184.249C335.096 183.894 338.423 183.717 341.527 183.717C345.9 183.717 349.449 184.211 352.168 185.186C354.9 186.148 357.089 188.314 358.73 191.669C360.364 195.012 361.187 200.039 361.187 206.738C361.187 211.853 360.847 215.931 360.168 218.97C359.488 222.009 358.455 224.415 357.083 226.188C355.723 227.948 353.815 229.657 351.357 231.329L335.932 241.915C334.207 242.978 332.978 244.39 332.246 246.144C331.789 247.296 331.514 248.866 331.41 250.855C331.318 252.83 331.279 256.242 331.279 261.086V267.316Z" fill="#235D89"/>
<path d="M371.68 267.037C377.778 267.937 382.876 268.38 386.974 268.38C391.065 268.38 394.117 267.81 396.124 266.658C398.124 265.512 399.496 263.612 400.228 260.959C400.961 258.313 401.327 254.299 401.327 248.93C401.327 243.105 400.961 238.939 400.228 236.419C399.496 233.906 398.098 232.234 396.046 231.405C394.006 230.563 390.621 230.138 385.902 230.138C382.255 230.138 377.699 230.67 372.229 231.734V184.781H407.052V193.239H381.248V222.743C383.706 222.034 387.163 221.68 391.627 221.68C396.993 221.68 401.065 222.629 403.836 224.516C406.621 226.409 408.49 229.189 409.431 232.848C410.385 236.514 410.869 241.427 410.869 247.588C410.869 255.185 410.274 261.035 409.091 265.138C407.921 269.228 405.784 272.197 402.686 274.053C399.581 275.908 395.078 276.838 389.17 276.838C386.621 276.838 383.712 276.636 380.438 276.231C377.157 275.838 374.242 275.382 371.68 274.838V267.037Z" fill="#235D89"/>
<path d="M557.484 276.277H427.969V226.311H448.491V254.219H481.798V229.78H502.321V254.219H536.961V226.311H557.484V276.277Z" fill="#235D89"/>
<path d="M557.484 169.247L508.36 182.366V183.835L557.484 197.13V219.569L492.334 198.776L427.969 219.214V196.219L475.21 183.277V182.011L427.969 168.867V146.454L491.602 166.867L557.484 146.074V169.247Z" fill="#235D89"/>
<path d="M427.969 136.591V102.858C427.969 94.7221 429.603 88.587 432.858 84.4463C436.119 80.312 440.799 77.5768 446.897 76.2409C452.982 74.9114 461.165 74.2402 471.446 74.2402C481.367 74.2402 489.374 74.886 495.471 76.165C501.556 77.4312 506.36 80.1347 509.877 84.2691C513.38 88.4098 515.131 94.6018 515.131 102.858V114.533H557.484V136.591H427.969ZM494.609 106.505C494.609 103.352 494.021 101.072 492.831 99.6669C491.628 98.2676 489.524 97.3559 486.504 96.9317C483.491 96.5139 478.472 96.2986 471.446 96.2986C464.426 96.2986 459.406 96.5139 456.387 96.9317C453.374 97.3559 451.308 98.2676 450.191 99.6669C449.06 101.072 448.491 103.352 448.491 106.505V114.533H494.609V106.505Z" fill="#235D89"/>
<path d="M559.001 32.847C559.001 43.4203 557.119 50.9229 553.354 55.3612C549.589 59.8058 543.472 62.6042 535.001 63.7692C526.518 64.9215 512.426 65.4913 492.727 65.4913C473.015 65.4913 458.923 64.9215 450.453 63.7692C441.982 62.6042 435.865 59.8058 432.1 55.3612C428.335 50.9229 426.453 43.4203 426.453 32.847C426.453 22.261 428.335 14.7267 432.1 10.2314C435.865 5.72353 441.982 2.89975 450.453 1.74745C458.923 0.582483 473.015 0 492.727 0C512.426 0 526.518 0.582483 535.001 1.74745C543.472 2.89975 549.589 5.72353 553.354 10.2314C557.119 14.7267 559.001 22.261 559.001 32.847ZM538.478 32.847C538.478 29.2001 537.733 26.7119 536.23 25.376C534.714 24.0274 531.014 23.141 525.119 22.7168C519.211 22.299 508.413 22.0837 492.727 22.0837C477.041 22.0837 466.257 22.299 460.361 22.7168C454.453 23.141 450.754 24.0274 449.25 25.376C447.734 26.7119 446.976 29.2001 446.976 32.847C446.976 36.4938 447.734 38.963 449.25 40.242C450.754 41.5082 454.479 42.3883 460.44 42.8758C466.401 43.3506 477.165 43.5849 492.727 43.5849C508.296 43.5849 519.054 43.3506 525.014 42.8758C530.975 42.3883 534.714 41.5082 536.23 40.242C537.733 38.963 538.478 36.4938 538.478 32.847Z" fill="#235D89"/>
</svg>
